<?xml version="1.0" encoding="utf-8"?>
<!-- Generator: Adobe Illustrator 24.3.0, SVG Export Plug-In . SVG Version: 6.00 Build 0)  -->
<svg version="1.1" id="Layer_1" xmlns="http://www.w3.org/2000/svg" xmlns:xlink="http://www.w3.org/1999/xlink" x="0px" y="0px"
	 viewBox="0 0 400 300" style="enable-background:new 0 0 400 300;" xml:space="preserve">
<style type="text/css">
	.st0{fill:none;stroke:#000000;stroke-miterlimit:10;}
	.st1{fill:#4C5760;}
	.st2{fill:#FFFFFF;stroke:#4C5760;stroke-miterlimit:10;}
	.st3{fill:#FFFFFF;stroke:#051D49;stroke-width:0.25;stroke-miterlimit:10;}
	.st4{fill:#FFFFFF;}
</style>
<path class="st0" d="M237,165"/>
<path class="st0" d="M239.1,158.9"/>
<g>
	<path class="st1" d="M318.7,121.1c0,0,14.6-4.6,20,14.1c8.1,27.9-68.3,17.9-86.2,41.3c-107.6,121.1-190.4-16.1-189.8-22
		c0.5-5.3,72.5,32.3,154.9-2C249.1,139.3,318.7,121.1,318.7,121.1z"/>
	<path class="st2" d="M326.5,125.9c5.1,29.8-37.3,10.4-71.1,32.6c-95,62.5-175.7,34.6-200-13.4c-12.7-25.2,2.7-71.4,30.8-80.2
		c23.5-7.3,57.5,11.2,57.8,29.8c0.3,18.4-38.1,40.7-40.1,30.8c-5-25,22.1-29.2,6.4-38.1c-33.8,0-40.1,31-33.4,46.9
		c6.2,5.7,33.1-37.4,82.9-38.6c36.8-0.8,45.3,26.6,96.9,32.6C295.2,132.8,324.1,112.1,326.5,125.9z"/>
	<path class="st1" d="M138.1,153c25.7,6.2,54.5-9,53.4-15.7c-0.9-5.9-25.3-6.4-36.2-5.8c-13.9,0.7-35.4,4.3-35.8,10.5
		C119.2,146.5,130.6,151.2,138.1,153z"/>
	<path class="st1" d="M283.3,138.5c0.3,1.1,5.3,0.6,6.4,0.5c0.7-0.1,6.5-0.7,6.5-1.9c0-1-3.8-2.5-7.4-2
		C285.9,135.6,283.1,137.6,283.3,138.5z"/>
	<path class="st1" d="M288.5,137.1c11.4-0.3,13.8-13.2,11.9-24.5c-3.4-11.6-2.5-8.4-8.8-23c-4.7-10.8-3.1-21.2-4.1-21.2
		c-1,0,0.4,10-3.8,21.7c-4.4,12.2-5.7,13.7-7.2,22.1C274.5,123.8,277.6,137.4,288.5,137.1z"/>
	<path class="st3" d="M105.9,111.2"/>
</g>
<path class="st4" d="M109.6,104c-1.7,2-3.8,5.8-5.1,9.2c-1,2.5-1,4.5,0,6.2c1,0.4,29.5-5.6,38-20.6c1.4-2.5,1.4-2.9,0-5
	C139.5,89.4,119.5,92.6,109.6,104z"/>
</svg>
