<svg id="Layer_6" data-name="Layer 6" xmlns="http://www.w3.org/2000/svg" xmlns:xlink="http://www.w3.org/1999/xlink" viewBox="0 0 247.04 232.89"><defs><style>.cls-1,.cls-4{fill:#fff;}.cls-1{stroke:#000;stroke-miterlimit:10;stroke-width:7px;}.cls-2{fill:url(#radial-gradient);}.cls-3{fill:url(#radial-gradient-2);}</style><radialGradient id="radial-gradient" cx="68.6" cy="183.7" r="33.34" gradientTransform="matrix(1, 0.04, -0.07, 1.56, 12.48, -104.95)" gradientUnits="userSpaceOnUse"><stop offset="0" stop-color="#e9bd00"/><stop offset="0.74" stop-color="#076163"/><stop offset="0.96" stop-color="#005e66"/></radialGradient><radialGradient id="radial-gradient-2" cx="182.18" cy="183.7" r="33.21" gradientTransform="matrix(0.02, 1, -1.57, 0.03, 465.89, -4.6)" xlink:href="#radial-gradient"/></defs><ellipse class="cls-1" cx="62.85" cy="154.37" rx="54.84" ry="88.99" transform="translate(-34.16 5.23) rotate(-12.84)"/><ellipse class="cls-2" cx="68.6" cy="183.7" rx="31.75" ry="51.95" transform="translate(-40.53 7.24) rotate(-12.84)"/><ellipse cx="68.6" cy="183.7" rx="18.81" ry="30.79" transform="translate(-40.53 7.24) rotate(-12.84)"/><ellipse class="cls-1" cx="187.93" cy="154.37" rx="88.99" ry="54.84" transform="translate(-5.77 290.68) rotate(-77.16)"/><ellipse class="cls-3" cx="182.18" cy="183.7" rx="51.95" ry="31.75" transform="translate(-38.84 307.88) rotate(-77.16)"/><ellipse cx="182.18" cy="183.7" rx="30.79" ry="18.81" transform="translate(-38.84 307.88) rotate(-77.16)"/><path class="cls-4" d="M63.4,176.32c-1.51-.3,2.64-16.72,2.74-28.68,3.45,1.44,9.94,1.93,10.67,3.17C75.56,157.24,64.91,176.63,63.4,176.32Z" transform="translate(-1.42 -12.61)"/><path class="cls-4" d="M188.47,176.32c-1.51-.3,2.64-16.72,2.74-28.68,3.45,1.44,9.95,1.93,10.67,3.17C200.64,157.24,190,176.63,188.47,176.32Z" transform="translate(-1.42 -12.61)"/><path d="M43,31.66c19.92-6.4,54,24.79,53.47,22.55S72.61,3.51,39.06,14.12c-31.69,10-38,60.4-37.63,62.65S22.17,38.36,43,31.66Z" transform="translate(-1.42 -12.61)"/><path d="M206.4,31.66c-19.93-6.4-54,24.79-53.48,22.55s23.88-50.7,57.44-40.09c31.69,10,38,60.4,37.63,62.65S227.24,38.36,206.4,31.66Z" transform="translate(-1.42 -12.61)"/></svg>