<svg xmlns="http://www.w3.org/2000/svg" viewBox="0 0 205.16 236.39"><defs><style>.cls-1{fill:#e8bb89;}.cls-2{fill:#fcdab6;}</style></defs><g id="Layer_4" data-name="Layer 4"><path class="cls-1" d="M231.5,103.5c10.1,11.27,5.83,23.47-30,57-23.39,21.89-15,35-49,63-10.61,8.74-31.43,17.35-56,17-58.45-.83-70-48-64-104,2.57-24-3.81-72.45,1-88,3.08-9.94,13.53-19.91,28-15,4-25,24-22,33-18,9.27-17.07,36-14,40,3,10.8-7.08,32.34-5.77,34,21,0,0,0,85,1,88C168.51,123.66,202.5,81.5,231.5,103.5Z" transform="translate(-31.08 -4.12)"/></g><g id="Layer_5" data-name="Layer 5"><path class="cls-2" d="M73.5,227.5c-30.9-10.62-41.18-41.85-35-103v-70c3.53-11.89,16-16.6,23-11l2,68,5,7,1-86c0-7,18.64-18.21,25-7v86l6,7v-98c4.57-14,25.59-12.29,28-1v92c.24.41,6,7,6,7l1-92c10.38-7,23.3,2.26,24,10v96c-58.5,3.48-63,52-60,59,1.65,3.85-8-12,22-37,14.21-11.84,28.92-11.38,42-14,10-2,6-6,26-25,9.26-8.8,20.19-14.68,32-8,4.53,2.56,2.22,13-7,24-9.6,11.49-26.35,23.78-34,35-19.11,28-11,22-28,40C135.14,224.88,101.26,237,73.5,227.5Z" transform="translate(-31.08 -4.12)"/></g></svg>