<svg xmlns="http://www.w3.org/2000/svg" xmlns:xlink="http://www.w3.org/1999/xlink" viewBox="0 0 393.9 479.26"><defs><style>.cls-1{fill:#663815;}.cls-2{fill:#603813;}.cls-3{fill:#754c28;}.cls-4{fill:url(#radial-gradient);}.cls-5{fill:#eb6534;}.cls-6{fill:#f3dec2;}.cls-15,.cls-7{fill:none;stroke-miterlimit:10;}.cls-7{stroke:#404041;stroke-width:3px;}.cls-8{fill:#be1e2d;}.cls-9{fill:#edcca4;}.cls-10{fill:#ecc5a1;}.cls-11{fill:#231f20;}.cls-12{fill:#fff;}.cls-13{fill:url(#radial-gradient-2);}.cls-14{fill:url(#radial-gradient-3);}.cls-15{stroke:#3b2314;stroke-width:0.5px;}.cls-16{fill:#e6e7e8;}.cls-17{fill:#d0d2d3;}.cls-18{fill:#f497aa;}.cls-19{fill:#c3996b;}.cls-20{fill:#8a5d3b;}.cls-21{fill:url(#radial-gradient-4);}.cls-22{fill:url(#radial-gradient-5);}</style><radialGradient id="radial-gradient" cx="240.78" cy="211.56" fy="169.907154866907" r="49.49" gradientUnits="userSpaceOnUse"><stop offset="0.4" stop-color="#ecc5a1"/><stop offset="0.6" stop-color="#f3dec2"/></radialGradient><radialGradient id="radial-gradient-2" cx="255.52" cy="113.26" r="5.51" gradientTransform="translate(-17.57) scale(0.91 1)" gradientUnits="userSpaceOnUse"><stop offset="0.47" stop-color="#facb18"/><stop offset="0.65" stop-color="#facb18"/><stop offset="0.83" stop-color="#046180" stop-opacity="0.96"/><stop offset="1" stop-color="#2483c5"/></radialGradient><radialGradient id="radial-gradient-3" cx="-748.43" cy="111.63" r="5.51" gradientTransform="matrix(-0.91, 0, 0, 1, -415.5, 0)" xlink:href="#radial-gradient-2"/><radialGradient id="radial-gradient-4" cx="264.28" cy="24.36" r="10.6" gradientTransform="translate(-140.48 74.38) scale(1.3 1.3)" gradientUnits="userSpaceOnUse"><stop offset="0" stop-color="#f6b7d2" stop-opacity="0.4"/><stop offset="1" stop-color="#f3dec2" stop-opacity="0.4"/></radialGradient><radialGradient id="radial-gradient-5" cx="316.08" cy="23.15" r="10.6" xlink:href="#radial-gradient-4"/></defs><g id="Layer_1" data-name="Layer 1"><path class="cls-1" d="M279.41,166.83c-.52-3.43-1.09-6.79-1.69-10.1-.4-3.58-.9-7.08-1.54-10.47s-1.37-6.42-2.18-9.4l-.07-.35c-1.07-5.33-1.89-11.15-3.22-16-2-7.35-2.56-7.41-4-10.94a43.93,43.93,0,0,0-7-12C251.32,86.88,245,96,246.88,96.2c2.87.32,14.32,28.39,17.78,38.35a221.45,221.45,0,0,1,9.09,38.11c2.25,14.36,1.74,32.17,1.73,47.55a480.3,480.3,0,0,1-2.1,48.47c-1.1,10.64,8.15-31.64,8.13-50.09C281.5,201.43,281.83,182.9,279.41,166.83ZM265,112.73c1.3,3.17,1.73,7.81,3.84,8.7-.22-.55-.43-1.1-.65-1.64-.28-.7-.57-1.37-.86-2.06-1.5-4.34-2.46-10.73-4.75-12.8C263.82,105.71,264.05,110.38,265,112.73Z" transform="translate(-4.1 -44)"/><path class="cls-2" d="M289.15,202.23c-.11-12.62-.15-25.32-1.54-37.8s-4.4-24.07-7.49-35.65c-1.3-4.89-2.81-9.72-5.52-13.22-2.54-3.28-5.76-5.09-8.82-7C264,107.45,256.84,97.67,255.44,96c-2.76-3.34-14.87-4.54-14.37-4.07,2.68,2.51,8.49.51,13,8.23a29.76,29.76,0,0,0,8.17,9.2c2.94,2,6.09,3.51,8.84,6.13,3.08,2.93,4.91,7.27,6.31,12.21a248.15,248.15,0,0,1,7.6,34.11c1.65,12.27,1.8,24.83,1.91,37.3.13,14.24,2.64,44,2.63,42.47Z" transform="translate(-4.1 -44)"/><path class="cls-2" d="M282.79,203.88c-.11-12.61-.14-25.31-1.54-37.79s-4.39-24.07-7.49-35.66c-1.3-4.88-2.8-9.71-5.51-13.22-2.54-3.28-5.76-5.09-8.82-7a30.49,30.49,0,0,1-5.2-3.83c-1.53-1.45-3.25-4.73-4.65-6.43-2.76-3.34-13.45-7.24-13.45-6.36,0,5.21,9.14,5.31,11.54,8.19,2.54,3,5.19,7.14,8.16,9.2s6.09,3.51,8.84,6.13c3.08,2.93,4.92,7.28,6.31,12.22,3.1,11,6,22.4,7.6,34.1,1.65,12.28,1.81,24.84,1.92,37.31.12,14.24,2.64,44,2.63,42.46Z" transform="translate(-4.1 -44)"/><path class="cls-3" d="M213.73,121c.42-.51,21.21.62,29.89,3.73,5.65,2.36,14.35,6.31,20,10.79,0,0-5,.46-4.94.49a79.48,79.48,0,0,1,16.87,15.45c5.06,6.43,6.26,13.42,7.06,20.94.25,2.31.5,4.62.73,6.94,3.56,16.51,4,32.4,3.4,34.9-4.78,21,5.27,53.85,4,51.69-4.95-8.67-5.62-24.6-7.63-43a17.05,17.05,0,0,0-1,7.77c.33,3.69,2.68,13.6,2.64,17.31-.1,8.16-18,34.27-13.88,26.52,3.34-6.34-3.38-28.94-3.77-36.06-.32-5.61-2.19-11.75-.29-17.28a43.49,43.49,0,0,0,2.62-17.65c-.29-6.24-.8-12.46-1.39-18.68-.57-6-.69-12.28-2-18.2-1.4-6.26-6.05-11-11.19-15.5-4.79-4.17-9.68-8.22-16-10.89C206,126.31,213.73,121,213.73,121Z" transform="translate(-4.1 -44)"/><path class="cls-3" d="M287.62,210c-.59-15.3-1-30.68-1.84-45.93-.68-12.26-2-25.25-6.34-34.88-1.12-2.53-2.49-4.58-3.67-7a74.42,74.42,0,0,1-3-8.62,40.17,40.17,0,0,0-7.61-13.36c-7-8.26-24.62-8.59-24.49-7.65a.24.24,0,0,0,0,.08,51.71,51.71,0,0,0-10.63,1.1,23.18,23.18,0,0,0-9.28,3.76c-5.09,3.68-10,12.53-9.18,23.91.06.78-2.51,92.18-1.87,91.66-.87,2.89,1-87,.35-83.86-1.13,5.67-1.11,13-1.92,18.89-1,7.13-2,14.3-2.53,21.62a193.75,193.75,0,0,0-.09,22.35c.32,7.69.48,15.38.39,23.1-.21,17.4-.66,53.6-.5,51.57,1.14-14.67,4.76-27.57,5.17-42.39.2-7.27-2.31-16.39-2.48-23.66s-.69-14.53-.62-21.81a181.16,181.16,0,0,1,1.56-20.83c.79-6.4,1.66-12.78,2.66-19.07,1.74-11,4.19-22.27,9.22-29.11,5.7-7.75,18.79-14,19-15s-11.3,4-17.17,9.25c-3.87,3.43-6.78,9-9,15.57-.58-10.13,7.83-15.29,12.5-18.28,2.65-1.7,1.39-5.14,4.15-5.67a49,49,0,0,1,9.48-.87,1.58,1.58,0,0,0,1.48-1.12,1.45,1.45,0,0,0,.06-.33,1.42,1.42,0,0,0,.49-.1c2.85-1.1,5.45-3,8.3-2.09-9.62-1.59-11.58-5.1-8.35,2.55.2.47,3.81,4.39,5.09,4.62.2.38,1.18.34,1.34.33a13.59,13.59,0,0,1,4.76,2.68c3.16,2.66,5.8,6.92,8.39,11.2A128.27,128.27,0,0,1,274,138.47l.05.2a47.27,47.27,0,0,0,2.33,8.48l.42,1c.31,1.27.61,2.55.89,3.84.53,3.13.93,6.35,1.22,9.68.58,6.65,1.08,13.35,1.56,20,1,13.55,1.69,27.24,1.45,40.94-.26,14.4-1.58,28.88-4.65,42.1-.45,1.95,3.24-5.2,3.72-7.92-.07,2-.13,3.95-.2,5.92-.05,1.72,2.61-11.29,2.84-16.68,0,3.58,0,7.15,0,10.72-.05,4,.57,13.83,1,12.06,1.6-6.56,1.28-14.1,1.29-21.14q0-11.51,0-23,.69,17.47,1.36,35C287.34,261.36,288.25,226.17,287.62,210ZM251,94.59a14.61,14.61,0,0,1,4.38.06c2.86.59,5.32,3.78,7.39,6.82C259.25,97.66,255.25,95,251,94.59Zm31.57,47.2a34.81,34.81,0,0,0-2.71-6.57c-.2-.37-.4-.74-.59-1.11-.22-.81-.46-1.61-.72-2.39-.85-2.54-1.83-5-2.86-7.33a97.49,97.49,0,0,0-3.22-10.06A70.83,70.83,0,0,0,266.71,103a27.42,27.42,0,0,1,3.73,5.91c1,2.15,1.71,4.57,2.84,6.58s2.39,3.39,3.52,5.18c4.06,6.45,5.63,15.22,6.43,23.81C283,143.55,282.79,142.66,282.52,141.79Z" transform="translate(-4.1 -44)"/><path class="cls-3" d="M287.73,211.32c-.59-15.29-1-30.67-1.84-45.93-.68-12.26-2-25.24-6.34-34.87-1.13-2.53-2.49-4.58-3.68-7a77,77,0,0,1-3-8.62,40.07,40.07,0,0,0-7.61-13.36c-7-8.27-24.62-8.6-24.49-7.65a.24.24,0,0,0,0,.08,52.4,52.4,0,0,0-10.63,1.09,23.2,23.2,0,0,0-9.28,3.77c-5.09,3.68-10,12.53-9.18,23.91.06.77-2.51,92.18-1.87,91.66-.88,2.89,1-87,.35-83.86-1.14,5.66-1.11,13-1.92,18.89-1,7.13-2,14.29-2.53,21.62a193.59,193.59,0,0,0-.09,22.34c.32,7.7.48,15.38.39,23.1-.21,17.4-.66,53.61-.5,51.58,1.14-14.67,4.75-27.57,5.17-42.4.2-7.27-2.31-16.38-2.48-23.66s-.69-14.52-.62-21.81a181.15,181.15,0,0,1,1.56-20.82c.79-6.4,1.66-12.79,2.66-19.07,1.74-11,4.19-22.28,9.22-29.11,5.7-7.75,18.79-14,19-15s-11.3,4-17.17,9.25c-3.87,3.43-6.78,9-9,15.56-.57-10.12,7.84-15.29,12.51-18.28,2.65-1.69,1.39-5.13,4.15-5.67a49,49,0,0,1,9.48-.86A1.6,1.6,0,0,0,241.52,95a1.55,1.55,0,0,0,.06-.33,1.63,1.63,0,0,0,.48-.1c2.86-1.1,5.46-2.95,8.31-2.1-9.62-1.59-12-.69-8.35,2.55.32.29,3.81,4.4,5.09,4.62.2.38,1.18.35,1.34.33a13.78,13.78,0,0,1,4.76,2.69c3.16,2.66,5.8,6.92,8.39,11.2a128.44,128.44,0,0,1,12.52,25.89c0,.07,0,.14,0,.21a47.5,47.5,0,0,0,2.34,8.48l.42,1c.31,1.27.61,2.55.89,3.84.53,3.13.93,6.35,1.22,9.67.58,6.66,1.08,13.36,1.56,20.05,1,13.55,1.69,27.24,1.44,40.94-.26,14.39-1.57,28.88-4.64,42.1-.46,1.95,3.24-5.21,3.72-7.93-.07,2-.14,3.95-.2,5.93-.05,1.72,2.61-11.29,2.83-16.68,0,3.57,0,7.15,0,10.72-.05,4,.57,13.83,1,12.05,1.6-6.55,1.28-14.09,1.29-21.13q0-11.5,0-23,.68,17.47,1.36,35C287.45,262.68,288.36,227.49,287.73,211.32ZM251.06,95.91a14.61,14.61,0,0,1,4.38.06c2.86.58,5.31,3.77,7.38,6.81C259.35,99,255.36,96.35,251.06,95.91Zm31.57,47.19a35,35,0,0,0-2.71-6.56l-.6-1.12c-.22-.8-.45-1.6-.71-2.39-.85-2.53-1.83-4.95-2.87-7.32a94.35,94.35,0,0,0-3.21-10.06,70.42,70.42,0,0,0-5.71-11.35,26.54,26.54,0,0,1,3.72,5.91c1,2.15,1.72,4.57,2.85,6.58s2.39,3.39,3.52,5.18c4.06,6.45,5.63,15.22,6.43,23.8C283.13,144.87,282.9,144,282.63,143.1Z" transform="translate(-4.1 -44)"/><path class="cls-3" d="M284.13,213.62c-.59-15.3-1-30.67-1.84-45.93-.68-12.26-2-25.24-6.34-34.87-1.13-2.54-2.49-4.58-3.67-7a75.08,75.08,0,0,1-3-8.62,40.07,40.07,0,0,0-7.61-13.36c-7-8.27-24.62-8.6-24.49-7.65a.24.24,0,0,0,0,.08,52.4,52.4,0,0,0-10.63,1.09,23.32,23.32,0,0,0-9.28,3.76c-5.09,3.69-10,12.54-9.18,23.92.06.77-2.51,92.17-1.87,91.66-.87,2.89,1-87,.35-83.86-1.13,5.66-1.11,13-1.92,18.88-1,7.14-2,14.3-2.53,21.63a193.59,193.59,0,0,0-.09,22.34c.32,7.7.48,15.38.39,23.1-.21,17.4-.66,53.6-.5,51.58,1.14-14.67,4.76-27.57,5.17-42.4.2-7.27-2.31-16.38-2.48-23.66s-.69-14.52-.62-21.81a181.33,181.33,0,0,1,1.56-20.83c.79-6.39,1.66-12.78,2.66-19.07,1.74-11,4.19-22.27,9.22-29.11,5.7-7.75,18.79-14,19-15s-11.3,4-17.17,9.24c-3.87,3.43-6.78,9-9,15.57-.58-10.12,7.83-15.29,12.5-18.28,2.65-1.69,1.39-5.14,4.15-5.67a49,49,0,0,1,9.48-.86,1.61,1.61,0,0,0,1.48-1.12A1.55,1.55,0,0,0,238,97a1.7,1.7,0,0,0,.49-.1c2.85-1.11,5.45-3,8.3-2.1-9.62-1.59-11.58-5.1-8.35,2.55.2.47,3.81,4.4,5.09,4.62.2.38,1.18.35,1.34.33a13.78,13.78,0,0,1,4.76,2.69c3.16,2.66,5.8,6.92,8.39,11.19a128.27,128.27,0,0,1,12.52,25.9,1.55,1.55,0,0,1,0,.21,47.15,47.15,0,0,0,2.34,8.47l.42,1c.31,1.27.61,2.54.89,3.83.53,3.14.93,6.36,1.22,9.68.58,6.66,1.08,13.36,1.56,20.05,1,13.55,1.69,27.24,1.44,40.94-.25,14.39-1.57,28.88-4.64,42.09-.45,1.95,3.24-5.2,3.72-7.92-.07,2-.14,3.95-.2,5.93-.05,1.71,2.61-11.3,2.83-16.68,0,3.57,0,7.15,0,10.72-.05,4,.57,13.83,1,12,1.6-6.55,1.28-14.09,1.29-21.13q0-11.51,0-23,.69,17.48,1.36,34.95C283.85,265,284.76,229.79,284.13,213.62ZM247.46,98.21a14.61,14.61,0,0,1,4.38.06c2.86.58,5.31,3.77,7.38,6.81C255.76,101.27,251.76,98.64,247.46,98.21ZM279,145.4a35,35,0,0,0-2.71-6.56l-.59-1.12c-.22-.8-.46-1.6-.72-2.39-.85-2.53-1.83-5-2.86-7.33a97.31,97.31,0,0,0-3.22-10,70.42,70.42,0,0,0-5.71-11.35,26.94,26.94,0,0,1,3.73,5.91c1,2.15,1.71,4.57,2.84,6.58s2.39,3.39,3.52,5.18c4.06,6.44,5.63,15.22,6.43,23.8C279.53,147.17,279.3,146.28,279,145.4Z" transform="translate(-4.1 -44)"/><path class="cls-2" d="M286.49,205.42c-.59-15.3-1-30.68-1.84-45.93-.68-12.26-2-25.25-6.34-34.88-1.12-2.53-2.49-4.58-3.67-7a43.5,43.5,0,0,1-3-8.62c-1.61-6.6-4.67-9.9-7.61-13.36C257,87.36,239.4,87,239.53,88a.24.24,0,0,0,0,.08,51.71,51.71,0,0,0-10.63,1.1,23.18,23.18,0,0,0-9.28,3.76c-5.09,3.68-10,12.53-9.18,23.91.06.78-2.51,92.18-1.87,91.66-.87,2.89,1-87,.35-83.86-1.13,5.67-1.11,13-1.92,18.89-1,7.13-2,14.3-2.53,21.62a193.75,193.75,0,0,0-.09,22.35c.32,7.69.48,15.38.39,23.1-.21,17.4-.66,53.6-.5,51.57,1.14-14.67,4.76-27.57,5.17-42.39.2-7.28-2.31-16.39-2.48-23.66s-.69-14.53-.62-21.81a181.16,181.16,0,0,1,1.56-20.83c.79-6.4,1.66-12.78,2.66-19.07,1.74-11,4.19-22.27,9.22-29.11,5.7-7.75,18.79-14,19-15s-11.3,4-17.17,9.25c-3.87,3.43-6.78,9-9,15.57-.58-10.13,7.83-15.29,12.5-18.28,2.65-1.7,1.39-5.14,4.15-5.67a49,49,0,0,1,9.48-.87,1.58,1.58,0,0,0,1.48-1.12,1.45,1.45,0,0,0,.06-.33,1.42,1.42,0,0,0,.49-.1s-2.06-.25-.05.46c.36.13,3.81,4.39,5.09,4.62.2.38,1.18.34,1.34.33A13.59,13.59,0,0,1,252,96.78c3.16,2.66,5.8,6.92,8.39,11.2a128.27,128.27,0,0,1,12.52,25.9l.05.2a47.27,47.27,0,0,0,2.33,8.48l.42,1c.31,1.27.61,2.55.89,3.84.53,3.13.93,6.35,1.22,9.68.58,6.65,1.08,13.35,1.56,20,1,13.55,1.69,27.24,1.45,40.94-.26,14.4-1.58,28.88-4.65,42.1-.45,1.95,3.24-5.2,3.72-7.92-.07,2-.13,3.95-.2,5.92-.05,1.72,2.61-11.29,2.84-16.68,0,3.58,0,7.15,0,10.72-.05,4,.57,13.83,1,12.06,1.6-6.56,1.28-14.1,1.29-21.14q0-11.51,0-23,.69,17.48,1.36,34.95C286.21,256.77,287.12,221.58,286.49,205.42Zm-6.81-66.24a34.44,34.44,0,0,0-2.71-6.56l-.6-1.12c-.22-.81-.45-1.6-.71-2.39-.85-2.53-1.83-5-2.87-7.33a95.83,95.83,0,0,0-3.21-10.06,71.67,71.67,0,0,0-5.71-11.35,44.34,44.34,0,0,1,3.72,5.91c1.17,2,1.72,4.57,2.85,6.58s2.38,3.39,3.51,5.18c4.07,6.45,5.64,15.22,6.44,23.81C280.17,141,279.94,140.05,279.68,139.18Z" transform="translate(-4.1 -44)"/><path class="cls-3" d="M284.36,211.32c-.59-15.29-1-30.67-1.84-45.93-.68-12.26-2-25.24-6.34-34.87-1.13-2.53-2.49-4.58-3.68-7a77,77,0,0,1-3-8.62,40.07,40.07,0,0,0-7.61-13.36c-7-8.27-24.62-8.6-24.49-7.65a.24.24,0,0,0,0,.08,52.4,52.4,0,0,0-10.63,1.09,23.2,23.2,0,0,0-9.28,3.77c-5.09,3.68-10,12.53-9.18,23.91.06.77-2.51,92.18-1.87,91.66-.88,2.89,1-87,.35-83.86-1.14,5.66-1.11,13-1.92,18.89-1,7.13-2,14.29-2.53,21.62a193.59,193.59,0,0,0-.09,22.34c.32,7.7.48,15.38.39,23.1-.21,17.4-.66,53.61-.5,51.58,1.14-14.67,4.75-27.57,5.17-42.4.2-7.27-2.31-16.38-2.48-23.66s-.69-14.52-.62-21.81a181.15,181.15,0,0,1,1.56-20.82c.79-6.4,1.66-12.79,2.66-19.07,1.74-11,4.19-22.28,9.22-29.11,5.7-7.75,18.79-14,19-15s-11.3,4-17.17,9.25c-3.87,3.43-6.78,9-9,15.56-.57-10.12,7.84-15.29,12.51-18.28,2.65-1.69,1.39-5.13,4.15-5.67a49,49,0,0,1,9.48-.86A1.6,1.6,0,0,0,238.15,95a1.55,1.55,0,0,0,.06-.33,1.63,1.63,0,0,0,.48-.1c2.86-1.1,5.31-3.72,8.16-2.86-9.62-1.59-8.67-.22-6.87,2.26.28.38,2.48,5.45,3.76,5.67.2.38,1.18.35,1.34.33a13.78,13.78,0,0,1,4.76,2.69c3.16,2.66,5.8,6.92,8.39,11.2a128.44,128.44,0,0,1,12.52,25.89c0,.07,0,.14,0,.21a47.5,47.5,0,0,0,2.34,8.48l.42,1c.31,1.27.61,2.55.89,3.84.53,3.13.93,6.35,1.22,9.67.58,6.66,1.08,13.36,1.56,20.05,1,13.55,1.69,27.24,1.44,40.94-.26,14.39-1.57,28.88-4.64,42.1-.46,1.95,3.24-5.21,3.72-7.93-.07,2-.14,3.95-.2,5.93-.05,1.72,2.61-11.29,2.83-16.68,0,3.57,0,7.15,0,10.72-.05,4,.57,13.83,1,12.05,1.6-6.55,1.28-14.09,1.29-21.13q0-11.5,0-23,.68,17.47,1.36,35C284.08,262.68,285,227.49,284.36,211.32ZM247.69,95.91a14.61,14.61,0,0,1,4.38.06c2.86.58,5.31,3.77,7.38,6.81C256,99,252,96.35,247.69,95.91Zm31.57,47.19a35,35,0,0,0-2.71-6.56l-.6-1.12c-.22-.8-.45-1.6-.71-2.39-.85-2.53-1.83-4.95-2.87-7.32a94.35,94.35,0,0,0-3.21-10.06,70.42,70.42,0,0,0-5.71-11.35,26.54,26.54,0,0,1,3.72,5.91c1,2.15,1.72,4.57,2.85,6.58s2.39,3.39,3.52,5.18c4.06,6.45,5.63,15.22,6.43,23.8C279.76,144.87,279.53,144,279.26,143.1Z" transform="translate(-4.1 -44)"/><path class="cls-3" d="M286.23,207.83c-.59-15.3-1-30.68-1.84-45.93-.68-12.26-2-25.25-6.33-34.88-1.13-2.53-2.5-4.58-3.68-7a76.87,76.87,0,0,1-3-8.61A38.28,38.28,0,0,0,263.76,98c-6.79-7.67-23.59-5.72-24.49-7.65,0,0,0,.06,0,.08a51.71,51.71,0,0,0-10.63,1.1,23.38,23.38,0,0,0-9.28,3.76c-5.09,3.69-10,12.53-9.18,23.91.06.78-.88,4.64-1.52,7.8-1.13,5.67-1.1,13-1.92,18.89-1,7.13-2,14.3-2.52,21.62a193.76,193.76,0,0,0-.1,22.35c.32,7.7.48,15.38.39,23.1-.21,17.4-.66,53.6-.5,51.57,1.15-14.67,4.76-27.57,5.17-42.39.21-7.27-2.3-16.39-2.48-23.66S206,184,206.1,176.7a183.43,183.43,0,0,1,1.56-20.83c.79-6.39,1.67-12.78,2.66-19.07,1.74-11,4.19-22.27,9.22-29.11,5.71-7.75,17.24-14.73,19-15,1.48-.26.44-2,.66-2.85,0-.12,5.13,6.14,6.41,6.37.2.38,1.19.34,1.34.33a13.75,13.75,0,0,1,4.77,2.69c3.15,2.65,5.79,6.91,8.38,11.19a128.27,128.27,0,0,1,12.52,25.9c0,.07,0,.14.05.2A47.27,47.27,0,0,0,275,145c.13.34.27.67.41,1,.31,1.27.61,2.55.89,3.84.53,3.13.93,6.36,1.22,9.68.59,6.66,1.08,13.35,1.56,20,1,13.56,1.7,27.24,1.45,40.94-.26,14.4-1.58,28.89-4.65,42.1-.45,1.95,3.24-5.2,3.73-7.92-.08,2-.14,4-.2,5.92-.06,1.72,2.61-11.29,2.83-16.67,0,3.57,0,7.14,0,10.71,0,4,.57,13.83,1,12.06,1.61-6.55,1.29-14.09,1.29-21.14q0-11.5,0-23l1.35,35C286,259.19,286.86,224,286.23,207.83ZM249.56,92.41a14.61,14.61,0,0,1,4.38.07c2.86.58,8.72,8.36,10.79,11.39C261.26,100.06,253.87,92.85,249.56,92.41Zm31.57,47.2a34.42,34.42,0,0,0-2.7-6.56c-.21-.38-.4-.75-.6-1.12-.22-.81-.45-1.6-.72-2.39-.84-2.53-1.83-4.95-2.86-7.33a95,95,0,0,0-3.22-10c-1.62-4.08-6-9.15-8.21-12.62,1.41,1.71,5.19,4.92,6.23,7.17s1.71,4.57,2.84,6.58,2.39,3.39,3.52,5.18c4.06,6.45,5.64,15.22,6.44,23.81C281.63,141.38,281.4,140.48,281.13,139.61Z" transform="translate(-4.1 -44)"/><path class="cls-3" d="M289.78,215.92c-.64-15.3-1.07-30.67-2-45.93-.72-12.26-2.18-25.24-6.79-34.88-1.21-2.53-2.68-4.58-3.94-7a70.87,70.87,0,0,1-3.22-8.61,39.64,39.64,0,0,0-8.16-13.37c-7.52-8.26-26.41-8.59-26.26-7.64,0,0-.49-.46-.48-.43-3.81,0-7.11.86-10.9,1.6a26.13,26.13,0,0,0-10,3.76c-5.46,3.69-10.77,12.54-9.84,23.91.06.78-2.7,92.18-2,91.67-.93,2.89,1.06-87,.38-83.86-1.22,5.66-1.19,13-2.06,18.88-1.07,7.14-2.13,14.3-2.71,21.63a181,181,0,0,0-.1,22.34c.34,7.7.51,15.38.42,23.1-.23,17.4-.71,53.6-.54,51.58,1.23-14.68,5.1-27.57,5.55-42.4.21-7.27-2.48-16.39-2.66-23.66s-.74-14.52-.67-21.81A172.76,172.76,0,0,1,205.53,164c.85-6.39,1.79-12.78,2.86-19.07,1.86-10.95,4.49-22.27,9.88-29.11,6.12-7.75,20.15-14,20.38-15s-12.12,4-18.42,9.24c-4.14,3.43-7.26,9-9.61,15.57C210,115.44,219,110.27,224,107.28c2.83-1.69,1.48-5.14,4.44-5.67a56.17,56.17,0,0,1,10.17-.86,1.72,1.72,0,0,0,1.58-1.12,1.79,1.79,0,0,0,.07-.33,1.92,1.92,0,0,0,.52-.1c3.06-1.11,5.85-3,8.9-2.1-10.31-1.59-12.41-5.1-8.95,2.55.21.47,4.09,4.4,5.46,4.62.21.38,1.26.35,1.43.33a14.93,14.93,0,0,1,5.11,2.69c3.38,2.65,6.22,6.92,9,11.19,5,7.73,9.82,15.93,13.43,25.9,0,.07,0,.14,0,.21a45.57,45.57,0,0,0,2.51,8.47l.45,1c.33,1.26.65,2.54.95,3.83.57,3.14,1,6.36,1.31,9.68.63,6.66,1.16,13.36,1.67,20,1,13.56,1.82,27.25,1.55,40.94-.28,14.4-1.69,28.89-5,42.1-.48,1.95,3.48-5.2,4-7.92l-.21,5.92c-.05,1.72,2.8-11.29,3-16.67,0,3.57,0,7.15,0,10.72-.05,4,.61,13.83,1.07,12.05,1.72-6.55,1.38-14.09,1.38-21.14q0-11.49,0-23,.72,17.48,1.45,34.95C289.48,267.28,290.45,232.09,289.78,215.92ZM250.46,100.51a16.44,16.44,0,0,1,4.7.06c3.06.58,5.7,3.77,7.92,6.81C259.36,103.57,255.08,100.94,250.46,100.51Zm33.85,47.19a34.16,34.16,0,0,0-2.9-6.56l-.64-1.12c-.24-.8-.49-1.6-.77-2.39-.91-2.53-2-4.95-3.07-7.33a89.45,89.45,0,0,0-3.45-10.05,69.52,69.52,0,0,0-6.12-11.36,27.09,27.09,0,0,1,4,5.91c1.07,2.16,1.84,4.57,3,6.58s2.56,3.4,3.77,5.19c4.36,6.44,6.05,15.22,6.91,23.8C284.84,149.47,284.6,148.57,284.31,147.7Z" transform="translate(-4.1 -44)"/><path class="cls-2" d="M281.88,213.24c-.64-17.84-1.08-35.76-2-53.55-.73-14.29-2.21-29.43-6.87-40.66-1.22-3-2.7-5.34-4-8.17a92.33,92.33,0,0,1-3.26-10,47.84,47.84,0,0,0-8.25-15.58c-7.6-9.64-26.7-10-26.56-8.92,0,0-.49-.53-.48-.5-3.85,0-7.2,1-11,1.87a24.36,24.36,0,0,0-10.07,4.39c-5.51,4.29-10.88,14.61-9.95,27.87.06.91-2.72,107.46-2,106.86-.94,3.37,1.07-101.45.38-97.76-1.23,6.6-1.2,15.19-2.08,22-1.08,8.31-2.15,16.67-2.74,25.2a246.21,246.21,0,0,0-.1,26.06c.34,9,.52,17.92.42,26.93-.22,20.28-.71,62.48-.54,60.12,1.24-17.1,5.16-32.14,5.61-49.43.22-8.47-2.5-19.1-2.69-27.58s-.75-16.93-.68-25.42a231,231,0,0,1,1.69-24.28c.86-7.46,1.81-14.9,2.89-22.24,1.89-12.77,4.54-26,10-33.93,6.18-9,20.37-16.31,20.6-17.53s-12.26,4.7-18.62,10.78c-4.19,4-7.34,10.45-9.72,18.15-.62-11.81,8.5-17.83,13.57-21.32,2.86-2,1.5-6,4.5-6.61a50.22,50.22,0,0,1,10.27-1,1.77,1.77,0,0,0,1.61-1.31,3.26,3.26,0,0,0,.06-.38,1.65,1.65,0,0,0,.53-.12c3.09-1.29,5.91-3.44,9-2.44-10.43-1.85-12.55-6-9.05,3,.21.55,4.13,5.12,5.52,5.39.21.44,1.28.4,1.45.38a14.72,14.72,0,0,1,5.16,3.13c3.42,3.1,6.29,8.07,9.09,13.06,5.07,9,9.94,18.57,13.59,30.19,0,.08,0,.16,0,.24a58.18,58.18,0,0,0,2.54,9.88c.14.39.3.78.45,1.17q.51,2.22,1,4.47c.58,3.65,1,7.41,1.33,11.28.63,7.76,1.17,15.57,1.68,23.37,1.06,15.8,1.84,31.76,1.58,47.73-.29,16.78-1.71,33.67-5,49.08-.49,2.27,3.51-6.07,4-9.24-.08,2.3-.15,4.61-.22,6.91-.06,2,2.83-13.17,3.07-19.44,0,4.16,0,8.33,0,12.49,0,4.62.62,16.12,1.09,14.06,1.74-7.64,1.39-16.43,1.39-24.65q0-13.41,0-26.81l1.47,40.74C281.57,273.11,282.56,232.09,281.88,213.24ZM242.12,78.69a14.56,14.56,0,0,1,4.75.07c3.1.68,5.76,4.4,8,7.94C251.11,82.26,246.79,79.2,242.12,78.69Zm34.23,55a43.08,43.08,0,0,0-2.93-7.65c-.22-.44-.44-.87-.65-1.31-.24-.93-.49-1.86-.78-2.78-.91-3-2-5.78-3.1-8.54a118.88,118.88,0,0,0-3.49-11.73,85.26,85.26,0,0,0-6.19-13.23,32.13,32.13,0,0,1,4,6.89c1.07,2.51,1.85,5.32,3.08,7.67s2.59,4,3.82,6c4.4,7.51,6.11,17.74,7,27.75C276.89,135.77,276.64,134.73,276.35,133.71Z" transform="translate(-4.1 -44)"/><path class="cls-3" d="M287.82,213.24c-.64-17.84-1.08-35.76-2-53.55-.73-14.29-2.21-29.43-6.86-40.66-1.23-3-2.71-5.34-4-8.17-1.35-3-2.19-6.64-3.26-10a47.84,47.84,0,0,0-8.25-15.58c-7.6-9.64-26.7-10-26.56-8.92,0,0-.49-.53-.48-.5-3.85,0-7.2,1-11,1.87a24.41,24.41,0,0,0-10.07,4.39c-5.51,4.29-10.88,14.61-10,27.87.07.91-2.72,107.46-2,106.86-.94,3.37,1.07-101.45.38-97.76-1.23,6.6-1.2,15.19-2.08,22-1.08,8.31-2.15,16.67-2.74,25.2a246.21,246.21,0,0,0-.1,26.06c.34,9,.52,17.92.42,26.93-.22,20.28-.71,62.48-.54,60.12,1.24-17.1,5.16-32.14,5.61-49.43.22-8.47-2.5-19.1-2.69-27.58s-.75-16.93-.68-25.42a231,231,0,0,1,1.69-24.28c.86-7.46,1.81-14.9,2.89-22.24,1.89-12.77,4.54-26,10-33.93,6.18-9,20.37-16.31,20.6-17.53s-12.25,4.7-18.62,10.78c-4.19,4-7.34,10.45-9.72,18.15-.62-11.81,8.5-17.83,13.57-21.32,2.86-2,1.5-6,4.5-6.61a50.22,50.22,0,0,1,10.27-1,1.77,1.77,0,0,0,1.61-1.31,2,2,0,0,0,.06-.38,1.59,1.59,0,0,0,.53-.12c3.09-1.29,5.91-3.44,9-2.44-10.43-1.85-12.55-6-9.05,3,.21.55,4.13,5.12,5.52,5.39.21.44,1.28.4,1.45.38a14.85,14.85,0,0,1,5.17,3.13c3.41,3.1,6.28,8.07,9.08,13.06,5.07,9,9.94,18.57,13.59,30.19,0,.08,0,.16,0,.24a58.18,58.18,0,0,0,2.54,9.88l.45,1.17q.51,2.22,1,4.47c.58,3.65,1,7.41,1.33,11.28.63,7.76,1.17,15.57,1.69,23.37,1.05,15.8,1.83,31.76,1.57,47.73-.29,16.78-1.71,33.67-5,49.08-.49,2.27,3.51-6.07,4-9.24-.08,2.3-.15,4.61-.22,6.91-.06,2,2.83-13.17,3.07-19.44,0,4.16,0,8.33,0,12.49-.06,4.62.61,16.12,1.08,14.06,1.74-7.64,1.39-16.43,1.39-24.65q0-13.41,0-26.81l1.47,40.74C287.51,273.11,288.5,232.09,287.82,213.24ZM248.06,78.69a14.56,14.56,0,0,1,4.75.07c3.1.68,5.76,4.4,8,7.94C257.05,82.26,252.73,79.2,248.06,78.69Zm34.23,55a43.08,43.08,0,0,0-2.93-7.65c-.22-.44-.44-.87-.65-1.31-.24-.93-.49-1.86-.78-2.78-.91-3-2-5.78-3.1-8.54a118.88,118.88,0,0,0-3.49-11.73,85.26,85.26,0,0,0-6.19-13.23,32.13,32.13,0,0,1,4,6.89c1.07,2.51,1.86,5.32,3.08,7.67s2.59,4,3.82,6c4.4,7.51,6.11,17.74,7,27.75C282.83,135.77,282.58,134.73,282.29,133.71Z" transform="translate(-4.1 -44)"/><path class="cls-2" d="M273.34,213.43c.81-5-6.62-28-2.53-53.3C273.1,146,268.6,130.7,264,119.47c-1.23-3-2.71-5.34-4-8.17-1.35-3-2.19-6.64-3.26-10a47.84,47.84,0,0,0-8.25-15.58c-7.6-9.64-26.7-10-26.56-8.92,0,0-.49-.53-.48-.5-3.85,0-7.19,1-11,1.87a24.32,24.32,0,0,0-10.06,4.39c-5.52,4.29-10.89,14.61-10,27.87.07.9-2.72,107.46-2,106.86-.94,3.37,1.07-101.45.38-97.76-1.23,6.6-1.2,15.19-2.08,22-1.08,8.32-2.15,16.68-2.74,25.21a246,246,0,0,0-.1,26c.34,9,.52,17.93.42,26.93-.22,20.29-.71,62.49-.54,60.13,1.24-17.1,5.16-32.14,5.61-49.43.22-8.47-2.5-19.1-2.69-27.58s-.75-16.93-.68-25.42a228.34,228.34,0,0,1,1.7-24.28c.85-7.46,1.8-14.91,2.88-22.24,1.89-12.77,4.54-26,10-33.93,6.19-9,20.37-16.31,20.6-17.53s-12.25,4.7-18.62,10.78c-4.19,4-7.34,10.45-9.72,18.15-.62-11.81,8.5-17.83,13.57-21.32,2.86-2,1.5-6,4.5-6.61a50.22,50.22,0,0,1,10.27-1,1.76,1.76,0,0,0,1.61-1.31,2,2,0,0,0,.06-.38,1.59,1.59,0,0,0,.53-.12c3.1-1.29,5.91-3.44,9-2.44-10.43-1.86-12.55-6-9.05,3,.21.55,4.13,5.12,5.52,5.39.21.44,1.28.4,1.45.38A14.85,14.85,0,0,1,235.39,87c3.41,3.1,6.28,8.07,9.09,13,5.06,9,9.93,18.58,13.58,30.2,0,.08,0,.16,0,.24a58.18,58.18,0,0,0,2.54,9.88l.45,1.17q.51,2.22,1,4.47c.58,3.65,1,7.41,1.33,11.28.63,7.76,1.17,15.57,1.69,23.37,1.05,15.8,1.84,31.76,1.57,47.73-.28,16.78-1.71,33.67-5,49.08-.49,2.27,3.51-6.07,4-9.24q-.12,3.45-.22,6.91c-.05,2,2.83-13.17,3.07-19.44,0,4.16,0,8.33,0,12.49-.06,4.62.61,16.12,1.08,14,1.74-7.63,1.39-16.42,1.39-24.64q0-13.41,0-26.81l1.47,40.74C272.51,273.55,270.35,232.05,273.34,213.43ZM233.05,79.13a14.55,14.55,0,0,1,4.75.07c3.1.68,5.76,4.4,8,7.94C242.05,82.7,237.72,79.64,233.05,79.13Zm34.23,55a41.59,41.59,0,0,0-2.93-7.65c-.22-.44-.44-.87-.65-1.31-.24-.93-.49-1.86-.78-2.78-.91-3-2-5.78-3.1-8.55a119.49,119.49,0,0,0-3.49-11.72,85.26,85.26,0,0,0-6.19-13.23,32.13,32.13,0,0,1,4,6.89c1.07,2.51,1.86,5.32,3.08,7.67s2.59,4,3.82,6c4.4,7.51,6.11,17.74,7,27.75C267.82,136.21,267.57,135.17,267.28,134.15Z" transform="translate(-4.1 -44)"/><path class="cls-2" d="M240,92.71c4-5.38-21.76,13.71-26.56,52.21-3.11,25-2,51-2.68,55.45-3.7,26.08-2,63.49-1.66,60.89C213.34,227.32,201.29,144.64,240,92.71Z" transform="translate(-4.1 -44)"/><path class="cls-1" d="M245.6,94.67c-.21-.57-10.38.69-14.62,4.15a53.85,53.85,0,0,0-9.79,12.05s2.43.51,2.42.54a84.65,84.65,0,0,0-8.25,17.24c-2.48,7.17-3.06,15-3.46,23.36q-.18,3.87-.35,7.74c-1.75,18.42-2,36.15-1.67,38.94,2.34,23.37,2.37,14.85,2.23,18.34-.16,4.12-1.31,15.18-1.29,19.31.05,9.11,8.44-2.69,8.63-10.64.16-6.26,1.07-13.1.14-19.28a107.16,107.16,0,0,1-1.28-19.69c.14-7,.39-13.9.68-20.84.28-6.7.34-13.7,1-20.31.69-7,3-12.3,5.47-17.29,2.35-4.65,4.74-9.16,7.81-12.14C249.36,100.56,245.6,94.67,245.6,94.67Z" transform="translate(-4.1 -44)"/><path class="cls-1" d="M239.5,88.56c-.2-.56-10.37.69-14.62,4.16a53.81,53.81,0,0,0-9.78,12s2.43.52,2.41.54a85.16,85.16,0,0,0-8.24,17.24c-2.48,7.17-3.06,15-3.46,23.36l-.36,7.74c-1.74,18.42-1.94,36.15-1.66,38.94,2.34,23.37-2.58,60.08-2,57.67,2.42-9.68,4-45.86,5-66.41,2.17,10.07-.36,24.91-.81,27.08-.84,4-1.31,15.18-1.29,19.31,0,9.11,8.78,38.23,6.78,29.59-1.63-7.07,1.66-32.28,1.85-40.23.15-6.26-1.68-13-2.61-19.22-1-6.93,1.32-12.42,1.47-19.75.14-7,.39-13.9.68-20.84.28-6.7.34-13.7,1-20.31.68-7,3-12.3,5.47-17.28,2.34-4.66,4.73-9.17,7.81-12.15C243.27,94.46,239.5,88.56,239.5,88.56Z" transform="translate(-4.1 -44)"/><path class="cls-3" d="M222.28,115a133.75,133.75,0,0,0-8.16,29.49,114.2,114.2,0,0,0-1.92,18.11c0,6.29-1.21,14.26-1,20.54.36,13.18,1,27.78,1.82,40.83.9,14-.9,15.19,5.27,36,.52,1.75-3.77-31.87-3.07-69.07.11-6.18-.4-12.34-.54-18.51s-.41-12.4.3-18.52c.64-5.56,1.56-11.1,2.59-16.44a89.83,89.83,0,0,1,3.76-14.69c4.11-10.88,11.32-19.15,15.39-24.46C237.07,97.7,227.42,102.5,222.28,115Z" transform="translate(-4.1 -44)"/><path class="cls-2" d="M210.48,111.92c-2.74,3.14-5.53,10.94-6.47,16.77a161,161,0,0,0-1.73,21.24c-.21,7.62-.28,15.26-.39,22.89-.21,15.58-.33,31.17-.19,46.76.16,17.34,3.62,52.94,3.53,50.8-1.2-29.75-1.53-59.57-1.18-89.39q.13-11.06.32-22.09a187.41,187.41,0,0,1,2.36-23c2.53-17,6.57-18.48,10.48-27.13,2.56-5.67,6.89-6.48,10.67-8.33,4.06-2,12.77-6.45,12.13-7C237.9,91.5,228.27,91.54,210.48,111.92Z" transform="translate(-4.1 -44)"/><path class="cls-3" d="M235.23,102.18a111.45,111.45,0,0,0-16.69,34.67c-2,7-3.87,14-3.92,21.3s-2.48,16.76-2.13,24.14c.74,15.5,2,32.66,3.73,48,1.84,16.5-1.85,17.86,10.77,42.3,1.06,2-7.71-37.47-6.29-81.22.24-7.26-.8-14.5-1.1-21.76s-.83-14.57.61-21.77a162.08,162.08,0,0,1,5.31-19.34c2-6,4.25-12.06,7.67-17.27,8.4-12.78,23.15-22.51,31.48-28.76C265.47,81.89,245.73,87.54,235.23,102.18Z" transform="translate(-4.1 -44)"/><path class="cls-1" d="M282.74,121c-.42-.51-21.22.62-29.89,3.73-5.66,2.36-14.35,6.31-20,10.79,0,0,5,.46,4.94.49a79.19,79.19,0,0,0-16.86,15.45c-5.07,6.43-6.26,13.42-7.07,20.94-.25,2.31,2.29,4.61,2.05,6.92a93.64,93.64,0,0,0-.59,34.55c4.79,21-3.72,30.41-3.67,34.12.09,8.16,17.25-2.42,17.65-9.54.31-5.61,2.18-11.75.28-17.28A43.49,43.49,0,0,1,227,203.54c.29-6.24.8-12.46,1.39-18.68.57-6,.69-12.28,2-18.2,1.41-6.26,6-11,11.19-15.5,4.79-4.17,9.68-8.22,16-10.89C290.43,126.31,282.74,121,282.74,121Z" transform="translate(-4.1 -44)"/><path class="cls-4" d="M219.9,184c2.21,18.14,4.83,37.45-11.74,49.28-23.09,7.18-29.13-3.61-48.59,16.28s-33.41,105-36,100.6c-17.73-29.53-54.33-42.4-58.27-52.54-7-18.12-.54-28.76-9.38-42.26-4-6-5.3-29.72-13-24.8-1.61,1,6.9,23.56,2.74,25.38C44.45,256.42,21,215.67,21,224.76c0,2.46,12.09,25.62,12,25.75-.7.76-18.84-34.93-20.57-27.14-.52,2.37,16.36,28,14.35,30.9S8,223.92,7.6,233.55c-.1,2.6,16.43,26.89,13.61,29.3C17.56,266,7,238.57,4.66,240.35,1,243.11,15.78,268.31,20.71,274,42.83,299.77,107.19,400,145.9,384.78c15.75-6.18,33.58-73.09,38.26-68.42,10.12,10.07,79.6,151.64,1.39,189.88,48.78,6.44,95.44-.24,144.92.8,13.25.28-66.71-129.37-22.39-218.78,4.71-9.48,20.1,41.27,26.38,54,20.76,41.94,35.7,102,25.21,153.1-3.91,19.05,28.39,25,35.76,2.58,9.55-29.08-10.13-92.43-16.6-122.78-8.23-38.67-16.53-123.77-50.46-142.57-22.7-12.58-35.83,10.15-55.06-11.17-10.9-12.09-5-28.93-4.49-43.59C252.65,179.65,236.17,181.9,219.9,184Z" transform="translate(-4.1 -44)"/><path class="cls-5" d="M206,233.09c-18.59,4.82-30,.88-45.16,17.4-13.77,15-24.81,44.85-26.2,66.23-.75,11.46,28.84,33.66,32,34.33,9.77,2.05,12.09-43.12,18.7-33.86,18.88,26.47-.33,82.2-4.55,195.63-.59,15.66,162.9,13.81,159.89-6.32-15-99.82-41.27-152.09-29.6-202.37,5.63-24.24,9.59,30.86,23.61,26.53,1.8-.55,38.25-7.42,34.91-20.85-6.79-27.25-16.43-61.14-38.22-75.08s-31.08-7.69-52.83-7.91C256,278,236.31,277.1,206,233.09Z" transform="translate(-4.1 -44)"/><path class="cls-2" d="M238.45,100.38c5.64-8.06-30.62,20.58-37.36,78.34-4.38,37.49-2.88,76.5-3.77,83.21-5.22,39.13-2.8,95.26-2.34,91.36C201,302.36,184,178.3,238.45,100.38Z" transform="translate(-4.1 -44)"/><path class="cls-1" d="M240.35,94.17c-.29-.85-14.6,1-20.57,6.23-3.89,4-9.88,10.57-13.77,18.08,0,0,3.42.76,3.4.8a131.11,131.11,0,0,0-11.61,25.87c-3.48,10.76-4.3,22.46-4.86,35q-.25,5.81-.5,11.62c-2.45,27.63-2.74,54.23-2.34,58.41,3.29,35.08-3.63,90.15-2.78,86.54,3.41-14.52,3.87-41.18,5.25-72a66.56,66.56,0,0,1,.66,13c-.23,6.17-1.84,22.77-1.81,29,.06,13.67,12.35,57.37,9.55,44.4-2.3-10.61,2.32-48.44,2.59-60.36.22-9.4,1.51-19.66.2-28.93A170.69,170.69,0,0,1,202,232.3c.19-10.44.55-20.87.95-31.28.4-10.05.48-20.55,1.39-30.47,1-10.47,4.17-18.45,7.7-25.93,3.3-7,6.67-13.76,11-18.23C245.64,103,240.35,94.17,240.35,94.17Z" transform="translate(-4.1 -44)"/><path class="cls-1" d="M237.77,94.17c-.29-.85-14.6,1-20.57,6.23-3.89,4-9.87,10.57-13.76,18.08,0,0,3.41.76,3.39.8a131.11,131.11,0,0,0-11.6,25.87c-3.49,10.76-4.31,22.46-4.87,35q-.26,5.81-.5,11.62c-2.45,27.63-2.73,54.23-2.34,58.41,3.3,35.08-3.62,90.15-2.78,86.54,3.41-14.52,3.87-41.18,5.26-72a68.16,68.16,0,0,1,.66,13c-.23,6.17-1.85,22.77-1.82,29,.07,13.67,12.36,57.37,9.55,44.4-2.3-10.61,2.32-48.44,2.6-60.36.21-9.4,1.5-19.66.19-28.93a170.69,170.69,0,0,1-1.8-29.54c.2-10.44.55-20.87,1-31.28.39-10.05.47-20.55,1.39-30.47,1-10.47,4.16-18.45,7.7-25.93,3.3-7,6.66-13.76,11-18.23C243.06,103,237.77,94.17,237.77,94.17Z" transform="translate(-4.1 -44)"/><path class="cls-3" d="M305.47,276.38c-.84-22.95-1.41-46-2.6-68.91-.95-18.39-2.87-37.88-8.91-52.33-1.59-3.8-3.51-6.87-5.17-10.52-1.76-3.84-2.85-8.55-4.23-12.93a61.35,61.35,0,0,0-10.71-20c-9.86-12.39-34.64-12.89-34.46-11.47l0,.12a69,69,0,0,0-14.95,1.64,31.69,31.69,0,0,0-13.06,5.65c-7.16,5.53-14.13,18.8-12.91,35.87.08,1.17-3.54,138.31-2.64,137.54-1.23,4.33,1.39-130.58.5-125.83-1.6,8.5-1.56,19.55-2.71,28.34-1.4,10.7-2.79,21.45-3.55,32.44a312.49,312.49,0,0,0-.13,33.53c.45,11.55.67,23.07.54,34.66-.29,26.1-.92,80.42-.7,77.38,1.61-22,6.7-41.36,7.28-63.61.28-10.91-3.25-24.58-3.49-35.5s-1-21.79-.88-32.72a292.53,292.53,0,0,1,2.2-31.25c1.11-9.6,2.34-19.18,3.75-28.62,2.44-16.43,5.89-33.41,13-43.67,8-11.63,26.43-21,26.73-22.56s-15.9,6-24.16,13.87c-5.44,5.15-9.53,13.45-12.61,23.36-.8-15.19,11-22.94,17.6-27.43,3.72-2.54,2-7.71,5.84-8.51a64.62,64.62,0,0,1,13.33-1.29,2.28,2.28,0,0,0,2.08-1.68,2.57,2.57,0,0,0,.08-.5,2.2,2.2,0,0,0,.69-.15c4-1.66,7.67-4.43,11.68-3.14-13.53-2.39-16.29-7.66-11.75,3.82.28.71,5.37,6.6,7.17,6.93.27.57,1.66.52,1.88.5a19,19,0,0,1,6.7,4c4.44,4,8.16,10.38,11.8,16.8,6.57,11.6,12.89,23.9,17.62,38.86l.06.3a74.27,74.27,0,0,0,3.29,12.72c.19.51.39,1,.58,1.51q.66,2.85,1.26,5.75c.75,4.71,1.3,9.54,1.71,14.52.83,10,1.52,20,2.19,30.08,1.37,20.34,2.39,40.87,2,61.43-.36,21.6-2.22,43.33-6.53,63.16-.64,2.93,4.55-7.8,5.24-11.88-.1,3-.2,5.92-.28,8.88-.08,2.58,3.67-16.94,4-25,0,5.36,0,10.73,0,16.08-.07,5.95.79,20.75,1.4,18.09,2.26-9.83,1.81-21.14,1.81-31.71q0-17.26,0-34.52,1,26.22,1.91,52.45C305.07,353.44,306.35,300.64,305.47,276.38ZM253.87,82.11a28.9,28.9,0,0,1,6.17.07c4,.58,7.47,3.77,10.39,6.81A30.77,30.77,0,0,0,253.87,82.11Zm44.42,47.2a30.13,30.13,0,0,0-3.81-6.56l-.84-1.12c-.31-.81-.64-1.6-1-2.39a75.57,75.57,0,0,0-4-7.33,77.23,77.23,0,0,0-4.52-10,66.5,66.5,0,0,0-8-11.36,28.21,28.21,0,0,1,5.24,5.91c1.39,2.15,2.41,4.57,4,6.58s3.36,3.39,4.95,5.18c5.72,6.45,7.93,15.22,9.05,23.81C299,131.08,298.66,130.18,298.29,129.31Z" transform="translate(-4.1 -44)"/><path class="cls-3" d="M305.62,284.75c-.84-23.57-1.41-47.26-2.59-70.76-1-18.89-2.87-38.89-8.92-53.73-1.58-3.9-3.51-7.06-5.17-10.8-1.75-4-2.84-8.78-4.23-13.28A63.51,63.51,0,0,0,274,115.59c-9.87-12.73-34.65-13.23-34.46-11.78,0,0,0,.08,0,.13a66.67,66.67,0,0,0-14.95,1.68,31.19,31.19,0,0,0-13.06,5.8c-7.16,5.67-14.12,19.31-12.91,36.84.08,1.19-3.54,142-2.64,141.22-1.22,4.45,1.39-134.08.5-129.2-1.6,8.73-1.56,20.07-2.7,29.09-1.4,11-2.8,22-3.55,33.32a326.58,326.58,0,0,0-.14,34.42c.45,11.86.68,23.7.55,35.59-.29,26.81-.93,82.58-.71,79.46,1.62-22.6,6.7-42.48,7.28-65.32.29-11.2-3.24-25.24-3.49-36.45s-1-22.37-.87-33.6a308.5,308.5,0,0,1,2.19-32.09c1.11-9.85,2.35-19.69,3.75-29.38,2.44-16.87,5.89-34.31,13-44.84,8-11.94,26.43-21.56,26.73-23.17s-15.9,6.22-24.16,14.24c-5.43,5.29-9.53,13.81-12.61,24-.8-15.6,11-23.56,17.6-28.16,3.72-2.61,2-7.92,5.84-8.74a63.32,63.32,0,0,1,13.33-1.33,2.3,2.3,0,0,0,2.09-1.73,3.55,3.55,0,0,0,.08-.51,1.75,1.75,0,0,0,.68-.15c4-1.7,7.68-4.55,11.68-3.23-13.53-2.45-16.88-1.06-11.74,3.93.45.44,5.36,6.77,7.16,7.12.28.58,1.66.53,1.89.51a19,19,0,0,1,6.7,4.14c4.43,4.09,8.15,10.66,11.79,17.25,6.58,11.9,12.89,24.54,17.62,39.89l.06.32a78.38,78.38,0,0,0,3.29,13.06c.19.52.39,1,.59,1.55.44,1.95.85,3.92,1.25,5.91.75,4.83,1.31,9.79,1.72,14.91.82,10.25,1.51,20.57,2.19,30.88,1.36,20.88,2.38,42,2,63.07-.37,22.18-2.22,44.5-6.54,64.86-.64,3,4.56-8,5.24-12.21-.1,3.05-.2,6.09-.28,9.13-.07,2.65,3.67-17.4,4-25.69,0,5.5,0,11,0,16.51-.07,6.11.79,21.31,1.41,18.57,2.25-10.09,1.8-21.71,1.81-32.56q0-17.71,0-35.44.94,26.93,1.91,53.85C305.22,363.87,306.5,309.66,305.62,284.75ZM254,84.6a27.65,27.65,0,0,1,6.17.06c4,.6,7.48,3.87,10.39,7C265.7,87.74,260.08,85,254,84.6Zm44.42,48.46a31.37,31.37,0,0,0-3.8-6.74l-.85-1.15c-.31-.83-.63-1.65-1-2.45a79.84,79.84,0,0,0-4-7.53,81.48,81.48,0,0,0-4.52-10.32,68.18,68.18,0,0,0-8-11.66,28.36,28.36,0,0,1,5.24,6.07c1.4,2.21,2.41,4.69,4,6.75s3.36,3.49,4.95,5.33c5.72,6.61,7.93,15.62,9.06,24.44C299.14,134.87,298.82,134,298.44,133.06Z" transform="translate(-4.1 -44)"/><path class="cls-1" d="M293.92,211.61c-.73-5.16-1.54-10.2-2.39-15.16-.55-5.37-1.26-10.62-2.17-15.72s-1.92-9.63-3.05-14.09c0-.18-.07-.36-.1-.53-1.52-8-2.66-16.72-4.54-24-2.85-11-3.6-11.12-5.58-16.41-2.62-7-6.59-14-9.9-18-11.79-16.1-20.7-2.43-18-2.11,4,.47,20.14,42.6,25,57.54,5.41,16.59,9.66,35.84,12.79,57.18,3.17,21.55,2.44,48.27,2.43,71.34,0,24.67-.66,49-3,72.73-1.54,16,11.48-47.48,11.45-75.15C296.85,263.52,297.32,235.71,293.92,211.61ZM273.67,100.25c1.83,3.17,2.44,7.81,5.4,8.7-.3-.54-.6-1.1-.91-1.64-.4-.7-.81-1.37-1.21-2.06-2.11-4.34-3.47-10.72-6.69-12.8C272,93.23,272.3,97.9,273.67,100.25Z" transform="translate(-4.1 -44)"/><path class="cls-3" d="M300.56,288.29c-.84-23.57-1.41-47.26-2.6-70.76-.95-18.89-2.87-38.89-8.91-53.73-1.59-3.9-3.51-7.06-5.17-10.8-1.76-3.95-2.85-8.78-4.23-13.28a63.71,63.71,0,0,0-10.71-20.59c-9.86-12.72-34.64-13.23-34.46-11.78l0,.13a67.13,67.13,0,0,0-14.95,1.68A31.14,31.14,0,0,0,206.5,115c-7.16,5.68-14.13,19.31-12.92,36.84.09,1.19-3.53,142-2.63,141.22-1.23,4.45,1.39-134.08.5-129.2-1.6,8.73-1.56,20.07-2.71,29.09-1.4,11-2.79,22-3.55,33.32a326.76,326.76,0,0,0-.13,34.43c.44,11.85.67,23.69.54,35.58-.29,26.81-.92,82.58-.7,79.46,1.61-22.6,6.7-42.47,7.28-65.32.28-11.2-3.25-25.24-3.49-36.45s-1-22.37-.88-33.6a308.12,308.12,0,0,1,2.2-32.08c1.11-9.86,2.34-19.7,3.74-29.38,2.45-16.88,5.9-34.32,13-44.85,8-11.94,26.43-21.56,26.73-23.17s-15.9,6.22-24.16,14.25c-5.44,5.28-9.53,13.81-12.61,24-.81-15.6,11-23.56,17.6-28.16,3.72-2.61,2-7.92,5.84-8.74a63.32,63.32,0,0,1,13.33-1.33,2.27,2.27,0,0,0,2.08-1.73,2.57,2.57,0,0,0,.08-.5,2,2,0,0,0,.69-.16c4-1.7,7.67-4.55,11.68-3.23-13.53-2.44-16.29-7.85-11.75,3.93.28.73,5.37,6.77,7.16,7.12.28.59,1.67.53,1.89.51a18.88,18.88,0,0,1,6.7,4.14c4.44,4.09,8.16,10.66,11.8,17.25,6.57,11.91,12.89,24.54,17.62,39.9l.06.31a78.13,78.13,0,0,0,3.29,13.06c.19.52.39,1,.58,1.55q.66,2.92,1.26,5.91c.75,4.83,1.3,9.79,1.71,14.91.83,10.25,1.52,20.57,2.19,30.88,1.37,20.88,2.39,42,2,63.07-.36,22.18,2.1,44.39,2.41,36.09,0,5.5,0,11,0,16.51-.07,6.11.79,21.31,1.4,18.57,2.26-10.09,1.8-21.71,1.81-32.56q0-17.72,0-35.44,1,26.93,1.91,53.85C300.16,367.42,301.44,313.2,300.56,288.29ZM249,87a27.66,27.66,0,0,1,6.17.06c4,.6,7.47,3.87,10.38,7C260.63,90.1,255,87.41,249,87Zm44.42,48.46a31.41,31.41,0,0,0-3.81-6.74l-.84-1.15c-.31-.83-.64-1.65-1-2.45a77.6,77.6,0,0,0-4-7.53,80.07,80.07,0,0,0-4.52-10.32,68.13,68.13,0,0,0-8-11.66,28.36,28.36,0,0,1,5.24,6.07c1.39,2.21,2.41,4.69,4,6.75s3.36,3.49,4.95,5.33c5.71,6.61,7.93,15.62,9.05,24.44C294.08,137.23,293.75,136.31,293.38,135.42Z" transform="translate(-4.1 -44)"/><path class="cls-2" d="M303.88,269.5c-.84-23-1.41-46-2.6-68.91-.95-18.4-2.87-37.88-8.91-52.34-1.59-3.79-3.51-6.87-5.17-10.51A68.06,68.06,0,0,1,283,124.81c-2.27-9.91-6.57-14.86-10.71-20-9.86-12.4-34.64-12.89-34.46-11.48,0,0,0,.08,0,.12a68.35,68.35,0,0,0-15,1.65,31.53,31.53,0,0,0-13.06,5.64c-7.16,5.53-14.13,18.81-12.91,35.88.08,1.16-3.54,138.3-2.64,137.53-1.22,4.34,1.39-130.58.5-125.83-1.6,8.5-1.56,19.55-2.71,28.34-1.4,10.7-2.79,21.46-3.55,32.44a312.5,312.5,0,0,0-.13,33.53c.45,11.55.67,23.08.54,34.66-.29,26.11-.92,80.43-.7,77.39,1.61-22,6.7-41.37,7.28-63.62.28-10.91-3.25-24.58-3.49-35.5s-1-21.79-.88-32.72a292.53,292.53,0,0,1,2.2-31.25c1.11-9.59,2.34-19.18,3.75-28.61,2.44-16.44,5.89-33.42,13-43.68,8-11.63,26.43-21,26.73-22.56s-15.9,6-24.16,13.87c-5.44,5.15-9.53,13.45-12.61,23.36-.8-15.19,11-22.94,17.6-27.43,3.72-2.54,1.95-7.71,5.84-8.51a65.32,65.32,0,0,1,13.33-1.29A2.28,2.28,0,0,0,238.86,95a2.57,2.57,0,0,0,.08-.5,1.76,1.76,0,0,0,.69-.15s-2.9-.38-.07.69c.51.19,5.37,6.59,7.17,6.93.27.57,1.66.51,1.88.49a19.09,19.09,0,0,1,6.7,4c4.44,4,8.16,10.38,11.8,16.8,6.57,11.6,12.89,23.9,17.62,38.86l.06.31a74.76,74.76,0,0,0,3.29,12.72l.58,1.5q.66,2.85,1.26,5.76c.75,4.7,1.3,9.53,1.71,14.52.83,10,1.52,20,2.19,30.07,1.37,20.34,2.39,40.88,2,61.43-.36,21.6-2.22,43.34-6.53,63.17-.64,2.92,4.56-7.81,5.24-11.89-.1,3-.2,5.92-.28,8.89-.08,2.57,3.67-16.95,4-25,0,5.35,0,10.72,0,16.08-.07,5.94.79,20.75,1.4,18.08,2.26-9.83,1.81-21.14,1.81-31.71q0-17.26,0-34.52,1,26.24,1.91,52.45C303.48,346.56,304.76,293.76,303.88,269.5Zm-9.59-142.8a30.37,30.37,0,0,0-3.81-6.56l-.84-1.12c-.31-.8-.64-1.6-1-2.39a75.57,75.57,0,0,0-4-7.33,77.23,77.23,0,0,0-4.52-10,66.5,66.5,0,0,0-8-11.36c2,1.72,2.84,3,5.24,5.91,1.64,2,2.41,4.57,4,6.58s3.36,3.39,4.95,5.19c5.72,6.44,7.93,15.22,9.05,23.8C295,128.47,294.67,127.57,294.29,126.7Z" transform="translate(-4.1 -44)"/><path class="cls-3" d="M300.88,284.75c-.84-23.57-1.41-47.26-2.6-70.76-.95-18.89-2.86-38.89-8.91-53.73-1.58-3.9-3.51-7.06-5.17-10.8-1.76-4-2.85-8.78-4.23-13.28a63.71,63.71,0,0,0-10.7-20.59c-9.87-12.73-34.65-13.23-34.47-11.78l0,.13a66.67,66.67,0,0,0-15,1.68,31.19,31.19,0,0,0-13.06,5.8c-7.16,5.67-14.13,19.31-12.91,36.84.08,1.19-3.54,142-2.64,141.22-1.22,4.45,1.31-140.73.42-135.85-1.6,8.73-3.43,25.08-2.63,35.74.84,11-2.79,22-3.55,33.32a329.29,329.29,0,0,0-.13,34.42c.45,11.86.68,23.7.55,35.59-.29,26.81-.93,82.58-.71,79.46,1.62-22.6,6.7-42.48,7.28-65.32.29-11.2-3.24-25.24-3.49-36.45s-1-22.37-.88-33.6a311.27,311.27,0,0,1,2.2-32.09c1.11-9.85,2.34-19.69,3.75-29.38,2.44-16.87,5.89-34.31,13-44.84,8-11.94,26.43-21.56,26.73-23.17s-15.9,6.22-24.16,14.24c-5.44,5.29-9.53,13.81-12.61,24-.8-15.6,11-23.56,17.6-28.16,3.72-2.61,1.95-7.92,5.84-8.74a63.32,63.32,0,0,1,13.33-1.33,2.3,2.3,0,0,0,2.09-1.73,3.55,3.55,0,0,0,.08-.51,1.75,1.75,0,0,0,.68-.15c4-1.7,7.47-5.73,11.48-4.41-13.54-2.45-12.2-.33-9.67,3.49.39.58,3.49,8.39,5.29,8.74.28.58,1.66.53,1.88.51a19,19,0,0,1,6.71,4.14c4.43,4.09,8.15,10.66,11.79,17.25,6.57,11.9,12.89,24.54,17.62,39.89l.06.32a78.38,78.38,0,0,0,3.29,13.06c.19.52.39,1,.58,1.55q.66,2.92,1.26,5.91c.75,4.83,1.3,9.79,1.72,14.91.82,10.25,1.51,20.57,2.19,30.88,1.36,20.88,2.38,42,2,63.07-.36,22.18-2,56.85-1.29,52.65-.1,3.05-.2,6.09-.28,9.13-.08,2.65,3.67-17.4,4-25.69,0,5.5,0,11,0,16.51-.07,6.11.79,21.31,1.4,18.57,2.26-10.09,1.81-21.71,1.81-32.56l0-35.44q.94,26.93,1.91,53.85C300.48,363.87,301.76,309.66,300.88,284.75ZM249.28,84.6a27.65,27.65,0,0,1,6.17.06c4,.6,7.48,3.87,10.39,7C261,87.74,255.34,85,249.28,84.6Zm44.42,48.46a31.41,31.41,0,0,0-3.81-6.74l-.84-1.15c-.31-.83-.63-1.65-1-2.45a79.84,79.84,0,0,0-4-7.53,81.54,81.54,0,0,0-4.53-10.32,67.57,67.57,0,0,0-8-11.66,28.36,28.36,0,0,1,5.24,6.07c1.39,2.21,2.41,4.69,4,6.75s3.36,3.49,4.95,5.33c5.72,6.61,7.93,15.62,9.06,24.44C294.4,134.87,294.08,134,293.7,133.06Z" transform="translate(-4.1 -44)"/><path class="cls-3" d="M303.23,299.18c-.82-26.16-1.38-52.46-2.56-78.55-.94-21-2.83-43.18-8.79-59.66-1.56-4.33-3.46-7.83-5.1-12-1.73-4.39-2.81-9.75-4.17-14.74a71,71,0,0,0-10.56-22.86c-9.44-13.12-32.74-9.78-34-13.08,0,0,0,.09,0,.14a59,59,0,0,0-14.75,1.87,29.22,29.22,0,0,0-12.88,6.44c-7.06,6.3-13.94,21.44-12.74,40.9.08,1.32-3.49,157.66-2.6,156.78-1.21,4.94,1.37-148.85.49-143.44-1.57,9.69-1.53,22.29-2.67,32.3-1.38,12.21-2.75,24.46-3.5,37-.76,12.78-.56,25.4-.13,38.22.44,13.17.66,26.31.54,39.51-.29,29.76-.92,91.69-.7,88.22,1.59-25.1,6.61-47.16,7.18-72.52.28-12.43-3.2-28-3.44-40.47s-1-24.84-.86-37.3c.09-12,1-23.94,2.16-35.62,1.1-10.94,2.31-21.87,3.7-32.62,2.41-18.74,5.81-38.1,12.79-49.79,7.92-13.26,26.07-23.93,26.37-25.72S221,105,212.81,113.94c-5.37,5.86-9,19.39-12,30.69-.79-17.32,10.88-26.15,17.36-31.27,3.67-2.89,4-5.87,8.16-7,5.2-1.38,8.3-3.67,10.75-4.19,2.06-.43.61-3.47.92-4.86,0-.22,7.12,10.5,8.89,10.88.28.65,1.64.59,1.86.57a18.52,18.52,0,0,1,6.61,4.6c4.38,4.54,8,11.83,11.63,19.14,6.49,13.23,12.72,27.25,17.38,44.3,0,.12.05.23.06.35a96.16,96.16,0,0,0,3.25,14.5l.57,1.72c.44,2.17.85,4.35,1.24,6.56.74,5.36,1.29,10.87,1.69,16.55.82,11.39.37,26,1,37.46,1.35,23.19,6,43.5,3.15,66.85-3,24.45-2.19,49.41-6.45,72-.63,3.33,3.63-10.09,4.3-14.74.61-5.31,3.15-37.82,3.07-34.44-.08,2.94,1.14,26.45,1.45,17.24,0,6.11,0,12.22,0,18.33-.07,6.78.78,23.65,1.38,20.62,2.23-11.21,1.78-24.11,1.79-36.15q0-19.68,0-39.35.94,29.9,1.88,59.78C302.84,387,304.1,326.84,303.23,299.18ZM298.7,297c-.82-26.16-2.75-51.79-3.92-77.88-.94-21-2.83-43.18-8.79-59.66-1.56-4.32-3.46-7.83-5.1-12-1.73-4.38-2.81-9.74-4.17-14.74a70.78,70.78,0,0,0-10.56-22.85c-9.44-13.13-32.74-9.79-34-13.09,0,0,0,.09,0,.14a59,59,0,0,0-14.75,1.88,29.14,29.14,0,0,0-12.88,6.43c-7.06,6.3-13.94,21.44-12.74,40.9.08,1.32-3.49,157.67-2.6,156.78-1.21,4.95,1.37-148.85.49-143.44-1.57,9.7-1.54,22.29-2.67,32.31-1.38,12.2-2.75,24.46-3.5,37-.76,12.78-.56,25.41-.13,38.23.44,13.16.66,26.3.54,39.51-.29,29.76-.92,91.68-.7,88.21,1.59-25.09,6.61-47.16,7.18-72.52.28-12.43-3.2-28-3.44-40.46s-1-24.84-.86-37.31c.08-12,1-23.94,2.16-35.62,1.1-10.94,2.31-21.86,3.7-32.62,2.41-18.74,5.81-38.09,12.79-49.79,7.92-13.26,26.07-23.93,26.37-25.72s-16.1,2.84-24.25,11.75c-5.36,5.87-9,19.4-12,30.69-.79-17.31,10.88-26.15,17.36-31.27,3.67-2.89,4-5.87,8.16-7,5.2-1.37,8.3-3.67,10.75-4.19,2.05-.43.61-3.46.92-4.86,0-.21,7.12,10.5,8.89,10.89.27.65,1.64.59,1.86.56a18.52,18.52,0,0,1,6.61,4.6c4.37,4.54,8,11.83,11.63,19.15,6.49,13.22,12.72,27.24,17.38,44.29l.06.36a96.16,96.16,0,0,0,3.25,14.5c.19.58.38,1.14.57,1.71q.66,3.25,1.24,6.56c.74,5.36,1.29,10.87,1.69,16.55.82,11.39,1.5,22.85,2.16,34.29,1.35,23.18,2.36,46.6,2,70-.36,24.62-4.85,33.89-4.94,37.27-.07,2.94,7.68-19.85,7.68-33,.63,19.93,4.05,39.06,4.67,59C297,385.54,299.57,324.68,298.7,297ZM252.34,81.08a24.72,24.72,0,0,1,6.08.07c4,.67,12.1,9.53,15,13C268.57,89.8,258.31,81.58,252.34,81.08Zm43.81,53.8a36.1,36.1,0,0,0-3.75-7.48c-.29-.43-.56-.85-.83-1.28-.31-.91-.63-1.82-1-2.72-1.17-2.88-2.54-5.64-4-8.35a95.08,95.08,0,0,0-4.46-11.46c-2.25-4.65-8.39-10.44-11.4-14.39,2,2,7.2,5.61,8.64,8.18s2.38,5.21,3.95,7.5,3.31,3.87,4.88,5.91c5.64,7.35,7.82,17.35,8.93,27.13C296.84,136.9,296.52,135.88,296.15,134.88Z" transform="translate(-4.1 -44)"/><path class="cls-3" d="M310.56,291.15c-.91-23.57-1.53-47.26-2.83-70.76-1-18.89,3-43-3.54-57.89-1.73-3.9-9.59-41.77-14.1-47.11-10.75-12.73-51.76-6.64-51.56-5.18,0,.05-.69-.7-.68-.66-5.44,0-10.17,1.34-15.59,2.47-4.82,1-9.67,2.48-14.23,5.8-7.8,5.67-15.4,19.31-14.08,36.83.09,1.2-3.85,142-2.87,141.22-1.34,4.46,3-133.53.54-129.2-4.91,8.77-4.5,20.11-3,29.1,1.89,10.94-3,22-3.87,33.32a301.68,301.68,0,0,0-.14,34.42c.48,11.86.73,23.7.59,35.59-.31,26.81-1,82.58-.77,79.46,1.76-22.6,7.3-42.48,7.94-65.32.31-11.2-3.54-25.24-3.8-36.45s-1.06-22.37-1-33.6a285.54,285.54,0,0,1,2.39-32.09c1.21-9.85,2.56-19.69,4.09-29.38,2.66-16.88,6.42-34.31,14.14-44.85,8.75-11.94,28.81-21.55,29.14-23.16s-17.34,6.21-26.34,14.24c-5.92,5.29-10.39,13.81-13.74,24-.88-15.6,12-23.56,19.18-28.17,4-2.6,2.13-7.91,6.36-8.73a74.37,74.37,0,0,1,14.54-1.33,2.47,2.47,0,0,0,2.27-1.73,2.75,2.75,0,0,0,.09-.51,2.07,2.07,0,0,0,.74-.15c4.38-1.7,8.37-4.55,12.74-3.23-14.75-2.45-17.75-7.86-12.81,3.93.31.72,5.85,6.77,7.81,7.12.3.58,1.82.53,2.06.51a21.09,21.09,0,0,1,7.3,4.14c4.84,4.09,8.89,10.65,12.86,17.24,7.17,11.91,14,24.55,19.21,39.9l.06.32a73.64,73.64,0,0,0,3.59,13.06l.63,1.54q.72,2.94,1.37,5.92c.82,4.82,1.43,9.79,1.87,14.9.9,10.26,1.66,20.58,2.39,30.89,1.49,20.88,2.6,42,2.22,63.07-.39,22.18-2.42,44.5-7.12,64.86-.7,3,5-8,5.71-12.21-.11,3-.21,6.09-.31,9.13-.08,2.65,4-17.4,4.35-25.69,0,5.5,0,11,0,16.51-.07,6.1.87,21.31,1.53,18.57,2.46-10.09,2-21.71,2-32.56q0-17.73,0-35.44,1,26.93,2.08,53.85C310.12,370.27,311.52,316.06,310.56,291.15ZM254.31,88.86a33.6,33.6,0,0,1,6.73.06c4.38.6,8.15,3.88,11.32,7A34.61,34.61,0,0,0,254.31,88.86Zm48.43,48.46a30.72,30.72,0,0,0-4.15-6.74c-.32-.38-.62-.77-.92-1.15-.34-.82-.7-1.64-1.1-2.45a77.23,77.23,0,0,0-4.39-7.52,77.47,77.47,0,0,0-4.93-10.33,69,69,0,0,0-8.76-11.66,29.63,29.63,0,0,1,5.71,6.07c1.52,2.21,2.63,4.69,4.37,6.76s3.66,3.48,5.39,5.32c6.23,6.62,8.64,15.63,9.87,24.44C303.5,139.13,303.14,138.22,302.74,137.32Z" transform="translate(-4.1 -44)"/><path class="cls-3" d="M215.44,133.69A211.07,211.07,0,0,0,204,177.93c-1.35,8.88-2.67,17.8-2.7,27.18s-1.7,21.39-1.46,30.81c.51,19.78,1.38,41.68,2.56,61.27,1.27,21.05-1.27,22.79,7.41,54,.73,2.62-5.3-47.82-4.32-103.64.16-9.27-.56-18.51-.76-27.77s-.57-18.6.42-27.78c.9-8.35,2.21-16.66,3.65-24.68,1.38-7.68,2.93-15.4,5.28-22,5.78-16.31,15.93-28.73,21.67-36.7C236.25,107.79,222.66,115,215.44,133.69Z" transform="translate(-4.1 -44)"/><path class="cls-2" d="M195.2,131.19C191.35,136,187.42,148,186.1,157a272.26,272.26,0,0,0-2.44,32.72c-.29,11.74-.39,23.52-.54,35.27-.3,24-.47,48-.27,72.05.22,26.71,5.09,81.56,5,78.26-1.7-45.83-2.15-91.77-1.66-137.72q.18-17,.44-34c.16-11.14,1.86-24.72,3.33-35.45,3.56-26.1,9.24-28.47,14.74-41.79,3.6-8.74,9.7-10,15-12.84,5.71-3.07,18-9.93,17.07-10.82C233.78,99.73,220.23,99.79,195.2,131.19Z" transform="translate(-4.1 -44)"/><path class="cls-2" d="M313.21,270.33c4.3-20.42-.47-43.18-6.38-60.57-6-17.64-7.44-34.42-11.79-51.8-1.83-7.33-3.94-14.58-7.76-19.83-3.57-4.93-8.1-7.65-12.41-10.51-2.51-1.67-12.58-16.34-14.55-18.89-3.88-5-20.91-6.81-20.21-6.11,3.77,3.78,11.94.78,18.22,12.35a44,44,0,0,0,11.48,13.8c4.14,3.06,8.57,5.27,12.44,9.2,4.33,4.4,6.92,10.92,8.88,18.33,4.36,16.47,8.48,33.61,10.69,51.18,2.33,18.41,2.54,37.25,2.7,56,.17,21.36,5.52,106.47,5.5,104.2Z" transform="translate(-4.1 -44)"/><path class="cls-2" d="M300.57,269.55c-.16-18.93-.21-38-2.27-56.71-2-18.53-6.48-36.12-11-53.5-1.93-7.33-4.14-14.58-8.14-19.83-3.75-4.93-8.5-7.65-13-10.51a46,46,0,0,1-7.68-5.75c-2.24-2.18-4.79-7.09-6.86-9.64-4.07-5-19.83-10.87-19.83-9.54,0,7.81,13.49,8,17,12.28,3.75,4.58,7.65,10.71,12,13.8s9,5.27,13,9.2c4.55,4.4,7.26,10.92,9.31,18.33,4.58,16.48,8.89,33.61,11.21,51.18,2.44,18.41.73,24.58,2.83,56,1.42,21.31-2.5,130.1-.27,107.5Z" transform="translate(-4.1 -44)"/><ellipse class="cls-6" cx="237.33" cy="87.97" rx="53.76" ry="75.38"/><path class="cls-7" d="M235.84,116.62c0,9.26-10.24,13.51-22.07,13.51S193,125.88,193,116.62s9.59-13.49,21.43-13.49S235.84,107.35,235.84,116.62Z" transform="translate(-4.1 -44)"/><path class="cls-7" d="M289.84,116.62c0,9.26-10.24,13.51-22.07,13.51S247,125.88,247,116.62s9.59-13.49,21.43-13.49S289.84,107.35,289.84,116.62Z" transform="translate(-4.1 -44)"/><path class="cls-7" d="M234.54,113.86c4.48,1.54,8.65,1.67,12.45,0" transform="translate(-4.1 -44)"/><path class="cls-7" d="M235.84,118.89a9.32,9.32,0,0,1,11.15,0" transform="translate(-4.1 -44)"/><path class="cls-7" d="M182.65,114.46" transform="translate(-4.1 -44)"/><path class="cls-7" d="M191.49,114.46" transform="translate(-4.1 -44)"/><line class="cls-7" x1="187.84" y1="74.47" x2="176.58" y2="74.47"/><line class="cls-7" x1="297.94" y1="74.89" x2="286.68" y2="74.89"/><line class="cls-7" x1="297.95" y1="70.46" x2="286.69" y2="70.46"/><line class="cls-7" x1="187.84" y1="70.46" x2="176.58" y2="70.46"/><path class="cls-8" d="M264.13,169.56c0,.14-9.14,11.16-21,11.16S221,169.7,221,169.56s9.66-.26,21.57-.26S264.13,169.42,264.13,169.56Z" transform="translate(-4.1 -44)"/><path class="cls-2" d="M229.9,97.56c.26-.94-5.15-2.31-10.49-3.23-7.26-1.25-13.4.33-17.4,1.41-7.71,2.07-18.84,11.66-18.67,12s11.9-8.07,18.8-9.14A32.27,32.27,0,0,1,213.68,98c3.06.36,6.69,1.68,8.92,1C226.83,97.84,229.67,98.38,229.9,97.56Z" transform="translate(-4.1 -44)"/><path class="cls-9" d="M198.74,113.26c-.36-.94,2.51-3.52,7.09-5.35a31.05,31.05,0,0,1,5.65-.19C201.87,109.32,198.74,113.26,198.74,113.26Z" transform="translate(-4.1 -44)"/><path class="cls-9" d="M284.13,110.92c.35-.91-2.39-3.38-6.75-5.2,0,0-2.51-.25-5.41-.24C281.05,107.15,284.13,110.92,284.13,110.92Z" transform="translate(-4.1 -44)"/><path class="cls-10" d="M250.6,146.63c-1.08-.32,3.39-1.36,4.25,2.42.6,2.61-2.51,5.15-2.51,4.17C252.34,153.22,256.56,148.41,250.6,146.63Z" transform="translate(-4.1 -44)"/><path class="cls-10" d="M244.57,156.65c-.65.9.06-2,1.91-2.92,1.49-.73,5,.09,4.17.56A6,6,0,0,0,244.57,156.65Z" transform="translate(-4.1 -44)"/><path class="cls-10" d="M239.29,156.65c.66.9,0-2-1.91-2.92-1.49-.73-5,.09-4.16.56A6,6,0,0,1,239.29,156.65Z" transform="translate(-4.1 -44)"/><path class="cls-9" d="M235.22,141.79c-.81,1.78,2.49-1.77,2.7-5.43.17-3-2.65-7.79-2.79-6A12.9,12.9,0,0,1,235.22,141.79Z" transform="translate(-4.1 -44)"/><path class="cls-6" d="M266.07,163.61c.48,3.43-2.08-11.77-9.43-14.08C256.64,149.53,264,148.84,266.07,163.61Z" transform="translate(-4.1 -44)"/><path class="cls-6" d="M217.9,163.93c-.48,3.43,2.07-11.77,9.43-14.08C227.33,149.85,220,149.16,217.9,163.93Z" transform="translate(-4.1 -44)"/><path class="cls-6" d="M220.88,181.55c1.38,2.92-2.16-7.4-1.36-12.37C219.52,169.18,217.41,174.15,220.88,181.55Z" transform="translate(-4.1 -44)"/><path class="cls-6" d="M264.89,180c-1.57,2.92,2.49-7.4,1.57-12.37C266.46,167.61,268.87,172.58,264.89,180Z" transform="translate(-4.1 -44)"/><path class="cls-9" d="M226.65,146.86" transform="translate(-4.1 -44)"/><path class="cls-9" d="M247.07,141.79c.81,1.78-2.49-1.77-2.7-5.43-.17-3,2.65-7.79,2.79-6A12.94,12.94,0,0,0,247.07,141.79Z" transform="translate(-4.1 -44)"/><path class="cls-11" d="M200.28,118.36c1-.15-1.3,1.26-3,.6-1.36-.54-3.72-3-2.9-2.73C194.5,116.12,196.65,118.89,200.28,118.36Z" transform="translate(-4.1 -44)"/><path class="cls-11" d="M201.08,117.17c.6-.37-.75,1.54-2.5,1.09-1.4-.36-4.42-2.64-3.58-2.46C195.1,115.67,198.62,118.69,201.08,117.17Z" transform="translate(-4.1 -44)"/><path class="cls-11" d="M202.26,116.09c.87-.57-1.17,1.75-2.91,1.24-1.41-.41-4-3-3.16-2.78C196.29,114.39,199.47,117.9,202.26,116.09Z" transform="translate(-4.1 -44)"/><path class="cls-11" d="M202.45,115.64c1-.14-1.29,1.26-3,.6-1.36-.54-3.72-3-2.91-2.73C196.68,113.4,198.83,116.17,202.45,115.64Z" transform="translate(-4.1 -44)"/><path class="cls-11" d="M203.54,115.05c.63-.29-.91,1.42-2.6.75-1.36-.54-4.11-3.2-3.29-2.91C197.76,112.77,200.93,116.24,203.54,115.05Z" transform="translate(-4.1 -44)"/><path class="cls-11" d="M204.92,114c.93-.45-1.35,1.58-3,.85-1.35-.59-3.64-3.49-2.83-3.17C199.18,111.54,202,115.44,204.92,114Z" transform="translate(-4.1 -44)"/><path class="cls-11" d="M205,113.81c1,.15-1.57.69-3-.3-1.16-.8-2.78-3.45-2.08-3A7.8,7.8,0,0,0,205,113.81Z" transform="translate(-4.1 -44)"/><path class="cls-11" d="M206.22,113c.66-.14-1.12,1.06-2.68.23-1.26-.67-3.56-3.32-2.8-3C200.87,110.16,203.46,113.56,206.22,113Z" transform="translate(-4.1 -44)"/><path class="cls-11" d="M207.23,112.33c1-.23-1.57,1.12-3.12.24-1.24-.7-3.05-3.49-2.3-3.1C202,109.36,204.09,113.07,207.23,112.33Z" transform="translate(-4.1 -44)"/><path class="cls-11" d="M207.63,112.15c.93.11-1.48.73-2.8-.19-1.06-.74-2.49-3.28-1.85-2.86A6.64,6.64,0,0,0,207.63,112.15Z" transform="translate(-4.1 -44)"/><path class="cls-11" d="M208.93,111.7c.66-.08-1.21.94-2.57,0-1.1-.76-2.9-3.58-2.24-3.15C204.26,108.47,206.24,112.05,208.93,111.7Z" transform="translate(-4.1 -44)"/><path class="cls-11" d="M210.78,110.36c.55-.06-1.18.85-2.08-.06-.73-.73-1.59-3.38-1.14-3C207.69,107.27,208.52,110.62,210.78,110.36Z" transform="translate(-4.1 -44)"/><path class="cls-11" d="M211.75,109.86c.55-.06-1.18.85-2.08-.06-.72-.74-1.58-3.38-1.14-3C208.66,106.77,209.49,110.12,211.75,109.86Z" transform="translate(-4.1 -44)"/><path class="cls-10" d="M210.54,111.23c.92-.16-1.6,1-2.86,0-1-.77-2.22-3.6-1.6-3.18C206.22,108,207.58,111.75,210.54,111.23Z" transform="translate(-4.1 -44)"/><path class="cls-11" d="M283.79,116.85c-1-.18,1.26,1.31,3,.71,1.37-.49,3.81-2.88,3-2.62C289.63,114.82,287.4,117.51,283.79,116.85Z" transform="translate(-4.1 -44)"/><path class="cls-11" d="M283,115.64c-.58-.39.7,1.56,2.46,1.17,1.42-.31,4.51-2.48,3.66-2.32C289,114.35,285.43,117.25,283,115.64Z" transform="translate(-4.1 -44)"/><path class="cls-11" d="M281.87,114.51c-.85-.59,1.12,1.79,2.88,1.35,1.42-.36,4.08-2.85,3.24-2.67C287.89,113,284.61,116.42,281.87,114.51Z" transform="translate(-4.1 -44)"/><path class="cls-11" d="M281.69,114.06c-1-.18,1.26,1.31,3,.7,1.38-.48,3.81-2.88,3-2.62C287.54,112,285.3,114.72,281.69,114.06Z" transform="translate(-4.1 -44)"/><path class="cls-11" d="M280.63,113.43c-.62-.32.87,1.46,2.57.84,1.38-.49,4.2-3,3.38-2.78C286.47,111.36,283.2,114.71,280.63,113.43Z" transform="translate(-4.1 -44)"/><path class="cls-11" d="M279.28,112.34c-.91-.48,1.3,1.63,3,1,1.37-.54,3.75-3.36,2.93-3.07C285.09,110.08,282.2,113.88,279.28,112.34Z" transform="translate(-4.1 -44)"/><path class="cls-11" d="M279.17,112.14c-1,.11,1.55.74,3-.2,1.19-.75,2.89-3.34,2.17-2.91A7.76,7.76,0,0,1,279.17,112.14Z" transform="translate(-4.1 -44)"/><path class="cls-11" d="M278,111.25c-.67-.17,1.08,1.09,2.66.32,1.28-.62,3.66-3.19,2.89-2.85C283.44,108.63,280.75,111.94,278,111.25Z" transform="translate(-4.1 -44)"/><path class="cls-11" d="M277,110.58c-1-.26,1.54,1.17,3.11.35,1.26-.66,3.16-3.38,2.39-3C282.39,107.8,280.14,111.43,277,110.58Z" transform="translate(-4.1 -44)"/><path class="cls-11" d="M276.62,110.38c-.92.08,1.47.79,2.81-.08,1.09-.7,2.59-3.19,1.93-2.8A6.52,6.52,0,0,1,276.62,110.38Z" transform="translate(-4.1 -44)"/><path class="cls-11" d="M275.34,109.89c-.65-.11,1.18,1,2.57.08,1.12-.72,3-3.48,2.33-3.07C280.1,106.83,278,110.33,275.34,109.89Z" transform="translate(-4.1 -44)"/><path class="cls-11" d="M273.38,108.75c-.55-.09,1.16.89,2.09,0,.74-.71,1.68-3.32,1.22-2.92C276.56,105.77,275.63,109.09,273.38,108.75Z" transform="translate(-4.1 -44)"/><path class="cls-11" d="M273.75,109.36c-.92-.19,1.57,1,2.85.14,1-.73,2.33-3.52,1.7-3.11C278.16,106.29,276.69,110,273.75,109.36Z" transform="translate(-4.1 -44)"/><path class="cls-2" d="M250.06,98.46c-.38-1,5.15-3,10.64-4.56,7.49-2.12,14.1-1.13,18.42-.44,8.33,1.33,20.56,10,20.41,10.33s-12.87-7-20.22-7.35a34.14,34.14,0,0,0-12.19.7c-3.16.72-6.82,2.51-9.24,2.08C253.31,98.42,250.39,99.3,250.06,98.46Z" transform="translate(-4.1 -44)"/><path class="cls-10" d="M233.7,146.55c1.1-.26-3.31-1.53-4.37,2.19-.73,2.58,2.24,5.28,2.29,4.3C231.62,153,227.66,148,233.7,146.55Z" transform="translate(-4.1 -44)"/><path class="cls-12" d="M199.49,119.5s3.22.17,13.68-2a48.79,48.79,0,0,1,7.91-.84,34.94,34.94,0,0,1,7.12,1.08c.94.31-5.46-8.54-12.56-8.54S199.49,118.43,199.49,119.5Z" transform="translate(-4.1 -44)"/><path class="cls-13" d="M221.72,113.23a6,6,0,0,1-.91,3.21,36.4,36.4,0,0,0-9.05,1.17,6.08,6.08,0,0,1-1.85-4.38,5,5,0,0,1,.74-2.92,10,10,0,0,1,10.36,0A5,5,0,0,1,221.72,113.23Z" transform="translate(-4.1 -44)"/><ellipse class="cls-11" cx="211.72" cy="69.26" rx="3.67" ry="4.02"/><ellipse class="cls-12" cx="208.42" cy="70.37" rx="0.97" ry="1.07"/><path class="cls-12" d="M284.43,117.88s-3.22.16-13.69-2a48.59,48.59,0,0,0-7.9-.84,34.75,34.75,0,0,0-7.12,1.08c-.94.31,5.46-8.54,12.55-8.54S284.43,116.8,284.43,117.88Z" transform="translate(-4.1 -44)"/><path class="cls-14" d="M262.19,111.6a6.08,6.08,0,0,0,.92,3.22,36.09,36.09,0,0,1,9,1.16A6,6,0,0,0,274,111.6a5,5,0,0,0-.74-2.92,10,10,0,0,0-10.36,0A4.94,4.94,0,0,0,262.19,111.6Z" transform="translate(-4.1 -44)"/><ellipse class="cls-11" cx="264.01" cy="67.63" rx="3.67" ry="4.02"/><ellipse class="cls-12" cx="260.91" cy="68.46" rx="0.97" ry="1.07"/><path class="cls-15" d="M199.76,119.5s3.22.17,13.68-2a48.79,48.79,0,0,1,7.91-.84,34.84,34.84,0,0,1,7.12,1.08c.94.31-5.46-8.54-12.56-8.54S199.76,118.43,199.76,119.5Z" transform="translate(-4.1 -44)"/><path class="cls-15" d="M284.16,117.88s-3.23.16-13.69-2a48.59,48.59,0,0,0-7.9-.84,34.75,34.75,0,0,0-7.12,1.08c-.94.31,5.46-8.54,12.55-8.54S284.16,116.8,284.16,117.88Z" transform="translate(-4.1 -44)"/><rect class="cls-12" x="238.98" y="125.69" width="5.12" height="5.87" rx="1.46"/><path class="cls-12" d="M251.19,174.51l-.94.15A1.78,1.78,0,0,1,248.3,173l-.23-1.9a1.94,1.94,0,0,1,1.46-2.23l.94-.15a1.77,1.77,0,0,1,1.95,1.68l.24,1.89A2,2,0,0,1,251.19,174.51Z" transform="translate(-4.1 -44)"/><path class="cls-12" d="M255,173.89l-.66.11a1.79,1.79,0,0,1-2-1.68l-.21-1.76c-.14-1.08,4-1.74,4.09-.66l.21,1.75A2,2,0,0,1,255,173.89Z" transform="translate(-4.1 -44)"/><path class="cls-16" d="M259,172.71l-.62.1a1.78,1.78,0,0,1-1.95-1.68l-.13-1.07c-.14-1.08,3.9-1.74,4-.66l.14,1.08A2,2,0,0,1,259,172.71Z" transform="translate(-4.1 -44)"/><path class="cls-17" d="M262.45,171.27l-.61.1a1.6,1.6,0,0,1-1.76-1.51l3.69-.6A1.75,1.75,0,0,1,262.45,171.27Z" transform="translate(-4.1 -44)"/><rect class="cls-12" x="238.18" y="169.9" width="5.12" height="5.87" rx="1.46" transform="translate(477.38 301.66) rotate(-180)"/><path class="cls-12" d="M235.18,174.72l.94.15a1.78,1.78,0,0,0,1.95-1.68l.23-1.89a1.94,1.94,0,0,0-1.46-2.24l-.94-.15a1.78,1.78,0,0,0-2,1.68l-.24,1.89A2,2,0,0,0,235.18,174.72Z" transform="translate(-4.1 -44)"/><path class="cls-12" d="M231.38,174.1l.67.11a1.79,1.79,0,0,0,1.95-1.68l.21-1.76c.14-1.08-4-1.74-4.09-.66l-.21,1.75A1.94,1.94,0,0,0,231.38,174.1Z" transform="translate(-4.1 -44)"/><path class="cls-16" d="M227.38,172.92l.62.1a1.78,1.78,0,0,0,1.95-1.68l.13-1.07c.14-1.08-3.9-1.74-4-.66l-.14,1.08A2,2,0,0,0,227.38,172.92Z" transform="translate(-4.1 -44)"/><path class="cls-17" d="M223.92,171.49l.61.09a1.6,1.6,0,0,0,1.76-1.51l.16-1.34s-3.56-.22-3.68-.6l-.17,1.34A1.76,1.76,0,0,0,223.92,171.49Z" transform="translate(-4.1 -44)"/><path class="cls-18" d="M265.81,167.83c-8,.57-10.61,1-13.68,0-3.93-1.3-8.2-1.91-9.13,1-1.21-3-5.34-2.18-10.53-.49-2.94,1-7-.81-12.64,0-2.7.38,11.3,13.19,23.16,13.19S268.52,167.64,265.81,167.83ZM242.57,179c-8.07.57-19-8-21-9.26,5.16.76,9,4.13,21.33,2.71,11.71,1.07,14.38-.86,20.68-2.7C264.59,169.47,256.23,178,242.57,179Z" transform="translate(-4.1 -44)"/><circle class="cls-19" cx="227.86" cy="89.45" r="0.41"/><circle class="cls-19" cx="268.35" cy="94.48" r="0.41"/><circle class="cls-19" cx="236.97" cy="86.6" r="0.65"/><circle class="cls-19" cx="246.87" cy="90.39" r="0.53"/><circle class="cls-19" cx="236.64" cy="94.48" r="0.32"/><circle class="cls-19" cx="238.67" cy="90.93" r="0.32"/><circle class="cls-19" cx="223.91" cy="93.48" r="0.66"/><circle class="cls-19" cx="241.19" cy="82.91" r="0.13"/><circle class="cls-19" cx="256.41" cy="81.91" r="0.88"/><circle class="cls-19" cx="251.1" cy="90.66" r="0.27"/><circle class="cls-19" cx="222.26" cy="88.77" r="0.27"/><circle class="cls-19" cx="233.74" cy="82.78" r="0.27"/><circle class="cls-19" cx="260.06" cy="92.08" r="0.54"/><circle class="cls-19" cx="253.46" cy="98.86" r="0.58"/><circle class="cls-19" cx="208.17" cy="92.79" r="0.68"/><circle class="cls-19" cx="212.83" cy="96.9" r="0.39"/><path class="cls-2" d="M229.41,49.6c8.19-10.83-44.49,27.64-54.29,105.23-6.36,50.37-4.18,102.77-5.48,111.79-7.58,52.57-4.06,128-3.4,122.74C174.92,320.93,150.28,154.27,229.41,49.6Z" transform="translate(-4.1 -44)"/><path class="cls-1" d="M236,45c-3-2.72-28.91.12-37.59,7.1-5.65,5.31-2.11,12.33-7.76,22.42,0,0,5,1,4.93,1.08a170,170,0,0,0-16.86,34.76c-5.07,14.45-6.26,30.17-7.07,47.08q-.37,7.8-.73,15.6c-3.56,37.13-4,72.87-3.4,78.48,4.79,47.12-5.27,121.11-4,116.25,5-19.51,5.62-55.31,7.63-96.73a84.21,84.21,0,0,1,1,17.46c-.34,8.29-2.68,30.59-2.64,38.92.09,18.37,17.95,77.06,13.87,59.64C180,372.83,186.68,322,187.08,306c.31-12.63,2.19-26.42.28-38.87a212.4,212.4,0,0,1-2.62-39.69c.29-14,.8-28,1.39-42,.58-13.5.69-27.61,2-40.93,1.41-14.07,4.13-27.17,9.27-37.22,4.79-9.38,11.6-16.1,17.89-22.11C248.22,53.76,236,45,236,45Z" transform="translate(-4.1 -44)"/><path class="cls-1" d="M234.65,45.32C232.74,44,211.47,43.9,203,51c-9.87,7.65-12.91,14.88-18.56,25.14,0,.06,5,1,4.93,1.11a174.61,174.61,0,0,0-16.86,35.37c-5.06,14.7-6.26,30.7-7.06,47.92q-.37,7.94-.73,15.87c-3.56,37.79-4,74.16-3.41,79.87,4.79,48-5.26,123.26-4,118.31,5-19.85,5.62-56.29,7.63-98.45a87.32,87.32,0,0,1,1,17.78c-.33,8.44-2.68,31.13-2.64,39.61.1,18.69,18,78.43,13.88,60.69-3.34-14.5,3.38-66.22,3.77-82.52.32-12.85,2.19-26.88.29-39.55a219.92,219.92,0,0,1-2.62-40.39c.29-14.27.79-28.52,1.39-42.76.57-13.74.69-28.1,2-41.65,1.4-14.32,6.05-25.24,11.19-35.47,4.79-9.54,9.68-18.8,16-24.91C242,55,234.65,45.32,234.65,45.32Z" transform="translate(-4.1 -44)"/><path class="cls-3" d="M334,295.36c-1.22-30.83-2.05-61.82-3.77-92.57-1.39-24.71-4.17-50.89-12.95-70.3-2.31-5.1-5.11-9.23-7.52-14.13-2.55-5.17-4.14-11.49-6.15-17.37a80.69,80.69,0,0,0-15.55-26.94c-14.33-16.65-44.35-15.52-44.28-17.44.33-8.75-66.92,35.22-65.23,60.18.11,1.56-5.14,185.8-3.83,184.76-1.78,5.82,2-175.42.72-169-2.31,11.42-2.26,26.26-3.93,38.07-2,14.38-4.05,28.82-5.15,43.59-1.13,15.06-.83,29.93-.2,45,.65,15.51,1,31,.79,46.56-.42,35.07-1.34,108-1,104,2.35-29.58,9.73-55.58,10.58-85.46.41-14.66-4.72-33-5.07-47.69s-1.41-29.27-1.28-44a367.89,367.89,0,0,1,3.19-42c1.62-12.89,3.41-25.77,5.45-38.44,3.55-22.08,8.74-52.28,4.26-39-1.17-20.41,25.5-42.59,31.14-43.66,6.44-1.23,17.74-11.64,24.16-10.85,14.56,1.8,21.95,15.09,25.07,17.68,6.44,5.35,11.85,13.94,17.13,22.56,9.56,15.59,18.74,32.11,25.61,52.21l.09.41a94.32,94.32,0,0,0,4.78,17.09c.28.68.56,1.35.85,2,.64,2.55,1.24,5.13,1.82,7.73,1.09,6.32,1.9,12.81,2.49,19.51,1.2,13.42,2.21,26.92,3.19,40.4,2,27.32,3.47,54.91,3,82.52-.53,29-3.23,58.22-9.5,84.86-.93,3.93,6.63-10.49,7.61-16q-.21,6-.4,11.94c-.11,3.47,5.33-22.76,5.79-33.61,0,7.2,0,14.41-.05,21.6-.1,8,1.15,27.88,2,24.3,3.28-13.21,2.62-28.41,2.63-42.61l0-46.36q1.39,35.22,2.78,70.45C333.42,398.89,335.29,328,334,295.36ZM250.13,61.48a45.43,45.43,0,0,1,9,.08c5.84.79,10.87,5.07,15.1,9.16C267.1,65.6,258.94,62.07,250.13,61.48Zm64.55,63.4a40,40,0,0,0-5.53-8.81l-1.22-1.51c-.45-1.07-.93-2.15-1.47-3.2a99.72,99.72,0,0,0-5.85-9.85c-1.94-4.61-3.39-8.82-8.1-10.77-7.69-3.19-13.74-11.5-14.66-18,2.75,2.58,15.63,14.08,17.94,16.78,2.17,2.53,4.88,4.56,7.19,7,8.31,8.66,11.53,20.45,13.16,32C315.7,127.26,315.23,126.06,314.68,124.88Z" transform="translate(-4.1 -44)"/><path class="cls-3" d="M336.34,293.55c-1.21-30.83-2-61.83-3.77-92.57-1.39-24.72-10.7-61.55-12.95-70.31-1.47-5.75-5.1-9.23-7.51-14.13-2.55-5.17.44-12.12-6.18-23.81-10.21-18-9.52-13.52-15.52-20.49-14.34-16.66-50.06-15.55-51.76-16.45-1.92-1-1.69.59-1.43.54-7.26,0-11.36,1.38-18.58,2.86-6.43,1.33-12.89,3.24-19,7.59C189.26,74.2,179.14,92,180.9,115c.12,1.56-5.14,185.8-3.83,184.76-1.78,5.83,2-175.41.72-169-2.32,11.42-2.26,26.26-3.93,38.07-2,14.38-4.05,28.82-5.16,43.58-1.12,15.06-.82,29.94-.19,45,.65,15.52,1,31,.79,46.57-.42,35.07-1.34,108-1,104,2.34-29.58,9.73-55.58,10.58-85.46.41-14.66-4.72-33-5.07-47.69s-1.41-29.28-1.28-44a366,366,0,0,1,3.19-42c1.62-12.89,3.41-25.76,5.45-38.43,3.55-22.09,8.56-44.9,18.85-58.68,11.66-15.62,36.8-31.57,37.69-33.17-1.5-1.3-22,11-34,21.5-7.9,6.91-13.84,18.06-18.32,31.38C184.24,91,198,81.25,205.25,72.59c6-7.2,8.57-8.38,14.22-9.45,6.44-1.23,7.18-3.51,13.84-4.56.86-.13,6.07-1.71,3.91-2.25.85.26,5.5,2,5.76,1.94,5.84-2.22,11.16-6,17-4.22-19.67-3.2-24.54-1.39-17.07,5.14.65.57,19.77,12.81,22.88,15.4,6.45,5.35,11.86,13.94,17.14,22.56,9.56,15.58,18.74,32.11,25.61,52.2l.09.42a94.21,94.21,0,0,0,4.78,17.08c.28.69.56,1.35.85,2q.94,3.83,1.82,7.73c1.09,6.32,1.9,12.81,2.49,19.5,1.2,13.42,2.21,26.92,3.19,40.41,2,27.32,3.46,54.91,3,82.52-.53,29-2.88,74.37-1.89,68.89-.14,4,4.93-10.82,5.38-21.68,0,7.2.05,14.41,0,21.61-.1,8,2.39,2.47,3.28-1.1,3.28-13.21,1.38-3,1.39-17.21l0-46.37q1.39,35.24,2.78,70.46C335.76,397.07,337.63,326.14,336.34,293.55Zm-75-239.63c3-.2,6.29,11.15,9.22,11.54C276.42,66.24,270.17,54.51,261.36,53.92ZM307,82" transform="translate(-4.1 -44)"/><path class="cls-1" d="M327.62,176.23c-3.45-20.22-39.92-104.06-50-113.8-6-7.41-12-8.27-16-10.23-7.9-3.87-12.87-5.51-15.78-6-19.79-3.17,1.93,12.8,5.55,13.43,5.8,1,38.14,50.16,45.21,69.71,7.86,21.71-.71,54.84,9.72,80.39,10.79,26.45,3.54,63.15,3.52,93.33,0,32.28-1,64.07-4.29,95.17-2.24,20.89,16.67-62.13,16.63-98.33C322.18,266.24,328.86,182.72,327.62,176.23ZM285.09,73.61c2.66,4.15,3.55,10.23,7.86,11.39-.44-.72-.88-1.44-1.33-2.15-.57-.92-1.17-1.79-1.76-2.69C286.8,74.47,283.11,70.53,285.09,73.61Z" transform="translate(-4.1 -44)"/><path class="cls-3" d="M236.73,55.17c4.81-2.57,10.16,5,10.3,6.2.12,1,28.93,23.22,34.22,31.84,9.55,15.58,9.07,36.46,15.94,56.55l.09.41c1.22,6.13,12.15,73.27,13.12,86.75,2,27.32,3.47,54.92,3,82.53-.54,29,5.21,23.9-1.07,50.53-.92,3.93-1.1,26.31-1.23,30.3-.1,3.46,5.34-22.76,5.79-33.62,0,7.2.05,14.41-.05,21.61-.1,8,.92-3.64,1.81-7.22,3.27-13.21,2.86,3.11,2.87-11.09l0-46.37q1.38,35.24,2.77,70.45c.14,3.44,2-67.49.72-100.08-1.21-30.84-2-61.83-3.77-92.58-1.39-24.71-4.17-50.88-12.95-70.3-2.31-5.1-5.1-9.23-7.52-14.13-2.55-5.17-4.13-11.48-6.14-17.37a80.48,80.48,0,0,0-15.56-26.93C269,60.91,248,55.72,236.73,55.17m-4.32-.2c-1.07-.18-17.77,3.07-25,4.55-6.43,1.33-12.89,3.25-19,7.59-10.4,7.42-20.53,25.26-18.77,48.19.12,1.57-5.13,185.81-3.82,184.77-1.79,5.82,2-175.42.72-169-2.32,11.42-2.26,26.26-3.93,38.07-2,14.38-4.06,28.82-5.16,43.59-1.13,15.05-.83,29.93-.19,45,.64,15.51,1,31,.79,46.56-.42,35.07-1.35,108-1,104,2.35-29.58,9.73-55.58,10.58-85.46.42-14.66-4.71-33-5.07-47.69s-1.41-29.27-1.27-44a363.39,363.39,0,0,1,3.19-42c1.61-12.89,3.4-25.77,5.44-38.44,3.55-22.08,8.56-44.89,18.85-58.68,11.66-15.62,15.74-22.17,3.74-11.67-7.9,6.91-13.85,18.07-18.32,31.38-1.17-20.41,16-30.82,25.57-36.85,5.4-3.41,2.84-10.35,8.48-11.43,6.44-1.22,28.34-8.37,29-7.46.77-1-4.44-1-4.81-1M250,54.19a44.67,44.67,0,0,1,9,.09c5.85.78,10.87,5.07,15.1,9.15C267,58.31,258.84,54.78,250,54.19Zm64.56,63.41a40.26,40.26,0,0,0-5.54-8.82l-1.22-1.5c-.45-1.08-.93-2.15-1.47-3.21a100.89,100.89,0,0,0-5.85-9.85,102,102,0,0,0-6.57-13.51,89.79,89.79,0,0,0-11.68-15.25,39.28,39.28,0,0,1,7.62,7.94c2,2.89,3.5,6.14,5.81,8.84,2.17,2.53,4.88,4.56,7.19,7,8.31,8.66,11.53,20.45,13.16,32C315.6,120,315.13,118.77,314.59,117.6Z" transform="translate(-4.1 -44)"/><path class="cls-2" d="M237,48.73c1,.8.71,4.47,1.62,4.62a34.06,34.06,0,0,0,5.91,4.78,28.11,28.11,0,0,1,9.73,5.42c6.45,5.35,11.86,13.94,17.14,22.56,9.56,15.58,18.74,32.11,25.61,52.21l.09.41a94.32,94.32,0,0,0,4.78,17.09c.28.68.56,1.35.85,2q.94,3.82,1.82,7.73c1.09,6.32,1.9,12.81,2.49,19.51,1.2,13.42,2.21,26.92,3.19,40.4,2,27.32,3.46,54.91,3,82.52-.53,29-2.88,74.37-1.89,68.89q-.21,6-.4,11.94c-.11,3.46,5.33-22.76,5.78-33.61,0,7.2.05,14.4,0,21.6-.1,8,1.15,27.88,2,24.3,3.28-13.21,2.62-28.41,2.63-42.61l0-46.36q1.4,35.22,2.78,70.45c.13,3.43,2-67.5.71-100.09-1.21-30.83-2-61.82-3.77-92.57-1.39-24.72-4.17-50.89-12.95-70.3-2.3-5.1-5.1-9.24-7.51-14.13a87.34,87.34,0,0,1-6.15-17.37c-3.29-13.31-13.12-15-19.13-21.94-9.35-10.87-27.66-15-38.32-17.47m-.23-.54c-.18-1.34-25.91-11.11-47.45,11.22-8.23,8.52-20,22.51-19.93,44.52,0,1.57-5.14,185.81-3.83,184.77-1.78,5.82,2-175.42.72-169-2.32,11.42-2.26,26.26-3.93,38.07-2,14.38-4.05,28.82-5.16,43.59-1.12,15.06-.82,29.93-.19,45,.65,15.51,1,31,.79,46.56-.42,35.07-1.34,108-1,104,2.34-29.58,9.73-55.58,10.58-85.46.41-14.66-4.72-33-5.07-47.69s-1.41-29.27-1.28-44a365.62,365.62,0,0,1,3.19-42c1.62-12.89,3.41-25.77,5.45-38.44,3.55-22.08,8.56-44.89,18.85-58.68C200.11,65.05,204.18,58.5,192.18,69c-7.9,6.91-13.84,18.07-18.32,31.38-1.17-20.41,16-30.82,25.57-36.85,5.41-3.41,4-7.83,8.49-11.43,4.93-4,15.33-2.42,19.37-1.73,3.88.66,9.15.88,9.44-2.18m74.14,66.14a40.26,40.26,0,0,0-5.54-8.82c-.42-.5-.82-1-1.22-1.5-.45-1.08-.93-2.15-1.47-3.21A98.79,98.79,0,0,0,296.79,91a100.77,100.77,0,0,0-6.57-13.51c-3.32-5.48-15.68-7.13-20.1-11.79,2.88,2.31,12.55.63,16,4.47,2.38,2.62,3.5,6.14,5.81,8.84,2.18,2.54,4.88,4.56,7.19,7,8.31,8.66,11.53,20.44,13.16,32C311.88,116.7,311.41,115.5,310.87,114.33Z" transform="translate(-4.1 -44)"/><path class="cls-3" d="M233.31,52.89c-3.07,0-4.92.3-4.86.73m6.12-1.07c.93-.09,19.46,14.44,22.57,17C263.59,74.8,274.69,82,280,90.5c9.56,15.31,9.8,34.3,16.67,54l.09.4a91.49,91.49,0,0,0,4.78,16.79c.27.67.56,1.33.85,2q.94,3.76,1.82,7.6c1.09,6.2,1.9,12.58,2.49,19.16,1.2,13.19,2.21,26.45,3.19,39.7,2,26.84,3.46,53.95,3,81.08-.53,28.51-2.88,73.07-1.89,67.68q-.21,5.87-.4,11.73c-.11,3.4,5.33-22.36,5.78-33,0,7.07.05,14.15,0,21.22-.1,7.85.44,6.82,1.33,3.31,3.28-13,3.33-7.34,3.34-21.3l0-45.55q1.39,34.6,2.78,69.22c.13,3.37,2-66.32.71-98.34-1.21-30.29-2-60.74-3.77-90.95-1.39-24.28-4.17-50-12.95-69.08-2.3-5-5.1-9.07-7.52-13.88-2.54-5.08-4.13-11.28-6.14-17.06a79,79,0,0,0-15.55-26.47c-11-12.6-34.83-16.38-45.11-16.37m-5,1.22c0,.07-15.1-.95-21.69,2.33-3.54,1.77-6,4.29-12.1,8.55-10.4,7.3-28.31,23.1-29.92,47.37-.1,1.54-.86,181.44.45,180.42-1.78,5.72,2-172.35.72-166.08-2.32,11.22-2.26,25.8-3.93,37.4-2,14.13-4.06,28.32-5.16,42.83-1.12,14.79-.82,29.41-.19,44.25.65,15.24,1,30.46.79,45.75-.42,34.45-1.35,106.15-1,102.14,2.34-29.06,9.73-54.61,10.58-84,.41-14.4-4.72-32.45-5.07-46.85s-1.41-28.76-1.28-43.2a353.18,353.18,0,0,1,3.19-41.24c1.62-12.67,3.41-25.32,5.45-37.77,3.55-21.7,8.56-44.11,18.85-57.65,11.66-15.35,38.4-27.71,38.84-29.77s-23.11,8-35.11,18.3c-7.9,6.8-13.85,17.75-18.32,30.83-1.17-20.05,16-30.28,25.57-36.2,5.41-3.35,2.84-10.17,8.49-11.23A102.87,102.87,0,0,1,227,58.13a8.49,8.49,0,0,0,3.37-1.54c.2,0,1.78-3.32,3.16-3m16-1.26a45.54,45.54,0,0,1,9,.08c5.84.77,10.86,5,15.09,9C266.45,56.34,258.29,52.88,249.48,52.3ZM314,114.59a39.7,39.7,0,0,0-5.54-8.66c-.41-.49-.82-1-1.22-1.48-.45-1.06-.93-2.11-1.46-3.15A98.32,98.32,0,0,0,300,91.63a98,98,0,0,0-6.57-13.27c-3.32-5.38-6.18-10.16-4.06-7.19s3.5,6,5.81,8.69c2.18,2.49,5.24,4,7.19,6.84,10.36,14.92,4.11,29.64,13.16,31.41C315.05,116.93,314.58,115.75,314,114.59Z" transform="translate(-4.1 -44)"/><path class="cls-3" d="M218.47,75c-6.14,1.26-12.3,3.07-18.1,7.19-9.93,7,1.95,36.7-17.91,45.68-4.16,1.88-7.39,176.34-3.66,175.12-1.69,5.52-1.46-135.32-3.06-124.13-1.94,13.63-3.87,27.32-4.92,41.31-1.07,14.27-.79,28.37-.18,42.69.61,14.7.93,29.38.75,44.13-.4,33.24-1.28,102.4-1,98.53,2.24-28,9.29-52.67,10.1-81,.39-13.89-4.5-31.3-4.84-45.2s-1.35-27.74-1.22-41.66a343.62,343.62,0,0,1,3.05-39.79c1.54-12.22,9.26-69.43,9.26-73.37C185.65,105.11,198.85,91.74,208,86c5.16-3.24,5.92-6.32,11.3-7.34,6.15-1.16,18.44-19.62,18.45-19.81C236.13,56.2,225.36,73.54,218.47,75Zm95.44,52.87c-1.4-3-4.48-20.87-6.5-23.89-1.84-4.37-2.07-10.39-6.27-12.8-6.1-3.51-36.81-21.68-30.88-31.92,7.87,1.19,36.85,33.32,39.42,40,12,31,13.09,44.14,14.64,55.07C323.9,153.09,314.43,128.94,313.91,127.82Z" transform="translate(-4.1 -44)"/><path class="cls-3" d="M196.72,95.57c-7.48,18.33-8.57,39.07-12.1,61-2,12.21-3.86,24.47-3.91,37.37s-2.48,29.41-2.13,42.37c.74,27.19,2,57.31,3.73,84.24,1.84,28.94-1.85,31.33,10.77,74.21,1.06,3.61-7.71-65.75-6.29-142.51.24-12.73-.8-25.44-1.1-38.17s-.83-25.58.61-38.21c1.31-11.47-4.89-24.82-2.8-35.84,2-10.57,8.6-23,12-32.18,8.4-22.43,7.13-22.36,15.46-33.31C211.78,73.52,207.22,69.87,196.72,95.57Z" transform="translate(-4.1 -44)"/><path class="cls-2" d="M174.43,89c-5.6,6.33-11.3,22-13.22,33.79-2.28,13.87-3.14,28.35-3.54,42.81-.43,15.36-.57,30.76-.79,46.14-.44,31.42-.69,62.84-.4,94.27.32,34.94,7.4,106.7,7.22,102.39-2.46-60-3.12-120.07-2.4-180.19q.25-22.26.64-44.51c.23-14.57,2.7-32.34,4.83-46.38,5.18-34.15,16.88-36.06,24.87-53.49,5.24-11.44,10.65-14.24,18.36-18,8.31-4,26.11-13,24.81-14.16C230.5,47.8,210.81,47.89,174.43,89Z" transform="translate(-4.1 -44)"/><path class="cls-2" d="M331.89,270.49c-.22-24.76-5.06-54.48-7.92-79-2.82-24.24-4.22-42.46-10.54-65.21-2.66-9.58-10.89-19.51-16.44-26.39-5.19-6.44-15.7-22.57-19.88-24.31C251.58,65,255,53.87,236.49,54c-3.44,0,32.22,21.59,38.3,25.64S289.23,95,294.85,100.15c6.29,5.76,12.42,13.82,15.27,23.51,6.34,21.56,4.84,44.45,8.06,67.43,3.37,24.09,8.8,48.74,9,73.23.25,27.95,5.4,86.34,5.38,83.36Z" transform="translate(-4.1 -44)"/><path class="cls-2" d="M241,53.48c21-2.65,39.8,12.07,51,28.49a91.76,91.76,0,0,1,13.19,29.91c3,12.07,4.44,24.56,6.12,36.85q5.08,37.17,7.52,74.62,2.46,37.64,2.3,75.39t-2.95,75.33c-.23,3.09-.47,6.17-.73,9.26,0,.44,2.83.12,2.9-.78q3.17-38.21,3.61-76.56t-1.82-76.7q-2.25-38.1-7.21-76c-1.64-12.45-3.23-25-5.75-37.31a96.14,96.14,0,0,0-12.41-31.94C286.26,67.33,269,52.39,248.37,52a46.62,46.62,0,0,0-6.88.39c-1.2.15-2.56,1.38-.52,1.13Z" transform="translate(-4.1 -44)"/><path class="cls-20" d="M248.38,61.23c8.23,1.91,15.28,6.94,21.11,12.91,6.81,7,12.2,15.28,16.79,23.85,10.32,19.24,17.19,40.5,22.12,61.72,5.34,23,7.92,46.48,8.73,70,.82,23.8-.14,47.61-1.46,71.38-1.12,20.34-3,40.6-5.81,60.78q-.62,4.35-1.27,8.69c0,.25.69.12.72-.1q4.68-31,6.67-62.38c1.45-23.33,2.52-46.73,2.1-70.11-.43-24.06-2.53-48.12-7.46-71.69-4.56-21.84-11.22-43.65-21.12-63.69a121.15,121.15,0,0,0-15.82-24.89c-5.36-6.32-11.83-12.07-19.6-15.22a35.53,35.53,0,0,0-5.25-1.65c-.2,0-.84.27-.45.36Z" transform="translate(-4.1 -44)"/><path class="cls-20" d="M232.42,52.12c-7.07-3.38-15,1-20.57,5.28-7.59,5.8-14.33,13.28-20.08,20.88-7,9.25-9.9,20.19-12.35,31.36-2.62,11.93-4.5,24-5.92,36.14-2.89,24.6-4.06,49.39-5.13,74.13q-1.67,38.33-2,76.69c-.12,12.65.1,25.32-.15,38a121.36,121.36,0,0,1-1.78,19c-1,5.8-2.37,11.55-3,17.42a58.24,58.24,0,0,0-.33,9c0,.28,1.47,0,1.45-.39-.51-11.75,3.39-23,4.55-34.63,1.2-12,.6-24.25.65-36.32q.17-37.06,1.53-74.11c.88-24.17,1.92-48.38,4-72.48,1-11.93,2.41-23.84,4.36-35.66,1.87-11.35,3.92-23,7.78-33.89,3.54-10,10.22-17.95,17.37-25.57a84.33,84.33,0,0,1,10.4-9.59c3.5-2.65,7.62-5.31,12.1-5.74a11,11,0,0,1,5.8,1c.39.19,1.56-.41,1.36-.51Z" transform="translate(-4.1 -44)"/><path class="cls-20" d="M237.93,57c4.18-.07,8.22,2.48,11.57,4.72A144.18,144.18,0,0,1,261,70.66a46.17,46.17,0,0,1,6,5.64c2.42,2.85,4.7,5.82,6.92,8.82,4.32,5.84,8.57,11.69,11.21,18.5a139.41,139.41,0,0,1,7.75,32c3.12,23.53,2.29,47.38,2.06,71.05-.22,23,.92,46,1.64,69,.7,22.35.33,44.67-2.41,66.89-.4,3.17-.83,6.32-1.3,9.47-.08.57,1.38.32,1.45-.18a406.22,406.22,0,0,0,3.92-68.65c-.5-23.29-1.94-46.55-1.89-69.86,0-23.86,1.15-47.8-1.26-71.58a157.33,157.33,0,0,0-6.68-33.44,60,60,0,0,0-4.58-11.17c-1.79-3.11-3.85-6.07-5.93-9-2.29-3.22-4.66-6.4-7.13-9.49a46.85,46.85,0,0,0-5.47-6.21c-3.29-2.86-6.73-5.6-10.18-8.24s-7.42-5.53-11.69-7.11a13.73,13.73,0,0,0-4.94-1c-.54,0-1.53.84-.56.83Z" transform="translate(-4.1 -44)"/><ellipse class="cls-21" cx="203.74" cy="105.96" rx="12.49" ry="14.94"/><ellipse class="cls-22" cx="271.21" cy="104.38" rx="12.49" ry="14.94"/></g></svg>