<svg xmlns="http://www.w3.org/2000/svg" xmlns:xlink="http://www.w3.org/1999/xlink" viewBox="0 0 245.2 283.9"><defs><style>.a{fill:#663917;}.b{fill:#603917;}.c{fill:#754d29;}.d{fill:url(#a);}.e{fill:#ea6533;}.f{fill:#f2dcc1;}.g,.o{fill:none;stroke-miterlimit:10;}.g{stroke:#414141;stroke-width:3px;}.h{fill:#bc202e;}.i{fill:#edcca4;}.j{fill:#eac4a0;}.k{fill:#221f1f;}.l{fill:#fff;}.m{fill:url(#b);}.n{fill:url(#c);}.o{stroke:#3a2416;stroke-width:0.5px;}.p{fill:#e5e6e6;}.q{fill:#cfd1d2;}.r{fill:#f496a9;}.s{fill:#c1976b;}.t{fill:#895d3b;}.u{fill:url(#d);}.v{fill:url(#e);}</style><radialGradient id="a" cx="149.13" cy="107.88" fy="82.74951754778616" r="29.87" gradientUnits="userSpaceOnUse"><stop offset="0.4" stop-color="#eac4a0"/><stop offset="0.6" stop-color="#f2dcc1"/></radialGradient><radialGradient id="b" cx="173.55" cy="51.03" r="3.45" gradientTransform="translate(-24.1) scale(0.91 1)" gradientUnits="userSpaceOnUse"><stop offset="0" stop-color="#2483c5"/><stop offset="1" stop-color="#0a6280" stop-opacity="0.96"/></radialGradient><radialGradient id="c" cx="-795.08" cy="50.01" r="3.45" gradientTransform="matrix(-0.91, 0, 0, 1, -559, 0)" xlink:href="#b"/><radialGradient id="d" cx="187.89" cy="-75.11" r="4.43" gradientTransform="translate(-115.5 162.8) scale(1.3 1.3)" gradientUnits="userSpaceOnUse"><stop offset="0" stop-color="#f3b5d0" stop-opacity="0.4"/><stop offset="1" stop-color="#f2dcc1" stop-opacity="0.4"/></radialGradient><radialGradient id="e" cx="217.28" cy="-75.13" r="4.43" xlink:href="#d"/></defs><path class="a" d="M174.3,80.8c-.3-2.1-.7-4.2-1.1-6.3s-.5-4.4-.9-6.6-.9-4-1.4-5.9v-.2c-.7-3.3-1.2-7-2.1-10a38.7,38.7,0,0,0-2.4-6.8,28.2,28.2,0,0,0-4.5-7.6c-5.2-6.7-9.2-1-8-.8s9,17.8,11.2,24a131.4,131.4,0,0,1,5.6,23.9c1.5,9,1.1,20.1,1.1,29.8a301.9,301.9,0,0,1-1.3,30.3c-.7,6.7,5.1-19.8,5.1-31.4S175.8,90.9,174.3,80.8Zm-9-33.9c.8,2,1.1,4.9,2.4,5.5a4.9,4.9,0,0,1-.4-1.1l-.6-1.2c-.9-2.8-1.5-6.8-2.9-8.1C164.5,42.5,164.7,45.4,165.3,46.9Z" transform="translate(-1.8 -3.9)"/><path class="b" d="M180.4,103a233.6,233.6,0,0,0-1-23.7A135.8,135.8,0,0,0,174.7,57c-.8-3.1-1.7-6.1-3.4-8.3a18.7,18.7,0,0,0-5.5-4.4c-1.2-.7-5.6-6.8-6.5-7.9s-9.3-2.8-9-2.5,5.3.3,8.1,5.1a18.1,18.1,0,0,0,5.1,5.8c1.8,1.3,3.8,2.2,5.5,3.8s3.1,4.6,4,7.7a162.5,162.5,0,0,1,4.8,21.4A199.8,199.8,0,0,1,179,101c0,8.9,1.6,27.6,1.6,26.6Z" transform="translate(-1.8 -3.9)"/><path class="b" d="M176.4,104a231.6,231.6,0,0,0-1-23.6c-.8-7.8-2.7-15.1-4.6-22.4-.9-3-1.8-6.1-3.5-8.3a20.5,20.5,0,0,0-5.5-4.4,18.5,18.5,0,0,1-3.3-2.4c-.9-.9-2-2.9-2.9-4s-8.4-4.5-8.4-4c0,3.3,5.7,3.4,7.2,5.2s3.3,4.4,5.1,5.7a40.3,40.3,0,0,1,5.6,3.9c1.9,1.8,3,4.5,3.9,7.6a151,151,0,0,1,4.8,21.4,201.5,201.5,0,0,1,1.2,23.4c.1,8.9,1.6,27.5,1.6,26.6Z" transform="translate(-1.8 -3.9)"/><path class="c" d="M133.1,52.1c.3-.3,13.3.4,18.8,2.4,3.5,1.4,9,3.9,12.5,6.7l-3.1.3a51.9,51.9,0,0,1,10.6,9.7c3.1,4,3.9,8.4,4.4,13.1.2,1.5.3,2.9.5,4.4,2.2,10.3,2.4,20.3,2.1,21.8-3,13.2,3.3,33.8,2.5,32.4-3.1-5.4-3.5-15.4-4.8-26.9a12.4,12.4,0,0,0-.6,4.8c.2,2.3,1.7,8.6,1.7,10.9-.1,5.1-11.3,21.5-8.7,16.6s-2.1-18.1-2.4-22.6-1.3-7.4-.1-10.8a28,28,0,0,0,1.6-11.1q-.3-5.8-.9-11.7A88.2,88.2,0,0,0,166,80.7c-.9-3.9-3.8-6.9-7.1-9.7a37.5,37.5,0,0,0-10-6.8C128.3,55.4,133.1,52.1,133.1,52.1Z" transform="translate(-1.8 -3.9)"/><path class="c" d="M179.4,107.9c-.3-9.6-.6-19.2-1.1-28.8-.4-7.7-1.3-15.8-4-21.9-.7-1.5-1.6-2.8-2.3-4.4a41.4,41.4,0,0,1-1.9-5.3,24.7,24.7,0,0,0-4.7-8.4c-4.4-5.2-15.5-5.4-15.4-4.8h0a37,37,0,0,0-6.6.7,13.3,13.3,0,0,0-5.8,2.4c-3.2,2.3-6.3,7.8-5.8,15,0,.4-1.6,57.7-1.2,57.4-.5,1.8.6-54.5.2-52.6-.7,3.6-.6,8.2-1.2,11.9s-1.2,8.9-1.5,13.5a109,109,0,0,0-.1,14c.2,4.9.3,9.7.2,14.5-.1,10.9-.4,33.6-.3,32.3.8-9.2,3-17.3,3.3-26.5.1-4.6-1.5-10.3-1.6-14.9s-.4-9.1-.4-13.6.5-8.8,1-13.1,1.1-8,1.7-11.9c1.1-6.9,2.6-14,5.8-18.3s11.7-8.7,11.9-9.4-7.1,2.5-10.8,5.8-4.2,5.6-5.6,9.8c-.4-6.4,4.9-9.6,7.8-11.5s.9-3.2,2.6-3.6a40.5,40.5,0,0,1,6-.5,1.1,1.1,0,0,0,.9-.7v-.2h.3c1.8-.7,3.4-1.8,5.2-1.3-6-1-7.2-3.2-5.2,1.6.1.3,2.4,2.8,3.2,2.9s.7.2.8.2a7.5,7.5,0,0,1,3,1.7c2,1.7,3.6,4.3,5.3,7A84,84,0,0,1,170.9,63v.2a36.9,36.9,0,0,0,1.5,5.3l.3.6c.2.8.3,1.6.5,2.4a59.7,59.7,0,0,1,.8,6.1c.4,4.2.7,8.4,1,12.5.6,8.5,1,17.1.9,25.7a133.4,133.4,0,0,1-2.9,26.4c-.3,1.2,2-3.3,2.3-5-.1,1.2-.1,2.5-.1,3.7a65.4,65.4,0,0,0,1.7-10.4c0,2.2.1,4.4,0,6.7s.4,8.6.7,7.5c1-4.1.8-8.8.8-13.2V117.1c.3,7.3.5,14.6.8,21.9C179.3,140,179.8,118,179.4,107.9ZM156.5,35.6a8.2,8.2,0,0,1,2.7,0c1.8.4,3.3,2.4,4.6,4.3C161.7,37.5,159.2,35.8,156.5,35.6Zm19.7,29.5a18.6,18.6,0,0,0-1.7-4.1l-.3-.7c-.2-.5-.3-1-.5-1.5a36.6,36.6,0,0,0-1.8-4.6c-.6-2.1-1.2-4.2-2-6.3a43,43,0,0,0-3.6-7.1,19.6,19.6,0,0,1,2.4,3.7,25.4,25.4,0,0,0,1.8,4.1,23.7,23.7,0,0,0,2.2,3.3c2.5,4,3.5,9.5,4,14.9A10.9,10.9,0,0,0,176.2,65.1Z" transform="translate(-1.8 -3.9)"/><path class="c" d="M179.5,108.7c-.4-9.6-.6-19.2-1.1-28.8-.5-7.7-1.3-15.8-4-21.8-.7-1.6-1.6-2.9-2.3-4.4a42.9,42.9,0,0,1-1.9-5.4,25.1,25.1,0,0,0-4.8-8.4c-4.4-5.2-15.4-5.4-15.3-4.8h0a37.9,37.9,0,0,0-6.7.6,17.9,17.9,0,0,0-5.8,2.4c-3.2,2.3-6.3,7.9-5.7,15,0,.5-1.6,57.7-1.2,57.4-.6,1.8.6-54.5.2-52.5-.7,3.5-.7,8.1-1.2,11.8s-1.2,9-1.6,13.6a130.8,130.8,0,0,0,0,14c.2,4.8.3,9.6.2,14.4-.1,10.9-.4,33.6-.3,32.3.7-9.1,3-17.2,3.2-26.5.2-4.6-1.4-10.3-1.5-14.8s-.4-9.1-.4-13.7a95.1,95.1,0,0,1,1-13.1c.5-4,1-8,1.6-11.9,1.1-6.9,2.7-14,5.8-18.2s11.8-8.8,11.9-9.5-7.1,2.6-10.7,5.8-4.3,5.6-5.6,9.8c-.4-6.4,4.9-9.6,7.8-11.5s.9-3.2,2.6-3.5a29.5,29.5,0,0,1,5.9-.6,1.1,1.1,0,0,0,1-.7v-.2h.3c1.8-.7,3.4-1.9,5.2-1.4-6-.9-7.5-.4-5.2,1.6.2.2,2.4,2.8,3.2,2.9s.7.3.8.2a11.4,11.4,0,0,1,3,1.7c2,1.7,3.6,4.4,5.2,7A77.2,77.2,0,0,1,171,63.9h0a27.4,27.4,0,0,0,1.5,5.3c.1.2.1.4.2.6l.6,2.4c.3,2,.6,4,.8,6.1L175,91c.6,8.5,1.1,17,.9,25.6A126.4,126.4,0,0,1,173,143c-.3,1.2,2.1-3.3,2.4-5-.1,1.3-.1,2.5-.2,3.7s1.7-7,1.8-10.4V138c0,2.5.3,8.7.6,7.6,1-4.1.8-8.9.8-13.3V117.9l.9,21.9C179.3,140.9,179.9,118.8,179.5,108.7Zm-23-72.3a8.8,8.8,0,0,1,2.8,0c1.8.4,3.3,2.4,4.6,4.3C161.7,38.3,159.2,36.7,156.5,36.4ZM176.3,66a19.4,19.4,0,0,0-1.7-4.2l-.4-.7a8.3,8.3,0,0,0-.4-1.5c-.5-1.5-1.2-3.1-1.8-4.5a58,58,0,0,0-2-6.3,40.3,40.3,0,0,0-3.6-7.2,15.4,15.4,0,0,1,2.3,3.7c.7,1.4,1.1,2.9,1.8,4.2l2.2,3.2c2.6,4.1,3.6,9.5,4.1,14.9C176.6,67.1,176.5,66.5,176.3,66Z" transform="translate(-1.8 -3.9)"/><path class="c" d="M177.3,110.1c-.4-9.5-.7-19.2-1.2-28.7-.4-7.7-1.3-15.9-4-21.9-.7-1.6-1.5-2.9-2.3-4.4s-1.2-3.6-1.9-5.4a24.9,24.9,0,0,0-4.7-8.4c-4.4-5.1-15.5-5.3-15.4-4.7h0a29.6,29.6,0,0,0-6.6.7,14.4,14.4,0,0,0-5.8,2.3c-3.2,2.4-6.3,7.9-5.8,15,.1.5-1.6,57.8-1.2,57.5-.5,1.8.7-54.6.3-52.6-.7,3.6-.7,8.2-1.2,11.8s-1.3,9-1.6,13.6a109,109,0,0,0-.1,14c.2,4.8.3,9.6.3,14.5-.2,10.9-.5,33.6-.4,32.3.8-9.2,3-17.3,3.3-26.6.1-4.5-1.5-10.2-1.6-14.8s-.4-9.1-.4-13.7.5-8.7,1-13,1.1-8,1.7-12c1.1-6.8,2.6-13.9,5.8-18.2s11.7-8.8,11.9-9.4-7.1,2.5-10.8,5.8-4.2,5.6-5.6,9.7c-.4-6.3,4.9-9.6,7.8-11.4s.9-3.3,2.6-3.6a30.4,30.4,0,0,1,6-.5,1,1,0,0,0,.9-.7v-.2h.3c1.8-.7,3.5-1.8,5.2-1.3-6-1-7.2-3.2-5.2,1.6.1.3,2.4,2.7,3.2,2.9s.7.2.8.2a7.5,7.5,0,0,1,3,1.7c2,1.6,3.7,4.3,5.3,7a81.3,81.3,0,0,1,7.8,16.2c0,.1,0,.1.1.1a30.5,30.5,0,0,0,1.4,5.4l.3.6a20.5,20.5,0,0,1,.5,2.4,57.8,57.8,0,0,1,.8,6c.4,4.2.7,8.4,1,12.6.6,8.5,1,17.1.9,25.7a131.6,131.6,0,0,1-2.9,26.3c-.3,1.3,2-3.2,2.3-4.9,0,1.2-.1,2.4-.1,3.7a73.4,73.4,0,0,0,1.8-10.5c0,2.3,0,4.5-.1,6.7s.4,8.7.7,7.6c1-4.1.8-8.8.8-13.2V119.3c.3,7.3.5,14.6.8,21.9C177.1,142.3,177.6,120.3,177.3,110.1Zm-23-72.3a8.2,8.2,0,0,1,2.7.1c1.8.3,3.3,2.3,4.6,4.2A11.7,11.7,0,0,0,154.3,37.8Zm19.8,29.6a31.7,31.7,0,0,0-1.7-4.1l-.4-.7-.5-1.5a36.6,36.6,0,0,0-1.8-4.6,58,58,0,0,0-2-6.3,46.9,46.9,0,0,0-3.5-7.1,26,26,0,0,1,2.3,3.7c.6,1.3,1.1,2.8,1.8,4.1s1.5,2.1,2.2,3.3c2.5,4,3.5,9.5,4,14.9C174.4,68.5,174.2,67.9,174.1,67.4Z" transform="translate(-1.8 -3.9)"/><path class="b" d="M178.7,105c-.3-9.6-.6-19.2-1.1-28.8-.5-7.7-1.3-15.8-4-21.8-.7-1.6-1.6-2.9-2.3-4.4a28.6,28.6,0,0,1-1.9-5.4c-1-4.2-2.9-6.2-4.7-8.4-4.4-5.2-15.5-5.4-15.4-4.8h0a36.8,36.8,0,0,0-6.6.6,17.5,17.5,0,0,0-5.9,2.4c-3.1,2.3-6.2,7.9-5.7,15,0,.5-1.6,57.7-1.2,57.4-.5,1.8.6-54.5.2-52.5-.7,3.5-.7,8.1-1.2,11.8s-1.2,9-1.5,13.6a108.9,108.9,0,0,0-.1,14c.2,4.8.3,9.6.2,14.4-.1,10.9-.4,33.6-.3,32.3.7-9.1,3-17.2,3.3-26.5.1-4.6-1.5-10.3-1.6-14.8s-.4-9.1-.4-13.7.5-8.8,1-13.1,1-8,1.7-11.9c1.1-6.9,2.6-14,5.7-18.2s11.8-8.8,11.9-9.5-7,2.6-10.7,5.8-4.3,5.6-5.6,9.8c-.4-6.4,4.9-9.6,7.8-11.5s.9-3.2,2.6-3.5a30.3,30.3,0,0,1,5.9-.6,1.1,1.1,0,0,0,1-.7v-.2h.3s-1.3-.2,0,.2,2.4,2.8,3.2,2.9.7.3.8.2a11.4,11.4,0,0,1,3,1.7c2,1.7,3.6,4.4,5.3,7a82.2,82.2,0,0,1,7.8,16.3h0a27.4,27.4,0,0,0,1.5,5.3l.3.6c.2.8.3,1.6.5,2.4s.6,4,.8,6.1c.3,4.2.7,8.4,1,12.6.6,8.5,1,17,.9,25.6a133.4,133.4,0,0,1-2.9,26.4c-.3,1.2,2-3.3,2.3-5-.1,1.3-.1,2.5-.1,3.7a63.1,63.1,0,0,0,1.7-10.4v6.7c0,2.5.4,8.7.6,7.6,1-4.1.8-8.9.9-13.3V114.2c.2,7.3.5,14.6.8,21.9C178.6,137.2,179.1,115.1,178.7,105Zm-4.2-41.5a21.9,21.9,0,0,0-1.7-4.1l-.4-.7a8.8,8.8,0,0,0-.5-1.5,36.6,36.6,0,0,0-1.8-4.6,42.1,42.1,0,0,0-2-6.3,46.9,46.9,0,0,0-3.5-7.1c.8,1.1,1.2,1.9,2.3,3.7s1.1,2.8,1.8,4.1,1.5,2.1,2.2,3.3c2.5,4,3.5,9.5,4,14.9C174.8,64.6,174.6,64,174.5,63.5Z" transform="translate(-1.8 -3.9)"/><path class="c" d="M177.4,108.7c-.4-9.6-.6-19.2-1.2-28.8-.4-7.7-1.2-15.8-3.9-21.8-.7-1.6-1.6-2.9-2.3-4.4a42.9,42.9,0,0,1-1.9-5.4,25.1,25.1,0,0,0-4.8-8.4c-4.4-5.2-15.4-5.4-15.3-4.8h0a37.9,37.9,0,0,0-6.7.6,17.9,17.9,0,0,0-5.8,2.4c-3.2,2.3-6.3,7.9-5.7,15,0,.5-1.6,57.7-1.2,57.4-.6,1.8.6-54.5.2-52.5-.7,3.5-.7,8.1-1.2,11.8s-1.2,9-1.6,13.6a130.8,130.8,0,0,0,0,14c.2,4.8.3,9.6.2,14.4-.1,10.9-.4,33.6-.3,32.3.7-9.1,3-17.2,3.2-26.5.2-4.6-1.4-10.3-1.5-14.8s-.5-9.1-.4-13.7a95.1,95.1,0,0,1,1-13.1c.5-4,1-8,1.6-11.9,1.1-6.9,2.7-14,5.8-18.2s11.8-8.8,11.9-9.5-7.1,2.6-10.7,5.8-4.3,5.6-5.7,9.8c-.3-6.4,5-9.6,7.9-11.5s.8-3.2,2.6-3.5a28.8,28.8,0,0,1,5.9-.6.9.9,0,0,0,.9-.7c.1,0,.1-.1.1-.2h.3c1.8-.7,3.3-2.4,5.1-1.8-6-1-5.4-.2-4.3,1.4s1.5,3.4,2.3,3.5a.8.8,0,0,0,.9.2,11.4,11.4,0,0,1,3,1.7,32.7,32.7,0,0,1,5.2,7,82.3,82.3,0,0,1,7.9,16.3h0a27.4,27.4,0,0,0,1.5,5.3,1.4,1.4,0,0,0,.2.6l.6,2.4a59.8,59.8,0,0,1,.7,6.1c.4,4.2.7,8.4,1,12.6.6,8.5,1.1,17,.9,25.6a126.4,126.4,0,0,1-2.9,26.4c-.3,1.2,2-3.3,2.3-5,0,1.3,0,2.5-.1,3.7s1.7-7,1.8-10.4V138c0,2.5.3,8.7.6,7.6,1-4.1.8-8.9.8-13.3V117.9l.9,21.9C177.2,140.9,177.8,118.8,177.4,108.7Zm-23-72.3a8.8,8.8,0,0,1,2.8,0c1.8.4,3.3,2.4,4.6,4.3C159.6,38.3,157.1,36.7,154.4,36.4ZM174.2,66a19.4,19.4,0,0,0-1.7-4.2l-.4-.7c-.1-.5-.3-1-.4-1.5s-1.2-3.1-1.8-4.5a58,58,0,0,0-2-6.3,40.3,40.3,0,0,0-3.6-7.2,15.4,15.4,0,0,1,2.3,3.7c.6,1.4,1.1,2.9,1.8,4.2l2.2,3.2c2.6,4.1,3.5,9.5,4,14.9A9.4,9.4,0,0,0,174.2,66Z" transform="translate(-1.8 -3.9)"/><path class="c" d="M178.6,106.5c-.4-9.6-.7-19.2-1.2-28.8-.4-7.7-1.3-15.8-4-21.8-.7-1.6-1.5-2.9-2.3-4.4s-1.2-3.6-1.8-5.4a24.1,24.1,0,0,0-4.8-8.4c-4.3-4.8-14.8-3.6-15.4-4.8h.1a29.9,29.9,0,0,0-6.7.7,14.4,14.4,0,0,0-5.8,2.3c-3.2,2.3-6.3,7.9-5.8,15a35.4,35.4,0,0,1-.9,4.9c-.7,3.5-.7,8.1-1.2,11.8s-1.3,9-1.6,13.6a108.9,108.9,0,0,0-.1,14q.3,7.2.3,14.4c-.2,10.9-.4,33.6-.3,32.4.7-9.2,2.9-17.3,3.2-26.6.1-4.6-1.4-10.3-1.5-14.8s-.5-9.1-.4-13.7a110.5,110.5,0,0,1,.9-13c.5-4.1,1.1-8.1,1.7-12,1.1-6.9,2.6-14,5.8-18.2s10.8-9.3,11.9-9.5.3-1.2.4-1.7,3.2,3.8,4,4,.8.2.9.2a7.6,7.6,0,0,1,2.9,1.6c2,1.7,3.7,4.4,5.3,7.1A78.7,78.7,0,0,1,170,61.7h.1a27.4,27.4,0,0,0,1.4,5.3l.3.7.6,2.4c.3,1.9.5,3.9.7,6,.4,4.2.7,8.4,1,12.6.6,8.5,1.1,17,.9,25.6a133.4,133.4,0,0,1-2.9,26.4c-.3,1.2,2-3.3,2.3-5,0,1.3-.1,2.5-.1,3.8s1.6-7.1,1.8-10.5v6.7c-.1,2.5.3,8.7.6,7.6,1-4.1.8-8.9.8-13.3V115.7c.3,7.3.6,14.6.8,21.9C178.4,138.7,179,116.6,178.6,106.5Zm-23-72.3a8.2,8.2,0,0,1,2.7,0c1.8.4,5.5,5.3,6.8,7.2C162.9,39,158.3,34.5,155.6,34.2Zm19.8,29.6a21.9,21.9,0,0,0-1.7-4.1l-.4-.7a15.5,15.5,0,0,0-.4-1.5l-1.8-4.6a42.3,42.3,0,0,0-2.1-6.3c-1-2.6-3.7-5.8-5.1-7.9.9,1,3.3,3,3.9,4.5s1.1,2.8,1.8,4.1a36.2,36.2,0,0,0,2.2,3.2c2.5,4.1,3.5,9.6,4,14.9C175.7,64.9,175.5,64.3,175.4,63.8Z" transform="translate(-1.8 -3.9)"/><path class="c" d="M180.8,111.6c-.4-9.6-.7-19.2-1.2-28.8-.5-7.7-1.4-15.8-4.3-21.9-.8-1.5-1.7-2.8-2.5-4.3s-1.3-3.6-2-5.4a24.4,24.4,0,0,0-5.1-8.4c-4.7-5.2-16.5-5.4-16.5-4.8l-.3-.3a41.4,41.4,0,0,0-6.8,1,15.4,15.4,0,0,0-6.2,2.4c-3.4,2.3-6.8,7.8-6.2,15,.1.5-1.7,57.7-1.2,57.4-.6,1.8.6-54.5.2-52.5-.8,3.5-.8,8.1-1.3,11.8s-1.3,8.9-1.7,13.5a109,109,0,0,0-.1,14c.3,4.9.4,9.7.3,14.5-.1,10.9-.4,33.6-.3,32.3.7-9.2,3.2-17.3,3.4-26.5.2-4.6-1.5-10.3-1.6-14.9s-.5-9.1-.4-13.6A95.1,95.1,0,0,1,128,79c.5-4,1.1-8,1.8-11.9,1.2-6.9,2.8-14,6.2-18.3s12.6-8.7,12.8-9.4-7.6,2.5-11.6,5.8-4.5,5.6-6,9.8c-.4-6.4,5.3-9.6,8.4-11.5s.9-3.2,2.8-3.5a33.9,33.9,0,0,1,6.4-.6,1,1,0,0,0,.9-.7c.1-.1.1-.1.1-.2h.3c1.9-.6,3.7-1.8,5.6-1.3-6.5-1-7.8-3.2-5.6,1.6.1.3,2.5,2.8,3.4,2.9s.8.2.9.2a9,9,0,0,1,3.2,1.7,28.7,28.7,0,0,1,5.6,7,73.5,73.5,0,0,1,8.4,16.3c.1,0,.1,0,.1.1a36.9,36.9,0,0,0,1.5,5.3l.3.6.6,2.4a59.7,59.7,0,0,1,.8,6.1c.4,4.2.8,8.4,1.1,12.5.6,8.5,1.1,17.1,1,25.7a120,120,0,0,1-3.2,26.4c-.3,1.2,2.2-3.3,2.5-5,0,1.2,0,2.5-.1,3.7s1.8-7.1,1.9-10.4v6.7c0,2.5.4,8.7.7,7.5,1-4.1.8-8.8.8-13.2V120.8c.3,7.3.7,14.6,1,21.9C180.6,143.8,181.2,121.7,180.8,111.6ZM156.2,39.3a9.4,9.4,0,0,1,2.9,0c1.9.4,3.6,2.4,5,4.3C161.7,41.2,159,39.5,156.2,39.3Zm21.2,29.5a21.7,21.7,0,0,0-1.9-4.1l-.4-.7c-.1-.5-.3-1-.4-1.5s-1.3-3.1-2-4.6-1.3-4.2-2.1-6.3a44.3,44.3,0,0,0-3.9-7.1,16,16,0,0,1,2.5,3.7,39.1,39.1,0,0,0,2,4.1c.7,1.2,1.6,2.2,2.3,3.3,2.7,4,3.8,9.5,4.3,14.9C177.7,69.9,177.5,69.4,177.4,68.8Z" transform="translate(-1.8 -3.9)"/><path class="b" d="M175.8,109.9c-.4-11.2-.6-22.4-1.2-33.6-.5-8.9-1.4-18.4-4.3-25.4-.8-1.9-1.7-3.4-2.5-5.1a58.1,58.1,0,0,1-2.1-6.3,28.2,28.2,0,0,0-5.1-9.8c-4.8-6-16.8-6.3-16.7-5.6l-.3-.3a27.8,27.8,0,0,0-6.9,1.2,13.9,13.9,0,0,0-6.3,2.7c-3.4,2.7-6.8,9.2-6.2,17.5,0,.5-1.7,67.3-1.3,66.9-.6,2.1.7-63.5.3-61.2-.8,4.1-.8,9.5-1.4,13.8s-1.3,10.4-1.7,15.8-.2,10.8,0,16.3.3,11.2.2,16.9c-.1,12.7-.4,39.1-.3,37.6.8-10.7,3.2-20.1,3.5-30.9.1-5.3-1.6-12-1.7-17.3s-.4-10.6-.4-15.9a128.1,128.1,0,0,1,1.1-15.3c.5-4.6,1.1-9.3,1.8-13.9,1.2-8,2.8-16.3,6.2-21.2s12.8-10.3,12.9-11-7.6,2.9-11.6,6.7-4.6,6.6-6.1,11.4c-.4-7.4,5.3-11.2,8.5-13.4s.9-3.7,2.8-4.1a34.7,34.7,0,0,1,6.4-.6,1.1,1.1,0,0,0,1-.8.4.4,0,0,0,.1-.3h.3c2-.8,3.7-2.1,5.7-1.5-6.6-1.2-7.9-3.7-5.7,1.9.1.3,2.6,3.2,3.4,3.3s.8.3,1,.3a9.7,9.7,0,0,1,3.2,1.9c2.1,2,3.9,5.1,5.7,8.2a99.8,99.8,0,0,1,8.5,18.9v.2a37.4,37.4,0,0,0,1.6,6.2l.3.7.6,2.8c.4,2.3.6,4.7.8,7.1.4,4.8.8,9.7,1.1,14.6.6,9.9,1.1,19.9,1,29.9a162.4,162.4,0,0,1-3.2,30.8c-.3,1.4,2.2-3.8,2.5-5.8,0,1.4,0,2.9-.1,4.3s1.8-8.2,1.9-12.2v7.9c0,2.9.4,10.1.7,8.8,1.1-4.8.9-10.3.9-15.5V120.6l.9,25.6C175.6,147.4,176.3,121.7,175.8,109.9ZM150.9,25.6a10.1,10.1,0,0,1,3,0c1.9.5,3.6,2.8,5,5C156.6,27.8,153.9,25.9,150.9,25.6Zm21.5,34.5a20.9,20.9,0,0,0-1.9-4.8,2,2,0,0,0-.4-.8,12.1,12.1,0,0,0-.5-1.8,47.6,47.6,0,0,0-1.9-5.3,57.7,57.7,0,0,0-2.2-7.4,52.8,52.8,0,0,0-3.9-8.3,20.5,20.5,0,0,1,2.6,4.3,34.3,34.3,0,0,0,1.9,4.8c.7,1.4,1.6,2.5,2.4,3.8,2.7,4.7,3.8,11.1,4.4,17.4C172.7,61.4,172.6,60.7,172.4,60.1Z" transform="translate(-1.8 -3.9)"/><path class="c" d="M179.6,109.9c-.4-11.2-.7-22.4-1.3-33.6-.4-8.9-1.4-18.4-4.3-25.4-.8-1.9-1.7-3.4-2.5-5.1a58,58,0,0,1-2-6.3,30.1,30.1,0,0,0-5.2-9.8c-4.8-6-16.7-6.3-16.6-5.6l-.3-.3a26.3,26.3,0,0,0-6.9,1.2,14.2,14.2,0,0,0-6.4,2.7c-3.4,2.7-6.8,9.2-6.2,17.5.1.5-1.7,67.3-1.3,66.9-.6,2.1.7-63.5.3-61.2-.8,4.1-.8,9.5-1.3,13.8s-1.4,10.4-1.7,15.8a147.6,147.6,0,0,0-.1,16.3c.2,5.6.3,11.2.3,16.9-.2,12.7-.5,39.1-.4,37.6.8-10.7,3.3-20.1,3.5-30.9.2-5.3-1.5-12-1.7-17.3s-.4-10.6-.4-15.9a153,153,0,0,1,1.1-15.3c.5-4.6,1.1-9.3,1.8-13.9,1.2-8,2.8-16.3,6.3-21.2s12.7-10.3,12.9-11-7.7,2.9-11.7,6.7-4.6,6.6-6.1,11.4c-.4-7.4,5.3-11.2,8.5-13.4s1-3.7,2.8-4.1a35.7,35.7,0,0,1,6.5-.6,1.3,1.3,0,0,0,1-.8v-.3h.3c2-.8,3.7-2.1,5.7-1.5-6.6-1.2-7.9-3.7-5.7,1.9.1.3,2.6,3.2,3.5,3.3s.8.3.9.3a9.7,9.7,0,0,1,3.2,1.9c2.2,2,4,5.1,5.7,8.2a99.8,99.8,0,0,1,8.5,18.9v.2a50.9,50.9,0,0,0,1.6,6.2l.3.7.6,2.8c.4,2.3.7,4.7.9,7.1.3,4.8.7,9.7,1,14.6.7,9.9,1.2,19.9,1,29.9a162.4,162.4,0,0,1-3.2,30.8c-.3,1.4,2.2-3.8,2.6-5.8-.1,1.4-.1,2.9-.2,4.3s1.8-8.2,2-12.2c0,2.7,0,5.3-.1,7.9s.4,10.1.7,8.8c1.1-4.8.9-10.3.9-15.5V120.6l.9,25.6C179.4,147.4,180,121.7,179.6,109.9Zm-25-84.3a10.1,10.1,0,0,1,3,0c2,.5,3.6,2.8,5,5C160.3,27.8,157.6,25.9,154.6,25.6Zm21.5,34.5a26.7,26.7,0,0,0-1.8-4.8,5.9,5.9,0,0,1-.4-.8,12.1,12.1,0,0,1-.5-1.8c-.6-1.8-1.3-3.6-2-5.3a57.7,57.7,0,0,0-2.2-7.4,63.3,63.3,0,0,0-3.8-8.3,25.5,25.5,0,0,1,2.5,4.3c.7,1.6,1.2,3.4,1.9,4.8s1.6,2.5,2.4,3.8c2.8,4.7,3.8,11.1,4.4,17.4C176.4,61.4,176.3,60.7,176.1,60.1Z" transform="translate(-1.8 -3.9)"/><path class="b" d="M170.5,110c.5-3.1-4.2-17.5-1.6-33.4,1.4-8.8-1.4-18.4-4.3-25.5-.8-1.8-1.7-3.3-2.5-5.1a46.7,46.7,0,0,1-2-6.3,29.5,29.5,0,0,0-5.2-9.7c-4.8-6.1-16.7-6.3-16.6-5.6l-.3-.3a32.9,32.9,0,0,0-7,1.1,15.9,15.9,0,0,0-6.3,2.8c-3.4,2.7-6.8,9.1-6.2,17.5,0,.5-1.7,67.3-1.3,66.9-.6,2.1.7-63.6.3-61.2-.8,4.1-.8,9.5-1.3,13.8s-1.4,10.4-1.7,15.7a149.5,149.5,0,0,0-.1,16.4q.3,8.4.3,16.8c-.2,12.7-.5,39.2-.4,37.7.8-10.7,3.2-20.1,3.5-31,.2-5.3-1.5-11.9-1.7-17.2s-.4-10.6-.4-16,.5-10.2,1.1-15.2,1.1-9.3,1.8-13.9c1.2-8,2.8-16.3,6.3-21.3s12.7-10.2,12.9-11-7.7,3-11.7,6.8-4.6,6.5-6.1,11.4c-.4-7.4,5.3-11.2,8.5-13.4s.9-3.7,2.8-4.1a28.8,28.8,0,0,1,6.5-.7,1.1,1.1,0,0,0,1-.8V25h.3c2-.8,3.7-2.1,5.7-1.5-6.6-1.2-7.9-3.7-5.7,1.8.1.4,2.6,3.3,3.5,3.4s.8.3.9.3a8.2,8.2,0,0,1,3.2,1.9c2.2,2,3.9,5.1,5.7,8.2a94.4,94.4,0,0,1,8.5,18.9v.2a37.4,37.4,0,0,0,1.6,6.2l.3.7.6,2.8a53.1,53.1,0,0,1,.8,7.1c.4,4.8.8,9.7,1.1,14.6.7,9.9,1.2,19.9,1,29.9a162.4,162.4,0,0,1-3.2,30.8c-.3,1.4,2.2-3.8,2.6-5.8-.1,1.4-.1,2.9-.2,4.3s1.8-8.3,2-12.2c0,2.6,0,5.2-.1,7.8s.4,10.1.7,8.9c1.1-4.8.9-10.3.9-15.5V120.9l.9,25.5C170,147.7,168.6,121.7,170.5,110ZM145.2,25.9a10.1,10.1,0,0,1,3,0c2,.4,3.6,2.8,5,5C150.9,28.1,148.2,26.2,145.2,25.9Zm21.5,34.4a34.1,34.1,0,0,0-1.8-4.8,2,2,0,0,1-.4-.8A10.9,10.9,0,0,1,164,53c-.6-1.9-1.3-3.6-2-5.4a61.4,61.4,0,0,0-2.2-7.3A57.8,57.8,0,0,0,156,32a22.1,22.1,0,0,1,2.5,4.3c.7,1.6,1.1,3.4,1.9,4.8s1.6,2.5,2.4,3.8c2.8,4.7,3.8,11.1,4.4,17.4C167,61.6,166.9,61,166.7,60.3Z" transform="translate(-1.8 -3.9)"/><path class="b" d="M149.6,34.4C152.1,31,136,43,133,67.1c-2,15.6-1.3,31.9-1.7,34.7-2.3,16.4-1.3,39.8-1.1,38.2C132.9,118.7,125.3,66.9,149.6,34.4Z" transform="translate(-1.8 -3.9)"/><path class="a" d="M153.1,35.6c-.1-.3-6.5.4-9.2,2.6a36.6,36.6,0,0,0-6.1,7.6l1.5.3a54.2,54.2,0,0,0-5.1,10.8c-1.6,4.5-2,9.4-2.2,14.6-.1,1.6-.2,3.3-.2,4.9a237.8,237.8,0,0,0-1.1,24.4c1.5,14.6,1.5,9.3,1.4,11.5s-.8,9.5-.8,12.1c0,5.7,5.3-1.7,5.4-6.7s.7-8.2.1-12.1a70.7,70.7,0,0,1-.8-12.3c.1-4.4.3-8.7.4-13.1s.2-8.6.7-12.7a28,28,0,0,1,3.4-10.8c1.5-2.9,3-5.8,4.9-7.6C155.5,39.3,153.1,35.6,153.1,35.6Z" transform="translate(-1.8 -3.9)"/><path class="a" d="M149.3,31.8c-.1-.4-6.5.4-9.2,2.6a32.8,32.8,0,0,0-6.1,7.5l1.5.4a54.2,54.2,0,0,0-5.2,10.8c-1.5,4.5-1.9,9.3-2.1,14.6-.1,1.6-.2,3.2-.2,4.9-1.1,11.5-1.3,22.6-1.1,24.4,1.5,14.6-1.6,37.6-1.2,36.1,1.5-6.1,2.5-28.8,3.1-41.6,1.4,6.3-.2,15.6-.5,16.9a99.6,99.6,0,0,0-.8,12.1c0,5.8,5.5,24,4.3,18.6s1-20.2,1.1-25.2-1-8.2-1.6-12.1.8-7.7.9-12.3.2-8.8.4-13.1.2-8.6.6-12.7a31.1,31.1,0,0,1,3.5-10.9c1.4-2.9,2.9-5.7,4.9-7.6C151.6,35.5,149.3,31.8,149.3,31.8Z" transform="translate(-1.8 -3.9)"/><path class="c" d="M138.5,48.3a84.9,84.9,0,0,0-5.1,18.5,69.8,69.8,0,0,0-1.2,11.3c0,4-.8,9-.7,12.9.3,8.3.6,17.4,1.2,25.6s-.6,9.5,3.3,22.5c.3,1.1-2.4-19.9-2-43.2.1-3.9-.2-7.8-.3-11.6a89.5,89.5,0,0,1,.2-11.6c.4-3.5,1-7,1.6-10.3a50.6,50.6,0,0,1,2.4-9.3c2.6-6.8,7.1-11.9,9.6-15.3C147.8,37.5,141.7,40.5,138.5,48.3Z" transform="translate(-1.8 -3.9)"/><path class="b" d="M131.1,46.4c-1.7,2-3.5,6.9-4,10.5A96.7,96.7,0,0,0,126,70.2c-.2,4.8-.2,9.6-.3,14.4-.1,9.7-.2,19.5-.1,29.3s2.3,33.1,2.2,31.8c-.7-18.6-.9-37.3-.7-56,0-4.6.1-9.2.2-13.8a98.9,98.9,0,0,1,1.5-14.5c1.5-10.6,4.1-11.5,6.5-17,1.6-3.5,4.3-4,6.7-5.2s8-4,7.6-4.4S142.3,33.6,131.1,46.4Z" transform="translate(-1.8 -3.9)"/><path class="c" d="M146.6,40.3A70.1,70.1,0,0,0,136.2,62c-1.3,4.4-2.5,8.8-2.5,13.4s-1.6,10.5-1.3,15.1c.4,9.7,1.2,20.5,2.3,30.1s-1.2,11.2,6.7,26.5c.7,1.3-4.8-23.5-3.9-50.9.2-4.5-.5-9.1-.7-13.6s-.5-9.2.4-13.7a98.1,98.1,0,0,1,3.3-12.1A47.9,47.9,0,0,1,145.3,46c5.3-8,14.5-14.1,19.8-18C165.6,27.6,153.2,31.1,146.6,40.3Z" transform="translate(-1.8 -3.9)"/><path class="a" d="M176.4,52.1c-.3-.3-13.3.4-18.7,2.4a55.1,55.1,0,0,0-12.6,6.7l3.1.3a51.9,51.9,0,0,0-10.6,9.7c-3.1,4-3.9,8.4-4.4,13.1-.1,1.5,1.4,2.9,1.3,4.4a60.9,60.9,0,0,0-.4,21.6c3,13.1-2.3,19.1-2.3,21.4.1,5.1,10.8-1.5,11.1-6s1.4-7.4.2-10.8a26.4,26.4,0,0,1-1.7-11.1q.3-5.8.9-11.7c.4-3.7.4-7.7,1.3-11.4s3.8-6.9,7-9.7a37.5,37.5,0,0,1,10-6.8C181.2,55.4,176.4,52.1,176.4,52.1Z" transform="translate(-1.8 -3.9)"/><path class="d" d="M137,91.6c1.4,11.3,3,23.4-7.3,30.8-14.5,4.5-18.3-2.2-30.5,10.2s-20.9,65.8-22.6,63.1c-11.1-18.5-34-26.6-36.5-33-4.4-11.3-.3-18-5.9-26.4-2.4-3.8-3.3-18.7-8.1-15.6-1,.7,4.3,14.8,1.7,15.9-.7.3-15.4-25.2-15.4-19.5,0,1.6,8.3,14.9,7.5,16.1S8.1,111.4,7,116.2c-.3,1.5,10.2,17.6,9,19.4s-11.8-19-12-13c-.1,1.7,10.3,16.9,8.5,18.4S3.6,125.8,2.1,126.9s7,17.5,10.1,21.1c13.9,16.1,54.2,78.9,78.4,69.4,9.9-3.9,21.1-45.8,24-42.9,6.4,6.3,58.6,97.2,1.1,113.2h89.6c8.3.2-40.8-74.8-13-130.8,2.9-5.9,12.5,25.9,16.5,33.8,5.3,10.8,5,17.8,13.4,40.4,3.6,42,7.6,40.6,8.5,56.6.5.2,16.1,0,16.1,0,1.6-18.4-6.2-57.4-10.2-76.4-5.2-24.2-10.4-77.5-31.6-89.3-14.3-7.9-22.5,6.4-34.5-7-6.9-7.6-3.2-18.1-2.8-27.3Z" transform="translate(-1.8 -3.9)"/><path class="e" d="M128.3,122.3c-11.7,3.1-18.8.6-28.3,10.9s-15.6,28.1-16.4,41.5c-.5,7.2,18,21.1,20,21.5,6.1,1.3,7.6-27,11.7-21.2,11.9,16.6.2,41.7-2.5,112.7h99.1c-9.4-62.5-25.1-89.4-17.8-120.9,3.5-15.1,6,19.4,14.8,16.7,1.1-.4,24-4.7,21.9-13.1-4.3-17.1-10.3-38.3-24-47s-19.4-4.9-33.1-5C159.6,150.4,147.3,149.9,128.3,122.3Z" transform="translate(-1.8 -3.9)"/><path class="b" d="M148.6,39.2c3.6-5.1-19.2,12.9-23.4,49.1-2.7,23.5-1.8,47.9-2.3,52.1-3.3,24.5-1.8,59.7-1.5,57.2C125.1,165.7,114.5,88,148.6,39.2Z" transform="translate(-1.8 -3.9)"/><path class="a" d="M149.8,35.3c-.2-.5-9.1.6-12.9,3.9a50.3,50.3,0,0,0-8.6,11.3l2.1.5a83.3,83.3,0,0,0-7.2,16.2c-2.2,6.8-2.7,14.1-3.1,22l-.3,7.3c-1.5,17.3-1.7,34-1.5,36.6,2.1,22-2.2,56.5-1.7,54.2,2.1-9.1,2.4-25.8,3.3-45.1a41,41,0,0,1,.4,8.1c-.1,3.9-1.2,14.3-1.1,18.2,0,8.5,7.7,35.9,5.9,27.8s1.5-30.4,1.7-37.8c.1-5.9.9-12.3.1-18.2a102.2,102.2,0,0,1-1.1-18.5c.1-6.5.3-13,.6-19.6s.3-12.8.8-19a44.7,44.7,0,0,1,4.9-16.3c2-4.4,4.1-8.6,6.8-11.4C153.1,40.8,149.8,35.3,149.8,35.3Z" transform="translate(-1.8 -3.9)"/><path class="a" d="M148.2,35.3c-.2-.5-9.1.6-12.9,3.9a50.3,50.3,0,0,0-8.6,11.3l2.1.5a89.9,89.9,0,0,0-7.3,16.2c-2.1,6.8-2.7,14.1-3,22l-.3,7.3c-1.5,17.3-1.7,34-1.5,36.6,2.1,22-2.3,56.5-1.7,54.2,2.1-9.1,2.4-25.8,3.3-45.1a50.4,50.4,0,0,1,.4,8.1c-.2,3.9-1.2,14.3-1.2,18.2.1,8.5,7.8,35.9,6,27.8s1.5-30.4,1.7-37.8c.1-5.9.9-12.3.1-18.2a102.2,102.2,0,0,1-1.1-18.5c.1-6.5.3-13,.5-19.6s.3-12.8.9-19a46.7,46.7,0,0,1,4.8-16.3c2.1-4.4,4.2-8.6,6.9-11.4C151.5,40.8,148.2,35.3,148.2,35.3Z" transform="translate(-1.8 -3.9)"/><path class="c" d="M190.6,149.5c-.5-14.4-.9-28.9-1.6-43.2-.6-11.5-1.8-23.7-5.6-32.8-1-2.4-2.2-4.3-3.2-6.6s-1.8-5.4-2.7-8.1a37.4,37.4,0,0,0-6.7-12.6c-6.2-7.7-21.7-8-21.6-7.1h0a42.2,42.2,0,0,0-9.3,1.1,19.6,19.6,0,0,0-8.2,3.5c-4.5,3.5-8.9,11.8-8.1,22.5,0,.7-2.2,86.6-1.7,86.1-.7,2.8.9-81.8.4-78.8-1,5.3-1,12.3-1.7,17.8s-1.8,13.4-2.3,20.3-.3,14,0,21,.4,14.5.3,21.7c-.2,16.4-.6,50.4-.4,48.5,1-13.8,4.2-25.9,4.5-39.9.2-6.8-2-15.4-2.2-22.2s-.6-13.7-.5-20.5a158.6,158.6,0,0,1,1.4-19.6c.7-6,1.4-12,2.3-17.9,1.5-10.3,3.7-20.9,8.1-27.4s16.6-13.1,16.8-14.1-10,3.8-15.2,8.7c-3.4,3.2-5.9,8.4-7.9,14.6-.5-9.5,7-14.4,11.1-17.2,2.3-1.6,1.2-4.8,3.6-5.3a39.8,39.8,0,0,1,8.4-.8,1.4,1.4,0,0,0,1.3-1.1v-.3h.5c2.5-1,4.8-2.7,7.3-1.9-8.5-1.5-10.2-4.8-7.4,2.4.2.4,3.4,4.1,4.5,4.3s1.1.3,1.2.3a13.3,13.3,0,0,1,4.2,2.5c2.8,2.5,5.1,6.5,7.4,10.6a118.7,118.7,0,0,1,11,24.3v.2a46.8,46.8,0,0,0,2,8l.4.9c.3,1.2.5,2.4.8,3.6.4,3,.8,6,1,9.1.6,6.3,1,12.6,1.4,18.9.9,12.7,1.5,25.6,1.3,38.4a202.8,202.8,0,0,1-4.1,39.6c-.4,1.9,2.9-4.9,3.3-7.4-.1,1.8-.1,3.7-.2,5.5s2.3-10.6,2.5-15.6v10c-.1,3.8.5,13,.9,11.4,1.4-6.2,1.1-13.3,1.1-19.9V163.3l1.2,32.8C190.4,197.7,191.2,164.7,190.6,149.5ZM158.3,27.7a17,17,0,0,1,3.9.1c2.5.3,4.6,2.3,6.5,4.2A20.3,20.3,0,0,0,158.3,27.7Zm27.8,29.6a16.9,16.9,0,0,0-2.4-4.1l-.5-.7-.6-1.5c-.8-1.6-1.6-3.1-2.5-4.6a51.1,51.1,0,0,0-2.9-6.3,43.3,43.3,0,0,0-5-7.1,19.4,19.4,0,0,1,3.3,3.7,34.5,34.5,0,0,0,2.5,4.1c.9,1.2,2.1,2.1,3.1,3.3,3.6,4,4.9,9.5,5.7,14.9A12.2,12.2,0,0,0,186.1,57.3Z" transform="translate(-1.8 -3.9)"/><path class="c" d="M190.7,154.7c-.5-14.8-.9-29.6-1.6-44.3-.6-11.9-1.8-24.4-5.6-33.7-1-2.4-2.2-4.4-3.2-6.8a80.9,80.9,0,0,1-2.7-8.3,39.1,39.1,0,0,0-6.7-12.9c-6.2-8-21.7-8.3-21.6-7.4h0a42.2,42.2,0,0,0-9.3,1.1,18.6,18.6,0,0,0-8.2,3.6c-4.5,3.6-8.9,12.1-8.1,23.1,0,.7-2.2,89-1.7,88.5-.7,2.8.9-84,.4-81-1,5.5-1,12.6-1.7,18.2s-1.8,13.8-2.3,20.9a194.5,194.5,0,0,0,0,21.6c.2,7.4.4,14.8.3,22.3-.2,16.8-.6,51.7-.4,49.8,1-14.2,4.1-26.6,4.5-41,.2-7-2-15.8-2.2-22.8s-.6-14-.5-21a168.5,168.5,0,0,1,1.4-20.2c.6-6.1,1.4-12.3,2.3-18.4,1.5-10.5,3.7-21.5,8.1-28.1s16.6-13.5,16.8-14.5-10,3.9-15.2,9c-3.4,3.3-5.9,8.6-7.9,15-.5-9.8,6.9-14.8,11.1-17.7,2.3-1.6,1.2-4.9,3.6-5.4a40,40,0,0,1,8.4-.9,1.4,1.4,0,0,0,1.3-1.1v-.3h.5c2.5-1,4.8-2.8,7.3-2-8.5-1.5-10.6-.7-7.4,2.5.3.2,3.4,4.2,4.5,4.4s1.1.4,1.2.3a13.7,13.7,0,0,1,4.2,2.6c2.8,2.6,5.1,6.7,7.4,10.8,4.1,7.5,8.1,15.4,11,25,0,.1,0,.2.1.2a46.9,46.9,0,0,0,2,8.2,10.4,10.4,0,0,0,.4,1c.3,1.2.5,2.5.8,3.7.4,3,.8,6.1,1,9.3.6,6.5,1,12.9,1.4,19.4.9,13.1,1.5,26.3,1.3,39.5a213.3,213.3,0,0,1-4.1,40.6c-.4,1.9,2.9-5,3.3-7.6-.1,1.9-.1,3.8-.2,5.7s2.3-10.9,2.5-16.1v10.4c-.1,3.8.5,13.3.9,11.6,1.4-6.3,1.1-13.6,1.1-20.4V168.9l1.2,33.7C190.5,204.3,191.3,170.3,190.7,154.7ZM158.4,29.3a17,17,0,0,1,3.9,0c2.5.4,4.6,2.5,6.5,4.4A19.7,19.7,0,0,0,158.4,29.3Zm27.8,30.4a16.4,16.4,0,0,0-2.4-4.3l-.5-.7-.6-1.5a35.4,35.4,0,0,0-2.6-4.7,41.2,41.2,0,0,0-7.8-13.8,17.4,17.4,0,0,1,3.3,3.8,35.8,35.8,0,0,0,2.5,4.2c.9,1.2,2.1,2.2,3.1,3.4,3.6,4.1,4.9,9.8,5.6,15.3A4.9,4.9,0,0,0,186.2,59.7Z" transform="translate(-1.8 -3.9)"/><path class="a" d="M183.4,108.9c-.5-3.3-1-6.4-1.5-9.5s-.8-6.7-1.4-9.9-1.2-6-1.9-8.8v-.3c-1-5-1.7-10.5-2.9-15.1a52.5,52.5,0,0,0-3.5-10.2A40.9,40.9,0,0,0,166,43.8c-7.4-10.1-13-1.5-11.3-1.3s12.6,26.7,15.7,36a223.1,223.1,0,0,1,8,35.9c2,13.5,1.5,30.2,1.5,44.6s-.4,30.7-1.8,45.6c-1,10,7.1-29.7,7.1-47.1S185.5,124,183.4,108.9ZM170.7,39.1c1.1,2,1.5,4.9,3.4,5.5l-.6-1.1c-.2-.4-.5-.8-.7-1.3-1.4-2.7-2.2-6.7-4.2-8C169.6,34.7,169.8,37.6,170.7,39.1Z" transform="translate(-1.8 -3.9)"/><path class="c" d="M187.5,156.9c-.5-14.7-.8-29.6-1.6-44.3-.6-11.8-1.8-24.4-5.6-33.7-1-2.4-2.2-4.4-3.2-6.7a83,83,0,0,1-2.7-8.4,39.1,39.1,0,0,0-6.7-12.9c-6.1-7.9-21.7-8.3-21.6-7.3h.1a42.4,42.4,0,0,0-9.4,1.1,18.6,18.6,0,0,0-8.2,3.6c-4.5,3.6-8.8,12.1-8.1,23.1.1.7-2.2,89-1.6,88.5-.8,2.8.8-84,.3-81-1,5.5-1,12.6-1.7,18.3s-1.8,13.8-2.2,20.8a194.6,194.6,0,0,0-.1,21.6c.3,7.4.4,14.9.3,22.3-.2,16.8-.6,51.7-.4,49.8,1-14.2,4.2-26.6,4.5-40.9.2-7.1-2-15.9-2.1-22.9s-.7-14-.6-21a190.1,190.1,0,0,1,1.4-20.1c.7-6.2,1.4-12.4,2.3-18.4,1.6-10.6,3.7-21.5,8.2-28.1s16.5-13.5,16.7-14.6-10,3.9-15.1,9c-3.4,3.3-6,8.6-7.9,15-.5-9.8,6.9-14.8,11-17.6,2.3-1.7,1.2-5,3.6-5.5a40,40,0,0,1,8.4-.9,1.3,1.3,0,0,0,1.3-1c0-.2.1-.3.1-.4h.4c2.5-1,4.8-2.8,7.3-2-8.5-1.5-10.2-4.9-7.4,2.5.2.4,3.4,4.2,4.5,4.4s1.1.4,1.2.4a10.5,10.5,0,0,1,4.2,2.6c2.8,2.5,5.1,6.6,7.4,10.8a123,123,0,0,1,11,25c.1,0,.1.1.1.2a45.7,45.7,0,0,0,2,8.1,6.9,6.9,0,0,1,.4,1c.3,1.2.5,2.5.8,3.7.5,3,.8,6.2,1.1,9.4.5,6.4.9,12.9,1.3,19.3.9,13.1,1.5,26.3,1.3,39.5s1.3,27.8,1.5,22.6v10.4c0,3.8.5,13.3.9,11.6,1.4-6.3,1.1-13.6,1.1-20.4V171.1l1.2,33.8C187.3,206.5,188.1,172.5,187.5,156.9ZM155.2,30.8a17,17,0,0,1,3.9,0c2.5.4,4.7,2.4,6.5,4.4A18.9,18.9,0,0,0,155.2,30.8ZM183,61.1a21.3,21.3,0,0,0-2.3-4.2l-.6-.7-.6-1.5a43.7,43.7,0,0,0-2.5-4.8,52.4,52.4,0,0,0-2.9-6.4,41,41,0,0,0-5-7.3,15.1,15.1,0,0,1,3.3,3.8c.9,1.4,1.5,2.9,2.5,4.2s2.1,2.2,3.1,3.3c3.6,4.2,5,9.8,5.7,15.4A13.4,13.4,0,0,0,183,61.1Z" transform="translate(-1.8 -3.9)"/><path class="b" d="M189.6,145.1c-.5-14.3-.9-28.8-1.6-43.1-.6-11.6-1.8-23.8-5.6-32.8-1-2.4-2.2-4.3-3.2-6.6a45.3,45.3,0,0,1-2.7-8.1c-1.4-6.2-4.1-9.3-6.7-12.6-6.2-7.7-21.7-8.1-21.6-7.2h0a42,42,0,0,0-9.3,1,21.3,21.3,0,0,0-8.2,3.6c-4.5,3.4-8.9,11.8-8.1,22.5.1.7-2.2,86.6-1.7,86.1-.7,2.7.9-81.8.4-78.8-1,5.3-1,12.2-1.7,17.7s-1.8,13.5-2.3,20.4-.3,13.9,0,21,.4,14.4.3,21.7c-.2,16.4-.6,50.4-.4,48.5,1-13.8,4.2-25.9,4.5-39.9.2-6.8-2-15.4-2.2-22.2s-.6-13.7-.5-20.5a158.6,158.6,0,0,1,1.4-19.6c.7-6,1.4-12,2.3-17.9,1.5-10.3,3.7-21,8.1-27.4s16.6-13.1,16.8-14.1-10,3.8-15.2,8.7c-3.4,3.2-5.9,8.4-7.9,14.6-.5-9.5,7-14.4,11.1-17.2,2.3-1.6,1.2-4.8,3.6-5.3a39.8,39.8,0,0,1,8.4-.8,1.4,1.4,0,0,0,1.3-1.1v-.3h.5s-1.8-.2-.1.4,3.4,4.2,4.5,4.4,1.1.3,1.2.3a12.3,12.3,0,0,1,4.2,2.5c2.8,2.5,5.1,6.5,7.4,10.5,4.1,7.3,8.1,15,11,24.4v.2a49.3,49.3,0,0,0,2,8l.4.9c.3,1.2.5,2.4.8,3.6.4,2.9.8,6,1.1,9.1.5,6.3.9,12.6,1.3,18.8.9,12.8,1.5,25.7,1.3,38.5a202.8,202.8,0,0,1-4.1,39.6c-.4,1.8,2.9-4.9,3.3-7.4-.1,1.8-.1,3.7-.2,5.5s2.3-10.6,2.5-15.6v10c-.1,3.8.5,13,.9,11.4,1.4-6.2,1.1-13.3,1.1-19.9V159l1.2,32.8C189.4,193.4,190.2,160.3,189.6,145.1Zm-6-89.4a15.2,15.2,0,0,0-2.4-4.1,1.8,1.8,0,0,0-.5-.7l-.6-1.5a41.7,41.7,0,0,0-2.6-4.6,35.5,35.5,0,0,0-2.8-6.3,36.2,36.2,0,0,0-5-7.1,26.2,26.2,0,0,1,3.3,3.7c1,1.2,1.5,2.8,2.5,4.1s2.1,2.1,3.1,3.2c3.6,4.1,4.9,9.6,5.6,14.9A5.2,5.2,0,0,0,183.6,55.7Z" transform="translate(-1.8 -3.9)"/><path class="c" d="M187.7,154.7c-.5-14.8-.8-29.6-1.6-44.3-.6-11.9-1.8-24.4-5.6-33.7-1-2.4-2.2-4.4-3.2-6.8a80.9,80.9,0,0,1-2.7-8.3,39.1,39.1,0,0,0-6.7-12.9c-6.1-8-21.7-8.3-21.6-7.4a.1.1,0,0,0,.1.1,42.4,42.4,0,0,0-9.4,1.1,18.6,18.6,0,0,0-8.2,3.6c-4.5,3.6-8.8,12.1-8.1,23.1.1.7-2.2,89-1.6,88.5-.8,2.8.8-88.2.2-85.2-1,5.5-2.1,15.8-1.6,22.4s-1.8,13.8-2.2,20.9a194.6,194.6,0,0,0-.1,21.6c.3,7.4.4,14.8.3,22.3-.2,16.8-.6,51.7-.4,49.8,1-14.2,4.2-26.6,4.5-41,.2-7-2-15.8-2.1-22.8s-.7-14-.6-21a192,192,0,0,1,1.4-20.2c.7-6.1,1.4-12.3,2.3-18.4,1.6-10.5,3.7-21.5,8.2-28.1s16.5-13.5,16.7-14.5-10,3.9-15.1,9c-3.4,3.3-6,8.6-7.9,15-.5-9.8,6.9-14.8,11-17.7,2.3-1.6,1.2-4.9,3.7-5.4a38.4,38.4,0,0,1,8.3-.9,1.4,1.4,0,0,0,1.3-1.1c0-.1.1-.2.1-.3h.4c2.5-1,4.7-3.6,7.2-2.7-8.5-1.6-7.7-.2-6.1,2.2.3.3,2.2,5.2,3.3,5.4s1.1.4,1.2.3a11.7,11.7,0,0,1,4.2,2.6c2.8,2.6,5.1,6.7,7.4,10.8,4.1,7.5,8.1,15.4,11,25v.2a46.9,46.9,0,0,0,2,8.2l.4,1c.3,1.2.5,2.5.8,3.7.5,3,.8,6.1,1.1,9.3.5,6.5.9,12.9,1.3,19.4.9,13.1,1.5,26.3,1.3,39.5s-1.2,35.6-.8,33c-.1,1.9-.1,3.8-.2,5.7s2.3-10.9,2.5-16.1v10.4c0,3.8.5,13.3.9,11.6,1.4-6.3,1.1-13.6,1.1-20.4V168.9l1.2,33.7C187.5,204.3,188.3,170.3,187.7,154.7ZM155.4,29.3a17,17,0,0,1,3.9,0c2.5.4,4.7,2.5,6.5,4.4A19.7,19.7,0,0,0,155.4,29.3Zm27.8,30.4a19.6,19.6,0,0,0-2.3-4.3l-.6-.7-.6-1.5a35,35,0,0,0-2.5-4.7,53.7,53.7,0,0,0-2.9-6.5,41,41,0,0,0-5-7.3,15.1,15.1,0,0,1,3.3,3.8c.9,1.4,1.5,2.9,2.5,4.2s2.1,2.2,3.1,3.4c3.6,4.1,5,9.8,5.7,15.3A8.7,8.7,0,0,0,183.2,59.7Z" transform="translate(-1.8 -3.9)"/><path class="c" d="M189.2,163.7c-.5-16.3-.8-32.8-1.6-49.2-.6-13.1-1.8-27-5.5-37.4-1-2.7-2.2-4.9-3.2-7.5s-1.7-6.1-2.6-9.2a43.3,43.3,0,0,0-6.6-14.3c-5.9-8.2-20.5-6.2-21.3-8.2h0a40.6,40.6,0,0,0-9.2,1.1,18.3,18.3,0,0,0-8.1,4.1c-4.4,3.9-8.7,13.4-8,25.6.1.8-2.2,98.8-1.6,98.2-.8,3.1.8-93.2.3-89.8-1,6-1,13.9-1.7,20.2s-1.7,15.3-2.2,23.2-.3,15.9-.1,23.9.5,16.5.4,24.8c-.2,18.6-.6,57.4-.5,55.3,1-15.8,4.2-29.6,4.5-45.5.2-7.8-2-17.5-2.1-25.3s-.6-15.6-.6-23.4.7-15,1.4-22.3,1.4-13.7,2.3-20.5c1.5-11.7,3.7-23.8,8-31.2s16.4-15,16.6-16.1-10.1,1.8-15.2,7.4c-3.4,3.7-5.7,12.1-7.6,19.2-.5-10.8,6.8-16.4,10.9-19.6,2.3-1.8,2.5-3.7,5.1-4.4s5.2-2.3,6.8-2.6.3-2.2.5-3,4.5,6.6,5.6,6.8,1,.4,1.2.3a13.4,13.4,0,0,1,4.1,2.9c2.7,2.9,5,7.4,7.3,12a149.2,149.2,0,0,1,10.9,27.8v.2a57.9,57.9,0,0,0,2.1,9.1l.3,1.1c.3,1.3.5,2.7.8,4.1.5,3.3.8,6.8,1.1,10.3.5,7.2.2,16.3.6,23.5.8,14.5,3.8,27.3,2,41.9s-1.4,31-4.1,45.1c-.4,2.1,2.3-6.3,2.7-9.2s2-23.7,1.9-21.6.8,16.6,1,10.8c0,3.8,0,7.7-.1,11.5s.5,14.8.9,12.9c1.4-7,1.1-15.1,1.1-22.6V179.5l1.2,37.5C189,218.8,189.8,181.1,189.2,163.7Zm-2.8-1.3c-.5-16.4-1.7-32.5-2.5-48.8-.6-13.1-1.7-27.1-5.5-37.4-1-2.7-2.2-4.9-3.2-7.5s-1.7-6.1-2.6-9.2A44.9,44.9,0,0,0,166,45.1c-5.9-8.2-20.5-6.1-21.3-8.1h0a35.7,35.7,0,0,0-9.2,1.2,18.1,18.1,0,0,0-8.1,4c-4.4,4-8.7,13.5-8,25.7.1.8-2.2,98.8-1.6,98.2-.8,3.1.8-93.3.3-89.9-1,6.1-1,14-1.7,20.3s-1.7,15.3-2.2,23.1-.3,16,0,24,.4,16.5.3,24.7c-.2,18.7-.6,57.5-.4,55.3.9-15.7,4.1-29.5,4.4-45.4.2-7.8-2-17.6-2.1-25.4s-.6-15.5-.5-23.3.6-15,1.3-22.4,1.5-13.7,2.3-20.4c1.5-11.7,3.7-23.9,8-31.2s16.4-15,16.6-16.1-10.1,1.8-15.2,7.3c-3.4,3.7-5.7,12.2-7.6,19.3-.5-10.9,6.9-16.4,10.9-19.6,2.3-1.8,2.5-3.7,5.1-4.4s5.2-2.3,6.8-2.6.3-2.2.5-3.1,4.5,6.6,5.6,6.9,1,.3,1.2.3a11.9,11.9,0,0,1,4.1,2.9c2.8,2.8,5.1,7.4,7.3,12a150.9,150.9,0,0,1,10.9,27.7v.3a76.1,76.1,0,0,0,2.1,9.1l.3,1c.3,1.4.6,2.8.8,4.1.5,3.4.8,6.8,1.1,10.4.5,7.1.9,14.3,1.3,21.5.9,14.5,1.5,29.2,1.3,43.9s-3.1,21.2-3.1,23.3,4.8-12.4,4.8-20.6c.4,12.5,2.5,24.4,2.9,36.9C185.3,217.9,186.9,179.7,186.4,162.4ZM157.3,27.1a16.1,16.1,0,0,1,3.8,0c2.5.5,7.6,6,9.4,8.2C167.5,32.6,161.1,27.4,157.3,27.1Zm27.5,33.7a20.8,20.8,0,0,0-2.4-4.7,3.5,3.5,0,0,0-.5-.8l-.6-1.7a49.7,49.7,0,0,0-2.5-5.2,56.6,56.6,0,0,0-2.8-7.2c-1.4-2.9-5.3-6.5-7.1-9,1.2,1.2,4.5,3.5,5.4,5.1s1.5,3.3,2.4,4.7,2.1,2.4,3.1,3.7c3.5,4.6,4.9,10.9,5.6,17Z" transform="translate(-1.8 -3.9)"/><path class="c" d="M193.8,158.7c-.6-14.8-.9-29.6-1.8-44.3-.6-11.9,1.9-27-2.2-36.3-1.1-2.4-6-26.2-8.8-29.5-6.7-8-32.4-4.2-32.3-3.3s-.4-.4-.4-.4c-3.5,0-6.4.9-9.8,1.6a21.2,21.2,0,0,0-8.9,3.6c-4.9,3.6-9.7,12.1-8.9,23.1.1.7-2.4,89-1.8,88.5-.8,2.8,1.9-83.7.4-81-3.1,5.5-2.8,12.6-1.9,18.3s-1.9,13.8-2.4,20.8a194.6,194.6,0,0,0-.1,21.6c.3,7.4.5,14.8.4,22.3-.2,16.8-.6,51.7-.5,49.8,1.1-14.2,4.6-26.6,5-40.9.2-7.1-2.2-15.9-2.4-22.9s-.7-14-.6-21a190.1,190.1,0,0,1,1.5-20.1c.8-6.2,1.6-12.4,2.6-18.5,1.6-10.5,4-21.4,8.8-28.1S147.8,48.5,148,47.5s-10.9,3.9-16.5,9c-3.7,3.3-6.5,8.6-8.6,15-.6-9.8,7.5-14.8,12-17.7,2.5-1.6,1.3-4.9,4-5.4a46,46,0,0,1,9.1-.9,1.6,1.6,0,0,0,1.4-1c0-.2.1-.3.1-.4h.4c2.8-1,5.3-2.8,8-2-9.2-1.5-11.1-4.9-8,2.5.2.4,3.6,4.2,4.9,4.4s1.1.4,1.3.4a11.9,11.9,0,0,1,4.5,2.5c3.1,2.6,5.6,6.7,8.1,10.9a118.5,118.5,0,0,1,12,25,.3.3,0,0,1,.1.2A40.1,40.1,0,0,0,183,98l.4,1,.9,3.7a91,91,0,0,1,1.1,9.3c.6,6.5,1.1,12.9,1.5,19.4,1,13.1,1.7,26.3,1.4,39.5a199.8,199.8,0,0,1-4.4,40.7c-.5,1.8,3.1-5.1,3.6-7.7-.1,1.9-.2,3.8-.2,5.7s2.5-10.9,2.7-16.1v10.4c-.1,3.8.5,13.3.9,11.6,1.6-6.3,1.2-13.6,1.3-20.4V172.9c.4,11.2.8,22.5,1.3,33.7C193.5,208.3,194.4,174.3,193.8,158.7ZM158.6,32a19.7,19.7,0,0,1,4.2,0c2.7.4,5.1,2.4,7.1,4.4A20.9,20.9,0,0,0,158.6,32Zm30.3,30.3a18.3,18.3,0,0,0-2.6-4.2l-.6-.7a10.1,10.1,0,0,0-.7-1.5,45.3,45.3,0,0,0-2.7-4.8,53.8,53.8,0,0,0-3.1-6.4,39.9,39.9,0,0,0-5.5-7.3,16.3,16.3,0,0,1,3.6,3.8,49.4,49.4,0,0,0,2.7,4.2c1.1,1.2,2.3,2.2,3.4,3.3,3.9,4.2,5.4,9.8,6.2,15.3C189.4,63.5,189.2,62.9,188.9,62.3Z" transform="translate(-1.8 -3.9)"/><path class="c" d="M134.2,60.1A132,132,0,0,0,127,87.8a116.5,116.5,0,0,0-1.7,17c0,5.9-1,13.4-.9,19.3.3,12.4.9,26.1,1.6,38.4s-.8,14.3,4.7,33.8c.4,1.7-3.4-29.9-2.8-64.9.1-5.8-.3-11.6-.4-17.4a126,126,0,0,1,.2-17.4c.6-5.3,1.4-10.5,2.3-15.5a107.3,107.3,0,0,1,3.3-13.8c3.7-10.2,10-18,13.6-23C147.2,43.8,138.7,48.3,134.2,60.1Z" transform="translate(-1.8 -3.9)"/><path class="b" d="M121.5,58.5c-2.4,3-4.8,10.5-5.7,16.2a170.4,170.4,0,0,0-1.5,20.5c-.2,7.3-.2,14.7-.3,22.1-.2,15-.3,30.1-.2,45.1.1,16.8,3.2,51.1,3.1,49.1-1.1-28.8-1.3-57.6-1-86.3,0-7.1.1-14.3.2-21.4a205.8,205.8,0,0,1,2.1-22.2c2.3-16.3,5.8-17.8,9.3-26.2,2.2-5.4,6-6.2,9.4-8s11.2-6.2,10.7-6.8S137.2,38.8,121.5,58.5Z" transform="translate(-1.8 -3.9)"/><path class="b" d="M195.5,145.7c2.7-12.8-.3-27.1-4-38s-4.7-21.5-7.4-32.4c-1.2-4.6-2.5-9.2-4.9-12.5s-5.1-4.8-7.7-6.5-7.9-10.3-9.2-11.9-13.1-4.3-12.6-3.8c2.3,2.4,7.5.5,11.4,7.7a28.6,28.6,0,0,0,7.2,8.7c2.6,1.9,5.4,3.3,7.8,5.7s4.3,6.9,5.5,11.5a237.1,237.1,0,0,1,6.7,32.1c1.5,11.5,1.6,23.3,1.7,35.1s3.5,66.7,3.5,65.2Z" transform="translate(-1.8 -3.9)"/><path class="b" d="M187.6,145.2c-.1-11.9-.2-23.8-1.5-35.6s-4-22.6-6.9-33.5c-1.2-4.6-2.6-9.1-5.1-12.4s-5.3-4.8-8.1-6.6a23.2,23.2,0,0,1-4.8-3.6c-1.5-1.4-3.1-4.4-4.3-6-2.6-3.2-12.5-6.8-12.5-6,0,4.9,8.5,5,10.7,7.7s4.8,6.7,7.5,8.6,5.7,3.3,8.2,5.8,4.6,6.8,5.8,11.5a234.2,234.2,0,0,1,7.1,32.1c1.5,11.5.4,15.4,1.7,35,.9,13.4-1.5,81.5-.1,67.4Z" transform="translate(-1.8 -3.9)"/><ellipse class="f" cx="148.7" cy="55.1" rx="33.7" ry="47.2"/><path class="g" d="M147,53.1c0,5.8-6.4,8.5-13.8,8.5s-13.1-2.7-13.1-8.5,6.1-8.4,13.5-8.4S147,47.3,147,53.1Z" transform="translate(-1.8 -3.9)"/><path class="g" d="M180.8,53.1c0,5.8-6.4,8.5-13.8,8.5s-13-2.7-13-8.5,6-8.4,13.4-8.4S180.8,47.3,180.8,53.1Z" transform="translate(-1.8 -3.9)"/><path class="g" d="M146.2,51.4a10.5,10.5,0,0,0,7.8,0" transform="translate(-1.8 -3.9)"/><path class="g" d="M147,54.6a5.7,5.7,0,0,1,7,0" transform="translate(-1.8 -3.9)"/><path class="g" d="M113.7,51.8" transform="translate(-1.8 -3.9)"/><path class="g" d="M119.2,51.8" transform="translate(-1.8 -3.9)"/><line class="g" x1="117.7" y1="50.4" x2="110.6" y2="50.4"/><line class="g" x1="186.7" y1="50.7" x2="179.6" y2="50.7"/><line class="g" x1="186.7" y1="47.9" x2="179.6" y2="47.9"/><line class="g" x1="117.7" y1="47.9" x2="110.6" y2="47.9"/><path class="h" d="M164.7,83.5c0,.1-5.7,7-13.2,7s-13.8-6.9-13.8-7,6-.2,13.5-.2S164.7,83.4,164.7,83.5Z" transform="translate(-1.8 -3.9)"/><path class="b" d="M143.3,41.2c.1-.6-3.3-1.5-6.6-2a25.7,25.7,0,0,0-10.9.8c-4.8,1.3-11.8,7.4-11.7,7.5s7.5-5,11.8-5.7a20.1,20.1,0,0,1,7.2-.3c1.9.2,4.2,1,5.6.6S143.1,41.7,143.3,41.2Z" transform="translate(-1.8 -3.9)"/><path class="i" d="M123.7,51c-.2-.6,1.6-2.2,4.5-3.3a14.2,14.2,0,0,1,3.5-.1C125.7,48.6,123.7,51,123.7,51Z" transform="translate(-1.8 -3.9)"/><path class="i" d="M177.2,49.6c.3-.6-1.4-2.2-4.2-3.3a20.5,20.5,0,0,0-3.4-.1C175.3,47.2,177.2,49.6,177.2,49.6Z" transform="translate(-1.8 -3.9)"/><path class="j" d="M156.2,71.9c-.6-.2,2.2-.8,2.7,1.5s-1.6,3.3-1.6,2.7S160,73.1,156.2,71.9Z" transform="translate(-1.8 -3.9)"/><path class="j" d="M152.5,78.2c-.4.6,0-1.2,1.2-1.8s3.1,0,2.6.3A3.9,3.9,0,0,0,152.5,78.2Z" transform="translate(-1.8 -3.9)"/><path class="j" d="M149.2,78.2c.4.6-.1-1.2-1.2-1.8s-3.2,0-2.6.3A3.9,3.9,0,0,1,149.2,78.2Z" transform="translate(-1.8 -3.9)"/><path class="i" d="M146.6,68.9c-.5,1.1,1.6-1.1,1.7-3.4s-1.7-4.9-1.8-3.8A8.2,8.2,0,0,1,146.6,68.9Z" transform="translate(-1.8 -3.9)"/><path class="f" d="M169.3,80.7c.3,2.1-1.3-7.4-5.9-8.8C163.4,71.9,168,71.4,169.3,80.7Z" transform="translate(-1.8 -3.9)"/><path class="f" d="M133.2,80.9c-.3,2.1,1.3-7.4,5.9-8.9C139.1,72,134.5,71.6,133.2,80.9Z" transform="translate(-1.8 -3.9)"/><path class="f" d="M137.6,90c.9,1.9-1.3-4.6-.8-7.7C136.8,82.3,135.4,85.4,137.6,90Z" transform="translate(-1.8 -3.9)"/><path class="f" d="M165.2,89.1c-1,1.8,1.6-4.7,1-7.8C166.2,81.3,167.7,84.4,165.2,89.1Z" transform="translate(-1.8 -3.9)"/><path class="i" d="M141.2,72.1" transform="translate(-1.8 -3.9)"/><path class="i" d="M154,68.9c.5,1.1-1.5-1.1-1.7-3.4s1.7-4.9,1.8-3.8A8.2,8.2,0,0,0,154,68.9Z" transform="translate(-1.8 -3.9)"/><path class="k" d="M124.7,54.2c.6-.1-.8.8-1.9.4s-2.3-1.9-1.8-1.7S122.4,54.6,124.7,54.2Z" transform="translate(-1.8 -3.9)"/><path class="k" d="M125.2,53.5c.4-.3-.5.9-1.5.7s-2.8-1.7-2.3-1.6S123.7,54.4,125.2,53.5Z" transform="translate(-1.8 -3.9)"/><path class="k" d="M126,52.8c.5-.4-.8,1.1-1.9.8s-2.5-1.9-1.9-1.8S124.2,53.9,126,52.8Z" transform="translate(-1.8 -3.9)"/><path class="k" d="M126.1,52.5c.6-.1-.8.8-1.9.4s-2.3-1.9-1.8-1.7A5,5,0,0,0,126.1,52.5Z" transform="translate(-1.8 -3.9)"/><path class="k" d="M126.8,52.1c.4-.1-.6.9-1.7.5s-2.5-2-2-1.8S125.1,52.9,126.8,52.1Z" transform="translate(-1.8 -3.9)"/><path class="k" d="M127.6,51.5c.6-.3-.8,1-1.9.5s-2.3-2.2-1.8-2S125.8,52.4,127.6,51.5Z" transform="translate(-1.8 -3.9)"/><path class="k" d="M127.7,51.4c.6.1-1,.4-1.9-.2s-1.7-2.2-1.3-1.9A4.9,4.9,0,0,0,127.7,51.4Z" transform="translate(-1.8 -3.9)"/><path class="k" d="M128.4,50.8c.5,0-.7.7-1.6.2s-2.3-2.1-1.8-1.9S126.7,51.2,128.4,50.8Z" transform="translate(-1.8 -3.9)"/><path class="k" d="M129.1,50.4c.6-.1-1,.7-2,.2s-1.9-2.2-1.4-2S127.1,50.9,129.1,50.4Z" transform="translate(-1.8 -3.9)"/><path class="k" d="M129.3,50.3c.6.1-.9.5-1.7-.1s-1.6-2-1.2-1.8A3.9,3.9,0,0,0,129.3,50.3Z" transform="translate(-1.8 -3.9)"/><path class="k" d="M130.1,50.1c.4-.1-.7.5-1.6-.1s-1.8-2.2-1.4-1.9S128.4,50.3,130.1,50.1Z" transform="translate(-1.8 -3.9)"/><path class="k" d="M131.3,49.2c.3,0-.7.5-1.3,0s-1-2.1-.7-1.9S129.9,49.4,131.3,49.2Z" transform="translate(-1.8 -3.9)"/><path class="k" d="M131.1,49.8c.6-.1-1,.6-1.7,0s-1.4-2.3-1.1-2S129.3,50.1,131.1,49.8Z" transform="translate(-1.8 -3.9)"/><path class="k" d="M177,53.3c-.6-.1.8.8,1.9.4s2.4-1.8,1.9-1.6A5,5,0,0,1,177,53.3Z" transform="translate(-1.8 -3.9)"/><path class="k" d="M176.6,52.5c-.4-.2.4,1,1.5.8s2.8-1.6,2.3-1.5S178.1,53.5,176.6,52.5Z" transform="translate(-1.8 -3.9)"/><path class="k" d="M175.8,51.8c-.5-.4.7,1.1,1.8.9s2.6-1.8,2.1-1.7S177.6,53,175.8,51.8Z" transform="translate(-1.8 -3.9)"/><path class="k" d="M175.7,51.5c-.6-.1.8.8,1.9.5s2.4-1.8,1.9-1.7A4.6,4.6,0,0,1,175.7,51.5Z" transform="translate(-1.8 -3.9)"/><path class="k" d="M175.1,51.1c-.4-.2.5.9,1.6.6s2.6-1.9,2.1-1.8S176.7,51.9,175.1,51.1Z" transform="translate(-1.8 -3.9)"/><path class="k" d="M174.2,50.5c-.6-.3.8,1,1.9.6s2.3-2.2,1.8-2S176,51.4,174.2,50.5Z" transform="translate(-1.8 -3.9)"/><path class="k" d="M174.1,50.3c-.6.1,1,.5,1.9-.1s1.9-2.1,1.4-1.8A5,5,0,0,1,174.1,50.3Z" transform="translate(-1.8 -3.9)"/><path class="k" d="M173.4,49.8c-.4-.1.7.7,1.7.2s2.3-2,1.8-1.8S175.1,50.2,173.4,49.8Z" transform="translate(-1.8 -3.9)"/><path class="k" d="M172.8,49.3c-.6-.1,1,.8,1.9.3s2-2.2,1.5-1.9S174.8,49.9,172.8,49.3Z" transform="translate(-1.8 -3.9)"/><path class="k" d="M172.5,49.2c-.5.1,1,.5,1.8,0s1.6-2,1.2-1.8A3.7,3.7,0,0,1,172.5,49.2Z" transform="translate(-1.8 -3.9)"/><path class="k" d="M171.7,48.9c-.4-.1.8.6,1.7.1s1.8-2.2,1.4-2S173.4,49.2,171.7,48.9Z" transform="translate(-1.8 -3.9)"/><path class="k" d="M170.5,48.2c-.3-.1.7.6,1.3,0s1.1-2.1.8-1.8S171.9,48.4,170.5,48.2Z" transform="translate(-1.8 -3.9)"/><path class="k" d="M170.7,48.6c-.5-.1,1,.6,1.8.1s1.5-2.2,1.1-2S172.6,49,170.7,48.6Z" transform="translate(-1.8 -3.9)"/><path class="b" d="M155.9,41.8c-.2-.6,3.2-1.9,6.7-2.9a26.6,26.6,0,0,1,11.5-.3c5.2.9,12.9,6.3,12.8,6.5s-8.1-4.4-12.7-4.6a21.1,21.1,0,0,0-7.6.4c-2,.5-4.3,1.6-5.8,1.3S156.1,42.3,155.9,41.8Z" transform="translate(-1.8 -3.9)"/><path class="j" d="M145.7,71.9c.6-.2-2.1-1-2.8,1.4s1.4,3.3,1.5,2.7S141.9,72.8,145.7,71.9Z" transform="translate(-1.8 -3.9)"/><path class="l" d="M124.2,54.9s2,.1,8.6-1.2a32.3,32.3,0,0,1,4.9-.5,17.1,17.1,0,0,1,4.5.7c.6.2-3.4-5.4-7.9-5.4S124.2,54.3,124.2,54.9Z" transform="translate(-1.8 -3.9)"/><path class="m" d="M138.1,51a4.6,4.6,0,0,1-.5,2,22.6,22.6,0,0,0-5.7.8,4,4,0,0,1-1.2-2.8,3.7,3.7,0,0,1,.5-1.8,6.2,6.2,0,0,1,6.5,0A2.8,2.8,0,0,1,138.1,51Z" transform="translate(-1.8 -3.9)"/><ellipse class="k" cx="132.7" cy="47.2" rx="2.3" ry="2.5"/><ellipse class="l" cx="130.6" cy="47.9" rx="0.6" ry="0.7"/><path class="l" d="M177.4,53.9s-2,.1-8.5-1.2a24,24,0,0,0-5-.5,21.5,21.5,0,0,0-4.5.6c-.5.2,3.5-5.3,7.9-5.3S177.4,53.2,177.4,53.9Z" transform="translate(-1.8 -3.9)"/><path class="n" d="M163.5,50a3.6,3.6,0,0,0,.6,2,25.3,25.3,0,0,1,5.6.7,3.4,3.4,0,0,0,1.2-2.7,2.6,2.6,0,0,0-.5-1.8,6,6,0,0,0-6.4,0A2.9,2.9,0,0,0,163.5,50Z" transform="translate(-1.8 -3.9)"/><ellipse class="k" cx="165.4" cy="46.1" rx="2.3" ry="2.5"/><ellipse class="l" cx="163.5" cy="46.7" rx="0.6" ry="0.7"/><path class="o" d="M124.4,54.9s2,.1,8.6-1.2a32.3,32.3,0,0,1,4.9-.5,17.1,17.1,0,0,1,4.5.7c.6.2-3.4-5.4-7.9-5.4S124.4,54.3,124.4,54.9Z" transform="translate(-1.8 -3.9)"/><path class="o" d="M177.3,53.9s-2.1.1-8.6-1.2a23,23,0,0,0-5-.5,20.7,20.7,0,0,0-4.4.6c-.6.2,3.4-5.3,7.8-5.3S177.3,53.2,177.3,53.9Z" transform="translate(-1.8 -3.9)"/><rect class="l" x="149.7" y="79.7" width="3.2" height="3.68" rx="1.1"/><path class="l" d="M156.6,86.6H156c-.6.1-1.1-.4-1.2-1.1V84.4a1.2,1.2,0,0,1,.9-1.4h.6c.6-.1,1.1.4,1.2,1.1v1.2A1.2,1.2,0,0,1,156.6,86.6Z" transform="translate(-1.8 -3.9)"/><path class="l" d="M159,86.2h-.4a1.1,1.1,0,0,1-1.2-1.1l-.2-1.1c-.1-.7,2.5-1.1,2.6-.4v1.1A1.2,1.2,0,0,1,159,86.2Z" transform="translate(-1.8 -3.9)"/><path class="p" d="M161.5,85.4h-.4a1.1,1.1,0,0,1-1.2-1v-.7c-.1-.7,2.5-1.1,2.5-.4V84C162.5,84.7,162.1,85.4,161.5,85.4Z" transform="translate(-1.8 -3.9)"/><path class="q" d="M163.7,84.5h-.4a1,1,0,0,1-1.1-.9l2.3-.4A1,1,0,0,1,163.7,84.5Z" transform="translate(-1.8 -3.9)"/><rect class="l" x="148.5" y="83.7" width="3.2" height="3.68" rx="1.1" transform="translate(298.3 167.2) rotate(-180)"/><path class="l" d="M146.6,86.7h.6c.6.1,1.1-.4,1.2-1.1V84.6a1.2,1.2,0,0,0-.9-1.4H147a1,1,0,0,0-1.2,1v1.2A1.2,1.2,0,0,0,146.6,86.7Z" transform="translate(-1.8 -3.9)"/><path class="l" d="M144.2,86.3h.4a1.1,1.1,0,0,0,1.2-1.1l.2-1.1c.1-.6-2.5-1.1-2.6-.4v1.1A1.2,1.2,0,0,0,144.2,86.3Z" transform="translate(-1.8 -3.9)"/><path class="p" d="M141.7,85.6h.4a1,1,0,0,0,1.2-1v-.7c.1-.7-2.5-1.1-2.5-.4v.7A1.2,1.2,0,0,0,141.7,85.6Z" transform="translate(-1.8 -3.9)"/><path class="q" d="M139.5,84.7h.4a1,1,0,0,0,1.1-.9V83a10.1,10.1,0,0,1-2.3-.4v.8A1.1,1.1,0,0,0,139.5,84.7Z" transform="translate(-1.8 -3.9)"/><path class="r" d="M165.8,82.4c-5,.3-6.7.6-8.6,0s-5.1-1.2-5.7.6c-.8-1.8-3.4-1.3-6.6-.3s-4.4-.5-7.9,0c-1.7.3,7,8.3,14.5,8.3S167.5,82.3,165.8,82.4Zm-14.6,7c-5,.4-11.9-5-13.2-5.8,3.3.5,5.7,2.6,13.4,1.7,7.3.7,9-.6,13-1.7C165,83.4,159.8,88.8,151.2,89.4Z" transform="translate(-1.8 -3.9)"/><circle class="s" cx="142.8" cy="59.8" r="0.3"/><circle class="s" cx="168.1" cy="63" r="0.3"/><circle class="s" cx="148.5" cy="58" r="0.4"/><circle class="s" cx="154.7" cy="60.4" r="0.3"/><circle class="s" cx="148.3" cy="63" r="0.2"/><circle class="s" cx="149.5" cy="60.7" r="0.2"/><circle class="s" cx="140.3" cy="62.3" r="0.4"/><circle class="s" cx="151.1" cy="55.7" r="0.1"/><circle class="s" cx="160.7" cy="55.1" r="0.5"/><circle class="s" cx="157.3" cy="60.6" r="0.2"/><circle class="s" cx="139.3" cy="59.4" r="0.2"/><circle class="s" cx="146.4" cy="55.6" r="0.2"/><circle class="s" cx="162.9" cy="61.5" r="0.3"/><circle class="s" cx="158.8" cy="65.7" r="0.4"/><circle class="s" cx="130.4" cy="61.9" r="0.4"/><circle class="s" cx="133.3" cy="64.5" r="0.2"/><path class="b" d="M143,7.4c5.1-6.8-27.9,17.3-34.1,65.9-3.9,31.6-2.6,64.4-3.4,70-4.7,33-2.5,80.2-2.1,76.9C108.8,177.4,93.4,73,143,7.4Z" transform="translate(-1.8 -3.9)"/><path class="a" d="M147.1,4.5c-1.9-1.7-18.1.1-23.6,4.4-3.5,3.4-1.3,7.8-4.8,14.1l3.1.7a106.9,106.9,0,0,0-10.6,21.7c-3.2,9.1-3.9,19-4.4,29.5-.2,3.3-.3,6.6-.5,9.8-2.2,23.3-2.5,45.7-2.1,49.2,3,29.5-3.3,75.9-2.5,72.8,3.1-12.2,3.5-34.6,4.7-60.6a48.1,48.1,0,0,1,.6,11c-.2,5.2-1.6,19.1-1.6,24.4,0,11.5,11.2,48.2,8.7,37.3-2.1-8.9,2.1-40.8,2.3-50.8.2-7.9,1.4-16.5.2-24.3a136,136,0,0,1-1.6-24.9c.2-8.8.5-17.6.9-26.3s.4-17.3,1.2-25.7,2.6-17,5.8-23.3,7.3-10.1,11.2-13.8C154.8,10,147.1,4.5,147.1,4.5Z" transform="translate(-1.8 -3.9)"/><path class="a" d="M146.3,4.7c-1.2-.9-14.6-.9-19.9,3.6s-8.1,9.3-11.6,15.7a28.2,28.2,0,0,0,3.1.7,111.6,111.6,0,0,0-10.6,22.2c-3.2,9.2-3.9,19.2-4.4,30-.2,3.3-.4,6.6-.5,9.9-2.2,23.7-2.5,46.5-2.1,50.1,3,30-3.3,77.2-2.6,74.1,3.1-12.4,3.6-35.3,4.8-61.7a49.9,49.9,0,0,1,.6,11.2c-.2,5.3-1.7,19.5-1.6,24.8,0,11.7,11.2,49.1,8.7,38-2.1-9.1,2.1-41.5,2.3-51.7.2-8,1.4-16.8.2-24.8a140.4,140.4,0,0,1-1.6-25.3c.1-8.9.5-17.9.8-26.8s.5-17.6,1.3-26.1,3.8-15.8,7-22.2,6.1-11.8,10-15.6C150.8,10.8,146.3,4.7,146.3,4.7Z" transform="translate(-1.8 -3.9)"/><path class="c" d="M208.5,161.4c-.8-19.4-1.3-38.8-2.4-58.1-.8-15.4-2.6-31.8-8.1-44-1.4-3.2-3.2-5.8-4.7-8.9s-2.6-7.1-3.8-10.8a51.6,51.6,0,0,0-9.8-16.9c-9-10.4-27.8-9.7-27.7-10.9.2-5.5-42,22-40.9,37.7.1.9-3.2,116.4-2.4,115.7-1.1,3.7,1.3-109.9.5-105.9-1.5,7.2-1.5,16.5-2.5,23.9-1.3,9-2.5,18-3.2,27.3a241,241,0,0,0-.2,28.2c.4,9.7.7,19.4.5,29.2-.2,21.9-.8,67.7-.6,65.1,1.5-18.5,6.1-34.8,6.6-53.5.3-9.2-2.9-20.7-3.1-29.9s-.9-18.4-.8-27.6a230.9,230.9,0,0,1,1.9-26.3c1.1-8,2.2-16.1,3.5-24,2.2-13.9,5.4-32.8,2.6-24.5-.7-12.8,16-26.6,19.5-27.3s11.2-7.3,15.2-6.8c9.1,1.1,13.7,9.4,15.7,11.1,4,3.3,7.4,8.7,10.7,14.1,6,9.8,11.8,20.1,16.1,32.7v.3a66.9,66.9,0,0,0,3,10.7,6.1,6.1,0,0,1,.5,1.2l1.2,4.9c.7,3.9,1.2,8,1.6,12.2.7,8.4,1.3,16.9,1.9,25.3,1.3,17.1,2.2,34.4,1.9,51.7s-2,36.5-5.9,53.2c-.6,2.5,4.1-6.6,4.7-10-.1,2.5-.2,5-.2,7.5s3.3-14.3,3.6-21.1v13.5c-.1,5,.7,17.5,1.2,15.3,2.1-8.3,1.7-17.8,1.7-26.7V179.9l1.8,44.2C208.1,226.2,209.3,181.8,208.5,161.4ZM155.9,14.8a27.2,27.2,0,0,1,5.7.1c3.6.5,6.8,3.1,9.4,5.7A29.2,29.2,0,0,0,155.9,14.8Zm40.5,39.7a24.4,24.4,0,0,0-3.5-5.5l-.7-.9a12.4,12.4,0,0,0-1-2,47.7,47.7,0,0,0-3.6-6.2c-1.2-2.9-2.1-5.5-5.1-6.8-4.8-2-8.6-7.2-9.2-11.2,1.7,1.6,9.8,8.8,11.3,10.5a61.4,61.4,0,0,0,4.5,4.3c5.2,5.5,7.2,12.9,8.2,20.1Z" transform="translate(-1.8 -3.9)"/><path class="c" d="M210,160.2c-.8-19.3-1.3-38.7-2.4-58-.9-15.5-6.7-38.5-8.1-44-.9-3.6-3.2-5.8-4.7-8.9s.3-7.6-3.9-14.9c-6.4-11.3-6-8.5-9.7-12.8-9-10.5-31.4-9.8-32.4-10.4s-1.1.4-.9.4c-4.6,0-7.2.8-11.7,1.8a30,30,0,0,0-11.9,4.7c-6.5,4.7-12.8,15.9-11.7,30.2,0,1-3.2,116.4-2.4,115.8-1.1,3.6,1.2-109.9.4-105.9-1.4,7.1-1.4,16.4-2.4,23.8-1.3,9-2.6,18.1-3.3,27.3a242.9,242.9,0,0,0-.1,28.3c.4,9.7.6,19.4.5,29.1-.3,22-.8,67.7-.6,65.2,1.4-18.6,6.1-34.8,6.6-53.6.3-9.2-3-20.7-3.2-29.9s-.9-18.3-.8-27.5a227.6,227.6,0,0,1,2-26.3c1-8.1,2.1-16.1,3.4-24.1,2.3-13.8,5.4-28.1,11.8-36.7S147.6,14,148.2,13c-1-.8-13.8,6.9-21.3,13.4-5,4.4-8.7,11.4-11.5,19.7-.7-12.8,7.9-18.9,12.4-24.3s5.4-5.3,8.9-5.9,4.5-2.3,8.7-2.9c.5-.1,3.8-1.1,2.5-1.4.5.1,3.4,1.3,3.6,1.2,3.6-1.4,7-3.7,10.6-2.6-12.3-2.1-15.4-.9-10.7,3.2.4.3,12.4,8,14.4,9.6,4,3.4,7.4,8.8,10.7,14.2,6,9.7,11.7,20.1,16,32.7v.2a61.4,61.4,0,0,0,3,10.7c.2.5.3.9.5,1.3l1.2,4.8q.9,6,1.5,12.3c.8,8.4,1.4,16.8,2,25.3,1.3,17.1,2.2,34.4,1.9,51.7s-1.8,46.6-1.2,43.1c-.1,2.5,3.1-6.7,3.4-13.5,0,4.5,0,9-.1,13.5s1.5,1.6,2.1-.7c2-8.3.9-1.9.9-10.8v-29c.6,14.7,1.1,29.4,1.7,44.1C209.6,225.1,210.8,180.6,210,160.2ZM163,10.1c1.9-.1,3.9,7,5.8,7.2C172.4,17.8,168.5,10.4,163,10.1Zm28.6,17.5" transform="translate(-1.8 -3.9)"/><path class="a" d="M204.5,86.7c-2.2-12.7-25-65.2-31.3-71.3-3.8-4.6-7.5-5.2-10-6.4-5-2.4-8.1-3.5-9.9-3.7-12.4-2,1.2,8,3.5,8.4s23.9,31.4,28.3,43.6-.5,34.4,6.1,50.4,2.2,39.6,2.2,58.5a557.5,557.5,0,0,1-2.7,59.6c-1.4,13.1,10.4-38.9,10.4-61.6C201.1,143.1,205.3,90.8,204.5,86.7ZM177.9,22.4c1.6,2.6,2.2,6.4,4.9,7.1l-.9-1.3a16.3,16.3,0,0,0-1.1-1.7C178.9,23,176.6,20.5,177.9,22.4Z" transform="translate(-1.8 -3.9)"/><path class="c" d="M147.5,10.9c3.1-1.7,6.4,3.1,6.5,3.8s18.1,14.6,21.4,20c6,9.8,5.7,22.8,10,35.4,0,.1.1.2.1.3.8,3.8,7.6,45.9,8.2,54.3,1.3,17.2,2.2,34.4,1.9,51.7s3.2,15-.7,31.7c-.6,2.5-.7,16.5-.8,19s3.4-14.3,3.7-21.1c0,4.5,0,9.1-.1,13.6s.6-2.3,1.2-4.6c2-8.2,1.8,2,1.8-6.9V179c.6,14.8,1.1,29.5,1.7,44.2.1,2.1,1.3-42.3.5-62.7s-1.3-38.8-2.4-58c-.9-15.5-2.6-31.9-8.1-44.1-1.5-3.2-3.2-5.8-4.7-8.8s-2.6-7.2-3.9-10.9a51.5,51.5,0,0,0-9.7-16.9c-6.3-7.3-19.5-10.6-26.6-10.9m-2.7-.2c-.6-.1-11.1,2-15.6,2.9a30,30,0,0,0-11.9,4.7c-6.5,4.7-12.9,15.9-11.8,30.2.1,1-3.2,116.5-2.4,115.8-1.1,3.6,1.3-109.9.5-105.9-1.5,7.1-1.4,16.4-2.5,23.8-1.2,9.1-2.5,18.1-3.2,27.3a242.9,242.9,0,0,0-.1,28.3c.4,9.7.6,19.4.5,29.1-.3,22-.9,67.7-.7,65.2,1.5-18.6,6.1-34.8,6.7-53.6.2-9.1-3-20.7-3.2-29.8s-.9-18.4-.8-27.6a227.6,227.6,0,0,1,2-26.3c1-8.1,2.1-16.1,3.4-24.1,2.2-13.8,5.4-28.1,11.8-36.7s9.9-13.9,2.4-7.4c-5,4.4-8.7,11.4-11.5,19.7-.8-12.8,10-19.3,16-23.1,3.4-2.1,1.8-6.5,5.3-7.1s17.8-5.3,18.2-4.7-2.8-.7-3.1-.7m11.1-.5a34.7,34.7,0,0,1,5.6.1c3.7.5,6.8,3.2,9.5,5.7A29.9,29.9,0,0,0,155.9,10.2ZM196.3,50a24.6,24.6,0,0,0-3.4-5.6l-.8-.9-.9-2c-1.1-2.1-2.4-4.2-3.7-6.2a65.2,65.2,0,0,0-4.1-8.4,52.8,52.8,0,0,0-7.3-9.6,28.4,28.4,0,0,1,4.8,5,47.2,47.2,0,0,0,3.6,5.5c1.4,1.6,3.1,2.9,4.5,4.4,5.2,5.4,7.2,12.8,8.2,20A10.2,10.2,0,0,0,196.3,50Z" transform="translate(-1.8 -3.9)"/><path class="b" d="M147.7,6.8c.7.5.4,2.8,1,2.9a23.2,23.2,0,0,0,3.7,3,18.6,18.6,0,0,1,6.1,3.4c4.1,3.4,7.4,8.7,10.8,14.1,5.9,9.8,11.7,20.2,16,32.8a.3.3,0,0,0,.1.2,53.8,53.8,0,0,0,2.9,10.7l.6,1.3c.4,1.6.8,3.2,1.1,4.8.7,4,1.2,8.1,1.6,12.3.7,8.4,1.4,16.8,2,25.3,1.2,17.1,2.1,34.4,1.8,51.7s-1.8,46.6-1.1,43.1l-.3,7.5c-.1,2.2,3.3-14.2,3.6-21,0,4.5.1,9,0,13.5s.7,17.5,1.3,15.2c2-8.3,1.6-17.8,1.6-26.7v-29l1.8,44.1c.1,2.2,1.2-42.3.4-62.7s-1.3-38.7-2.3-58c-.9-15.5-2.6-31.9-8.1-44.1-1.5-3.1-3.2-5.7-4.8-8.8a55.8,55.8,0,0,1-3.8-10.9c-2.1-8.3-8.2-9.4-12-13.7-5.9-6.8-17.3-9.4-24-11m-.2-.3c-.1-.9-16.2-7-29.7,7-5.1,5.4-12.5,14.1-12.5,27.9,0,1-3.2,116.4-2.4,115.8-1.1,3.6,1.3-109.9.5-105.9-1.5,7.1-1.4,16.4-2.5,23.8-1.2,9-2.5,18.1-3.2,27.3a241.3,241.3,0,0,0-.1,28.2c.4,9.8.6,19.5.5,29.2-.3,22-.9,67.7-.7,65.2,1.5-18.6,6.1-34.9,6.7-53.6.2-9.2-3-20.7-3.2-29.9s-.9-18.3-.8-27.5a227.6,227.6,0,0,1,2-26.3c1-8.1,2.1-16.2,3.4-24.1,2.2-13.8,5.4-28.1,11.8-36.8s9.9-13.9,2.3-7.3c-4.9,4.4-8.6,11.3-11.4,19.7-.8-12.8,10-19.3,16-23.1,3.4-2.1,2.5-4.9,5.3-7.2s9.6-1.5,12.1-1.1,5.8.6,5.9-1.3M194,47.9a24.4,24.4,0,0,0-3.5-5.5l-.7-.9-.9-2.1c-1.1-2.1-2.4-4.1-3.7-6.1a66.5,66.5,0,0,0-4.1-8.5c-2.1-3.4-9.9-4.4-12.6-7.4,1.8,1.5,7.8.4,10,2.8s2.2,3.9,3.7,5.6a61.4,61.4,0,0,0,4.5,4.3c5.2,5.5,7.2,12.8,8.2,20.1Z" transform="translate(-1.8 -3.9)"/><path class="c" d="M145.4,9.4c-1.9,0-3.1.2-3,.5m3.8-.7c.6,0,12.2,9.1,14.1,10.7,4.1,3.3,11,7.8,14.3,13.1,6,9.6,6.2,21.5,10.5,33.9v.2a61.6,61.6,0,0,0,3,10.5l.6,1.3c.4,1.5.8,3.1,1.1,4.7.7,3.9,1.2,7.9,1.6,12,.7,8.3,1.4,16.6,2,24.9,1.2,16.8,2.1,33.8,1.8,50.8s-1.8,45.8-1.2,42.4c0,2.5-.1,4.9-.2,7.4s3.3-14,3.6-20.7v13.3c-.1,4.9.3,4.2.8,2,2.1-8.1,2.1-4.6,2.1-13.3V173.9l1.8,43.3c.1,2.1,1.2-41.5.4-61.6s-1.3-38-2.3-57c-.9-15.2-2.7-31.3-8.2-43.2-1.4-3.2-3.2-5.7-4.7-8.7s-2.6-7.1-3.8-10.7a48.3,48.3,0,0,0-9.8-16.6c-6.9-7.9-21.8-10.3-28.2-10.3m-3.1.8s-9.5-.6-13.6,1.4c-2.2,1.2-3.8,2.7-7.6,5.4-6.5,4.6-17.7,14.5-18.8,29.7,0,.9-.5,113.7.3,113-1.1,3.6,1.3-108,.5-104-1.5,7-1.4,16.1-2.5,23.4-1.3,8.9-2.5,17.7-3.2,26.8a234.4,234.4,0,0,0-.1,27.8c.4,9.5.6,19,.5,28.6-.3,21.6-.9,66.5-.7,64,1.5-18.2,6.1-34.2,6.6-52.6.3-9-2.9-20.3-3.1-29.3s-.9-18.1-.8-27.1a222.4,222.4,0,0,1,2-25.9c1-7.9,2.1-15.8,3.4-23.6,2.2-13.6,5.3-27.6,11.8-36.1S141.2,14,141.4,12.7s-14.4,5-22,11.5c-4.9,4.2-8.6,11.1-11.4,19.3-.8-12.6,10-19,16-22.7,3.4-2.1,1.8-6.4,5.3-7a61.9,61.9,0,0,1,12.1-1.1,4.1,4.1,0,0,0,2.1-1c.2,0,1.2-2,2-1.9m10-.7a27.2,27.2,0,0,1,5.7,0c3.6.5,6.8,3.1,9.4,5.6A29,29,0,0,0,155.5,9.1Zm40.5,39a21.8,21.8,0,0,0-3.5-5.4l-.7-1a17.4,17.4,0,0,0-1-1.9,54.1,54.1,0,0,0-3.6-6.1,71,71,0,0,0-4.1-8.3c-2.1-3.4-3.9-6.4-2.6-4.5s2.2,3.8,3.7,5.4,3.2,2.5,4.5,4.3c6.4,9.4,2.5,18.6,8.2,19.7Z" transform="translate(-1.8 -3.9)"/><path class="c" d="M136.1,23.3a27.1,27.1,0,0,0-11.3,4.5c-6.3,4.4,1.2,22.9-11.3,28.6-2.6,1.2-4.6,110.5-2.2,109.7-1.1,3.5-1-84.8-2-77.8-1.2,8.6-2.4,17.1-3,25.9a239.4,239.4,0,0,0-.2,26.8c.4,9.2.6,18.4.5,27.6-.2,20.8-.8,64.2-.6,61.7,1.4-17.5,5.8-33,6.3-50.7.3-8.7-2.8-19.6-3-28.3s-.8-17.4-.8-26.1a227.9,227.9,0,0,1,1.9-25c1-7.6,5.8-43.5,5.8-45.9-.7-12.2,7.6-20.5,13.3-24.1,3.3-2,3.7-4,7.1-4.6s11.6-12.3,11.6-12.4C147.2,11.5,140.4,22.4,136.1,23.3Zm59.8,33.1c-.9-1.9-2.8-13.1-4.1-15s-1.3-6.5-3.9-8-23.1-13.6-19.3-20c4.9.7,23,20.9,24.7,25,7.5,19.4,8.2,27.7,9.1,34.5C202.2,72.2,196.2,57.1,195.9,56.4Z" transform="translate(-1.8 -3.9)"/><path class="c" d="M122.5,36.2c-4.7,11.5-5.4,24.5-7.6,38.2-1.2,7.7-2.4,15.3-2.4,23.4s-1.6,18.5-1.4,26.6c.5,17,1.3,35.9,2.4,52.7s-1.2,19.7,6.7,46.5c.7,2.3-4.8-41.1-3.9-89.2.1-8-.5-16-.7-24s-.6-16,.4-23.9S112.9,71,114.2,64s5.4-14.4,7.5-20.1c5.3-14.1,4.5-14,9.7-20.9C131.9,22.4,129.1,20.1,122.5,36.2Z" transform="translate(-1.8 -3.9)"/><path class="b" d="M108.5,32c-3.5,4-7.1,13.8-8.3,21.2A215.2,215.2,0,0,0,98,80c-.3,9.7-.3,19.3-.5,28.9-.3,19.7-.4,39.4-.2,59.1.2,21.9,4.6,66.9,4.5,64.2-1.5-37.6-2-75.3-1.5-112.9.1-9.3.2-18.6.4-27.9s1.7-20.3,3-29.1c3.3-21.4,10.6-22.6,15.6-33.5,3.3-7.2,6.7-8.9,11.5-11.3s16.4-8.1,15.5-8.8C143.6,6.2,131.3,6.3,108.5,32Z" transform="translate(-1.8 -3.9)"/><path class="b" d="M207.2,145.8c-.2-15.5-3.2-34.2-5-49.5s-2.6-26.6-6.6-40.9c-1.7-6-6.8-12.2-10.3-16.5s-9.8-14.2-12.4-15.2C156.9,17,159,10,147.4,10.1c-2.2,0,20.2,13.5,24,16.1s9,9.6,12.6,12.8a32.8,32.8,0,0,1,9.5,14.8c4,13.5,3.1,27.8,5.1,42.2s5.5,30.6,5.6,45.9c.2,17.5,3.4,54.1,3.4,52.2Z" transform="translate(-1.8 -3.9)"/><path class="b" d="M150.1,10c13.1-1.6,24.9,7.9,31.7,18.1A57.9,57.9,0,0,1,190,47.2a226.9,226.9,0,0,1,3.8,23.1,678.3,678.3,0,0,1,6.1,93.4c-.1,17.6-.9,35.3-2.3,52.9-.1.5,2.8.1,2.9-.8a686.3,686.3,0,0,0,1.1-96.2c-1-15.8-2.5-31.5-4.5-47.2-1.1-8-2.1-16-3.7-23.9a61.6,61.6,0,0,0-7.8-19.8c-7.5-12-20.2-21.7-35-19.8-.3,0-1.6.3-1.7.8s.9.3,1.2.3Z" transform="translate(-1.8 -3.9)"/><path class="t" d="M154.8,14.7c11.3,2.7,18.9,13.9,23.9,23.6,6.4,12,10.7,25.2,13.7,38.5,6.7,29,6.1,58.8,4.5,88.3-.8,14.6-2.3,29-4.5,43.4,0,.3.7.1.8-.1,1.9-13,3.3-26,4.1-39.2s1.6-29.3,1.4-44a243,243,0,0,0-4.8-45,163.9,163.9,0,0,0-13.2-39.7,72.1,72.1,0,0,0-11.2-17.1c-3.9-4.2-8.6-7.7-14.3-9-.2-.1-.8.2-.4.3Z" transform="translate(-1.8 -3.9)"/><path class="t" d="M145,8.8c-4.6-2.2-9.7.7-13.4,3.5A68.6,68.6,0,0,0,119,25.5c-4.4,5.8-6.1,12.7-7.7,19.7a214.9,214.9,0,0,0-3.6,22.5c-1.9,15.6-2.6,31.4-3.3,47.1s-1.1,31.5-1.2,47.2c-.1,9,.2,18.1-.2,27.1a111.2,111.2,0,0,1-1.8,12.9,51.7,51.7,0,0,0-1.3,12.4c0,.5,1.4.2,1.4-.4-.3-7.5,2.2-14.7,2.9-22.2s.3-14.8.4-22.2c0-15.5.4-31.1.9-46.6s1.2-30,2.5-44.9c.7-7.4,1.5-14.8,2.7-22.2s2.4-14.3,4.8-21.2,7.3-12.7,12.4-17.9a46.1,46.1,0,0,1,7.7-6.3c2.5-1.4,5.4-2.4,8.2-1.1.5.2,1.8-.4,1.2-.6Z" transform="translate(-1.8 -3.9)"/><path class="t" d="M148.2,12.2c2.6-.1,5.1,1.6,7.2,3a68,68,0,0,1,7.3,5.7,41.7,41.7,0,0,1,7.9,8.9,50.1,50.1,0,0,1,7.1,11.7,87.4,87.4,0,0,1,4.8,20.2c1.9,14.7,1.4,29.6,1.3,44.3s.5,28.7,1,43a280,280,0,0,1-1.5,42c-.3,2-.6,4-.8,5.9s1.3.3,1.4-.2a257.3,257.3,0,0,0,2.5-43c-.4-14.6-1.3-29.2-1.2-43.9s.7-30-.8-44.9a97.5,97.5,0,0,0-4.2-20.7,35,35,0,0,0-2.9-7.2c-1.1-1.9-2.4-3.8-3.7-5.6l-4.5-6a30.7,30.7,0,0,0-3.4-3.8l-6.5-5.3a28.4,28.4,0,0,0-7.3-4.4,10.7,10.7,0,0,0-3.1-.6c-.6,0-1.6.9-.6.9Z" transform="translate(-1.8 -3.9)"/><ellipse class="u" cx="129.2" cy="65.5" rx="5.2" ry="6.2"/><ellipse class="v" cx="167.5" cy="65.4" rx="5.2" ry="6.2"/></svg>