<svg xmlns="http://www.w3.org/2000/svg" viewBox="0 0 222.32 238.99"><defs><style>.cls-1{fill:#fff;}.cls-2{fill:#d74b61;}.cls-3{fill:#ffd4d6;}.cls-4{fill:#aa3c51;}.cls-5{fill:#d06d73;}.cls-6{fill:#de8a88;}.cls-7{fill:#df9895;}</style></defs><g id="Layer_4" data-name="Layer 4"><path d="M115,36c-33.76,7.47-63.22,39-67,78-4,40.85,21.19,80.5,59,93,51.39,17,93.44-27,99-33,8-8.6,19.88-21.5,22-40C233.33,87.4,174.41,22.86,115,36Z" transform="translate(-8.87 -8.35)"/></g><g id="Layer_3" data-name="Layer 3"><rect class="cls-1" x="75.13" y="32.65" width="36" height="32" rx="5.81"/><rect class="cls-1" x="115.13" y="32.65" width="36" height="32" rx="5.81"/><path class="cls-2" d="M114.18,17.3c-72.5-38.5-78.5,57.5-71,93-6.36,42.1,6.77,102.35,48,117,60.5,21.5,139.5-20.5,140-97C231.59,66.89,181.68-16.2,114.18,17.3ZM143.5,183.5c-35,7.11-68.28-1.43-86-49-9.53-23.68,9-98,57-74,12.94-2.81,34.39-3.17,45,2,39,19,52,46,62,67C232.09,138.93,184.53,175.17,143.5,183.5Z" transform="translate(-8.87 -8.35)"/><path class="cls-3" d="M102,23c-2.5,6.5-12.47-3.13-24,1C51.5,33.5,46.2,78.72,45.5,78.5S48.59,26.61,76,19C88.34,15.58,103.85,18.2,102,23Z" transform="translate(-8.87 -8.35)"/><path class="cls-3" d="M125,24c-.69-3.09,16.19-8.28,33-5,34.68,6.76,51.34,53.78,51,54s-7-17-36-40c-7.22-5.73-21.11-7.07-26.63-6.8C133.63,26.82,126.4,30.28,125,24Z" transform="translate(-8.87 -8.35)"/><path class="cls-4" d="M151.5,52.5C143.75,49.62,131,57.26,115,56c-18.16-1.42-22.69-5.8-30.5-5.5-26,1-46,80-12.5,120.5,37.69,45.56,151-.12,151.5-37.5C199.5,75.5,173.16,60.55,151.5,52.5ZM76,169C43.29,131.41,64,63,86,58c7.29-1.66,12.87,2.34,30.23,3.68,15.3,1.18,27.56-3.89,34.77-.68,20.17,9,47.46,19.83,71,73C216.61,168.88,111.74,210.07,76,169Z" transform="translate(-8.87 -8.35)"/><path class="cls-3" d="M209,180c.08,1.51-10.58,23.29-35,35-22.44,10.76-44.5,13-45,12-2.52-5.09,11-5.55,30-11C195.12,205.64,209,179.81,209,180Z" transform="translate(-8.87 -8.35)"/></g><g id="Layer_2" data-name="Layer 2"><path class="cls-5" d="M124.09,116.18C143.89,112.11,195,90,221,136c1.57,2.78-6,14-15,21-26,19-119.87,97.85-179.5,87.5a8.41,8.41,0,0,1-4.31-2.5C6,230.25,8.78,201,9.5,193.5c3.81-40,38.2-87.4,76.09-87.82C104.91,105.47,116.84,117.67,124.09,116.18Z" transform="translate(-8.87 -8.35)"/></g><g id="Layer_5" data-name="Layer 5"><path class="cls-6" d="M64.5,166.5c-7-14,44-35,41-42-7.26-17-56-19-86,37-14.42,26.92-15,68.09,4,81,33.19,22.51,87.06-39.88,124-58,53-26,51.74-49.36,45-58C160.5,85.5,69.2,175.9,64.5,166.5Z" transform="translate(-8.87 -8.35)"/><path class="cls-7" d="M28.22,156.16c-.5-1.5-13,34-4.5,59.5,3,8.88,5,12,8,11,2.69-.9-3.38-9.91-5-22C24.72,189.66,28.45,156.83,28.22,156.16Z" transform="translate(-8.87 -8.35)"/></g></svg>