<svg id="Layer_1" data-name="Layer 1" xmlns="http://www.w3.org/2000/svg" xmlns:xlink="http://www.w3.org/1999/xlink" viewBox="0 0 237.1 245.23"><defs><style>.cls-1{fill:url(#linear-gradient);}.cls-2,.cls-4{fill:#ffecd1;}.cls-2,.cls-3{stroke:#f4bd90;}.cls-2,.cls-3,.cls-4{stroke-miterlimit:10;stroke-width:3px;}.cls-3{fill:#f4bd7a;}.cls-4{stroke:url(#linear-gradient-2);}.cls-5{fill:#f9d5b4;}</style><linearGradient id="linear-gradient" x1="237.38" y1="148.68" x2="170.26" y2="148.68" gradientUnits="userSpaceOnUse"><stop offset="0" stop-color="#ffecd1"/><stop offset="0.67" stop-color="#f9d5b4"/></linearGradient><linearGradient id="linear-gradient-2" x1="30.16" y1="207.63" x2="267.08" y2="70.85" gradientUnits="userSpaceOnUse"><stop offset="0.25" stop-color="#f4bd90"/><stop offset="1" stop-color="#ffebd0"/></linearGradient></defs><path class="cls-1" d="M218.5,80.5c-12.32,38.57,24.67,147.83,13,139-13.35-10.09-73.76-5.9-65-34C180.7,140,224.86,60.6,218.5,80.5Z" transform="translate(-4.96 -1.15)"/><path class="cls-2" d="M43.5,187.5C19.62,179.26,3.21,213.34,7,225c9.86,30.34,56.44,22.78,54-11C60.48,206.77,54.91,191.44,43.5,187.5Z" transform="translate(-4.96 -1.15)"/><path class="cls-3" d="M37,233c-1.26-.08,20,0,59-7,21.54-3.87,35.71-21.2,60-16,6.16,1.32,34,3.72,43,24,1,2.29,2.87,6.62,1,9-4.16,5.3-23.65-1.15-47-13-12.1-6.14-41,4.87-57-1C92.58,227.75,69,235,37,233Z" transform="translate(-4.96 -1.15)"/><path class="cls-4" d="M128.5,4.5c-9.41-1.51,18.07,61.69-13,96-8.63,12.77-35,29.56-60.5,47-24.82,16.93-31,39.75-21.5,62,16.25,38.17,59.45,39.38,115,10,7.17-3.79,10.32-4,35.87,18.29,12.72,11.1,45.2,9.28,52.13-6.29,17.27-38.82-25.26-55.72-40-57-6.65-.58,14-28.12,20-63,7.67-44.86,21.42-66.31,18-91-3.48-25.11-33.52-1.75-43-8C187,9.51,150.69-1.73,128.5,4.5Z" transform="translate(-4.96 -1.15)"/><path class="cls-5" d="M96.5,233.5c-18.62.66-51.44-17.45-56-58-.85-7.56-10.42,28.4,7,45C69.52,241.48,107,233.13,96.5,233.5Z" transform="translate(-4.96 -1.15)"/></svg>