<?xml version="1.0" encoding="utf-8"?>
<!-- Generator: Adobe Illustrator 25.0.1, SVG Export Plug-In . SVG Version: 6.00 Build 0)  -->
<svg version="1.1" id="Layer_1" xmlns="http://www.w3.org/2000/svg" xmlns:xlink="http://www.w3.org/1999/xlink" x="0px" y="0px"
	 viewBox="0 0 237.1 245.2" style="enable-background:new 0 0 237.1 245.2;" xml:space="preserve">
<style type="text/css">
	.st0{fill:url(#SVGID_1_);}
	.st1{fill:#FFECD1;stroke:#F4BD90;stroke-width:3;stroke-miterlimit:10;}
	.st2{fill:#F4BD7A;stroke:#F4BD90;stroke-width:3;stroke-miterlimit:10;}
	.st3{fill:#FFECD1;stroke:url(#SVGID_2_);stroke-width:3;stroke-miterlimit:10;}
	.st4{fill:#F9D5B4;}
</style>
<g>
	
		<linearGradient id="SVGID_1_" gradientUnits="userSpaceOnUse" x1="237.38" y1="99.3176" x2="170.26" y2="99.3176" gradientTransform="matrix(1 0 0 -1 -4.96 246.85)">
		<stop  offset="0" style="stop-color:#FFECD1"/>
		<stop  offset="0.67" style="stop-color:#F9D5B4"/>
	</linearGradient>
	<path class="st0" d="M213.5,79.3c-12.3,38.6,24.7,147.8,13,139c-13.4-10.1-73.8-5.9-65-34C175.7,138.9,219.9,59.4,213.5,79.3z"/>
	<path class="st1" d="M38.5,186.4C14.7,178.1-1.8,212.2,2,223.9c9.9,30.3,56.4,22.8,54-11C55.5,205.6,50,190.3,38.5,186.4z"/>
	<path class="st2" d="M32,231.9c-1.3-0.1,20,0,59-7c21.5-3.9,35.7-21.2,60-16c6.2,1.3,34,3.7,43,24c1,2.3,2.9,6.6,1,9
		c-4.2,5.3-23.6-1.1-47-13c-12.1-6.1-41,4.9-57-1C87.6,226.6,64,233.9,32,231.9z"/>
	
		<linearGradient id="SVGID_2_" gradientUnits="userSpaceOnUse" x1="30.1627" y1="40.3728" x2="267.0787" y2="177.1505" gradientTransform="matrix(1 0 0 -1 -4.96 246.85)">
		<stop  offset="0.25" style="stop-color:#F4BD90"/>
		<stop  offset="1" style="stop-color:#FFEBD0"/>
	</linearGradient>
	<path class="st3" d="M123.5,3.3c-9.4-1.5,18.1,61.7-13,96c-8.6,12.8-35,29.6-60.5,47c-24.8,16.9-31,39.8-21.5,62
		c16.2,38.2,59.4,39.4,115,10c7.2-3.8,10.3-4,35.9,18.3c12.7,11.1,45.2,9.3,52.1-6.3c17.3-38.8-25.3-55.7-40-57
		c-6.6-0.6,14-28.1,20-63c7.7-44.9,21.4-66.3,18-91c-3.5-25.1-33.5-1.8-43-8C182,8.4,145.7-2.9,123.5,3.3z"/>
	<path class="st4" d="M91.5,232.4c-18.6,0.7-51.4-17.4-56-58c-0.8-7.6-10.4,28.4,7,45C64.6,240.3,102,232,91.5,232.4z"/>
</g>
</svg>
