<?xml version="1.0" encoding="utf-8"?>
<!-- Generator: Adobe Illustrator 25.0.1, SVG Export Plug-In . SVG Version: 6.00 Build 0)  -->
<svg version="1.1" id="Layer_1" xmlns="http://www.w3.org/2000/svg" xmlns:xlink="http://www.w3.org/1999/xlink" x="0px" y="0px"
	 viewBox="0 0 425 500" style="enable-background:new 0 0 425 500;" xml:space="preserve">
<style type="text/css">
	.st0{fill:#663917;}
	.st1{fill:#603917;}
	.st2{fill:#754D29;}
	.st3{fill:url(#SVGID_1_);}
	.st4{fill:#EA6533;}
	.st5{fill:#F2DCC1;}
	.st6{fill:none;stroke:#414141;stroke-width:3;stroke-miterlimit:10;}
	.st7{fill:#BC202E;}
	.st8{fill:#EDCCA4;}
	.st9{fill:#EAC4A0;}
	.st10{fill:#221F1F;}
	.st11{fill:#FFFFFF;}
	.st12{fill:url(#SVGID_2_);}
	.st13{fill:url(#SVGID_3_);}
	.st14{fill:none;stroke:#3A2416;stroke-width:0.5;stroke-miterlimit:10;}
	.st15{fill:#E5E6E6;}
	.st16{fill:#CFD1D2;}
	.st17{fill:#F496A9;}
	.st18{fill:#C1976B;}
	.st19{fill:#895D3B;}
	.st20{fill:url(#SVGID_4_);}
	.st21{fill:url(#SVGID_5_);}
</style>
<path class="st0" d="M298.8,142.2c-0.6-3.7-1.2-7.3-1.8-10.9c-0.4-3.9-1-7.6-1.7-11.3c-0.7-3.6-1.5-6.9-2.3-10.1
	c0-0.1-0.1-0.3-0.1-0.4c-1.2-5.8-2-12-3.5-17.3c-2.2-7.9-2.8-8-4.3-11.8c-2-5-5.1-10.1-7.6-12.9c-9-11.6-15.9-1.7-13.8-1.5
	c3.1,0.3,15.5,30.7,19.2,41.4c4.2,11.9,7.4,25.8,9.8,41.2c2.4,15.5,1.9,34.7,1.9,51.3c0,17.8-0.5,35.2-2.3,52.3
	c-1.2,11.5,8.8-34.2,8.8-54.1C301.1,179.6,301.4,159.6,298.8,142.2z M283.3,83.8c1.4,3.4,1.9,8.4,4.1,9.4c-0.2-0.6-0.5-1.2-0.7-1.8
	c-0.3-0.8-0.6-1.5-0.9-2.2c-1.6-4.7-2.7-11.6-5.1-13.8C282,76.2,282.2,81.2,283.3,83.8z"/>
<path class="st1" d="M309.3,180.4c-0.1-13.6-0.2-27.3-1.7-40.8c-1.5-13.3-4.7-26-8.1-38.5c-1.4-5.3-3-10.5-6-14.3
	c-2.7-3.5-6.2-5.5-9.5-7.6c-1.9-1.2-9.7-11.8-11.2-13.6c-3-3.6-16.1-4.9-15.5-4.4c2.9,2.7,9.2,0.6,14,8.9c2.3,4,5.6,7.7,8.8,9.9
	c3.2,2.2,6.6,3.8,9.5,6.6c3.3,3.2,5.3,7.9,6.8,13.2c3.3,11.9,6.5,24.2,8.2,36.8c1.8,13.3,1.9,26.8,2.1,40.3
	c0.1,15.4,2.9,47.5,2.8,45.9L309.3,180.4z"/>
<path class="st1" d="M302.5,182.2c-0.1-13.6-0.2-27.3-1.7-40.8c-1.5-13.3-4.7-26-8.1-38.5c-1.4-5.3-3-10.5-6-14.3
	c-2.7-3.5-6.2-5.5-9.5-7.6c-1.9-1.2-3.9-2.5-5.6-4.1c-1.6-1.6-3.5-5.1-5-6.9c-3-3.6-14.5-7.8-14.5-6.9c0,5.6,9.9,5.7,12.5,8.8
	c2.7,3.3,5.6,7.7,8.8,9.9c3.2,2.2,6.6,3.8,9.5,6.6c3.3,3.2,5.3,7.9,6.8,13.2c3.3,11.9,6.5,24.2,8.2,36.8c1.8,13.3,1.9,26.8,2.1,40.3
	c0.1,15.4,2.9,47.5,2.8,45.9L302.5,182.2z"/>
<path class="st2" d="M227.9,92.7c0.5-0.5,22.9,0.7,32.3,4c6.1,2.6,15.5,6.8,21.6,11.7c0,0-5.4,0.5-5.3,0.5
	c6.9,4.8,13.3,10.4,18.2,16.7c5.5,6.9,6.8,14.5,7.6,22.6c0.3,2.5,0.5,5,0.8,7.5c3.8,17.8,4.3,35,3.7,37.7
	c-5.2,22.6,5.7,58.2,4.4,55.8c-5.3-9.4-6.1-26.6-8.2-46.5c-0.9,2.7-1.3,5-1,8.4c0.4,4,2.9,14.7,2.8,18.7c-0.1,8.8-19.4,37-15,28.6
	c3.6-6.8-3.6-31.2-4.1-38.9c-0.3-6.1-2.4-12.7-0.3-18.7c2.3-6.7,3.2-12,2.8-19.1c-0.3-6.7-0.9-13.5-1.5-20.2
	c-0.6-6.5-0.7-13.3-2.2-19.7c-1.5-6.8-6.5-11.9-12.1-16.7c-5.2-4.5-10.5-8.9-17.2-11.8C219.6,98.4,227.9,92.7,227.9,92.7z"/>
<path class="st2" d="M307.7,188.8c-0.6-16.5-1.1-33.1-2-49.6c-0.7-13.2-2.2-27.3-6.8-37.7c-1.2-2.7-2.7-4.9-4-7.6
	c-1.3-2.8-2.2-6.2-3.2-9.3c-2-6.1-5-10.7-8.2-14.4c-7.6-8.9-26.6-9.3-26.5-8.3c0,0,0,0.1,0,0.1c-3.8,0-7.7,0.4-11.5,1.2
	c-3.4,0.7-6.8,1.7-10,4.1c-5.5,4-10.8,13.5-9.9,25.8c0.1,0.8-2.7,99.5-2,99c-0.9,3.1,1.1-94,0.4-90.6c-1.2,6.1-1.2,14.1-2.1,20.4
	c-1.1,7.7-2.1,15.4-2.7,23.4c-0.6,8.1-0.4,16-0.1,24.1c0.3,8.3,0.5,16.6,0.4,24.9c-0.2,18.8-0.7,57.9-0.5,55.7
	c1.2-15.8,5.1-29.8,5.6-45.8c0.2-7.9-2.5-17.7-2.7-25.5c-0.2-7.9-0.7-15.7-0.7-23.6c0.1-7.6,0.8-15.1,1.7-22.5
	c0.9-6.9,1.8-13.8,2.9-20.6c1.9-11.8,4.5-24.1,10-31.4c6.2-8.4,20.3-15.1,20.5-16.2c0.2-1-12.2,4.4-18.5,10
	c-4.2,3.7-7.3,9.7-9.7,16.8c-0.6-10.9,8.5-16.5,13.5-19.7c2.9-1.8,1.5-5.5,4.5-6.1c3.4-0.7,6.8-0.9,10.2-0.9c0.5,0,1.4-0.3,1.6-1.2
	c0-0.1,0.1-0.3,0.1-0.4c0.2,0,0.4-0.1,0.5-0.1c3.1-1.2,5.9-3.2,9-2.3c-10.4-1.7-12.5-5.5-9,2.8c0.2,0.5,4.1,4.7,5.5,5
	c0.2,0.4,1.3,0.4,1.4,0.4c1.8,0.5,3.5,1.5,5.1,2.9c3.4,2.9,6.3,7.5,9.1,12.1c5,8.3,9.9,17.2,13.5,28c0,0.1,0,0.1,0,0.2
	c0.6,3.3,1.4,6.4,2.5,9.2c0.1,0.4,0.3,0.7,0.4,1.1c0.3,1.4,0.7,2.8,1,4.1c0.6,3.4,1,6.9,1.3,10.4c0.6,7.2,1.2,14.4,1.7,21.6
	c1,14.6,1.8,29.4,1.6,44.2c-0.3,15.5-1.7,31.2-5,45.5c-0.5,2.1,3.5-5.6,4-8.6c-0.1,2.1-0.1,4.3-0.2,6.4c-0.1,1.9,2.8-12.2,3.1-18
	c0,3.9,0,7.7,0,11.6c-0.1,4.3,0.6,14.9,1.1,13c1.7-7.1,1.4-15.2,1.4-22.8c0-8.3,0-16.6,0-24.8c0.5,12.6,1,25.2,1.5,37.7
	C307.4,244.3,308.4,206.3,307.7,188.8z M268.1,64.2c1.6-0.2,3.2-0.2,4.7,0.1c3.1,0.6,5.7,4.1,8,7.4C277,67.5,272.7,64.7,268.1,64.2z
	 M302.2,115.2c-0.8-2.6-1.7-4.9-2.9-7.1c-0.2-0.4-0.4-0.8-0.6-1.2c-0.2-0.9-0.5-1.7-0.8-2.6c-0.9-2.7-2-5.3-3.1-7.9
	c-1-3.7-2.1-7.4-3.5-10.9c-1.8-4.4-3.8-8.5-6.2-12.3c1.5,1.9,2.9,3.9,4,6.4c1.1,2.3,1.8,4.9,3.1,7.1c1.1,2,2.6,3.7,3.8,5.6
	c4.4,7,6.1,16.4,7,25.7C302.7,117.1,302.5,116.1,302.2,115.2z"/>
<path class="st2" d="M307.8,190.3c-0.6-16.5-1.1-33.1-2-49.6c-0.7-13.2-2.2-27.3-6.8-37.7c-1.2-2.7-2.7-4.9-4-7.6
	c-1.3-2.8-2.2-6.2-3.2-9.3c-2-6.1-5-10.7-8.2-14.4c-7.6-8.9-26.6-9.3-26.5-8.3c0,0,0,0.1,0,0.1c-3.8,0-7.7,0.4-11.5,1.2
	c-3.4,0.7-6.8,1.7-10,4.1c-5.5,4-10.8,13.5-9.9,25.8c0.1,0.8-2.7,99.5-2,99c-0.9,3.1,1.1-94,0.4-90.6c-1.2,6.1-1.2,14.1-2.1,20.4
	c-1.1,7.7-2.1,15.4-2.7,23.4c-0.6,8.1-0.4,16-0.1,24.1c0.3,8.3,0.5,16.6,0.4,24.9c-0.2,18.8-0.7,57.9-0.5,55.7
	c1.2-15.8,5.1-29.8,5.6-45.8c0.2-7.9-2.5-17.7-2.7-25.5c-0.2-7.9-0.7-15.7-0.7-23.6c0.1-7.6,0.8-15.1,1.7-22.5
	c0.9-6.9,1.8-13.8,2.9-20.6c1.9-11.8,4.5-24.1,10-31.4c6.2-8.4,20.3-15.1,20.5-16.2c0.2-1-12.2,4.4-18.5,10
	c-4.2,3.7-7.3,9.7-9.7,16.8c-0.6-10.9,8.5-16.5,13.5-19.7c2.9-1.8,1.5-5.5,4.5-6.1c3.4-0.7,6.8-0.9,10.2-0.9c0.5,0,1.4-0.3,1.6-1.2
	c0-0.1,0.1-0.3,0.1-0.4c0.2,0,0.4-0.1,0.5-0.1c3.1-1.2,5.9-3.2,9-2.3c-10.4-1.7-13-0.7-9,2.8c0.3,0.3,4.1,4.7,5.5,5
	c0.2,0.4,1.3,0.4,1.4,0.4c1.8,0.5,3.5,1.5,5.1,2.9c3.4,2.9,6.3,7.5,9.1,12.1c5,8.3,9.9,17.2,13.5,28c0,0.1,0,0.1,0,0.2
	c0.6,3.3,1.4,6.4,2.5,9.2c0.1,0.4,0.3,0.7,0.4,1.1c0.3,1.4,0.7,2.8,1,4.1c0.6,3.4,1,6.9,1.3,10.4c0.6,7.2,1.2,14.4,1.7,21.6
	c1,14.6,1.8,29.4,1.6,44.2c-0.3,15.5-1.7,31.2-5,45.5c-0.5,2.1,3.5-5.6,4-8.6c-0.1,2.1-0.1,4.3-0.2,6.4c-0.1,1.9,2.8-12.2,3.1-18
	c0,3.9,0,7.7,0,11.6c-0.1,4.3,0.6,14.9,1.1,13c1.7-7.1,1.4-15.2,1.4-22.8c0-8.3,0-16.6,0-24.8c0.5,12.6,1,25.2,1.5,37.7
	C307.5,245.7,308.5,207.7,307.8,190.3z M268.2,65.6c1.6-0.2,3.2-0.2,4.7,0.1c3.1,0.6,5.7,4.1,8,7.4
	C277.1,68.9,272.8,66.1,268.2,65.6z M302.3,116.6c-0.8-2.6-1.7-4.9-2.9-7.1c-0.2-0.4-0.4-0.8-0.6-1.2c-0.2-0.9-0.5-1.7-0.8-2.6
	c-0.9-2.7-2-5.3-3.1-7.9c-1-3.7-2.1-7.4-3.5-10.9c-1.8-4.4-3.8-8.5-6.2-12.3c1.5,1.9,2.9,3.9,4,6.4c1.1,2.3,1.8,4.9,3.1,7.1
	c1.1,2,2.6,3.7,3.8,5.6c4.4,7,6.1,16.4,7,25.7C302.8,118.5,302.6,117.5,302.3,116.6z"/>
<path class="st2" d="M303.9,192.7c-0.6-16.5-1.1-33.1-2-49.6c-0.7-13.2-2.2-27.3-6.8-37.7c-1.2-2.7-2.7-4.9-4-7.6
	c-1.3-2.8-2.2-6.2-3.2-9.3c-2-6.1-5-10.7-8.2-14.4c-7.6-8.9-26.6-9.3-26.5-8.3c0,0,0,0.1,0,0.1c-3.8,0-7.7,0.4-11.5,1.2
	c-3.4,0.7-6.8,1.7-10,4.1c-5.5,4-10.8,13.5-9.9,25.8c0.1,0.8-2.7,99.5-2,99c-0.9,3.1,1.1-94,0.4-90.6c-1.2,6.1-1.2,14.1-2.1,20.4
	c-1.1,7.7-2.1,15.4-2.7,23.4c-0.6,8.1-0.4,16-0.1,24.1c0.3,8.3,0.5,16.6,0.4,24.9c-0.2,18.8-0.7,57.9-0.5,55.7
	c1.2-15.8,5.1-29.8,5.6-45.8c0.2-7.9-2.5-17.7-2.7-25.5c-0.2-7.9-0.7-15.7-0.7-23.6c0.1-7.6,0.8-15.1,1.7-22.5
	c0.9-6.9,1.8-13.8,2.9-20.6c1.9-11.8,4.5-24.1,10-31.4c6.2-8.4,20.3-15.1,20.5-16.2c0.2-1-12.2,4.4-18.5,10
	c-4.2,3.7-7.3,9.7-9.7,16.8c-0.6-10.9,8.5-16.5,13.5-19.7c2.9-1.8,1.5-5.5,4.5-6.1c3.4-0.7,6.8-0.9,10.2-0.9c0.5,0,1.4-0.3,1.6-1.2
	c0-0.1,0.1-0.3,0.1-0.4c0.2,0,0.4-0.1,0.5-0.1c3.1-1.2,5.9-3.2,9-2.3c-10.4-1.7-12.5-5.5-9,2.8c0.2,0.5,4.1,4.7,5.5,5
	c0.2,0.4,1.3,0.4,1.4,0.4c1.8,0.5,3.5,1.5,5.1,2.9c3.4,2.9,6.3,7.5,9.1,12.1c5,8.3,9.9,17.2,13.5,28c0,0.1,0,0.1,0,0.2
	c0.6,3.3,1.4,6.4,2.5,9.2c0.1,0.4,0.3,0.7,0.4,1.1c0.3,1.4,0.7,2.8,1,4.1c0.6,3.4,1,6.9,1.3,10.4c0.6,7.2,1.2,14.4,1.7,21.6
	c1,14.6,1.8,29.4,1.6,44.2c-0.3,15.5-1.7,31.2-5,45.5c-0.5,2.1,3.5-5.6,4-8.6c-0.1,2.1-0.1,4.3-0.2,6.4c-0.1,1.9,2.8-12.2,3.1-18
	c0,3.9,0,7.7,0,11.6c-0.1,4.3,0.6,14.9,1.1,13c1.7-7.1,1.4-15.2,1.4-22.8c0-8.3,0-16.6,0-24.8c0.5,12.6,1,25.2,1.5,37.7
	C303.6,248.2,304.6,210.2,303.9,192.7z M264.3,68.1c1.6-0.2,3.2-0.2,4.7,0.1c3.1,0.6,5.7,4.1,8,7.4C273.3,71.4,269,68.6,264.3,68.1z
	 M298.4,119.1c-0.8-2.6-1.7-4.9-2.9-7.1c-0.2-0.4-0.4-0.8-0.6-1.2c-0.2-0.9-0.5-1.7-0.8-2.6c-0.9-2.7-2-5.3-3.1-7.9
	c-1-3.7-2.1-7.4-3.5-10.9c-1.8-4.4-3.8-8.5-6.2-12.3c1.5,1.9,2.9,3.9,4,6.4c1.1,2.3,1.8,4.9,3.1,7.1c1.1,2,2.6,3.7,3.8,5.6
	c4.4,7,6.1,16.4,7,25.7C298.9,121,298.7,120,298.4,119.1z"/>
<path class="st1" d="M306.5,183.9c-0.6-16.5-1.1-33.1-2-49.6c-0.7-13.2-2.2-27.3-6.8-37.7c-1.2-2.7-2.7-4.9-4-7.6
	c-1.3-2.8-2.4-6-3.2-9.3c-1.7-7.1-5-10.7-8.2-14.4c-7.6-8.9-26.6-9.3-26.5-8.3c0,0,0,0.1,0,0.1c-3.8,0-7.7,0.4-11.5,1.2
	c-3.4,0.7-6.8,1.7-10,4.1c-5.5,4-10.8,13.5-9.9,25.8c0.1,0.8-2.7,99.5-2,99c-0.9,3.1,1.1-94,0.4-90.6c-1.2,6.1-1.2,14.1-2.1,20.4
	c-1.1,7.7-2.1,15.4-2.7,23.4c-0.6,8.1-0.4,16-0.1,24.1c0.3,8.3,0.5,16.6,0.4,24.9c-0.2,18.8-0.7,57.9-0.5,55.7
	c1.2-15.8,5.1-29.8,5.6-45.8c0.2-7.9-2.5-17.7-2.7-25.5c-0.2-7.9-0.7-15.7-0.7-23.6c0.1-7.6,0.8-15.1,1.7-22.5
	c0.9-6.9,1.8-13.8,2.9-20.6c1.9-11.8,4.5-24.1,10-31.4c6.2-8.4,20.3-15.1,20.5-16.2c0.2-1-12.2,4.4-18.5,10
	c-4.2,3.7-7.3,9.7-9.7,16.8c-0.6-10.9,8.5-16.5,13.5-19.7c2.9-1.8,1.5-5.5,4.5-6.1c3.4-0.7,6.8-0.9,10.2-0.9c0.5,0,1.4-0.3,1.6-1.2
	c0-0.1,0.1-0.3,0.1-0.4c0.2,0,0.4-0.1,0.5-0.1c0,0-2.2-0.3-0.1,0.5c0.4,0.1,4.1,4.7,5.5,5c0.2,0.4,1.3,0.4,1.4,0.4
	c1.8,0.5,3.5,1.5,5.1,2.9c3.4,2.9,6.3,7.5,9.1,12.1c5,8.3,9.9,17.2,13.5,28c0,0.1,0,0.1,0,0.2c0.6,3.3,1.4,6.4,2.5,9.2
	c0.1,0.4,0.3,0.7,0.4,1.1c0.3,1.4,0.7,2.8,1,4.1c0.6,3.4,1,6.9,1.3,10.4c0.6,7.2,1.2,14.4,1.7,21.6c1,14.6,1.8,29.4,1.6,44.2
	c-0.3,15.5-1.7,31.2-5,45.5c-0.5,2.1,3.5-5.6,4-8.6c-0.1,2.1-0.1,4.3-0.2,6.4c-0.1,1.9,2.8-12.2,3.1-18c0,3.9,0,7.7,0,11.6
	c-0.1,4.3,0.6,14.9,1.1,13c1.7-7.1,1.4-15.2,1.4-22.8c0-8.3,0-16.6,0-24.8c0.5,12.6,1,25.2,1.5,37.7
	C306.1,239.3,307.1,201.3,306.5,183.9z M299.1,112.4c-0.8-2.6-1.7-4.9-2.9-7.1c-0.2-0.4-0.4-0.8-0.6-1.2c-0.2-0.9-0.5-1.7-0.8-2.6
	c-0.9-2.7-2-5.3-3.1-7.9c-1-3.7-2.1-7.4-3.5-10.9c-1.8-4.4-3.8-8.5-6.2-12.3c1.5,1.9,2.2,3.3,4,6.4c1.3,2.1,1.8,4.9,3.1,7.1
	c1.1,2,2.6,3.7,3.8,5.6c4.4,7,6.1,16.4,7,25.7C299.6,114.3,299.4,113.3,299.1,112.4z"/>
<path class="st2" d="M304.2,190.3c-0.6-16.5-1.1-33.1-2-49.6c-0.7-13.2-2.2-27.3-6.8-37.7c-1.2-2.7-2.7-4.9-4-7.6
	c-1.3-2.8-2.2-6.2-3.2-9.3c-2-6.1-5-10.7-8.2-14.4c-7.6-8.9-26.6-9.3-26.5-8.3c0,0,0,0.1,0,0.1c-3.8,0-7.7,0.4-11.5,1.2
	c-3.4,0.7-6.8,1.7-10,4.1c-5.5,4-10.8,13.5-9.9,25.8c0.1,0.8-2.7,99.5-2,99c-0.9,3.1,1.1-94,0.4-90.6c-1.2,6.1-1.2,14.1-2.1,20.4
	c-1.1,7.7-2.1,15.4-2.7,23.4c-0.6,8.1-0.4,16-0.1,24.1c0.3,8.3,0.5,16.6,0.4,24.9c-0.2,18.8-0.7,57.9-0.5,55.7
	c1.2-15.8,5.1-29.8,5.6-45.8c0.2-7.9-2.5-17.7-2.7-25.5c-0.2-7.9-0.7-15.7-0.7-23.6c0.1-7.6,0.8-15.1,1.7-22.5
	c0.9-6.9,1.8-13.8,2.9-20.6c1.9-11.8,4.5-24.1,10-31.4c6.2-8.4,20.3-15.1,20.5-16.2c0.2-1-12.2,4.4-18.5,10
	c-4.2,3.7-7.3,9.7-9.7,16.8c-0.6-10.9,8.5-16.5,13.5-19.7c2.9-1.8,1.5-5.5,4.5-6.1c3.4-0.7,6.8-0.9,10.2-0.9c0.5,0,1.4-0.3,1.6-1.2
	c0-0.1,0.1-0.3,0.1-0.4c0.2,0,0.4-0.1,0.5-0.1c3.1-1.2,5.7-4,8.8-3.1c-10.4-1.7-9.4-0.2-7.4,2.4c0.3,0.4,2.7,5.9,4.1,6.1
	c0.2,0.4,1.3,0.4,1.4,0.4c1.8,0.5,3.5,1.5,5.1,2.9c3.4,2.9,6.3,7.5,9.1,12.1c5,8.3,9.9,17.2,13.5,28c0,0.1,0,0.1,0,0.2
	c0.6,3.3,1.4,6.4,2.5,9.2c0.1,0.4,0.3,0.7,0.4,1.1c0.3,1.4,0.7,2.8,1,4.1c0.6,3.4,1,6.9,1.3,10.4c0.6,7.2,1.2,14.4,1.7,21.6
	c1,14.6,1.8,29.4,1.6,44.2c-0.3,15.5-1.7,31.2-5,45.5c-0.5,2.1,3.5-5.6,4-8.6c-0.1,2.1-0.1,4.3-0.2,6.4c-0.1,1.9,2.8-12.2,3.1-18
	c0,3.9,0,7.7,0,11.6c-0.1,4.3,0.6,14.9,1.1,13c1.7-7.1,1.4-15.2,1.4-22.8c0-8.3,0-16.6,0-24.8c0.5,12.6,1,25.2,1.5,37.7
	C303.8,245.7,304.8,207.7,304.2,190.3z M264.5,65.6c1.6-0.2,3.2-0.2,4.7,0.1c3.1,0.6,5.7,4.1,8,7.4
	C273.5,68.9,269.2,66.1,264.5,65.6z M298.6,116.6c-0.8-2.6-1.7-4.9-2.9-7.1c-0.2-0.4-0.4-0.8-0.6-1.2c-0.2-0.9-0.5-1.7-0.8-2.6
	c-0.9-2.7-2-5.3-3.1-7.9c-1-3.7-2.1-7.4-3.5-10.9c-1.8-4.4-3.8-8.5-6.2-12.3c1.5,1.9,2.9,3.9,4,6.4c1.1,2.3,1.8,4.9,3.1,7.1
	c1.1,2,2.6,3.7,3.8,5.6c4.4,7,6.1,16.4,7,25.7C299.2,118.5,298.9,117.5,298.6,116.6z"/>
<path class="st2" d="M306.2,186.5c-0.6-16.5-1.1-33.1-2-49.6c-0.7-13.2-2.2-27.3-6.8-37.7c-1.2-2.7-2.7-4.9-4-7.6
	c-1.3-2.8-2.2-6.2-3.2-9.3c-2-6.1-5-10.8-8.2-14.4c-7.3-8.3-25.5-6.2-26.5-8.3c0,0,0,0.1,0,0.1c-3.8,0-7.7,0.4-11.5,1.2
	c-3.4,0.7-6.8,1.7-10,4.1c-5.5,4-10.8,13.5-9.9,25.8c0.1,0.8-1,5-1.6,8.4c-1.2,6.1-1.2,14.1-2.1,20.4c-1.1,7.7-2.1,15.4-2.7,23.4
	c-0.6,8.1-0.4,16-0.1,24.1c0.3,8.3,0.5,16.6,0.4,24.9c-0.2,18.8-0.7,57.9-0.5,55.7c1.2-15.8,5.1-29.8,5.6-45.8
	c0.2-7.9-2.5-17.7-2.7-25.5c-0.2-7.9-0.7-15.7-0.7-23.6c0.1-7.6,0.8-15.1,1.7-22.5c0.9-6.9,1.8-13.8,2.9-20.6
	c1.9-11.8,4.5-24.1,10-31.4c6.2-8.4,18.6-15.9,20.5-16.2c1.6-0.3,0.5-2.2,0.7-3.1c0-0.1,5.5,6.6,6.9,6.9c0.2,0.4,1.3,0.4,1.4,0.4
	c1.8,0.5,3.5,1.5,5.1,2.9c3.4,2.9,6.3,7.5,9.1,12.1c5,8.3,9.9,17.2,13.5,28c0,0.1,0,0.1,0,0.2c0.6,3.3,1.4,6.4,2.5,9.2
	c0.1,0.4,0.3,0.7,0.4,1.1c0.3,1.4,0.7,2.8,1,4.1c0.6,3.4,1,6.9,1.3,10.4c0.6,7.2,1.2,14.4,1.7,21.6c1,14.6,1.8,29.4,1.6,44.2
	c-0.3,15.5-1.7,31.2-5,45.5c-0.5,2.1,3.5-5.6,4-8.6c-0.1,2.1-0.1,4.3-0.2,6.4c-0.1,1.9,2.8-12.2,3.1-18c0,3.9,0,7.7,0,11.6
	c-0.1,4.3,0.6,14.9,1.1,13c1.7-7.1,1.4-15.2,1.4-22.8c0-8.3,0-16.6,0-24.8c0.5,12.6,1,25.2,1.5,37.7
	C305.9,241.9,306.9,203.9,306.2,186.5z M266.6,61.9c1.6-0.2,3.2-0.2,4.7,0.1c3.1,0.6,9.4,9,11.6,12.3
	C279.2,70.1,271.2,62.3,266.6,61.9z M300.7,112.8c-0.8-2.6-1.7-4.9-2.9-7.1c-0.2-0.4-0.4-0.8-0.6-1.2c-0.2-0.9-0.5-1.7-0.8-2.6
	c-0.9-2.7-2-5.3-3.1-7.9c-1-3.7-2.1-7.4-3.5-10.9c-1.8-4.4-6.5-9.9-8.9-13.6c1.5,1.9,5.6,5.3,6.7,7.8c1.1,2.3,1.8,4.9,3.1,7.1
	c1.1,2,2.6,3.7,3.8,5.6c4.4,7,6.1,16.4,7,25.7C301.2,114.7,301,113.8,300.7,112.8z"/>
<path class="st2" d="M310,195.2c-0.7-16.5-1.2-33.1-2.1-49.6c-0.8-13.2-2.4-27.3-7.3-37.7c-1.3-2.7-2.9-4.9-4.3-7.6
	c-1.4-2.8-2.3-6.2-3.5-9.3c-2.2-6.1-5.4-10.7-8.8-14.4c-8.1-8.9-28.5-9.3-28.4-8.3c0,0-0.5-0.5-0.5-0.5c-4.1,0-7.7,0.9-11.8,1.7
	c-3.6,0.7-7.3,1.7-10.7,4.1c-5.9,4-11.6,13.5-10.6,25.8c0.1,0.8-2.9,99.5-2.2,99c-1,3.1,1.1-94,0.4-90.6c-1.3,6.1-1.3,14.1-2.2,20.4
	c-1.2,7.7-2.3,15.4-2.9,23.4c-0.6,8.1-0.5,16-0.1,24.1c0.4,8.3,0.6,16.6,0.4,24.9c-0.2,18.8-0.8,57.9-0.6,55.7
	c1.3-15.8,5.5-29.8,6-45.8c0.2-7.9-2.7-17.7-2.9-25.5c-0.2-7.9-0.8-15.7-0.7-23.6c0.1-7.6,0.8-15.1,1.8-22.5
	c0.9-6.9,1.9-13.8,3.1-20.6c2-11.8,4.8-24.1,10.7-31.4c6.6-8.4,21.8-15.1,22-16.2c0.2-1-13.1,4.4-19.9,10
	c-4.5,3.7-7.8,9.7-10.4,16.8c-0.7-10.9,9.1-16.5,14.5-19.7c3.1-1.8,1.6-5.5,4.8-6.1c3.6-0.7,7.3-0.9,11-0.9c0.5,0,1.5-0.3,1.7-1.2
	c0-0.1,0.1-0.3,0.1-0.4c0.2,0,0.4-0.1,0.6-0.1c3.3-1.2,6.3-3.2,9.6-2.3c-11.1-1.7-13.4-5.5-9.7,2.8c0.2,0.5,4.4,4.7,5.9,5
	c0.2,0.4,1.4,0.4,1.6,0.4c1.9,0.5,3.7,1.5,5.5,2.9c3.7,2.9,6.7,7.5,9.7,12.1c5.4,8.3,10.6,17.2,14.5,28c0,0.1,0,0.1,0,0.2
	c0.7,3.3,1.5,6.4,2.7,9.2c0.2,0.4,0.3,0.7,0.5,1.1c0.4,1.4,0.7,2.8,1,4.1c0.6,3.4,1.1,6.9,1.4,10.4c0.7,7.2,1.2,14.4,1.8,21.6
	c1.1,14.6,2,29.4,1.7,44.2c-0.3,15.5-1.8,31.2-5.4,45.5c-0.5,2.1,3.8-5.6,4.3-8.6c-0.1,2.1-0.2,4.3-0.2,6.4c-0.1,1.9,3-12.2,3.3-18
	c0,3.9,0,7.7,0,11.6c-0.1,4.3,0.7,14.9,1.2,13c1.9-7.1,1.5-15.2,1.5-22.8c0-8.3,0-16.6,0-24.8c0.5,12.6,1,25.2,1.6,37.7
	C309.7,250.7,310.7,212.7,310,195.2z M267.5,70.6c1.7-0.2,3.4-0.2,5.1,0.1c3.3,0.6,6.2,4.1,8.5,7.4
	C277.1,73.9,272.5,71.1,267.5,70.6z M304.1,121.6c-0.8-2.6-1.9-4.9-3.1-7.1c-0.2-0.4-0.5-0.8-0.7-1.2c-0.3-0.9-0.5-1.7-0.8-2.6
	c-1-2.7-2.1-5.3-3.3-7.9c-1.1-3.7-2.2-7.4-3.7-10.9c-1.9-4.4-4.1-8.5-6.6-12.3c1.6,1.9,3.1,3.9,4.3,6.4c1.1,2.3,2,4.9,3.3,7.1
	c1.2,2,2.8,3.7,4.1,5.6c4.7,7,6.5,16.4,7.5,25.7C304.7,123.5,304.4,122.5,304.1,121.6z"/>
<path class="st1" d="M301.5,192.3c-0.7-19.3-1.2-38.6-2.2-57.8c-0.8-15.4-2.4-31.8-7.4-43.9c-1.3-3.2-2.9-5.8-4.3-8.8
	c-1.5-3.2-2.4-7.2-3.5-10.8c-2.2-7.1-5.5-12.5-8.9-16.8c-8.2-10.4-28.8-10.8-28.7-9.6c0,0-0.5-0.6-0.5-0.5c-4.2,0-7.8,1.1-11.9,2
	c-3.7,0.8-7.4,2-10.9,4.7c-6,4.6-11.8,15.8-10.7,30.1c0.1,1-2.9,116-2.2,115.4c-1,3.6,1.2-109.6,0.4-105.6
	c-1.3,7.1-1.3,16.4-2.3,23.8c-1.2,9-2.3,18-3,27.2c-0.6,9.4-0.5,18.7-0.1,28.1c0.4,9.7,0.6,19.4,0.5,29.1
	c-0.2,21.9-0.8,67.5-0.6,64.9c1.3-18.5,5.6-34.7,6.1-53.4c0.2-9.2-2.7-20.6-2.9-29.8c-0.2-9.2-0.8-18.3-0.7-27.5
	c0.1-8.9,0.8-17.6,1.8-26.2c0.9-8.1,2-16.1,3.1-24c2-13.8,4.9-28,10.8-36.6c6.7-9.8,22-17.6,22.2-18.9c0.2-1.2-13.2,5.1-20.1,11.6
	c-4.5,4.3-7.9,11.3-10.5,19.6c-0.7-12.7,9.2-19.2,14.6-23c3.1-2.1,1.6-6.5,4.9-7.1c3.7-0.8,7.4-1.1,11.1-1.1c0.5,0,1.5-0.4,1.7-1.4
	c0-0.2,0.1-0.3,0.1-0.4c0.2,0,0.4-0.1,0.6-0.1c3.3-1.4,6.4-3.7,9.7-2.6c-11.3-2-13.6-6.4-9.8,3.2c0.2,0.6,4.5,5.5,6,5.8
	c0.2,0.5,1.4,0.4,1.6,0.4c1.9,0.6,3.8,1.8,5.6,3.4c3.7,3.3,6.8,8.7,9.8,14.1c5.5,9.7,10.7,20.1,14.7,32.6c0,0.1,0,0.2,0.1,0.3
	c0.7,3.8,1.5,7.4,2.7,10.7c0.2,0.4,0.3,0.8,0.5,1.3c0.4,1.6,0.7,3.2,1,4.8c0.6,3.9,1.1,8,1.4,12.2c0.7,8.4,1.3,16.8,1.8,25.2
	c1.1,17.1,2,34.3,1.7,51.5c-0.3,18.1-1.8,36.4-5.4,53c-0.5,2.5,3.8-6.5,4.4-10c-0.1,2.5-0.2,5-0.2,7.5c-0.1,2.2,3.1-14.2,3.3-21
	c0,4.5,0,9,0,13.5c-0.1,5,0.7,17.4,1.2,15.2c1.9-8.2,1.5-17.7,1.5-26.6c0-9.7,0-19.3,0-29c0.5,14.7,1.1,29.3,1.6,44
	C301.1,257,302.2,212.7,301.5,192.3z M258.5,47c1.7-0.2,3.5-0.3,5.1,0.1c3.3,0.7,6.2,4.8,8.6,8.6C268.3,50.9,263.6,47.6,258.5,47z
	 M295.5,106.4c-0.8-3-1.9-5.7-3.2-8.3c-0.2-0.5-0.5-0.9-0.7-1.4c-0.3-1-0.5-2-0.8-3c-1-3.2-2.1-6.2-3.4-9.2
	c-1.1-4.3-2.3-8.6-3.8-12.7c-1.9-5.1-4.2-9.9-6.7-14.3c1.6,2.2,3.1,4.6,4.4,7.4c1.2,2.7,2,5.8,3.3,8.3c1.2,2.4,2.8,4.3,4.1,6.5
	c4.8,8.1,6.6,19.2,7.5,30C296.1,108.7,295.8,107.5,295.5,106.4z"/>
<path class="st2" d="M307.9,192.3c-0.7-19.3-1.2-38.6-2.2-57.8c-0.8-15.4-2.4-31.8-7.4-43.9c-1.3-3.2-2.9-5.8-4.3-8.8
	c-1.5-3.2-2.4-7.2-3.5-10.8c-2.2-7.1-5.5-12.5-8.9-16.8c-8.2-10.4-28.8-10.8-28.7-9.6c0,0-0.5-0.6-0.5-0.5c-4.2,0-7.8,1.1-11.9,2
	c-3.7,0.8-7.4,2-10.9,4.7c-6,4.6-11.8,15.8-10.7,30.1c0.1,1-2.9,116-2.2,115.4c-1,3.6,1.2-109.6,0.4-105.6
	c-1.3,7.1-1.3,16.4-2.3,23.8c-1.2,9-2.3,18-3,27.2c-0.6,9.4-0.5,18.7-0.1,28.1c0.4,9.7,0.6,19.4,0.5,29.1
	c-0.2,21.9-0.8,67.5-0.6,64.9c1.3-18.5,5.6-34.7,6.1-53.4c0.2-9.2-2.7-20.6-2.9-29.8c-0.2-9.2-0.8-18.3-0.7-27.5
	c0.1-8.9,0.8-17.6,1.8-26.2c0.9-8.1,2-16.1,3.1-24c2-13.8,4.9-28,10.8-36.6c6.7-9.8,22-17.6,22.2-18.9c0.2-1.2-13.2,5.1-20.1,11.6
	c-4.5,4.3-7.9,11.3-10.5,19.6c-0.7-12.7,9.2-19.2,14.6-23c3.1-2.1,1.6-6.5,4.9-7.1c3.7-0.8,7.4-1.1,11.1-1.1c0.5,0,1.5-0.4,1.7-1.4
	c0-0.2,0.1-0.3,0.1-0.4c0.2,0,0.4-0.1,0.6-0.1c3.3-1.4,6.4-3.7,9.7-2.6c-11.3-2-13.6-6.4-9.8,3.2c0.2,0.6,4.5,5.5,6,5.8
	c0.2,0.5,1.4,0.4,1.6,0.4c1.9,0.6,3.8,1.8,5.6,3.4c3.7,3.3,6.8,8.7,9.8,14.1c5.5,9.7,10.7,20.1,14.7,32.6c0,0.1,0,0.2,0.1,0.3
	c0.7,3.8,1.5,7.4,2.7,10.7c0.2,0.4,0.3,0.8,0.5,1.3c0.4,1.6,0.7,3.2,1,4.8c0.6,3.9,1.1,8,1.4,12.2c0.7,8.4,1.3,16.8,1.8,25.2
	c1.1,17.1,2,34.3,1.7,51.5c-0.3,18.1-1.8,36.4-5.4,53c-0.5,2.5,3.8-6.5,4.4-10c-0.1,2.5-0.2,5-0.2,7.5c-0.1,2.2,3.1-14.2,3.3-21
	c0,4.5,0,9,0,13.5c-0.1,5,0.7,17.4,1.2,15.2c1.9-8.2,1.5-17.7,1.5-26.6c0-9.7,0-19.3,0-29c0.5,14.7,1.1,29.3,1.6,44
	C307.6,257,308.6,212.7,307.9,192.3z M264.9,47c1.7-0.2,3.5-0.3,5.1,0.1c3.3,0.7,6.2,4.8,8.6,8.6C274.7,50.9,270,47.6,264.9,47z
	 M301.9,106.4c-0.8-3-1.9-5.7-3.2-8.3c-0.2-0.5-0.5-0.9-0.7-1.4c-0.3-1-0.5-2-0.8-3c-1-3.2-2.1-6.2-3.4-9.2
	c-1.1-4.3-2.3-8.6-3.8-12.7c-1.9-5.1-4.2-9.9-6.7-14.3c1.6,2.2,3.1,4.6,4.4,7.4c1.2,2.7,2,5.8,3.3,8.3c1.2,2.4,2.8,4.3,4.1,6.5
	c4.8,8.1,6.6,19.2,7.5,30C302.5,108.7,302.2,107.5,301.9,106.4z"/>
<path class="st1" d="M292.3,192.5c0.9-5.4-7.1-30.3-2.7-57.6c2.5-15.3-2.4-31.8-7.4-43.9c-1.3-3.2-2.9-5.8-4.3-8.8
	c-1.5-3.2-2.4-7.2-3.5-10.8c-2.2-7.1-5.5-12.5-8.9-16.8c-8.2-10.4-28.8-10.8-28.7-9.6c0,0-0.5-0.6-0.5-0.5c-4.2,0-7.8,1.1-11.9,2
	c-3.7,0.8-7.4,2-10.9,4.7c-6,4.6-11.8,15.8-10.7,30.1c0.1,1-2.9,116-2.2,115.4c-1,3.6,1.2-109.6,0.4-105.6
	c-1.3,7.1-1.3,16.4-2.3,23.8c-1.2,9-2.3,18-3,27.2c-0.6,9.4-0.5,18.7-0.1,28.1c0.4,9.7,0.6,19.4,0.5,29.1
	c-0.2,21.9-0.8,67.5-0.6,64.9c1.3-18.5,5.6-34.7,6.1-53.4c0.2-9.2-2.7-20.6-2.9-29.8c-0.2-9.2-0.8-18.3-0.7-27.5
	c0.1-8.9,0.8-17.6,1.8-26.2c0.9-8.1,2-16.1,3.1-24c2-13.8,4.9-28,10.8-36.6c6.7-9.8,22-17.6,22.2-18.9c0.2-1.2-13.2,5.1-20.1,11.6
	c-4.5,4.3-7.9,11.3-10.5,19.6c-0.7-12.7,9.2-19.2,14.6-23c3.1-2.1,1.6-6.5,4.9-7.1c3.7-0.8,7.4-1.1,11.1-1.1c0.5,0,1.5-0.4,1.7-1.4
	c0-0.2,0.1-0.3,0.1-0.4c0.2,0,0.4-0.1,0.6-0.1c3.3-1.4,6.4-3.7,9.7-2.6c-11.3-2-13.6-6.4-9.8,3.2c0.2,0.6,4.5,5.5,6,5.8
	c0.2,0.5,1.4,0.4,1.6,0.4c1.9,0.6,3.8,1.8,5.6,3.4c3.7,3.3,6.8,8.7,9.8,14.1c5.5,9.7,10.7,20.1,14.7,32.6c0,0.1,0,0.2,0.1,0.3
	c0.7,3.8,1.5,7.4,2.7,10.7c0.2,0.4,0.3,0.8,0.5,1.3c0.4,1.6,0.7,3.2,1,4.8c0.6,3.9,1.1,8,1.4,12.2c0.7,8.4,1.3,16.8,1.8,25.2
	c1.1,17.1,2,34.3,1.7,51.5c-0.3,18.1-1.8,36.4-5.4,53c-0.5,2.5,3.8-6.5,4.4-10c-0.1,2.5-0.2,5-0.2,7.5c-0.1,2.2,3.1-14.2,3.3-21
	c0,4.5,0,9,0,13.5c-0.1,5,0.7,17.4,1.2,15.2c1.9-8.2,1.5-17.7,1.5-26.6c0-9.7,0-19.3,0-29c0.5,14.7,1.1,29.3,1.6,44
	C291.3,257.5,289,212.6,292.3,192.5z M248.7,47.5c1.7-0.2,3.5-0.3,5.1,0.1c3.3,0.7,6.2,4.8,8.6,8.6
	C258.5,51.4,253.8,48.1,248.7,47.5z M285.7,106.9c-0.8-3-1.9-5.7-3.2-8.3c-0.2-0.5-0.5-0.9-0.7-1.4c-0.3-1-0.5-2-0.8-3
	c-1-3.2-2.1-6.2-3.4-9.2c-1.1-4.3-2.3-8.6-3.8-12.7c-1.9-5.1-4.2-9.9-6.7-14.3c1.6,2.2,3.1,4.6,4.4,7.4c1.2,2.7,2,5.8,3.3,8.3
	c1.2,2.4,2.8,4.3,4.1,6.5c4.8,8.1,6.6,19.2,7.5,30C286.3,109.1,286,108,285.7,106.9z"/>
<path class="st1" d="M256.2,62.2c4.3-5.8-23.5,14.8-28.7,56.4c-3.4,27-2.2,55.1-2.9,59.9c-4,28.2-2.1,68.6-1.8,65.8
	C227.5,207.5,214.4,118.2,256.2,62.2z"/>
<path class="st0" d="M262.3,64.3c-0.2-0.6-11.2,0.7-15.8,4.5c-3,2.8-7.6,7.6-10.6,13c0,0,2.6,0.6,2.6,0.6
	c-3.4,5.3-6.5,11.6-8.9,18.6c-2.7,7.7-3.3,16.2-3.7,25.2c-0.1,2.8-0.3,5.6-0.4,8.4c-1.9,19.9-2.1,39-1.8,42
	c2.5,25.2,2.6,16,2.4,19.8c-0.2,4.4-1.4,16.4-1.4,20.9c0,9.8,9.1-2.9,9.3-11.5c0.2-6.8,1.2-14.2,0.1-20.8
	c-1.1-7.5-1.5-13.3-1.4-21.3c0.2-7.5,0.4-15,0.7-22.5c0.3-7.2,0.4-14.8,1.1-21.9c0.7-7.5,3.2-13.3,5.9-18.7c2.5-5,5.1-9.9,8.4-13.1
	C266.4,70.7,262.3,64.3,262.3,64.3z"/>
<path class="st0" d="M255.7,57.7c-0.2-0.6-11.2,0.7-15.8,4.5c-3,2.8-7.6,7.6-10.6,13c0,0,2.6,0.6,2.6,0.6
	c-3.4,5.3-6.5,11.6-8.9,18.6c-2.7,7.7-3.3,16.2-3.7,25.2c-0.1,2.8-0.3,5.6-0.4,8.4c-1.9,19.9-2.1,39-1.8,42
	c2.5,25.2-2.8,64.9-2.1,62.3c2.6-10.5,4.4-49.5,5.4-71.7c2.3,10.9-0.4,26.9-0.9,29.3c-0.9,4.4-1.4,16.4-1.4,20.9
	c0,9.8,9.5,41.3,7.3,31.9c-1.8-7.6,1.8-34.9,2-43.4c0.2-6.8-1.8-14.1-2.8-20.8c-1.1-7.5,1.4-13.4,1.6-21.3c0.2-7.5,0.4-15,0.7-22.5
	c0.3-7.2,0.4-14.8,1.1-21.9c0.7-7.5,3.2-13.3,5.9-18.7c2.5-5,5.1-9.9,8.4-13.1C259.8,64.1,255.7,57.7,255.7,57.7z"/>
<path class="st2" d="M237.1,86.2c-4,9.6-7,20.3-8.8,31.8c-1,6.4-2,12.8-2.1,19.6c0,6.8-1.3,15.4-1.1,22.2c0.4,14.2,1.1,30,2,44.1
	c1,15.2-1,16.4,5.7,38.8c0.6,1.9-4.1-34.4-3.3-74.6c0.1-6.7-0.4-13.3-0.6-20c-0.2-6.7-0.4-13.4,0.3-20c0.7-6,1.7-12,2.8-17.8
	c1.1-5.5,2.2-11.1,4.1-15.9c4.4-11.7,12.2-20.7,16.6-26.4C253.1,67.6,242.7,72.7,237.1,86.2z"/>
<path class="st1" d="M224.4,82.9c-3,3.4-6,11.8-7,18.1c-1.2,7.4-1.7,15.2-1.9,22.9c-0.2,8.2-0.3,16.5-0.4,24.7
	c-0.2,16.8-0.4,33.7-0.2,50.5c0.2,18.7,3.9,57.2,3.8,54.9c-1.3-32.1-1.7-64.3-1.3-96.5c0.1-7.9,0.2-15.9,0.3-23.8
	c0.1-7.8,1.4-17.3,2.6-24.8c2.7-18.3,7.1-20,11.3-29.3c2.8-6.1,7.4-7,11.5-9c4.4-2.2,13.8-7,13.1-7.6
	C254,60.9,243.6,60.9,224.4,82.9z"/>
<path class="st2" d="M251.1,72.4c-8.1,11.3-14.2,23.9-18,37.4c-2.1,7.5-4.2,15.1-4.2,23c0,8-2.7,18.1-2.3,26.1
	c0.8,16.7,2.2,35.3,4,51.8c2,17.8-2,19.3,11.6,45.7c1.1,2.2-8.3-40.5-6.8-87.7c0.3-7.8-0.9-15.7-1.2-23.5
	c-0.3-7.9-0.9-15.7,0.7-23.5c1.4-7.1,3.5-14.1,5.7-20.9c2.2-6.5,4.6-13,8.3-18.7c9.1-13.8,25-24.3,34-31.1
	C283.8,50.5,262.4,56.6,251.1,72.4z"/>
<path class="st0" d="M302.4,92.7c-0.5-0.5-22.9,0.7-32.3,4c-6.1,2.6-15.5,6.8-21.6,11.7c0,0,5.4,0.5,5.3,0.5
	c-6.9,4.8-13.3,10.4-18.2,16.7c-5.5,6.9-6.8,14.5-7.6,22.6c-0.3,2.5,2.5,5,2.2,7.5c-3.8,17.8-1.3,34.6-0.6,37.3
	c5.2,22.6-4,32.8-4,36.8c0.1,8.8,18.6-2.6,19.1-10.3c0.3-6.1,2.4-12.7,0.3-18.7c-2.3-6.7-3.2-12-2.8-19.1c0.3-6.7,0.9-13.5,1.5-20.2
	c0.6-6.5,0.7-13.3,2.2-19.7c1.5-6.8,6.5-11.9,12.1-16.7c5.2-4.5,10.5-8.9,17.2-11.8C310.7,98.4,302.4,92.7,302.4,92.7z"/>
<g>
	<g>
		
			<radialGradient id="SVGID_1_" cx="255.4404" cy="188.8542" r="51.4723" fx="256.1348" fy="145.5379" gradientUnits="userSpaceOnUse">
			<stop  offset="0.4026" style="stop-color:#EAC4A0"/>
			<stop  offset="0.6039" style="stop-color:#F2DCC1"/>
		</radialGradient>
		<path class="st3" d="M234.5,160.7c2.4,19.6,5.2,40.4-12.7,53.2c-24.9,7.8-31.5-3.9-52.5,17.6c-21,21.5-36.1,113.4-38.9,108.6
			c-19.1-31.9-58.7-45.8-62.9-56.7c-7.6-19.6-0.6-31.1-10.1-45.6c-4.3-6.5-5.7-32.1-14-26.8c-1.7,1.1,7.4,25.4,3,27.4
			c-1.3,0.6-26.6-43.4-26.6-33.6c0,2.7,14.4,25.7,12.9,27.8c-1.4,2.1-20.4-37.7-22.2-29.3c-0.6,2.6,17.7,30.2,15.5,33.4
			c-2.2,3.2-20.3-32.8-20.7-22.4c-0.1,2.8,17.7,29,14.7,31.6c-3.9,3.4-15.4-26.2-17.9-24.3c-3.9,3,12,30.2,17.3,36.4
			c23.9,27.8,93.4,136,135.2,119.6c17-6.7,36.3-78.9,41.3-73.9c10.9,10.9,101,167.5,1.8,195.1h154.4c14.3,0.3-70.3-128.9-22.4-225.5
			c5.1-10.2,21.7,44.6,28.5,58.3c9.2,18.5,8.6,30.7,23.2,69.7c6.2,72.3,13,69.9,14.6,97.5c0.9,0.2,27.6,0,27.6,0
			c2.9-31.8-10.6-98.9-17.6-131.7c-8.9-41.8-17.9-133.7-54.5-154c-24.5-13.6-38.7,11-59.5-12.1c-11.8-13.1-5.4-31.2-4.9-47.1
			C269.9,156.1,252.1,158.5,234.5,160.7z"/>
	</g>
	<path class="st4" d="M219.5,213.8c-20.1,5.2-32.3,0.9-48.8,18.8c-14.9,16.2-26.8,48.4-28.3,71.5c-0.8,12.4,31.1,36.3,34.6,37.1
		c10.6,2.2,13.1-46.6,20.2-36.6c20.4,28.6,0.3,71.7-4.3,194.2h170.7c-16.1-107.8-43.2-154-30.6-208.3c6.1-26.2,10.4,33.3,25.5,28.7
		c1.9-0.6,41.3-8,37.7-22.5c-7.3-29.4-17.7-66-41.3-81.1c-23.5-15-33.6-8.3-57-8.5C273.6,262.2,252.3,261.3,219.5,213.8z"/>
</g>
<path class="st1" d="M254.6,70.5c6.1-8.7-33.1,22.2-40.3,84.6c-4.7,40.5-3.1,82.6-4.1,89.9c-5.6,42.3-3,102.9-2.5,98.7
	C214.1,288.6,195.8,154.6,254.6,70.5z"/>
<path class="st0" d="M256.6,63.7c-0.3-0.9-15.8,1.1-22.2,6.7c-4.2,4.3-10.7,11.4-14.9,19.5c0,0,3.7,0.8,3.7,0.9
	c-4.7,8-9.1,17.4-12.5,27.9c-3.8,11.6-4.7,24.3-5.3,37.8c-0.2,4.2-0.4,8.4-0.5,12.5c-2.6,29.8-3,58.6-2.5,63.1
	c3.6,37.9-3.9,97.3-3,93.4c3.7-15.7,4.2-44.5,5.7-77.8c0.6,4.6,0.9,8.4,0.7,14c-0.2,6.7-2,24.6-2,31.3c0.1,14.8,13.3,61.9,10.3,47.9
	c-2.5-11.5,2.5-52.3,2.8-65.2c0.2-10.1,1.6-21.2,0.2-31.2c-1.6-11.2-2.2-20-1.9-31.9c0.2-11.3,0.6-22.5,1-33.8
	c0.4-10.9,0.5-22.2,1.5-32.9c1-11.3,4.5-19.9,8.3-28c3.6-7.5,7.2-14.9,11.9-19.7C262.3,73.3,256.6,63.7,256.6,63.7z"/>
<path class="st0" d="M253.8,63.7c-0.3-0.9-15.8,1.1-22.2,6.7c-4.2,4.3-10.7,11.4-14.9,19.5c0,0,3.7,0.8,3.7,0.9
	c-4.7,8-9.1,17.4-12.5,27.9c-3.8,11.6-4.7,24.3-5.3,37.8c-0.2,4.2-0.4,8.4-0.5,12.5c-2.6,29.8-3,58.6-2.5,63.1
	c3.6,37.9-3.9,97.3-3,93.4c3.7-15.7,4.2-44.5,5.7-77.8c0.6,4.6,0.9,8.4,0.7,14c-0.2,6.7-2,24.6-2,31.3c0.1,14.8,13.3,61.9,10.3,47.9
	c-2.5-11.5,2.5-52.3,2.8-65.2c0.2-10.1,1.6-21.2,0.2-31.2c-1.6-11.2-2.2-20-1.9-31.9c0.2-11.3,0.6-22.5,1-33.8
	c0.4-10.9,0.5-22.2,1.5-32.9c1-11.3,4.5-19.9,8.3-28c3.6-7.5,7.2-14.9,11.9-19.7C259.6,73.3,253.8,63.7,253.8,63.7z"/>
<path class="st2" d="M326.9,260.5c-0.9-24.8-1.5-49.7-2.8-74.4c-1-19.9-3.1-40.9-9.6-56.5c-1.7-4.1-3.8-7.4-5.6-11.4
	c-1.9-4.2-3.1-9.2-4.6-14c-2.9-9.1-7.1-16-11.6-21.7c-10.6-13.4-37.4-13.9-37.2-12.4c0,0.1,0,0.1,0,0.1c-5.4,0-10.8,0.6-16.1,1.8
	c-4.8,1.1-9.6,2.6-14.1,6.1c-7.7,6-15.3,20.3-13.9,38.7c0.1,1.3-3.8,149.4-2.8,148.5c-1.3,4.7,1.5-141,0.5-135.9
	c-1.7,9.2-1.7,21.1-2.9,30.6c-1.5,11.6-3,23.2-3.8,35c-0.8,12.1-0.6,24.1-0.1,36.2c0.5,12.5,0.7,24.9,0.6,37.4
	c-0.3,28.2-1,86.8-0.8,83.6c1.7-23.8,7.2-44.7,7.9-68.7c0.3-11.8-3.5-26.5-3.8-38.3c-0.3-11.8-1-23.5-0.9-35.3
	c0.1-11.4,1.1-22.7,2.4-33.7c1.2-10.4,2.5-20.7,4-30.9c2.6-17.8,6.4-36.1,14-47.2c8.7-12.6,28.5-22.7,28.9-24.4
	c0.3-1.6-17.2,6.5-26.1,15c-5.9,5.6-10.3,14.5-13.6,25.2c-0.9-16.4,11.9-24.8,19-29.6c4-2.7,2.1-8.3,6.3-9.2c4.8-1,9.6-1.4,14.4-1.4
	c0.6,0,1.9-0.5,2.3-1.8c0.1-0.2,0.1-0.4,0.1-0.5c0.3,0,0.5-0.1,0.7-0.2c4.3-1.8,8.3-4.8,12.6-3.4c-14.6-2.6-17.6-8.3-12.7,4.1
	c0.3,0.8,5.8,7.1,7.7,7.5c0.3,0.6,1.8,0.6,2,0.5c2.5,0.8,4.9,2.3,7.2,4.4c4.8,4.3,8.8,11.2,12.7,18.1c7.1,12.5,13.9,25.8,19,42
	c0,0.1,0,0.2,0.1,0.3c0.9,4.9,2,9.5,3.6,13.7c0.2,0.5,0.4,1.1,0.6,1.6c0.5,2.1,0.9,4.1,1.4,6.2c0.8,5.1,1.4,10.3,1.9,15.7
	c0.9,10.8,1.6,21.6,2.4,32.5c1.5,22,2.6,44.1,2.2,66.3c-0.4,23.3-2.4,46.8-7.1,68.2c-0.7,3.2,4.9-8.4,5.7-12.8
	c-0.1,3.2-0.2,6.4-0.3,9.6c-0.1,2.8,4-18.3,4.3-27c0,5.8,0,11.6,0,17.4c-0.1,6.4,0.9,22.4,1.5,19.5c2.4-10.6,1.9-22.8,2-34.2
	c0-12.4,0-24.8,0-37.3c0.7,18.9,1.4,37.8,2.1,56.6C326.5,343.7,327.9,286.7,326.9,260.5z M271.2,50.7c2.2-0.2,4.5-0.2,6.7,0.1
	c4.3,0.6,8.1,4.1,11.2,7.4C283.8,54,277.8,51.2,271.2,50.7z M319.2,101.7c-1.1-2.6-2.4-4.9-4.1-7.1c-0.3-0.4-0.6-0.8-0.9-1.2
	c-0.3-0.9-0.7-1.7-1.1-2.6c-1.3-2.7-2.8-5.3-4.4-7.9c-1.4-3.7-2.9-7.4-4.9-10.9c-2.5-4.4-5.4-8.5-8.7-12.3c2.1,1.9,4.1,3.9,5.7,6.4
	c1.5,2.3,2.6,4.9,4.3,7.1c1.6,2,3.6,3.7,5.3,5.6c6.2,7,8.6,16.4,9.8,25.7C319.9,103.6,319.6,102.6,319.2,101.7z"/>
<path class="st2" d="M327.1,269.5c-0.9-25.4-1.5-51-2.8-76.4c-1-20.4-3.1-42-9.6-58c-1.7-4.2-3.8-7.6-5.6-11.7
	c-1.9-4.3-3.1-9.5-4.6-14.3c-2.9-9.3-7.1-16.5-11.6-22.2c-10.6-13.7-37.4-14.3-37.2-12.7c0,0.1,0,0.1,0,0.1
	c-5.4,0-10.8,0.6-16.1,1.8c-4.8,1.1-9.6,2.7-14.1,6.3c-7.7,6.1-15.3,20.9-13.9,39.8c0.1,1.3-3.8,153.4-2.8,152.5
	c-1.3,4.8,1.5-144.8,0.5-139.5c-1.7,9.4-1.7,21.7-2.9,31.4c-1.5,11.9-3,23.8-3.8,36c-0.8,12.4-0.6,24.7-0.1,37.2
	c0.5,12.8,0.7,25.6,0.6,38.4c-0.3,28.9-1,89.2-0.8,85.8c1.7-24.4,7.2-45.9,7.9-70.5c0.3-12.1-3.5-27.3-3.8-39.4
	c-0.3-12.1-1-24.2-0.9-36.3c0.1-11.7,1.1-23.3,2.4-34.6c1.2-10.6,2.5-21.3,4-31.7c2.6-18.2,6.4-37.1,14-48.4
	c8.7-12.9,28.5-23.3,28.9-25c0.3-1.6-17.2,6.7-26.1,15.4c-5.9,5.7-10.3,14.9-13.6,25.9c-0.9-16.8,11.9-25.4,19-30.4
	c4-2.8,2.1-8.5,6.3-9.4c4.8-1,9.6-1.5,14.4-1.4c0.6,0,1.9-0.5,2.3-1.9c0.1-0.2,0.1-0.4,0.1-0.6c0.3,0,0.5-0.1,0.7-0.2
	c4.3-1.8,8.3-4.9,12.6-3.5c-14.6-2.6-18.2-1.1-12.7,4.2c0.5,0.5,5.8,7.3,7.7,7.7c0.3,0.6,1.8,0.6,2,0.5c2.5,0.8,4.9,2.3,7.2,4.5
	c4.8,4.4,8.8,11.5,12.7,18.6c7.1,12.9,13.9,26.5,19,43.1c0,0.1,0,0.2,0.1,0.3c0.9,5.1,2,9.8,3.6,14.1c0.2,0.6,0.4,1.1,0.6,1.7
	c0.5,2.1,0.9,4.2,1.4,6.4c0.8,5.2,1.4,10.6,1.9,16.1c0.9,11.1,1.6,22.2,2.4,33.3c1.5,22.5,2.6,45.3,2.2,68.1
	c-0.4,24-2.4,48.1-7.1,70c-0.7,3.2,4.9-8.7,5.7-13.2c-0.1,3.3-0.2,6.6-0.3,9.9c-0.1,2.9,4-18.8,4.3-27.7c0,5.9,0,11.9,0,17.8
	c-0.1,6.6,0.9,23,1.5,20.1c2.4-10.9,1.9-23.4,2-35.2c0-12.8,0-25.5,0-38.3c0.7,19.4,1.4,38.8,2.1,58.1
	C326.7,355,328.1,296.4,327.1,269.5z M271.4,53.4c2.2-0.2,4.5-0.3,6.7,0.1c4.3,0.6,8.1,4.2,11.2,7.6C284,56.8,277.9,53.9,271.4,53.4
	z M319.4,105.7c-1.1-2.6-2.4-5-4.1-7.3c-0.3-0.4-0.6-0.8-0.9-1.2c-0.3-0.9-0.7-1.8-1.1-2.6c-1.3-2.8-2.8-5.5-4.4-8.1
	c-1.4-3.8-2.9-7.6-4.9-11.2c-2.5-4.5-5.4-8.7-8.7-12.6c2.1,1.9,4.1,4.1,5.7,6.6c1.5,2.4,2.6,5.1,4.3,7.3c1.6,2.1,3.6,3.8,5.3,5.7
	c6.2,7.1,8.6,16.9,9.8,26.4C320.1,107.7,319.8,106.7,319.4,105.7z"/>
<path class="st0" d="M314.5,190.6c-0.8-5.6-1.7-11-2.6-16.4c-0.6-5.8-1.4-11.5-2.3-17c-1-5.4-2.1-10.4-3.3-15.2
	c0-0.2-0.1-0.4-0.1-0.6c-1.6-8.6-2.9-18.1-4.9-25.9c-3.1-11.9-3.9-12-6-17.7c-2.8-7.6-7.1-15.1-10.7-19.4
	c-12.7-17.4-22.4-2.6-19.5-2.3c4.4,0.5,21.7,46,27,62.1c5.8,17.9,10.4,38.7,13.8,61.8c3.4,23.3,2.6,52.1,2.6,77
	c0,26.6-0.7,52.9-3.2,78.5c-1.7,17.2,12.4-51.3,12.4-81.2C317.6,246.6,318.1,216.6,314.5,190.6z M292.6,70.3c2,3.4,2.6,8.4,5.8,9.4
	c-0.3-0.6-0.7-1.2-1-1.8c-0.4-0.8-0.9-1.5-1.3-2.2c-2.3-4.7-3.7-11.6-7.2-13.8C290.8,62.7,291.1,67.8,292.6,70.3z"/>
<path class="st2" d="M321.6,273.4c-0.9-25.4-1.5-51-2.8-76.4c-1-20.4-3.1-42-9.6-58c-1.7-4.2-3.8-7.6-5.6-11.7
	c-1.9-4.3-3.1-9.5-4.6-14.3c-2.9-9.3-7.1-16.5-11.6-22.2C276.9,77,250.1,76.4,250.3,78c0,0.1,0,0.1,0,0.1c-5.4,0-10.8,0.6-16.1,1.8
	c-4.8,1.1-9.6,2.7-14.1,6.3c-7.7,6.1-15.3,20.9-13.9,39.8c0.1,1.3-3.8,153.4-2.8,152.5c-1.3,4.8,1.5-144.8,0.5-139.5
	c-1.7,9.4-1.7,21.7-2.9,31.4c-1.5,11.9-3,23.8-3.8,36c-0.8,12.4-0.6,24.7-0.1,37.2c0.5,12.8,0.7,25.6,0.6,38.4
	c-0.3,28.9-1,89.2-0.8,85.8c1.7-24.4,7.2-45.9,7.9-70.5c0.3-12.1-3.5-27.3-3.8-39.4c-0.3-12.1-1-24.2-0.9-36.3
	c0.1-11.7,1.1-23.3,2.4-34.6c1.2-10.6,2.5-21.3,4-31.7c2.6-18.2,6.4-37.1,14-48.4c8.7-12.9,28.5-23.3,28.9-25
	c0.3-1.6-17.2,6.7-26.1,15.4c-5.9,5.7-10.3,14.9-13.6,25.9c-0.9-16.8,11.9-25.4,19-30.4c4-2.8,2.1-8.5,6.3-9.4
	c4.8-1,9.6-1.5,14.4-1.4c0.6,0,1.9-0.5,2.3-1.9c0.1-0.2,0.1-0.4,0.1-0.6c0.3,0,0.5-0.1,0.7-0.2c4.3-1.8,8.3-4.9,12.6-3.5
	c-14.6-2.6-17.6-8.5-12.7,4.2c0.3,0.8,5.8,7.3,7.7,7.7c0.3,0.6,1.8,0.6,2,0.5c2.5,0.8,4.9,2.3,7.2,4.5c4.8,4.4,8.8,11.5,12.7,18.6
	c7.1,12.9,13.9,26.5,19,43.1c0,0.1,0,0.2,0.1,0.3c0.9,5.1,2,9.8,3.6,14.1c0.2,0.6,0.4,1.1,0.6,1.7c0.5,2.1,0.9,4.2,1.4,6.4
	c0.8,5.2,1.4,10.6,1.9,16.1c0.9,11.1,1.6,22.2,2.4,33.3c1.5,22.5,2.6,45.3,2.2,68.1c-0.4,24,2.3,47.9,2.6,39c0,5.9,0,11.9,0,17.8
	c-0.1,6.6,0.9,23,1.5,20.1c2.4-10.9,1.9-23.4,2-35.2c0-12.8,0-25.5,0-38.3c0.7,19.4,1.4,38.8,2.1,58.1
	C321.2,358.8,322.6,300.3,321.6,273.4z M265.9,56c2.2-0.2,4.5-0.3,6.7,0.1c4.3,0.6,8.1,4.2,11.2,7.6C278.5,59.4,272.5,56.4,265.9,56
	z M313.9,108.3c-1.1-2.6-2.4-5-4.1-7.3c-0.3-0.4-0.6-0.8-0.9-1.2c-0.3-0.9-0.7-1.8-1.1-2.6c-1.3-2.8-2.8-5.5-4.4-8.1
	c-1.4-3.8-2.9-7.6-4.9-11.2c-2.5-4.5-5.4-8.7-8.7-12.6c2.1,1.9,4.1,4.1,5.7,6.6c1.5,2.4,2.6,5.1,4.3,7.3c1.6,2.1,3.6,3.8,5.3,5.7
	c6.2,7.1,8.6,16.9,9.8,26.4C314.6,110.2,314.3,109.3,313.9,108.3z"/>
<path class="st1" d="M325.2,253.1c-0.9-24.8-1.5-49.7-2.8-74.4c-1-19.9-3.1-40.9-9.6-56.5c-1.7-4.1-3.8-7.4-5.6-11.4
	c-1.9-4.2-3.4-9-4.6-14c-2.4-10.7-7.1-16-11.6-21.7c-10.6-13.4-37.4-13.9-37.2-12.4c0,0.1,0,0.1,0,0.1c-5.4,0-10.8,0.6-16.1,1.8
	c-4.8,1.1-9.6,2.6-14.1,6.1c-7.7,6-15.3,20.3-13.9,38.7c0.1,1.3-3.8,149.4-2.8,148.5c-1.3,4.7,1.5-141,0.5-135.9
	c-1.7,9.2-1.7,21.1-2.9,30.6c-1.5,11.6-3,23.2-3.8,35c-0.8,12.1-0.6,24.1-0.1,36.2c0.5,12.5,0.7,24.9,0.6,37.4
	c-0.3,28.2-1,86.8-0.8,83.6c1.7-23.8,7.2-44.7,7.9-68.7c0.3-11.8-3.5-26.5-3.8-38.3c-0.3-11.8-1-23.5-0.9-35.3
	c0.1-11.4,1.1-22.7,2.4-33.7c1.2-10.4,2.5-20.7,4-30.9c2.6-17.8,6.4-36.1,14-47.2c8.7-12.6,28.5-22.7,28.9-24.4
	c0.3-1.6-17.2,6.5-26.1,15c-5.9,5.6-10.3,14.5-13.6,25.2c-0.9-16.4,11.9-24.8,19-29.6c4-2.7,2.1-8.3,6.3-9.2c4.8-1,9.6-1.4,14.4-1.4
	c0.6,0,1.9-0.5,2.3-1.8c0.1-0.2,0.1-0.4,0.1-0.5c0.3,0,0.5-0.1,0.7-0.2c0,0-3.1-0.4-0.1,0.7c0.6,0.2,5.8,7.1,7.7,7.5
	c0.3,0.6,1.8,0.6,2,0.5c2.5,0.8,4.9,2.3,7.2,4.4c4.8,4.3,8.8,11.2,12.7,18.1c7.1,12.5,13.9,25.8,19,42c0,0.1,0,0.2,0.1,0.3
	c0.9,4.9,2,9.5,3.6,13.7c0.2,0.5,0.4,1.1,0.6,1.6c0.5,2.1,0.9,4.1,1.4,6.2c0.8,5.1,1.4,10.3,1.9,15.7c0.9,10.8,1.6,21.6,2.4,32.5
	c1.5,22,2.6,44.1,2.2,66.3c-0.4,23.3-2.4,46.8-7.1,68.2c-0.7,3.2,4.9-8.4,5.7-12.8c-0.1,3.2-0.2,6.4-0.3,9.6c-0.1,2.8,4-18.3,4.3-27
	c0,5.8,0,11.6,0,17.4c-0.1,6.4,0.9,22.4,1.5,19.5c2.4-10.6,1.9-22.8,2-34.2c0-12.4,0-24.8,0-37.3c0.7,18.9,1.4,37.8,2.1,56.6
	C324.8,336.3,326.2,279.3,325.2,253.1z M314.9,98.9c-1.1-2.6-2.4-4.9-4.1-7.1c-0.3-0.4-0.6-0.8-0.9-1.2c-0.3-0.9-0.7-1.7-1.1-2.6
	c-1.3-2.7-2.8-5.3-4.4-7.9c-1.4-3.7-2.9-7.4-4.9-10.9c-2.5-4.4-5.4-8.5-8.7-12.3c2.1,1.9,3.1,3.3,5.7,6.4c1.8,2.1,2.6,4.9,4.3,7.1
	c1.6,2,3.6,3.7,5.3,5.6c6.2,7,8.6,16.4,9.8,25.7C315.6,100.8,315.3,99.8,314.9,98.9z"/>
<path class="st2" d="M322,269.5c-0.9-25.4-1.5-51-2.8-76.4c-1-20.4-3.1-42-9.6-58c-1.7-4.2-3.8-7.6-5.6-11.7
	c-1.9-4.3-3.1-9.5-4.6-14.3c-2.9-9.3-7.1-16.5-11.6-22.2c-10.6-13.7-37.4-14.3-37.2-12.7c0,0.1,0,0.1,0,0.1
	c-5.4,0-10.8,0.6-16.1,1.8c-4.8,1.1-9.6,2.7-14.1,6.3c-7.7,6.1-15.3,20.9-13.9,39.8c0.1,1.3-3.8,153.4-2.8,152.5
	c-1.3,4.8,1.4-152,0.4-146.7c-1.7,9.4-3.7,27.1-2.8,38.6c0.9,11.9-3,23.8-3.8,36c-0.8,12.4-0.6,24.7-0.1,37.2
	c0.5,12.8,0.7,25.6,0.6,38.4c-0.3,28.9-1,89.2-0.8,85.8c1.7-24.4,7.2-45.9,7.9-70.5c0.3-12.1-3.5-27.3-3.8-39.4
	c-0.3-12.1-1-24.2-0.9-36.3c0.1-11.7,1.1-23.3,2.4-34.6c1.2-10.6,2.5-21.3,4-31.7c2.6-18.2,6.4-37.1,14-48.4
	c8.7-12.9,28.5-23.3,28.9-25c0.3-1.6-17.2,6.7-26.1,15.4c-5.9,5.7-10.3,14.9-13.6,25.9c-0.9-16.8,11.9-25.4,19-30.4
	c4-2.8,2.1-8.5,6.3-9.4c4.8-1,9.6-1.5,14.4-1.4c0.6,0,1.9-0.5,2.3-1.9c0.1-0.2,0.1-0.4,0.1-0.6c0.3,0,0.5-0.1,0.7-0.2
	c4.3-1.8,8.1-6.2,12.4-4.8c-14.6-2.6-13.2-0.4-10.4,3.8c0.4,0.6,3.8,9.1,5.7,9.4c0.3,0.6,1.8,0.6,2,0.5c2.5,0.8,4.9,2.3,7.2,4.5
	c4.8,4.4,8.8,11.5,12.7,18.6c7.1,12.9,13.9,26.5,19,43.1c0,0.1,0,0.2,0.1,0.3c0.9,5.1,2,9.8,3.6,14.1c0.2,0.6,0.4,1.1,0.6,1.7
	c0.5,2.1,0.9,4.2,1.4,6.4c0.8,5.2,1.4,10.6,1.9,16.1c0.9,11.1,1.6,22.2,2.4,33.3c1.5,22.5,2.6,45.3,2.2,68.1
	c-0.4,24-2.1,61.4-1.4,56.9c-0.1,3.3-0.2,6.6-0.3,9.9c-0.1,2.9,4-18.8,4.3-27.7c0,5.9,0,11.9,0,17.8c-0.1,6.6,0.9,23,1.5,20.1
	c2.4-10.9,1.9-23.4,2-35.2c0-12.8,0-25.5,0-38.3c0.7,19.4,1.4,38.8,2.1,58.1C321.6,355,322.9,296.4,322,269.5z M266.3,53.4
	c2.2-0.2,4.5-0.3,6.7,0.1c4.3,0.6,8.1,4.2,11.2,7.6C278.9,56.8,272.8,53.9,266.3,53.4z M314.2,105.7c-1.1-2.6-2.4-5-4.1-7.3
	c-0.3-0.4-0.6-0.8-0.9-1.2c-0.3-0.9-0.7-1.8-1.1-2.6c-1.3-2.8-2.8-5.5-4.4-8.1c-1.4-3.8-2.9-7.6-4.9-11.2c-2.5-4.5-5.4-8.7-8.7-12.6
	c2.1,1.9,4.1,4.1,5.7,6.6c1.5,2.4,2.6,5.1,4.3,7.3c1.6,2.1,3.6,3.8,5.3,5.7c6.2,7.1,8.6,16.9,9.8,26.4
	C315,107.7,314.6,106.7,314.2,105.7z"/>
<path class="st2" d="M324.5,285.1c-0.9-28.3-1.5-56.7-2.8-84.8c-1-22.6-3.1-46.6-9.5-64.4c-1.7-4.7-3.7-8.5-5.5-12.9
	c-1.9-4.7-3-10.5-4.5-15.9c-2.8-10.4-6.9-18.5-11.4-24.7c-10.2-14.2-35.4-10.6-36.7-14.1c0,0,0,0.1,0,0.2c-5.3,0-10.6,0.7-15.9,2
	c-4.7,1.2-9.4,3-13.9,6.9c-7.6,6.8-15,23.1-13.8,44.2c0.1,1.4-3.8,170.3-2.8,169.3c-1.3,5.3,1.5-160.7,0.5-154.9
	c-1.7,10.5-1.7,24.1-2.9,34.9c-1.5,13.2-3,26.4-3.8,39.9c-0.8,13.8-0.6,27.4-0.1,41.3c0.5,14.2,0.7,28.4,0.6,42.7
	c-0.3,32.1-1,99-0.8,95.3c1.7-27.1,7.1-50.9,7.8-78.3c0.3-13.4-3.5-30.3-3.7-43.7c-0.3-13.4-1-26.8-0.9-40.3
	c0.1-13,1.1-25.8,2.3-38.5c1.2-11.8,2.5-23.6,4-35.2c2.6-20.2,6.3-41.1,13.8-53.8c8.5-14.3,28.2-25.8,28.5-27.8
	c0.3-1.8-17.4,3.1-26.2,12.7c-5.8,6.3-9.7,20.9-13,33.1C213,99.5,225.6,90,232.6,84.5c4-3.1,4.3-6.3,8.8-7.5c5.6-1.5,9-4,11.6-4.5
	c2.2-0.5,0.7-3.7,1-5.3c0.1-0.2,7.7,11.3,9.6,11.8c0.3,0.7,1.8,0.6,2,0.6c2.5,0.9,4.9,2.6,7.1,5c4.7,4.9,8.7,12.8,12.6,20.7
	c7,14.3,13.7,29.4,18.8,47.8c0,0.1,0,0.3,0.1,0.4c0.9,5.6,1.9,10.9,3.5,15.7c0.2,0.6,0.4,1.2,0.6,1.9c0.5,2.3,0.9,4.7,1.3,7.1
	c0.8,5.8,1.4,11.7,1.8,17.9c0.9,12.3,0.4,28.1,1.1,40.5c1.5,25,6.5,47,3.4,72.2c-3.2,26.4-2.4,53.3-7,77.8
	c-0.7,3.6,3.9-10.9,4.6-15.9c0.7-5.7,3.4-40.8,3.3-37.2c-0.1,3.2,1.2,28.6,1.6,18.6c0,6.6,0,13.2,0,19.8c-0.1,7.3,0.8,25.5,1.5,22.3
	c2.4-12.1,1.9-26,1.9-39c0-14.2,0-28.3,0-42.5c0.7,21.5,1.4,43,2,64.6C324.1,380,325.5,315,324.5,285.1z M319.6,282.8
	c-0.9-28.3-3-55.9-4.2-84.1c-1-22.6-3.1-46.6-9.5-64.4c-1.7-4.7-3.7-8.5-5.5-12.9c-1.9-4.7-3-10.5-4.5-15.9
	c-2.8-10.4-6.9-18.5-11.4-24.7c-10.2-14.2-35.4-10.6-36.7-14.1c0,0,0,0.1,0,0.2c-5.3,0-10.6,0.7-15.9,2c-4.7,1.2-9.4,3-13.9,6.9
	c-7.6,6.8-15,23.1-13.8,44.2c0.1,1.4-3.8,170.3-2.8,169.3c-1.3,5.3,1.5-160.7,0.5-154.9c-1.7,10.5-1.7,24.1-2.9,34.9
	c-1.5,13.2-3,26.4-3.8,39.9c-0.8,13.8-0.6,27.4-0.1,41.3c0.5,14.2,0.7,28.4,0.6,42.7c-0.3,32.1-1,99-0.8,95.3
	c1.7-27.1,7.1-50.9,7.8-78.3c0.3-13.4-3.5-30.3-3.7-43.7c-0.3-13.4-1-26.8-0.9-40.3c0.1-13,1.1-25.8,2.3-38.5
	c1.2-11.8,2.5-23.6,4-35.2c2.6-20.2,6.3-41.1,13.8-53.8c8.5-14.3,28.2-25.8,28.5-27.8c0.3-1.8-17.4,3.1-26.2,12.7
	c-5.8,6.3-9.7,20.9-13,33.1c-0.9-18.7,11.7-28.2,18.7-33.8c4-3.1,4.3-6.3,8.8-7.5c5.6-1.5,9-4,11.6-4.5c2.2-0.5,0.7-3.7,1-5.3
	c0.1-0.2,7.7,11.3,9.6,11.8c0.3,0.7,1.8,0.6,2,0.6c2.5,0.9,4.9,2.6,7.1,5c4.7,4.9,8.7,12.8,12.6,20.7c7,14.3,13.7,29.4,18.8,47.8
	c0,0.1,0,0.3,0.1,0.4c0.9,5.6,1.9,10.9,3.5,15.7c0.2,0.6,0.4,1.2,0.6,1.9c0.5,2.3,0.9,4.7,1.3,7.1c0.8,5.8,1.4,11.7,1.8,17.9
	c0.9,12.3,1.6,24.7,2.3,37c1.5,25,2.5,50.3,2.2,75.6c-0.4,26.6-5.2,36.6-5.3,40.2c-0.1,3.2,8.3-21.4,8.3-35.6
	c0.7,21.5,4.4,42.2,5,63.7C317.7,378.4,320.6,312.7,319.6,282.8z M269.6,49.6c2.2-0.2,4.4-0.3,6.6,0.1c4.3,0.7,13.1,10.3,16.2,14
	C287.1,59,276,50.2,269.6,49.6z M316.9,107.7c-1.1-2.9-2.4-5.6-4.1-8.1c-0.3-0.5-0.6-0.9-0.9-1.4c-0.3-1-0.7-2-1.1-2.9
	c-1.3-3.1-2.7-6.1-4.3-9c-1.4-4.2-2.9-8.4-4.8-12.4c-2.4-5-9.1-11.3-12.3-15.5c2.1,2.1,7.8,6.1,9.3,8.8c1.5,2.6,2.6,5.6,4.3,8.1
	c1.6,2.3,3.6,4.2,5.3,6.4c6.1,7.9,8.4,18.7,9.6,29.3C317.6,109.9,317.3,108.8,316.9,107.7z"/>
<path class="st2" d="M332.4,276.5c-1-25.4-1.7-51-3.1-76.4c-1.1-20.4,3.3-46.5-3.8-62.5c-1.9-4.2-10.4-45.1-15.2-50.9
	c-11.6-13.7-55.9-7.2-55.7-5.6c0,0.1-0.7-0.8-0.7-0.7c-5.9,0-11,1.4-16.8,2.7c-5.2,1.1-10.4,2.7-15.4,6.3
	c-8.4,6.1-16.6,20.9-15.2,39.8c0.1,1.3-4.2,153.4-3.1,152.5c-1.4,4.8,3.2-144.2,0.6-139.5c-5.3,9.5-4.9,21.7-3.2,31.4
	c2,11.8-3.3,23.8-4.2,36c-0.9,12.4-0.7,24.7-0.2,37.2c0.5,12.8,0.8,25.6,0.6,38.4c-0.3,28.9-1.1,89.2-0.8,85.8
	c1.9-24.4,7.9-45.9,8.6-70.5c0.3-12.1-3.8-27.3-4.1-39.4c-0.3-12.1-1.1-24.2-1-36.3c0.1-11.7,1.2-23.3,2.6-34.6
	c1.3-10.6,2.8-21.3,4.4-31.7c2.9-18.2,6.9-37.1,15.3-48.4c9.4-12.9,31.1-23.3,31.5-25c0.3-1.6-18.7,6.7-28.4,15.4
	c-6.4,5.7-11.2,14.9-14.8,25.9c-0.9-16.8,13-25.4,20.7-30.4c4.4-2.8,2.3-8.5,6.9-9.4c5.2-1,10.5-1.5,15.7-1.4c0.7,0,2.1-0.5,2.5-1.9
	c0.1-0.2,0.1-0.4,0.1-0.6c0.3,0,0.6-0.1,0.8-0.2c4.7-1.8,9-4.9,13.8-3.5c-15.9-2.6-19.2-8.5-13.8,4.2c0.3,0.8,6.3,7.3,8.4,7.7
	c0.3,0.6,2,0.6,2.2,0.5c2.7,0.8,5.4,2.3,7.9,4.5c5.2,4.4,9.6,11.5,13.9,18.6c7.7,12.9,15.2,26.5,20.7,43.1c0,0.1,0,0.2,0.1,0.3
	c1,5.1,2.2,9.8,3.9,14.1c0.2,0.6,0.5,1.1,0.7,1.7c0.5,2.1,1,4.2,1.5,6.4c0.9,5.2,1.5,10.6,2,16.1c1,11.1,1.8,22.2,2.6,33.3
	c1.6,22.5,2.8,45.3,2.4,68.1c-0.4,24-2.6,48.1-7.7,70c-0.7,3.2,5.4-8.7,6.2-13.2c-0.1,3.3-0.2,6.6-0.3,9.9
	c-0.1,2.9,4.3-18.8,4.7-27.7c0,5.9,0,11.9,0,17.8c-0.1,6.6,0.9,23,1.7,20.1c2.7-10.9,2.1-23.4,2.1-35.2c0-12.8,0-25.5,0-38.3
	c0.7,19.4,1.5,38.8,2.2,58.1C332,361.9,333.5,303.4,332.4,276.5z M271.7,58c2.4-0.2,4.9-0.3,7.3,0.1c4.7,0.6,8.8,4.2,12.2,7.6
	C285.4,61.4,278.8,58.5,271.7,58z M324,110.3c-1.2-2.6-2.7-5-4.5-7.3c-0.3-0.4-0.7-0.8-1-1.2c-0.4-0.9-0.7-1.8-1.2-2.6
	c-1.4-2.8-3-5.5-4.7-8.1c-1.6-3.8-3.2-7.6-5.3-11.2c-2.7-4.5-5.9-8.7-9.5-12.6c2.3,1.9,4.4,4.1,6.2,6.6c1.6,2.4,2.8,5.1,4.7,7.3
	c1.8,2.1,4,3.8,5.8,5.7c6.7,7.1,9.3,16.9,10.7,26.4C324.8,112.3,324.4,111.3,324,110.3z"/>
<path class="st2" d="M229.7,106.4c-5.6,14.4-9.8,30.5-12.4,47.8c-1.5,9.6-2.9,19.2-2.9,29.4c0,10.2-1.8,23.1-1.6,33.3
	c0.5,21.4,1.5,45,2.8,66.2c1.4,22.7-1.4,24.6,8,58.3c0.8,2.8-5.7-51.6-4.7-111.9c0.2-10-0.6-20-0.8-30c-0.2-10.1-0.6-20.1,0.5-30
	c1-9,2.4-18,3.9-26.6c1.5-8.3,3.2-16.6,5.7-23.8c6.2-17.6,17.2-31,23.4-39.6C252.2,78.5,237.5,86.2,229.7,106.4z"/>
<path class="st1" d="M207.9,103.7c-4.2,5.2-8.4,18.2-9.8,27.9c-1.7,11.5-2.3,23.4-2.6,35.3c-0.3,12.7-0.4,25.4-0.6,38.1
	c-0.3,25.9-0.5,51.9-0.3,77.8c0.2,28.8,5.5,88.1,5.4,84.5c-1.8-49.5-2.3-99.1-1.8-148.7c0.1-12.2,0.3-24.5,0.5-36.7
	c0.2-12,2-26.7,3.6-38.3c3.8-28.2,10-30.7,15.9-45.1c3.9-9.4,10.5-10.8,16.2-13.9c6.2-3.3,19.4-10.7,18.4-11.7
	C249.5,69.7,234.9,69.8,207.9,103.7z"/>
<path class="st1" d="M335.3,254c4.6-22.1-0.5-46.6-6.9-65.4c-6.5-19.1-8-37.2-12.7-55.9c-2-7.9-4.3-15.7-8.4-21.4
	c-3.9-5.3-8.7-8.3-13.4-11.3c-2.7-1.8-13.6-17.6-15.7-20.4c-4.2-5.4-22.6-7.4-21.8-6.6c4.1,4.1,12.9,0.8,19.7,13.3
	c3.2,6,7.9,11.6,12.4,14.9c4.5,3.3,9.3,5.7,13.4,9.9c4.7,4.8,7.5,11.8,9.6,19.8c4.7,17.8,9.2,36.3,11.5,55.3
	c2.5,19.9,2.7,40.2,2.9,60.4c0.2,23.1,6,115,5.9,112.5L335.3,254z"/>
<path class="st1" d="M321.7,253.1c-0.2-20.4-0.2-41-2.5-61.2c-2.2-20-7-39-11.9-57.8c-2.1-7.9-4.5-15.7-8.8-21.4
	c-4-5.3-9.2-8.3-14-11.3c-2.8-1.8-5.7-3.7-8.3-6.2c-2.4-2.4-5.2-7.7-7.4-10.4c-4.4-5.4-21.4-11.7-21.4-10.3
	c0,8.4,14.6,8.6,18.4,13.3c4,4.9,8.3,11.6,13,14.9c4.7,3.3,9.7,5.7,14.1,9.9c4.9,4.8,7.8,11.8,10.1,19.8
	c4.9,17.8,9.6,36.3,12.1,55.3c2.6,19.9,0.8,26.5,3,60.4c1.5,23-2.7,140.5-0.3,116.1L321.7,253.1z"/>
<ellipse class="st5" cx="257.8" cy="104.6" rx="58.1" ry="81.4"/>
<g>
	<path class="st6" d="M251.8,94.5c0,10-11.1,14.6-23.8,14.6s-22.4-4.6-22.4-14.6s10.4-14.6,23.1-14.6S251.8,84.5,251.8,94.5z"/>
	<path class="st6" d="M310.1,94.5c0,10-11.1,14.6-23.8,14.6s-22.4-4.6-22.4-14.6s10.4-14.6,23.1-14.6S310.1,84.5,310.1,94.5z"/>
	<path class="st6" d="M250.4,91.5c4.8,1.7,9.3,1.8,13.4,0"/>
	<path class="st6" d="M251.8,96.9c4-2.7,8-2.7,12,0"/>
	<path class="st6" d="M194.3,92.2"/>
	<path class="st6" d="M203.9,92.2"/>
	<line class="st6" x1="204.4" y1="96.5" x2="192.2" y2="96.5"/>
	<line class="st6" x1="323.2" y1="96.9" x2="311.1" y2="96.9"/>
	<line class="st6" x1="323.2" y1="92.2" x2="311.1" y2="92.2"/>
	<line class="st6" x1="204.4" y1="92.2" x2="192.2" y2="92.2"/>
</g>
<path class="st7" d="M282.3,146.8c0,0.2-9.9,12-22.7,12s-23.8-11.9-23.8-12s10.4-0.3,23.3-0.3C271.9,146.5,282.3,146.6,282.3,146.8z
	"/>
<path class="st1" d="M245.3,73.9c0.3-1-5.6-2.5-11.3-3.5c-7.8-1.3-14.5,0.4-18.8,1.5c-8.3,2.2-20.3,12.6-20.2,12.9
	c0.2,0.3,12.9-8.7,20.3-9.9c2.4-0.4,5.6-1.4,12.5-0.6c3.3,0.4,7.2,1.8,9.6,1.1C242,74.2,245.1,74.8,245.3,73.9z"/>
<path class="st8" d="M211.7,90.9c-0.4-1,2.7-3.8,7.7-5.8c2.7-0.4,6.1-0.2,6.1-0.2C215.1,86.6,211.7,90.9,211.7,90.9z"/>
<path class="st8" d="M303.9,88.3c0.4-1-2.6-3.7-7.3-5.6c0,0-2.7-0.3-5.8-0.3C300.6,84.3,303.9,88.3,303.9,88.3z"/>
<path class="st9" d="M267.7,126.9c-1.2-0.3,3.7-1.5,4.6,2.6c0.6,2.8-2.7,5.6-2.7,4.5C269.6,134,274.1,128.8,267.7,126.9z"/>
<path class="st9" d="M261.2,137.7c-0.7,1,0.1-2.2,2.1-3.1c1.6-0.8,5.4,0.1,4.5,0.6C267.7,135.2,263.7,134.2,261.2,137.7z"/>
<path class="st9" d="M255.5,137.7c0.7,1-0.1-2.2-2.1-3.1c-1.6-0.8-5.4,0.1-4.5,0.6C248.9,135.2,252.9,134.2,255.5,137.7z"/>
<path class="st8" d="M251.1,121.7c-0.9,1.9,2.7-1.9,2.9-5.9c0.2-3.2-2.9-8.4-3-6.5C251,109.3,254.2,114.7,251.1,121.7z"/>
<path class="st5" d="M290.2,142c0.5,3.7-2.2-12.7-10.2-15.2C280,126.8,287.9,126,290.2,142z"/>
<path class="st5" d="M228,142.3c-0.5,3.7,2.2-12.7,10.2-15.2C238.2,127.1,230.2,126.3,228,142.3z"/>
<path class="st5" d="M235.6,158.1c1.5,3.2-2.3-8-1.5-13.4C234.1,144.7,231.9,150.1,235.6,158.1z"/>
<path class="st5" d="M283.1,156.4c-1.7,3.2,2.7-8,1.7-13.4C284.8,143.1,287.4,148.4,283.1,156.4z"/>
<path class="st8" d="M241.8,127.1"/>
<path class="st8" d="M263.9,121.7c0.9,1.9-2.7-1.9-2.9-5.9c-0.2-3.2,2.9-8.4,3-6.5C264,109.3,260.7,114.7,263.9,121.7z"/>
<path class="st10" d="M213.4,96.4c1.1-0.2-1.4,1.4-3.2,0.6c-1.5-0.6-4-3.3-3.1-2.9C207.1,93.9,209.4,96.9,213.4,96.4z"/>
<path class="st10" d="M214.2,95.1c0.6-0.4-0.8,1.7-2.7,1.2c-1.5-0.4-4.8-2.8-3.9-2.7C207.8,93.5,211.6,96.7,214.2,95.1z"/>
<path class="st10" d="M215.5,93.9c0.9-0.6-1.3,1.9-3.1,1.3c-1.5-0.4-4.3-3.2-3.4-3C209.1,92.1,212.5,95.9,215.5,93.9z"/>
<path class="st10" d="M215.7,93.4c1.1-0.2-1.4,1.4-3.2,0.6c-1.5-0.6-4-3.3-3.1-2.9C209.5,91,211.8,94,215.7,93.4z"/>
<path class="st10" d="M216.9,92.8c0.7-0.3-1,1.5-2.8,0.8c-1.5-0.6-4.4-3.5-3.6-3.1C210.6,90.3,214.1,94.1,216.9,92.8z"/>
<path class="st10" d="M218.4,91.7c1-0.5-1.5,1.7-3.3,0.9c-1.5-0.6-3.9-3.8-3.1-3.4C212.2,89,215.2,93.2,218.4,91.7z"/>
<path class="st10" d="M218.5,91.5c1.1,0.2-1.7,0.7-3.3-0.3c-1.3-0.9-3-3.7-2.2-3.2C213.1,87.8,214.6,90.9,218.5,91.5z"/>
<path class="st10" d="M219.8,90.5c0.7-0.2-1.2,1.1-2.9,0.2c-1.4-0.7-3.8-3.6-3-3.2C214,87.5,216.8,91.2,219.8,90.5z"/>
<path class="st10" d="M220.9,89.9c1.1-0.2-1.7,1.2-3.4,0.3c-1.3-0.8-3.3-3.8-2.5-3.4C215.2,86.7,217.5,90.7,220.9,89.9z"/>
<path class="st10" d="M221.3,89.7c1,0.1-1.6,0.8-3-0.2c-1.1-0.8-2.7-3.5-2-3.1C216.4,86.3,217.7,89.2,221.3,89.7z"/>
<path class="st10" d="M222.7,89.2c0.7-0.1-1.3,1-2.8,0c-1.2-0.8-3.1-3.9-2.4-3.4C217.7,85.7,219.8,89.6,222.7,89.2z"/>
<path class="st10" d="M224.7,87.7c0.6-0.1-1.3,0.9-2.2-0.1c-0.8-0.8-1.7-3.6-1.2-3.2C221.4,84.4,222.3,88,224.7,87.7z"/>
<path class="st10" d="M224.4,88.7c1-0.2-1.7,1.1-3.1,0c-1.1-0.8-2.4-3.9-1.7-3.4C219.8,85.2,221.2,89.2,224.4,88.7z"/>
<path class="st10" d="M303.5,94.7c-1.1-0.2,1.4,1.4,3.2,0.8c1.5-0.5,4.1-3.1,3.2-2.8C309.8,92.5,307.4,95.5,303.5,94.7z"/>
<path class="st10" d="M302.7,93.4c-0.6-0.4,0.8,1.7,2.7,1.3c1.5-0.3,4.9-2.7,3.9-2.5C309.2,92,305.3,95.2,302.7,93.4z"/>
<path class="st10" d="M301.5,92.2c-0.9-0.6,1.2,1.9,3.1,1.4c1.5-0.4,4.4-3.1,3.5-2.9C308,90.6,304.4,94.3,301.5,92.2z"/>
<path class="st10" d="M301.3,91.7c-1.1-0.2,1.4,1.4,3.2,0.8c1.5-0.5,4.1-3.1,3.2-2.8C307.6,89.5,305.2,92.4,301.3,91.7z"/>
<path class="st10" d="M300.1,91c-0.7-0.3,0.9,1.6,2.8,0.9c1.5-0.5,4.5-3.3,3.6-3C306.4,88.8,302.9,92.4,300.1,91z"/>
<path class="st10" d="M298.7,89.9c-1-0.5,1.4,1.8,3.2,1c1.5-0.6,4-3.6,3.2-3.3C304.9,87.4,301.8,91.5,298.7,89.9z"/>
<path class="st10" d="M298.6,89.7c-1.1,0.1,1.7,0.8,3.3-0.2c1.3-0.8,3.1-3.6,2.3-3.1C304,86.2,302.5,89.2,298.6,89.7z"/>
<path class="st10" d="M297.3,88.7c-0.7-0.2,1.2,1.2,2.9,0.3c1.4-0.7,3.9-3.5,3.1-3.1C303.2,85.9,300.3,89.4,297.3,88.7z"/>
<path class="st10" d="M296.2,88c-1.1-0.3,1.7,1.3,3.4,0.4c1.4-0.7,3.4-3.7,2.6-3.3C302,85,299.6,88.9,296.2,88z"/>
<path class="st10" d="M295.8,87.8c-1,0.1,1.6,0.8,3-0.1c1.2-0.8,2.8-3.4,2.1-3C300.8,84.6,299.4,87.5,295.8,87.8z"/>
<path class="st10" d="M294.4,87.2c-0.7-0.1,1.3,1.1,2.8,0.1c1.2-0.8,3.3-3.8,2.5-3.3C299.6,83.9,297.3,87.7,294.4,87.2z"/>
<path class="st10" d="M292.3,86c-0.6-0.1,1.2,1,2.2,0c0.8-0.8,1.8-3.6,1.3-3.2C295.7,82.8,294.7,86.4,292.3,86z"/>
<path class="st10" d="M292.7,86.7c-1-0.2,1.7,1.1,3.1,0.1c1.1-0.8,2.5-3.8,1.8-3.4C297.5,83.3,295.9,87.3,292.7,86.7z"/>
<path class="st1" d="M267.1,74.9c-0.4-1,5.6-3.2,11.5-4.9c8.1-2.3,15.2-1.2,19.9-0.5c9,1.4,22.2,10.8,22,11.2
	c-0.1,0.3-13.9-7.5-21.8-7.9c-2.6-0.1-6.1-0.8-13.2,0.8c-3.4,0.8-7.4,2.7-10,2.3C270.6,74.8,267.5,75.8,267.1,74.9z"/>
<path class="st9" d="M249.5,126.8c1.2-0.3-3.6-1.7-4.7,2.4c-0.8,2.8,2.4,5.7,2.5,4.6C247.2,133.8,242.9,128.4,249.5,126.8z"/>
<path class="st11" d="M212.5,97.6c0,0,3.5,0.2,14.8-2.1c3.5-0.7,7.8-0.9,8.5-0.9c1.2,0,5.5,0.4,7.7,1.2c1,0.3-5.9-9.2-13.6-9.2
	C222.3,86.5,212.5,96.4,212.5,97.6z"/>
<radialGradient id="SVGID_2_" cx="270.0567" cy="90.8616" r="5.9517" gradientTransform="matrix(0.9134 0 0 1 -16.5337 0)" gradientUnits="userSpaceOnUse">
	<stop  offset="0.4745" style="stop-color:#FACB19"/>
	<stop  offset="0.6533" style="stop-color:#FACB19"/>
	<stop  offset="0.8293" style="stop-color:#0A6280;stop-opacity:0.96"/>
	<stop  offset="1" style="stop-color:#2483C5"/>
</radialGradient>
<path class="st12" d="M236.5,90.8c0,1.3-0.4,2.5-1,3.5c-5.1-0.1-9.8,1.3-9.8,1.3c-1.2-1.2-2-2.9-2-4.7c0-1.3,0.2-2.2,0.8-3.2
	c5.7-3.2,10.6-0.5,11.2,0C236.3,88.7,236.5,89.6,236.5,90.8z"/>
<ellipse class="st10" cx="230.1" cy="90.9" rx="4" ry="4.3"/>
<ellipse class="st11" cx="226.6" cy="92.1" rx="1.1" ry="1.2"/>
<path class="st11" d="M304.2,95.8c0,0-3.5,0.2-14.8-2.1c-3.5-0.7-7.8-0.9-8.5-0.9c-1.2,0-5.5,0.4-7.7,1.2c-1,0.3,5.9-9.2,13.6-9.2
	C294.4,84.8,304.2,94.7,304.2,95.8z"/>
<radialGradient id="SVGID_3_" cx="-743.5393" cy="89.103" r="5.9517" gradientTransform="matrix(-0.9134 0 0 1 -392.5391 0)" gradientUnits="userSpaceOnUse">
	<stop  offset="0.4745" style="stop-color:#FACB19"/>
	<stop  offset="0.6533" style="stop-color:#FACB19"/>
	<stop  offset="0.8293" style="stop-color:#0A6280;stop-opacity:0.96"/>
	<stop  offset="1" style="stop-color:#2483C5"/>
</radialGradient>
<path class="st13" d="M280.2,89.1c0,1.3,0.4,2.5,1,3.5c5.1-0.1,9.8,1.3,9.8,1.3c1.2-1.2,2-2.9,2-4.7c0-1.3-0.2-2.2-0.8-3.2
	c-5.7-3.2-10.6-0.5-11.2,0C280.4,87,280.2,87.8,280.2,89.1z"/>
<ellipse class="st10" cx="286.6" cy="89.1" rx="4" ry="4.3"/>
<ellipse class="st11" cx="283.3" cy="90" rx="1.1" ry="1.2"/>
<path class="st14" d="M212.8,97.6c0,0,3.5,0.2,14.8-2.1c3.5-0.7,7.8-0.9,8.5-0.9c1.2,0,5.5,0.4,7.7,1.2c1,0.3-5.9-9.2-13.6-9.2
	C222.6,86.5,212.8,96.4,212.8,97.6z"/>
<path class="st14" d="M303.9,95.8c0,0-3.5,0.2-14.8-2.1c-3.5-0.7-7.8-0.9-8.5-0.9c-1.2,0-5.5,0.4-7.7,1.2c-1,0.3,5.9-9.2,13.6-9.2
	S303.9,94.7,303.9,95.8z"/>
<path class="st11" d="M263.6,153.3H261c-0.8,0-1.5-0.7-1.5-1.5v-3.4c0-0.8,0.7-1.5,1.5-1.5h2.6c0.8,0,1.5,0.7,1.5,1.5v3.4
	C265.1,152.6,264.5,153.3,263.6,153.3z"/>
<path class="st11" d="M268.3,152.1l-1,0.2c-1,0.2-2-0.6-2.1-1.8l-0.3-2c-0.1-1.2,0.6-2.2,1.6-2.4l1-0.2c1-0.2,2,0.6,2.1,1.8l0.3,2
	C270.1,150.9,269.4,152,268.3,152.1z"/>
<path class="st11" d="M272.4,151.5l-0.7,0.1c-1,0.2-2-0.6-2.1-1.8l-0.2-1.9c-0.1-1.2,4.3-1.9,4.4-0.7l0.2,1.9
	C274.2,150.2,273.5,151.3,272.4,151.5z"/>
<path class="st15" d="M276.8,150.2l-0.7,0.1c-1,0.2-2-0.6-2.1-1.8l-0.1-1.2c-0.1-1.2,4.2-1.9,4.4-0.7l0.1,1.2
	C278.5,148.9,277.8,150,276.8,150.2z"/>
<path class="st16" d="M280.5,148.6l-0.7,0.1c-0.9,0.1-1.8-0.6-1.9-1.6l4-0.6C282,147.5,281.4,148.5,280.5,148.6z"/>
<path class="st11" d="M255.7,153.5h2.6c0.8,0,1.5-0.7,1.5-1.5v-3.4c0-0.8-0.7-1.5-1.5-1.5h-2.6c-0.8,0-1.5,0.7-1.5,1.5v3.4
	C254.3,152.8,254.9,153.5,255.7,153.5z"/>
<path class="st11" d="M251,152.4l1,0.2c1,0.2,2-0.6,2.1-1.8l0.3-2c0.1-1.2-0.6-2.2-1.6-2.4l-1-0.2c-1-0.2-2,0.6-2.1,1.8l-0.3,2
	C249.3,151.1,250,152.2,251,152.4z"/>
<path class="st11" d="M246.9,151.7l0.7,0.1c1,0.2,2-0.6,2.1-1.8l0.2-1.9c0.1-1.2-4.3-1.9-4.4-0.7l-0.2,1.9
	C245.2,150.4,245.9,151.5,246.9,151.7z"/>
<path class="st15" d="M242.6,150.4l0.7,0.1c1,0.2,2-0.6,2.1-1.8l0.1-1.2c0.1-1.2-4.2-1.9-4.4-0.7L241,148
	C240.9,149.2,241.6,150.3,242.6,150.4z"/>
<path class="st16" d="M238.9,148.9l0.7,0.1c0.9,0.1,1.8-0.6,1.9-1.6l0.2-1.4c0,0-3.9-0.2-4-0.6l-0.2,1.4
	C237.3,147.7,238,148.7,238.9,148.9z"/>
<path class="st17" d="M284.1,144.9c-8.6,0.6-11.5,1.1-14.8,0c-4.2-1.4-8.9-2.1-9.9,1.1c-1.3-3.2-5.8-2.3-11.4-0.5
	c-3.2,1-7.5-0.9-13.6,0c-2.9,0.4,12.2,14.2,25,14.2C272.3,159.7,287.1,144.7,284.1,144.9z M259,157c-8.7,0.6-20.5-8.6-22.7-10
	c5.6,0.8,9.7,4.5,23,2.9c12.6,1.2,15.5-0.9,22.3-2.9C282.8,146.7,273.8,155.9,259,157z"/>
<circle class="st18" cx="247.6" cy="112.7" r="0.4"/>
<circle class="st18" cx="291.3" cy="118.1" r="0.4"/>
<circle class="st18" cx="257.4" cy="109.6" r="0.7"/>
<circle class="st18" cx="268.1" cy="113.7" r="0.6"/>
<circle class="st18" cx="257" cy="118.1" r="0.3"/>
<circle class="st18" cx="259.2" cy="114.3" r="0.3"/>
<circle class="st18" cx="243.3" cy="117" r="0.7"/>
<circle class="st18" cx="262" cy="105.6" r="0.1"/>
<circle class="st18" cx="278.4" cy="104.5" r="0.9"/>
<circle class="st18" cx="272.7" cy="114" r="0.3"/>
<circle class="st18" cx="241.5" cy="111.9" r="0.3"/>
<circle class="st18" cx="253.9" cy="105.5" r="0.3"/>
<circle class="st18" cx="282.3" cy="115.5" r="0.6"/>
<circle class="st18" cx="275.2" cy="122.8" r="0.6"/>
<circle class="st18" cx="226.3" cy="116.3" r="0.7"/>
<circle class="st18" cx="231.3" cy="120.7" r="0.4"/>
<path class="st1" d="M244.8,15.6c8.8-11.7-48,29.8-58.6,113.6c-6.9,54.4-4.5,111-5.9,120.7c-8.2,56.8-4.4,138.2-3.7,132.5
	C186,308.6,159.4,128.6,244.8,15.6z"/>
<path class="st0" d="M251.9,10.7c-3.2-2.9-31.2,0.1-40.6,7.7c-6.1,5.7-2.3,13.3-8.4,24.2c0,0.1,5.4,1.1,5.3,1.2
	c-6.9,10.8-13.3,23.4-18.2,37.5c-5.5,15.6-6.8,32.6-7.6,50.8c-0.3,5.6-0.5,11.2-0.8,16.8c-3.8,40.1-4.3,78.7-3.7,84.7
	c5.2,50.9-5.7,130.8-4.4,125.5c5.3-21.1,6.1-59.7,8.2-104.5c0.9,6.2,1.3,11.3,1,18.9c-0.4,9-2.9,33-2.8,42
	c0.1,19.8,19.4,83.2,15,64.4c-3.6-15.4,3.6-70.3,4.1-87.6c0.3-13.6,2.4-28.5,0.3-42c-2.3-15.1-3.2-26.9-2.8-42.9
	c0.3-15.1,0.9-30.3,1.5-45.4c0.6-14.6,0.7-29.8,2.2-44.2c1.5-15.2,4.5-29.3,10-40.2c5.2-10.1,12.5-17.4,19.3-23.9
	C265.1,20.1,251.9,10.7,251.9,10.7z"/>
<path class="st0" d="M250.5,11c-2.1-1.5-25-1.5-34.2,6.2c-10.7,8.3-13.9,16.1-20,27.2c0,0.1,5.4,1.1,5.3,1.2
	c-6.9,11-13.3,23.9-18.2,38.2c-5.5,15.9-6.8,33.2-7.6,51.7c-0.3,5.7-0.5,11.4-0.8,17.1c-3.8,40.8-4.3,80.1-3.7,86.2
	c5.2,51.8-5.7,133.1-4.4,127.8c5.3-21.4,6.1-60.8,8.2-106.3c0.9,6.3,1.3,11.5,1,19.2c-0.4,9.1-2.9,33.6-2.8,42.8
	c0.1,20.2,19.4,84.7,15,65.5c-3.6-15.7,3.6-71.5,4.1-89.1c0.3-13.9,2.4-29,0.3-42.7c-2.3-15.3-3.2-27.4-2.8-43.6
	c0.3-15.4,0.9-30.8,1.5-46.2c0.6-14.8,0.7-30.3,2.2-45c1.5-15.5,6.5-27.2,12.1-38.3c5.2-10.3,10.5-20.3,17.2-26.9
	C258.4,21.5,250.5,11,250.5,11z"/>
<path class="st2" d="M357.8,281c-1.3-33.3-2.2-66.8-4.1-100c-1.5-26.7-4.5-55-14-75.9c-2.5-5.5-5.5-10-8.1-15.3
	c-2.8-5.6-4.5-12.4-6.6-18.8c-4.2-12.2-10.3-21.6-16.8-29.1c-15.5-18-47.9-16.8-47.8-18.8c0.4-9.5-72.3,38-70.4,65
	c0.1,1.7-5.5,200.6-4.1,199.5c-1.9,6.3,2.2-189.4,0.8-182.5c-2.5,12.3-2.4,28.4-4.2,41.1c-2.2,15.5-4.4,31.1-5.6,47.1
	c-1.2,16.3-0.9,32.3-0.2,48.6c0.7,16.8,1.1,33.5,0.9,50.3c-0.5,37.9-1.5,116.7-1.1,112.3c2.5-31.9,10.5-60,11.4-92.3
	c0.4-15.8-5.1-35.7-5.5-51.5c-0.4-15.8-1.5-31.6-1.4-47.5c0.1-15.3,1.6-30.5,3.4-45.3c1.7-13.9,3.7-27.8,5.9-41.5
	c3.8-23.8,9.4-56.5,4.6-42.1c-1.3-22,27.5-46,33.6-47.1c7-1.3,19.2-12.6,26.1-11.7c15.7,1.9,23.7,16.3,27.1,19.1
	c7,5.8,12.8,15.1,18.5,24.4c10.3,16.8,20.2,34.7,27.7,56.4c0,0.2,0.1,0.3,0.1,0.4c1.3,6.6,2.9,12.8,5.2,18.5
	c0.3,0.7,0.6,1.5,0.9,2.2c0.7,2.8,1.3,5.5,2,8.4c1.2,6.8,2,13.8,2.7,21.1c1.3,14.5,2.4,29.1,3.4,43.6c2.1,29.5,3.7,59.3,3.2,89.1
	c-0.6,31.3-3.5,62.9-10.3,91.6c-1,4.2,7.2-11.3,8.2-17.2c-0.2,4.3-0.3,8.6-0.4,12.9c-0.1,3.7,5.8-24.6,6.2-36.3
	c0,7.8,0,15.6-0.1,23.3c-0.1,8.6,1.2,30.1,2.2,26.2c3.5-14.3,2.8-30.7,2.8-46c0-16.7,0-33.4,0-50.1c1,25.4,2,50.7,3,76.1
	C357.1,392.8,359.1,316.2,357.8,281z M267.2,28.4c3.2-0.2,6.5-0.3,9.7,0.1c6.3,0.8,11.7,5.5,16.3,9.9
	C285.5,32.9,276.7,29.1,267.2,28.4z M336.9,96.9c-1.6-3.4-3.6-6.6-6-9.5c-0.4-0.5-0.9-1.1-1.3-1.6c-0.5-1.2-1-2.3-1.6-3.5
	c-1.9-3.7-4-7.2-6.3-10.6c-2.1-5-3.7-9.5-8.7-11.6c-8.3-3.4-14.8-12.4-15.8-19.4c3,2.8,16.9,15.2,19.4,18.1c2.3,2.7,5.3,4.9,7.8,7.5
	c9,9.4,12.4,22.1,14.2,34.5C338,99.5,337.5,98.2,336.9,96.9z"/>
<path class="st2" d="M360.3,279.1c-1.3-33.3-2.2-66.8-4.1-100c-1.5-26.7-11.6-66.5-14-75.9c-1.6-6.2-5.5-10-8.1-15.3
	c-2.8-5.6,0.5-13.1-6.7-25.7c-11-19.5-10.3-14.6-16.8-22.1c-15.5-18-54.1-16.8-55.9-17.8c-2.1-1.1-1.8,0.6-1.6,0.6
	c-7.8,0-12.3,1.5-20.1,3.1c-6.9,1.4-13.9,3.5-20.5,8.2c-11.2,8-22.2,27.3-20.3,52c0.1,1.7-5.5,200.6-4.1,199.5
	c-1.9,6.3,2.2-189.4,0.8-182.5c-2.5,12.3-2.4,28.4-4.2,41.1c-2.2,15.5-4.4,31.1-5.6,47.1c-1.2,16.3-0.9,32.3-0.2,48.6
	c0.7,16.8,1.1,33.5,0.9,50.3c-0.5,37.9-1.5,116.7-1.1,112.3c2.5-31.9,10.5-60,11.4-92.3c0.4-15.8-5.1-35.7-5.5-51.5
	c-0.4-15.8-1.5-31.6-1.4-47.5c0.1-15.3,1.6-30.5,3.4-45.3c1.7-13.9,3.7-27.8,5.9-41.5c3.8-23.8,9.2-48.5,20.4-63.4
	c12.6-16.9,39.7-34.1,40.7-35.8c-1.6-1.4-23.7,11.9-36.7,23.2c-8.5,7.5-15,19.5-19.8,33.9c-1.3-22,13.6-32.6,21.4-41.9
	c6.5-7.8,9.3-9,15.3-10.2c7-1.3,7.8-3.8,14.9-4.9c0.9-0.1,6.6-1.8,4.2-2.4c0.9,0.3,5.9,2.2,6.2,2.1c6.3-2.4,12-6.4,18.3-4.6
	c-21.2-3.5-26.5-1.5-18.4,5.6c0.7,0.6,21.3,13.8,24.7,16.6c7,5.8,12.8,15.1,18.5,24.4c10.3,16.8,20.2,34.7,27.7,56.4
	c0,0.2,0.1,0.3,0.1,0.4c1.3,6.6,2.9,12.8,5.2,18.5c0.3,0.7,0.6,1.5,0.9,2.2c0.7,2.8,1.3,5.5,2,8.4c1.2,6.8,2,13.8,2.7,21.1
	c1.3,14.5,2.4,29.1,3.4,43.6c2.1,29.5,3.7,59.3,3.2,89.1c-0.6,31.3-3.1,80.3-2,74.4c-0.2,4.3,5.3-11.7,5.8-23.4
	c0,7.8,0,15.6-0.1,23.3c-0.1,8.6,2.6,2.7,3.5-1.2c3.5-14.3,1.5-3.2,1.5-18.6c0-16.7,0-33.4,0-50.1c1,25.4,2,50.7,3,76.1
	C359.7,390.8,361.7,314.2,360.3,279.1z M279.3,20.3c3.2-0.2,6.8,12,9.9,12.5C295.6,33.6,288.8,20.9,279.3,20.3z M328.6,50.6"/>
<path class="st0" d="M350.9,152.4c-3.7-21.8-43.1-112.4-54-122.9c-6.5-8-12.9-8.9-17.2-11c-8.5-4.2-13.9-5.9-17-6.5
	c-21.4-3.4,2.1,13.8,6,14.5c6.3,1.1,41.2,54.2,48.8,75.3c8.5,23.4-0.8,59.2,10.5,86.8c11.7,28.6,3.8,68.2,3.8,100.8
	c0,34.9-1,69.2-4.6,102.8c-2.4,22.6,18-67.1,18-106.2C345,249.6,352.2,159.4,350.9,152.4z M304.9,41.5c2.9,4.5,3.8,11,8.5,12.3
	c-0.5-0.8-0.9-1.6-1.4-2.3c-0.6-1-1.3-1.9-1.9-2.9C306.8,42.5,302.8,38.2,304.9,41.5z"/>
<path class="st2" d="M252.7,21.6c5.2-2.8,11,5.4,11.1,6.7c0.1,1.1,31.2,25.1,36.9,34.4c10.3,16.8,9.8,39.4,17.2,61.1
	c0,0.2,0.1,0.3,0.1,0.4c1.3,6.6,13.1,79.1,14.2,93.7c2.1,29.5,3.7,59.3,3.2,89.1c-0.6,31.3,5.6,25.8-1.1,54.6
	c-1,4.2-1.2,28.4-1.3,32.7c-0.1,3.7,5.8-24.6,6.2-36.3c0,7.8,0,15.6-0.1,23.3c-0.1,8.6,1-3.9,1.9-7.8c3.5-14.3,3.1,3.4,3.1-12
	c0-16.7,0-33.4,0-50.1c1,25.4,2,50.7,3,76.1c0.1,3.7,2.2-72.9,0.8-108.1c-1.3-33.3-2.2-66.8-4.1-100c-1.5-26.7-4.5-55-14-75.9
	c-2.5-5.5-5.5-10-8.1-15.3c-2.8-5.6-4.5-12.4-6.6-18.8c-4.2-12.2-10.3-21.6-16.8-29.1C287.5,27.8,264.8,22.2,252.7,21.6 M248.1,21.4
	c-1.2-0.2-19.2,3.3-27,4.9c-6.9,1.4-13.9,3.5-20.5,8.2c-11.2,8-22.2,27.3-20.3,52c0.1,1.7-5.5,200.6-4.1,199.5
	c-1.9,6.3,2.2-189.4,0.8-182.5c-2.5,12.3-2.4,28.4-4.2,41.1c-2.2,15.5-4.4,31.1-5.6,47.1c-1.2,16.3-0.9,32.3-0.2,48.6
	c0.7,16.8,1.1,33.5,0.9,50.3c-0.5,37.9-1.5,116.7-1.1,112.3c2.5-31.9,10.5-60,11.4-92.3c0.4-15.8-5.1-35.7-5.5-51.5
	c-0.4-15.8-1.5-31.6-1.4-47.5c0.1-15.3,1.6-30.5,3.4-45.3c1.7-13.9,3.7-27.8,5.9-41.5c3.8-23.8,9.2-48.5,20.4-63.4
	c12.6-16.9,17-23.9,4-12.6c-8.5,7.5-15,19.5-19.8,33.9c-1.3-22,17.3-33.3,27.6-39.8c5.8-3.7,3.1-11.2,9.2-12.3
	c7-1.3,30.6-9,31.3-8.1C254.1,21.5,248.5,21.4,248.1,21.4 M267.1,20.6c3.2-0.2,6.5-0.3,9.7,0.1c6.3,0.8,11.7,5.5,16.3,9.9
	C285.4,25,276.6,21.2,267.1,20.6z M336.8,89c-1.6-3.4-3.6-6.6-6-9.5c-0.4-0.5-0.9-1.1-1.3-1.6c-0.5-1.2-1-2.3-1.6-3.5
	c-1.9-3.7-4-7.2-6.3-10.6c-2.1-5-4.2-9.9-7.1-14.6c-3.6-5.9-7.8-11.4-12.6-16.5c3.1,2.5,5.9,5.3,8.2,8.6c2.2,3.1,3.8,6.6,6.3,9.5
	c2.3,2.7,5.3,4.9,7.8,7.5c9,9.4,12.4,22.1,14.2,34.5C337.9,91.6,337.4,90.3,336.8,89z"/>
<path class="st1" d="M253,14.7c1.1,0.9,0.8,4.8,1.8,5c0.4,0.8,6,5.2,6.4,5.2c3.6,1.1,7.1,3.1,10.5,5.9c7,5.8,12.8,15.1,18.5,24.4
	c10.3,16.8,20.2,34.7,27.7,56.4c0,0.2,0.1,0.3,0.1,0.4c1.3,6.6,2.9,12.8,5.2,18.5c0.3,0.7,0.6,1.5,0.9,2.2c0.7,2.8,1.3,5.5,2,8.4
	c1.2,6.8,2,13.8,2.7,21.1c1.3,14.5,2.4,29.1,3.4,43.6c2.1,29.5,3.7,59.3,3.2,89.1c-0.6,31.3-3.1,80.3-2,74.4
	c-0.2,4.3-0.3,8.6-0.4,12.9c-0.1,3.7,5.8-24.6,6.2-36.3c0,7.8,0,15.6-0.1,23.3c-0.1,8.6,1.2,30.1,2.2,26.2c3.5-14.3,2.8-30.7,2.8-46
	c0-16.7,0-33.4,0-50.1c1,25.4,2,50.7,3,76.1c0.1,3.7,2.2-72.9,0.8-108.1c-1.3-33.3-2.2-66.8-4.1-100c-1.5-26.7-4.5-55-14-75.9
	c-2.5-5.5-5.5-10-8.1-15.3c-2.8-5.6-5-12.1-6.6-18.8c-3.6-14.4-14.2-16.2-20.7-23.7C284.2,21.8,264.5,17.3,253,14.7 M252.7,14.1
	c-0.2-1.4-28-12-51.2,12.1c-8.9,9.2-21.6,24.3-21.5,48.1c0,1.7-5.5,200.6-4.1,199.5c-1.9,6.3,2.2-189.4,0.8-182.5
	c-2.5,12.3-2.4,28.4-4.2,41.1c-2.2,15.5-4.4,31.1-5.6,47.1c-1.2,16.3-0.9,32.3-0.2,48.6c0.7,16.8,1.1,33.5,0.9,50.3
	c-0.5,37.9-1.5,116.7-1.1,112.3c2.5-31.9,10.5-60,11.4-92.3c0.4-15.8-5.1-35.7-5.5-51.5c-0.4-15.8-1.5-31.6-1.4-47.5
	c0.1-15.3,1.6-30.5,3.4-45.3c1.7-13.9,3.7-27.8,5.9-41.5c3.8-23.8,9.2-48.5,20.4-63.4c12.6-16.9,17-23.9,4-12.6
	c-8.5,7.5-15,19.5-19.8,33.9c-1.3-22,17.3-33.3,27.6-39.8c5.8-3.7,4.3-8.5,9.2-12.3c5.3-4.3,16.6-2.6,20.9-1.9
	C246.7,17.2,252.4,17.4,252.7,14.1 M332.8,85.5c-1.6-3.4-3.6-6.6-6-9.5c-0.4-0.5-0.9-1.1-1.3-1.6c-0.5-1.2-1-2.3-1.6-3.5
	c-1.9-3.7-4-7.2-6.3-10.6c-2.1-5-4.2-9.9-7.1-14.6c-3.6-5.9-16.9-7.7-21.7-12.7c3.1,2.5,13.5,0.7,17.3,4.8c2.6,2.8,3.8,6.6,6.3,9.5
	c2.3,2.7,5.3,4.9,7.8,7.5c9,9.4,12.4,22.1,14.2,34.5C333.9,88.1,333.4,86.8,332.8,85.5z"/>
<path class="st2" d="M249,19.2c-3.3,0-5.3,0.3-5.2,0.8 M250.4,18.8c1-0.1,21,15.6,24.4,18.3c7,5.7,18.9,13.5,24.7,22.6
	c10.3,16.5,10.6,37,18,58.4c0,0.1,0.1,0.3,0.1,0.4c1.3,6.5,2.9,12.6,5.2,18.1c0.3,0.7,0.6,1.4,0.9,2.1c0.7,2.7,1.3,5.4,2,8.2
	c1.2,6.7,2,13.6,2.7,20.7c1.3,14.2,2.4,28.6,3.4,42.9c2.1,29,3.7,58.3,3.2,87.6c-0.6,30.8-3.1,78.9-2,73.1
	c-0.2,4.2-0.3,8.4-0.4,12.7c-0.1,3.7,5.8-24.1,6.2-35.7c0,7.6,0,15.3-0.1,22.9c-0.1,8.5,0.5,7.4,1.4,3.6c3.5-14,3.6-7.9,3.6-23
	c0-16.4,0-32.8,0-49.2c1,24.9,2,49.8,3,74.7c0.1,3.6,2.2-71.6,0.8-106.2c-1.3-32.7-2.2-65.6-4.1-98.2c-1.5-26.2-4.5-54-14-74.6
	c-2.5-5.4-5.5-9.8-8.1-15c-2.8-5.5-4.5-12.2-6.6-18.4c-4.2-12-10.3-21.2-16.8-28.6c-11.9-13.6-37.6-17.7-48.7-17.7 M243.8,20
	c0,0.1-16.3-1-23.4,2.5c-3.8,1.9-6.5,4.6-13.1,9.2c-11.2,7.9-30.6,24.9-32.3,51.2c-0.1,1.7-0.9,195.9,0.5,194.8
	c-1.9,6.2,2.2-186.1,0.8-179.3c-2.5,12.1-2.4,27.9-4.2,40.4c-2.2,15.3-4.4,30.6-5.6,46.2c-1.2,16-0.9,31.8-0.2,47.8
	c0.7,16.5,1.1,32.9,0.9,49.4c-0.5,37.2-1.5,114.6-1.1,110.3c2.5-31.4,10.5-59,11.4-90.7c0.4-15.5-5.1-35-5.5-50.6
	c-0.4-15.5-1.5-31.1-1.4-46.6c0.1-15.1,1.6-29.9,3.4-44.5c1.7-13.7,3.7-27.3,5.9-40.8c3.8-23.4,9.2-47.6,20.4-62.3
	c12.6-16.6,41.5-29.9,41.9-32.2c0.4-2.1-25,8.6-37.9,19.8c-8.5,7.3-15,19.2-19.8,33.3c-1.3-21.7,17.3-32.7,27.6-39.1
	c5.8-3.6,3.1-11,9.2-12.1c7-1.3,13.9-1.9,20.9-1.8c0.9,0,3.6-1.4,3.6-1.7c0.2,0,1.9-3.6,3.4-3.3 M266.5,18.5
	c3.2-0.2,6.5-0.3,9.7,0.1c6.3,0.8,11.7,5.4,16.3,9.7C284.8,22.9,276,19.2,266.5,18.5z M336.2,85.8c-1.6-3.4-3.6-6.5-6-9.4
	c-0.4-0.5-0.9-1.1-1.3-1.6c-0.5-1.1-1-2.3-1.6-3.4c-1.9-3.6-4-7.1-6.3-10.4c-2.1-4.9-4.2-9.7-7.1-14.3c-3.6-5.8-6.7-11-4.4-7.8
	c2.2,3.1,3.8,6.5,6.3,9.4c2.3,2.7,5.7,4.3,7.8,7.4c11.2,16.1,4.4,32,14.2,33.9C337.3,88.3,336.8,87,336.2,85.8z"/>
<path class="st2" d="M233,43c-6.6,1.4-13.3,3.3-19.6,7.8c-10.7,7.6,2.1,39.6-19.3,49.3c-4.5,2-8,190.4-3.9,189.1
	c-1.8,6-1.6-146.1-3.3-134c-2.1,14.7-4.2,29.5-5.3,44.6c-1.2,15.4-0.8,30.6-0.2,46.1c0.7,15.9,1,31.7,0.8,47.7
	c-0.4,35.9-1.4,110.6-1.1,106.4c2.4-30.3,10-56.9,10.9-87.5c0.4-15-4.9-33.8-5.2-48.8c-0.4-15-1.5-30-1.3-45
	c0.1-14.5,1.5-28.9,3.3-43c1.7-13.2,10-75,10-79.2c-1.2-20.9,13-35.3,22.9-41.5c5.6-3.5,6.4-6.8,12.2-7.9
	c6.6-1.3,19.9-21.2,19.9-21.4C252.1,22.7,240.4,41.5,233,43z M336.1,100.1c-1.5-3.3-4.8-22.5-7-25.8c-2-4.7-2.2-11.2-6.8-13.8
	c-6.6-3.8-39.8-23.4-33.3-34.5c8.5,1.3,39.8,36,42.6,43.2c12.9,33.4,14.1,47.7,15.8,59.5C346.9,127.4,336.6,101.3,336.1,100.1z"/>
<path class="st2" d="M209.5,65.3c-8.1,19.8-9.3,42.2-13.1,65.9c-2.1,13.2-4.2,26.4-4.2,40.4c0,14-2.7,31.8-2.3,45.7
	c0.8,29.4,2.2,61.9,4,91c2,31.3-2,33.8,11.6,80.1c1.1,3.9-8.3-71-6.8-153.9c0.3-13.8-0.9-27.5-1.2-41.2c-0.3-13.8-0.9-27.6,0.7-41.3
	c1.4-12.4-5.3-26.8-3-38.7c2.2-11.4,9.3-24.9,13-34.8c9.1-24.2,7.7-24.1,16.7-36C225.8,41.4,220.8,37.5,209.5,65.3z"/>
<path class="st1" d="M185.4,58.1c-6.1,6.8-12.2,23.8-14.3,36.5c-2.5,15-3.4,30.6-3.8,46.2c-0.5,16.6-0.6,33.2-0.8,49.8
	c-0.5,33.9-0.7,67.9-0.4,101.8c0.3,37.7,8,115.2,7.8,110.6c-2.7-64.8-3.4-129.7-2.6-194.6c0.2-16,0.4-32,0.7-48.1
	c0.2-15.7,2.9-34.9,5.2-50.1c5.6-36.9,18.2-38.9,26.9-57.8c5.7-12.3,11.5-15.4,19.8-19.4c9-4.3,28.2-14,26.8-15.3
	C246,13.7,224.7,13.8,185.4,58.1z"/>
<path class="st1" d="M355.5,254.2c-0.2-26.7-5.5-58.8-8.5-85.3c-3.1-26.2-4.6-45.9-11.4-70.4c-2.9-10.4-11.8-21.1-17.8-28.5
	c-5.6-7-17-24.4-21.5-26.3c-27.6-11.5-23.9-23.5-43.9-23.3c-3.7,0,34.8,23.3,41.4,27.7c6.5,4.3,15.6,16.6,21.7,22.2
	c6.8,6.2,13.4,14.9,16.5,25.4c6.8,23.3,5.2,48,8.7,72.8c3.6,26,9.5,52.6,9.7,79.1c0.3,30.2,5.8,93.2,5.8,90L355.5,254.2z"/>
<g>
	<g>
		<path class="st1" d="M257.3,19.8c22.7-2.9,43,13,55.1,30.8c6.7,9.8,11.4,20.8,14.2,32.3c3.2,13,4.8,26.5,6.6,39.8
			c3.7,26.8,6.4,53.6,8.1,80.6c1.8,27.1,2.6,54.3,2.5,81.4c-0.1,27.1-1.2,54.3-3.2,81.4c-0.2,3.3-0.5,6.7-0.8,10
			c0,0.4,2.8,0.1,2.9-0.8c2.3-27.5,3.6-55.1,3.9-82.7c0.3-27.6-0.3-55.3-2-82.8c-1.6-27.4-4.2-54.8-7.8-82
			c-1.8-13.4-3.5-27-6.2-40.3c-2.5-12.2-6.8-23.9-13.4-34.5c-11.3-18.1-29.9-34.2-52.2-34.6c-2.5-0.1-4.9,0.1-7.4,0.4
			C256.6,18.8,255.3,20,257.3,19.8L257.3,19.8z"/>
	</g>
</g>
<g>
	<g>
		<path class="st19" d="M265.3,28.2c8.9,2.1,16.5,7.5,22.8,13.9c7.4,7.5,13.2,16.5,18.1,25.8c11.1,20.8,18.6,43.7,23.9,66.7
			c5.8,24.8,8.6,50.2,9.4,75.6c0.9,25.7-0.2,51.4-1.6,77.1c-1.2,22-3.2,43.8-6.3,65.6c-0.4,3.1-0.9,6.3-1.4,9.4
			c0,0.3,0.7,0.1,0.7-0.1c3.4-22.4,5.8-44.8,7.2-67.4c1.6-25.2,2.7-50.5,2.3-75.7c-0.5-26-2.7-52-8-77.4
			c-4.9-23.6-12.1-47.1-22.8-68.8c-4.7-9.5-10.2-18.8-17.1-26.9c-5.8-6.8-12.8-13-21.2-16.4c-1.8-0.7-3.7-1.3-5.7-1.8
			C265.6,27.8,264.9,28.1,265.3,28.2L265.3,28.2z"/>
	</g>
</g>
<g>
	<g>
		<path class="st19" d="M247.9,18.3c-7.8-3.7-16.4,1.3-22.4,6c-4,3.1-7.6,6.6-11,10.3c-3.7,4-7.4,8.1-10.6,12.5
			c-7.5,10-10.5,22-13.1,34.1c-2.8,12.8-4.8,25.7-6.3,38.7c-3.1,26.8-4.4,53.8-5.5,80.7c-1.2,27.3-1.9,54.6-2.2,81.9
			c-0.1,14,0.2,28-0.2,41.9c-0.2,6.6-0.7,13.1-1.9,19.6c-1.2,6.5-2.7,12.9-3.3,19.4c-0.3,3-0.4,6.1-0.3,9.1c0,0.4,1.5,0.1,1.4-0.4
			c-0.6-13,3.8-25.5,5-38.3c1.2-12.8,0.6-25.8,0.6-38.6c0.1-26.9,0.7-53.8,1.7-80.6c1-26.1,2.1-52.2,4.4-78.2
			c1.1-12.8,2.6-25.6,4.7-38.2c2-12.1,4.2-24.6,8.4-36.2c3.9-10.7,11.1-19.3,18.8-27.5c3.6-3.8,7.3-7.4,11.5-10.5
			c3.7-2.8,8.2-5.5,12.9-5.9c2.2-0.2,4.2,0.2,6.2,1.1C247.2,19.2,248.5,18.6,247.9,18.3L247.9,18.3z"/>
	</g>
</g>
<g>
	<g>
		<path class="st19" d="M254,23.6c4.5-0.1,8.9,2.7,12.5,5.1c4.4,2.9,8.4,6.3,12.5,9.7c2.3,1.9,4.5,3.8,6.4,6.1
			c2.6,3.1,5.1,6.3,7.5,9.5c4.7,6.3,9.3,12.6,12.1,20c4.3,11.1,6.8,22.8,8.4,34.6c3.4,25.4,2.5,51.2,2.2,76.7
			c-0.2,24.9,1,49.7,1.8,74.5c0.8,24.1,0.4,48.3-2.6,72.2c-0.4,3.4-0.9,6.8-1.4,10.2c-0.1,0.6,1.4,0.3,1.4-0.2
			c3.6-24.6,4.8-49.3,4.2-74.1c-0.5-25.2-2.1-50.3-2-75.5c0-25.8,1.2-51.6-1.4-77.3c-1.2-12.2-3.4-24.4-7.2-36.1
			c-1.4-4.1-2.8-8.3-4.9-12c-1.9-3.4-4.2-6.6-6.4-9.7c-2.5-3.5-5-6.9-7.7-10.2c-1.8-2.3-3.7-4.8-5.9-6.7c-3.5-3.1-7.3-6-11-8.9
			c-3.9-3-8-6-12.6-7.7c-1.7-0.6-3.5-1.1-5.3-1C254.1,22.8,253.1,23.6,254,23.6L254,23.6z"/>
	</g>
</g>
<radialGradient id="SVGID_4_" cx="279.655" cy="3.0812" r="7.6388" gradientTransform="matrix(1.3025 0 0 1.2962 -140.0097 118.3811)" gradientUnits="userSpaceOnUse">
	<stop  offset="0" style="stop-color:#F3B5D0;stop-opacity:0.4"/>
	<stop  offset="1" style="stop-color:#F2DCC1;stop-opacity:0.4"/>
</radialGradient>
<ellipse class="st20" cx="224.2" cy="122.4" rx="9" ry="10.8"/>
<radialGradient id="SVGID_5_" cx="330.3072" cy="3.0426" r="7.6388" gradientTransform="matrix(1.3025 0 0 1.2962 -140.0097 118.3811)" gradientUnits="userSpaceOnUse">
	<stop  offset="0" style="stop-color:#F3B5D0;stop-opacity:0.4"/>
	<stop  offset="1" style="stop-color:#F2DCC1;stop-opacity:0.4"/>
</radialGradient>
<ellipse class="st21" cx="290.2" cy="122.3" rx="9" ry="10.8"/>
</svg>
