<svg id="Layer_1" data-name="Layer 1" xmlns="http://www.w3.org/2000/svg" viewBox="0 0 400.18 400.18"><defs><style>.cls-1{fill:#c4e6e3;}.cls-2{fill:#acdcd7;}.cls-15,.cls-16,.cls-17,.cls-18,.cls-19,.cls-2,.cls-20,.cls-3,.cls-5,.cls-8{fill-rule:evenodd;}.cls-3{fill:#90d2c8;}.cls-4{fill:#2ba2ca;}.cls-5{fill:#1787ad;}.cls-6{fill:#a6be39;}.cls-7{fill:#f9cf8c;}.cls-8{fill:#e5b871;}.cls-9{fill:#cfde61;}.cls-10{fill:#f5e5d7;}.cls-11{fill:#6e3e18;}.cls-12{fill:#9c5f2a;}.cls-13,.cls-17{fill:#fff;}.cls-14{fill:#916d4f;}.cls-15{fill:#82983b;}.cls-16{fill:#93ab3c;}.cls-18{fill:#e9f5f4;}.cls-19{fill:#313033;}.cls-20{fill:#fddc2f;}.cls-21{fill:#4484c5;}</style></defs><rect class="cls-1" width="400.18" height="400.18"/><path class="cls-2" d="M-.13,156.65v212.7l400.18-17.24V168.19l-49,20.43c-25.5,10.63-48.78,11.8-74.68,3.74L191.58,166c-24.83-7.73-47.09-6.94-71.66,2.53l-1.6.62c-24.91,9.6-47.49,10.29-72.63,2.22Z" transform="translate(0.13)"/><path class="cls-3" d="M400.05,201V371.44L-.13,329.57v-121l49,13.44c25.5,7,48.78,7.77,74.68,2.47l84.81-17.36A153.38,153.38,0,0,1,280,208.76l1.6.41a153.53,153.53,0,0,0,72.63,1.46Z" transform="translate(0.13)"/><rect class="cls-4" y="255.56" width="400.18" height="46.26"/><path class="cls-5" d="M376,257.28v-1.72h-3.28v1.72c-7.24.16-12.87,1.32-12.87,9.12s6.5,20.12,14.51,20.12,14.51-12.32,14.51-20.12-5.63-9-12.87-9.12Zm-326.83.57v-2.29H44.86v2.29c-9.6.22-17.06,2.12-17.06,12.08,0,10.71,8.61,26.67,19.24,26.67s19.23-16,19.23-26.67c0-10-7.46-11.86-17.06-12.08Zm63.61,0v-2.26h-2.67v2.26c-5.91.13-10.51,1.3-10.51,7.44,0,6.59,5.3,16.43,11.84,16.43s11.85-9.84,11.85-16.43c0-6.14-4.6-7.31-10.51-7.44Zm40.72,1v-3.25h-3.28v3.25c-7.24.16-12.87,1.32-12.87,9.12s6.5,20.12,14.51,20.12,14.51-12.33,14.51-20.12-5.63-9-12.87-9.12Zm51.05-1v-2.26h-2.68v2.26c-5.91.13-10.5,1.3-10.5,7.44,0,6.59,5.3,16.43,11.84,16.43s11.84-9.84,11.84-16.43c0-6.14-4.59-7.31-10.5-7.44Zm74.28,1.69v-4.18H275.3v4.18c-7.91.18-14.05,1.44-14.05,9.95s7.09,22,15.84,22,15.83-13.46,15.83-22-6.14-9.77-14.05-9.95Zm61.85-1.69v-2.26H338v2.26c-5.91.13-10.5,1.3-10.5,7.44,0,6.59,5.3,16.43,11.84,16.43s11.85-9.84,11.85-16.43C351.23,259.12,346.63,258,340.72,257.82Z" transform="translate(0.13)"/><rect class="cls-6" y="301.82" width="400.18" height="36.69"/><rect class="cls-7" y="338.51" width="400.18" height="61.67"/><path class="cls-8" d="M400.05,365.67V353.84c-16-.35-33.61-.54-52.15-.54-72.18,0-130.68,2.89-130.68,6.45s58.5,6.46,130.68,6.46C366.44,366.21,384.07,366,400.05,365.67Z" transform="translate(0.13)"/><rect class="cls-9" y="237.48" width="400.18" height="18.08"/><rect class="cls-10" x="253" y="318.97" width="9.04" height="37.54"/><rect class="cls-11" x="238.64" y="315.81" width="161.54" height="6.65"/><rect class="cls-12" x="227.74" y="318.04" width="172.44" height="6.65"/><rect class="cls-10" x="276.06" y="275.6" width="9.04" height="40.21"/><rect class="cls-13" x="240.64" y="324.69" width="9.04" height="37.32"/><rect class="cls-12" x="261.31" y="297.67" width="138.87" height="11.96"/><ellipse class="cls-12" cx="330.74" cy="289.96" rx="98.2" ry="8.46"/><rect class="cls-12" x="261.31" y="270.28" width="138.87" height="11.96"/><rect class="cls-14" x="372.89" y="223.21" width="3.28" height="27.13"/><path class="cls-15" d="M374.4,171.9c8,0,14.51,25.6,14.51,42.76s-6.49,19.41-14.51,19.41-14.51-2.24-14.51-19.41S366.39,171.9,374.4,171.9Z" transform="translate(0.13)"/><rect class="cls-14" x="338.17" y="219.96" width="2.67" height="22.14"/><path class="cls-16" d="M339.38,178.08c6.54,0,11.85,20.89,11.85,34.9s-5.31,15.84-11.85,15.84S327.54,227,327.54,213,332.84,178.08,339.38,178.08Z" transform="translate(0.13)"/><rect class="cls-14" x="275.42" y="220.73" width="3.58" height="29.61"/><path class="cls-15" d="M277.09,164.73c8.74,0,15.83,27.93,15.83,46.67s-7.09,21.18-15.83,21.18-15.84-2.45-15.84-21.18S268.34,164.73,277.09,164.73Z" transform="translate(0.13)"/><rect class="cls-14" x="202.04" y="219.96" width="2.67" height="22.14"/><path class="cls-16" d="M203.25,178.08c6.54,0,11.84,20.89,11.84,34.9s-5.3,15.84-11.84,15.84S191.41,227,191.41,213,196.71,178.08,203.25,178.08Z" transform="translate(0.13)"/><rect class="cls-14" x="150.39" y="223.21" width="3.28" height="27.13"/><path class="cls-15" d="M151.9,171.9c8,0,14.51,25.6,14.51,42.76s-6.5,19.41-14.51,19.41-14.51-2.24-14.51-19.41S143.88,171.9,151.9,171.9Z" transform="translate(0.13)"/><rect class="cls-14" x="110.28" y="219.96" width="2.67" height="22.14"/><path class="cls-16" d="M111.48,178.08c6.55,0,11.85,20.89,11.85,34.9s-5.3,15.84-11.85,15.84S99.64,227,99.64,213,104.94,178.08,111.48,178.08Z" transform="translate(0.13)"/><rect class="cls-14" x="44.99" y="214.39" width="4.34" height="35.95"/><path class="cls-15" d="M47,146.38c10.62,0,19.23,33.92,19.23,56.67S57.66,228.77,47,228.77s-19.24-3-19.24-25.72S36.41,146.38,47,146.38Z" transform="translate(0.13)"/><path class="cls-17" d="M234.9,72.59,252,69.33a5.34,5.34,0,0,1,4-3.18A10.25,10.25,0,0,1,270,60.7,10.1,10.1,0,0,1,290.06,60a12.88,12.88,0,0,1,13,.76,10.24,10.24,0,0,1,20.37,1.27,10,10,0,0,1,2.13-.24,9.56,9.56,0,0,1,8.84,5.91l25.55,4.86Z" transform="translate(0.13)"/><path class="cls-18" d="M36,112.05l11.27-2.15a3.5,3.5,0,0,1,2.64-2.09,6.73,6.73,0,0,1,9.16-3.58,6.64,6.64,0,0,1,13.18-.44,8.46,8.46,0,0,1,8.53.5,6.73,6.73,0,0,1,13.39.84,6.46,6.46,0,0,1,1.4-.16,6.28,6.28,0,0,1,5.81,3.88l16.79,3.2Z" transform="translate(0.13)"/><path class="cls-17" d="M111.72,31.28A14.25,14.25,0,0,1,123.81,38a8.1,8.1,0,0,1,12.24,7l26.31,5.13H21.21l26.41-5.15a11.56,11.56,0,0,1,21.15-7.87,8.47,8.47,0,0,1,4.46-1.27,8.32,8.32,0,0,1,3,.54A16,16,0,0,1,102,35.14,14.19,14.19,0,0,1,111.72,31.28Z" transform="translate(0.13)"/><path class="cls-18" d="M261.55,127.49a9.48,9.48,0,0,1,8.06,4.48,5.42,5.42,0,0,1,8.17,4.65L295.33,140H201.17l17.62-3.43a7.22,7.22,0,0,1-.07-1.05,7.71,7.71,0,0,1,14.18-4.2,5.62,5.62,0,0,1,4.95-.49,10.63,10.63,0,0,1,17.2-.8A9.46,9.46,0,0,1,261.55,127.49Z" transform="translate(0.13)"/><path class="cls-8" d="M-.13,365.67V353.84c16-.35,33.61-.54,52.16-.54,72.17,0,130.68,2.89,130.68,6.45S124.2,366.21,52,366.21C33.48,366.21,15.85,366-.13,365.67Z" transform="translate(0.13)"/><rect class="cls-10" x="138.14" y="318.97" width="9.04" height="37.54"/><rect class="cls-11" y="315.81" width="161.54" height="6.65"/><rect class="cls-12" y="318.04" width="172.44" height="6.65"/><rect class="cls-10" x="115.08" y="275.6" width="9.04" height="40.21"/><rect class="cls-13" x="150.5" y="324.69" width="9.04" height="37.32"/><rect class="cls-12" y="297.67" width="138.87" height="11.96"/><ellipse class="cls-12" cx="69.44" cy="289.96" rx="98.2" ry="8.46"/><rect class="cls-12" y="270.28" width="138.87" height="11.96"/><path class="cls-19" d="M195.37,114.91h2.71v-9.45a28.2,28.2,0,0,0-3.69-14.19h0A28.11,28.11,0,0,0,183.94,81l-6.31-3.65C176,81.24,166.47,83.08,155,81.45c-12.63-1.78-22.86-7.1-22.86-11.88s10.23-7.19,22.86-5.4c8.69,1.23,16.24,4.13,20.11,7.38l10.7,6.17a31.88,31.88,0,0,1,11.81,11.67h0a31.06,31.06,0,0,1,2.31,5,31.11,31.11,0,0,1,2.32-5h0a32,32,0,0,1,11.81-11.67l10.7-6.17c3.87-3.25,11.42-6.15,20.11-7.38,12.63-1.79,22.87.63,22.87,5.4s-10.24,10.1-22.87,11.88c-11.45,1.63-20.93-.21-22.6-4.12L216,81a28.11,28.11,0,0,0-10.45,10.28h0a28.19,28.19,0,0,0-3.68,14.19v9.45h2.7V350.5h-9.18Z" transform="translate(0.13)"/><path class="cls-20" d="M151,68.92c8.37,1.75,15.15,5.37,15.15,8.09s-6.78,3.5-15.15,1.75-15.16-5.38-15.16-8.09,6.79-3.5,15.16-1.75Zm97.84,0c-8.37,1.75-15.15,5.37-15.15,8.09s6.78,3.5,15.15,1.75S264,73.38,264,70.67,257.25,67.17,248.88,68.92Z" transform="translate(0.13)"/><path class="cls-21" d="M129.64,386.88v.2a3.3,3.3,0,0,1,.93-.85,2.18,2.18,0,0,1,1.09-.27,2.48,2.48,0,0,1,1.35.4,2.64,2.64,0,0,1,1,1.15,4.11,4.11,0,0,1,.35,1.79,4.43,4.43,0,0,1-.2,1.4,3.25,3.25,0,0,1-.57,1.08,2.47,2.47,0,0,1-.85.66,2.35,2.35,0,0,1-1.05.24,2.14,2.14,0,0,1-1.14-.29,3.23,3.23,0,0,1-.88-.83V394c0,.73-.25,1.09-.76,1.09a.59.59,0,0,1-.59-.28,1.79,1.79,0,0,1-.15-.82v-7.14a1.11,1.11,0,0,1,.2-.71.68.68,0,0,1,.54-.23.71.71,0,0,1,.55.24A1,1,0,0,1,129.64,386.88Zm3.11,2.41a2.93,2.93,0,0,0-.2-1.13,1.58,1.58,0,0,0-.53-.72,1.19,1.19,0,0,0-.75-.25,1.41,1.41,0,0,0-1.11.54,2.43,2.43,0,0,0-.45,1.59,2.33,2.33,0,0,0,.45,1.53,1.37,1.37,0,0,0,1.11.55,1.23,1.23,0,0,0,.73-.24,1.56,1.56,0,0,0,.54-.72A2.85,2.85,0,0,0,132.75,389.29Z" transform="translate(0.13)"/><path class="cls-21" d="M139.72,391.74v-.21a3.63,3.63,0,0,1-.6.63,2.08,2.08,0,0,1-.68.38,2.77,2.77,0,0,1-.85.12,2.09,2.09,0,0,1-1-.25,1.7,1.7,0,0,1-.7-.68,3.1,3.1,0,0,1-.3-1.51v-3.28a1.06,1.06,0,0,1,.22-.74.71.71,0,0,1,.56-.24.74.74,0,0,1,.59.25,1.1,1.1,0,0,1,.22.73v2.65a4.35,4.35,0,0,0,.09,1,1.2,1.2,0,0,0,.33.62,1,1,0,0,0,.65.22,1.35,1.35,0,0,0,.76-.25,1.44,1.44,0,0,0,.52-.65,5.43,5.43,0,0,0,.13-1.54v-2a1,1,0,0,1,.22-.73.79.79,0,0,1,1.14,0,1.11,1.11,0,0,1,.22.74v4.79a1,1,0,0,1-.21.71.66.66,0,0,1-.53.23.7.7,0,0,1-.54-.24A1,1,0,0,1,139.72,391.74Z" transform="translate(0.13)"/><path class="cls-21" d="M144.24,384.44V387a3.81,3.81,0,0,1,.91-.75,2.38,2.38,0,0,1,1.15-.26,2.57,2.57,0,0,1,1.39.39,2.63,2.63,0,0,1,.92,1.14,4.29,4.29,0,0,1,.33,1.76,5,5,0,0,1-.18,1.38,3.42,3.42,0,0,1-.54,1.08,2.33,2.33,0,0,1-1.94,1,2.48,2.48,0,0,1-.68-.1,1.63,1.63,0,0,1-.55-.24,2.5,2.5,0,0,1-.39-.3c-.11-.11-.24-.26-.42-.47v.16a1.06,1.06,0,0,1-.21.71.72.72,0,0,1-.55.24.68.68,0,0,1-.54-.24,1.13,1.13,0,0,1-.2-.71v-7.22a1.27,1.27,0,0,1,.2-.76.64.64,0,0,1,.54-.25.68.68,0,0,1,.56.24A1.06,1.06,0,0,1,144.24,384.44Zm.08,4.91a2.33,2.33,0,0,0,.43,1.52,1.41,1.41,0,0,0,1.13.53,1.3,1.3,0,0,0,1-.54,2.49,2.49,0,0,0,.43-1.55,3.15,3.15,0,0,0-.18-1.13,1.6,1.6,0,0,0-.51-.73,1.26,1.26,0,0,0-.78-.26,1.32,1.32,0,0,0-.8.26,1.71,1.71,0,0,0-.56.74A2.94,2.94,0,0,0,144.32,389.35Z" transform="translate(0.13)"/><path class="cls-21" d="M150.05,391.67V384.5a1.16,1.16,0,0,1,.21-.75.8.8,0,0,1,1.16,0,1.14,1.14,0,0,1,.22.75v7.17a1.13,1.13,0,0,1-.23.76.74.74,0,0,1-.57.25.7.7,0,0,1-.57-.27A1.15,1.15,0,0,1,150.05,391.67Z" transform="translate(0.13)"/><path class="cls-21" d="M154.07,385.19a.78.78,0,0,1-.56-.22.75.75,0,0,1-.24-.6.78.78,0,0,1,.24-.58.84.84,0,0,1,1.11,0,.75.75,0,0,1,.24.6.77.77,0,0,1-.24.6A.78.78,0,0,1,154.07,385.19Zm.79,1.7v4.78a1.1,1.1,0,0,1-.23.75.73.73,0,0,1-.57.26.72.72,0,0,1-.57-.26,1.2,1.2,0,0,1-.22-.75v-4.73a1.1,1.1,0,0,1,.22-.73.71.71,0,0,1,.57-.25.72.72,0,0,1,.57.25A1,1,0,0,1,154.86,386.89Z" transform="translate(0.13)"/><path class="cls-21" d="M162.17,390.63a1.49,1.49,0,0,1-.18.66,2.49,2.49,0,0,1-.54.67,2.84,2.84,0,0,1-.91.51,3.75,3.75,0,0,1-1.24.19,3,3,0,0,1-2.3-.89,3.39,3.39,0,0,1-.82-2.39,4.11,4.11,0,0,1,.37-1.8,2.81,2.81,0,0,1,1.1-1.21,3.18,3.18,0,0,1,1.7-.43,3.39,3.39,0,0,1,1.13.19,3.28,3.28,0,0,1,.87.48,2.32,2.32,0,0,1,.55.64,1.23,1.23,0,0,1,.19.62.7.7,0,0,1-.22.51.73.73,0,0,1-.51.2.52.52,0,0,1-.33-.11,1.84,1.84,0,0,1-.29-.34,2.63,2.63,0,0,0-.61-.69,1.35,1.35,0,0,0-.8-.23,1.34,1.34,0,0,0-1.13.57,2.56,2.56,0,0,0-.43,1.57,3.32,3.32,0,0,0,.11.86,1.85,1.85,0,0,0,.32.66,1.26,1.26,0,0,0,.5.42,1.44,1.44,0,0,0,.65.14,1.39,1.39,0,0,0,.82-.23,2,2,0,0,0,.6-.7,1.78,1.78,0,0,1,.31-.44.64.64,0,0,1,.9.08A.79.79,0,0,1,162.17,390.63Z" transform="translate(0.13)"/><path class="cls-21" d="M167.89,391.73v-.16a4.06,4.06,0,0,1-.63.62,2.29,2.29,0,0,1-.67.36,2.53,2.53,0,0,1-.8.13,2.35,2.35,0,0,1-1-.25,2.59,2.59,0,0,1-.83-.72,3.23,3.23,0,0,1-.54-1.1,4.56,4.56,0,0,1-.19-1.36,3.68,3.68,0,0,1,.73-2.42,2.36,2.36,0,0,1,1.91-.87,2.51,2.51,0,0,1,1.15.25,3.28,3.28,0,0,1,.92.76v-2.44a1.27,1.27,0,0,1,.19-.77.65.65,0,0,1,.56-.26.69.69,0,0,1,.55.23,1.11,1.11,0,0,1,.2.71v7.29a1,1,0,0,1-.21.71.68.68,0,0,1-.54.24.69.69,0,0,1-.54-.25A1,1,0,0,1,167.89,391.73Zm-3.11-2.42a2.83,2.83,0,0,0,.2,1.14,1.53,1.53,0,0,0,.54.71,1.34,1.34,0,0,0,.76.24,1.36,1.36,0,0,0,.76-.23,1.57,1.57,0,0,0,.56-.69,3.11,3.11,0,0,0,.2-1.17,3,3,0,0,0-.2-1.14,1.76,1.76,0,0,0-.56-.73,1.31,1.31,0,0,0-1.55,0,1.75,1.75,0,0,0-.53.74A3.17,3.17,0,0,0,164.78,389.31Z" transform="translate(0.13)"/><path class="cls-21" d="M176.9,389.32a4,4,0,0,1-.22,1.36,3.09,3.09,0,0,1-.63,1.07,3,3,0,0,1-1,.69,3.43,3.43,0,0,1-1.31.24,3.13,3.13,0,0,1-1.29-.25,2.89,2.89,0,0,1-1-.69,3.07,3.07,0,0,1-.64-1.06,4.26,4.26,0,0,1-.21-1.36,4.08,4.08,0,0,1,.22-1.38,3.11,3.11,0,0,1,.63-1.06,2.58,2.58,0,0,1,1-.68,3.37,3.37,0,0,1,1.29-.24,3.43,3.43,0,0,1,1.31.24,2.8,2.8,0,0,1,1,.69,2.86,2.86,0,0,1,.63,1.07A3.92,3.92,0,0,1,176.9,389.32Zm-1.58,0a2.57,2.57,0,0,0-.43-1.57,1.37,1.37,0,0,0-1.15-.57,1.44,1.44,0,0,0-.82.25,1.66,1.66,0,0,0-.54.75,3.49,3.49,0,0,0,0,2.27,1.54,1.54,0,0,0,.54.74,1.44,1.44,0,0,0,2-.31A2.56,2.56,0,0,0,175.32,389.32Z" transform="translate(0.13)"/><path class="cls-21" d="M183.59,388a4.57,4.57,0,0,0-.17,1.49v2.19a1.15,1.15,0,0,1-.23.78.74.74,0,0,1-.6.27.72.72,0,0,1-.58-.27,1.15,1.15,0,0,1-.22-.78V389c0-.42,0-.74,0-1a1.12,1.12,0,0,0-.22-.57.68.68,0,0,0-.57-.22,1,1,0,0,0-1,.56,4,4,0,0,0-.25,1.6v2.23a1.15,1.15,0,0,1-.22.78.78.78,0,0,1-1.18,0,1.15,1.15,0,0,1-.23-.78V386.9a1.11,1.11,0,0,1,.2-.71.69.69,0,0,1,.55-.24.71.71,0,0,1,.54.23.84.84,0,0,1,.22.62V387a2.76,2.76,0,0,1,.88-.75,2.13,2.13,0,0,1,1-.25,2.09,2.09,0,0,1,1,.25,2,2,0,0,1,.71.75,2.72,2.72,0,0,1,.86-.75,2,2,0,0,1,1-.25,2.19,2.19,0,0,1,1.12.27,1.66,1.66,0,0,1,.7.76,3.56,3.56,0,0,1,.2,1.41v3.23a1.15,1.15,0,0,1-.22.78.79.79,0,0,1-1.19,0,1.15,1.15,0,0,1-.23-.78v-2.78a6.51,6.51,0,0,0,0-.85,1,1,0,0,0-.24-.54.71.71,0,0,0-.58-.22,1,1,0,0,0-.59.19,1.39,1.39,0,0,0-.44.52Z" transform="translate(0.13)"/><path class="cls-21" d="M192.67,391.74a4.54,4.54,0,0,1-1.12.7,2.89,2.89,0,0,1-1.2.24,2.28,2.28,0,0,1-1.07-.25,1.75,1.75,0,0,1-.71-.69,1.78,1.78,0,0,1-.25-.93,1.75,1.75,0,0,1,.41-1.16,2.07,2.07,0,0,1,1.13-.64l.75-.16,1-.23.92-.26a1.76,1.76,0,0,0-.25-1,1.09,1.09,0,0,0-.93-.31,1.85,1.85,0,0,0-.91.18,1.47,1.47,0,0,0-.52.53,4.64,4.64,0,0,1-.3.46.51.51,0,0,1-.39.11.65.65,0,0,1-.46-.18.59.59,0,0,1-.2-.45,1.4,1.4,0,0,1,.3-.85,2.09,2.09,0,0,1,.92-.68,4,4,0,0,1,1.56-.27,4.31,4.31,0,0,1,1.65.26,1.57,1.57,0,0,1,.84.82,3.71,3.71,0,0,1,.25,1.47c0,.39,0,.72,0,1s0,.57,0,.9a3.37,3.37,0,0,0,.15,1,3.29,3.29,0,0,1,.15.65.64.64,0,0,1-.23.47.73.73,0,0,1-.52.21.69.69,0,0,1-.48-.24A3.1,3.1,0,0,1,192.67,391.74Zm-.11-2.39a7.72,7.72,0,0,1-1,.28l-.92.22a1.4,1.4,0,0,0-.49.27.75.75,0,0,0-.23.57.85.85,0,0,0,.27.64,1,1,0,0,0,.72.27,1.8,1.8,0,0,0,.86-.22,1.43,1.43,0,0,0,.59-.55,2.74,2.74,0,0,0,.21-1.24Z" transform="translate(0.13)"/><path class="cls-21" d="M196.53,385.19A.8.8,0,0,1,196,385a.82.82,0,0,1,1.11-1.2.75.75,0,0,1,.24.6.8.8,0,0,1-.23.6A.82.82,0,0,1,196.53,385.19Zm.78,1.7v4.78a1.1,1.1,0,0,1-.23.75.75.75,0,0,1-1.14,0,1.19,1.19,0,0,1-.21-.75v-4.73a1.1,1.1,0,0,1,.21-.73.77.77,0,0,1,1.14,0A1,1,0,0,1,197.31,386.89Z" transform="translate(0.13)"/><path class="cls-21" d="M200.39,386.87v.2a2.65,2.65,0,0,1,.91-.84,2.34,2.34,0,0,1,1.14-.27,2.19,2.19,0,0,1,1.12.28,1.77,1.77,0,0,1,.73.8,2.21,2.21,0,0,1,.21.66,7.31,7.31,0,0,1,0,.89v3.08a1.16,1.16,0,0,1-.21.75.73.73,0,0,1-.57.26.7.7,0,0,1-.57-.27,1.09,1.09,0,0,1-.22-.74v-2.75a2.74,2.74,0,0,0-.22-1.25.89.89,0,0,0-.87-.44,1.23,1.23,0,0,0-.77.27,1.48,1.48,0,0,0-.51.72,5.21,5.21,0,0,0-.12,1.38v2.07a1.13,1.13,0,0,1-.22.76.76.76,0,0,1-.58.25.73.73,0,0,1-.56-.26,1.14,1.14,0,0,1-.22-.75v-4.78a1,1,0,0,1,.2-.7.65.65,0,0,1,.54-.23.68.68,0,0,1,.64.41A1.09,1.09,0,0,1,200.39,386.87Z" transform="translate(0.13)"/><path class="cls-21" d="M207.09,387l1.28,3.76,1.38-3.92a2.46,2.46,0,0,1,.32-.67.56.56,0,0,1,.47-.19.72.72,0,0,1,.52.21.67.67,0,0,1,.21.49,1.29,1.29,0,0,1,0,.25,1.31,1.31,0,0,1-.09.28c0,.08-.06.18-.11.29l-1.52,3.93-.16.43a3.14,3.14,0,0,1-.23.45,1,1,0,0,1-.31.28,1,1,0,0,1-1-.05,1.11,1.11,0,0,1-.3-.36c-.06-.12-.17-.37-.32-.75l-1.51-3.89a2.49,2.49,0,0,0-.11-.29l-.09-.3a1.51,1.51,0,0,1,0-.26.77.77,0,0,1,.1-.34.81.81,0,0,1,.28-.27.69.69,0,0,1,.37-.1.6.6,0,0,1,.55.23A4.45,4.45,0,0,1,207.09,387Z" transform="translate(0.13)"/><path class="cls-21" d="M216.66,389.72h-3.1a2.41,2.41,0,0,0,.22,1,1.53,1.53,0,0,0,.56.64,1.44,1.44,0,0,0,.78.22,1.72,1.72,0,0,0,.52-.07,1.93,1.93,0,0,0,.46-.22,4,4,0,0,0,.4-.32c.12-.11.29-.26.48-.45a.48.48,0,0,1,.35-.12.56.56,0,0,1,.39.14.5.5,0,0,1,.15.4,1.1,1.1,0,0,1-.16.52,2.24,2.24,0,0,1-.51.58,3.16,3.16,0,0,1-.86.46,3.53,3.53,0,0,1-1.18.18,3.12,3.12,0,0,1-2.37-.91,3.5,3.5,0,0,1-.84-2.46,4.28,4.28,0,0,1,.21-1.37,3.19,3.19,0,0,1,.6-1.07,2.68,2.68,0,0,1,1-.69,3.38,3.38,0,0,1,1.3-.24,3,3,0,0,1,1.59.41,2.61,2.61,0,0,1,1,1.06,2.87,2.87,0,0,1,.33,1.32c0,.41-.11.68-.34.8A2,2,0,0,1,216.66,389.72Zm-3.1-.94h2.88a2.11,2.11,0,0,0-.44-1.27,1.3,1.3,0,0,0-1-.42,1.24,1.24,0,0,0-1,.43A2.14,2.14,0,0,0,213.56,388.78Z" transform="translate(0.13)"/><path class="cls-21" d="M225,390.63a1.47,1.47,0,0,1-.17.66,2.49,2.49,0,0,1-.54.67,2.79,2.79,0,0,1-.92.51,3.71,3.71,0,0,1-1.24.19,3,3,0,0,1-2.29-.89,3.39,3.39,0,0,1-.83-2.39,4.11,4.11,0,0,1,.38-1.8,2.79,2.79,0,0,1,1.09-1.21,3.24,3.24,0,0,1,1.71-.43,3.43,3.43,0,0,1,1.13.19,3.28,3.28,0,0,1,.87.48,2.12,2.12,0,0,1,.54.64,1.23,1.23,0,0,1,.19.62.69.69,0,0,1-.21.51.73.73,0,0,1-.51.2.5.5,0,0,1-.33-.11,1.52,1.52,0,0,1-.3-.34,2.61,2.61,0,0,0-.6-.69,1.45,1.45,0,0,0-1.94.34,2.63,2.63,0,0,0-.43,1.57,3.32,3.32,0,0,0,.11.86,2.25,2.25,0,0,0,.32.66,1.28,1.28,0,0,0,.51.42,1.38,1.38,0,0,0,.65.14,1.36,1.36,0,0,0,.81-.23,1.94,1.94,0,0,0,.61-.7,1.55,1.55,0,0,1,.31-.44.59.59,0,0,1,.41-.15.59.59,0,0,1,.48.23A.74.74,0,0,1,225,390.63Z" transform="translate(0.13)"/><path class="cls-21" d="M226.45,386.1h.18v-1c0-.26,0-.47,0-.62a.9.9,0,0,1,.11-.39.66.66,0,0,1,.27-.28.71.71,0,0,1,.39-.1.73.73,0,0,1,.54.23.72.72,0,0,1,.21.38,3.73,3.73,0,0,1,0,.65v1.13h.58a.74.74,0,0,1,.52.16.54.54,0,0,1,.17.43.46.46,0,0,1-.25.46,1.56,1.56,0,0,1-.72.14h-.3v3a4.54,4.54,0,0,0,0,.6.62.62,0,0,0,.14.34.45.45,0,0,0,.37.13,2.24,2.24,0,0,0,.37,0,1.51,1.51,0,0,1,.37-.05.49.49,0,0,1,.35.15.57.57,0,0,1,.15.4.65.65,0,0,1-.41.61,2.59,2.59,0,0,1-1.2.22,1.94,1.94,0,0,1-1.13-.27,1.17,1.17,0,0,1-.5-.72,5,5,0,0,1-.12-1.23v-3.17h-.21a.74.74,0,0,1-.52-.17.58.58,0,0,1-.18-.43.55.55,0,0,1,.18-.43A.82.82,0,0,1,226.45,386.1Z" transform="translate(0.13)"/><path class="cls-21" d="M236.5,389.32a4,4,0,0,1-.22,1.36,3.11,3.11,0,0,1-.64,1.07,2.93,2.93,0,0,1-1,.69,3.35,3.35,0,0,1-1.3.24,3.17,3.17,0,0,1-1.3-.25,2.85,2.85,0,0,1-1-.69,3.07,3.07,0,0,1-.64-1.06,4.26,4.26,0,0,1-.21-1.36,4.34,4.34,0,0,1,.21-1.38,3,3,0,0,1,.64-1.06,2.55,2.55,0,0,1,1-.68,3.46,3.46,0,0,1,1.3-.24,3.38,3.38,0,0,1,1.3.24,2.84,2.84,0,0,1,1,.69,3,3,0,0,1,.63,1.07A3.92,3.92,0,0,1,236.5,389.32Zm-1.59,0a2.51,2.51,0,0,0-.43-1.57,1.34,1.34,0,0,0-1.14-.57,1.42,1.42,0,0,0-.82.25,1.52,1.52,0,0,0-.54.75,3,3,0,0,0-.2,1.14,3.22,3.22,0,0,0,.19,1.13,1.68,1.68,0,0,0,.54.74,1.37,1.37,0,0,0,.83.26,1.34,1.34,0,0,0,1.14-.57A2.49,2.49,0,0,0,234.91,389.32Z" transform="translate(0.13)"/><path class="cls-21" d="M239.32,390.29v1.38a1.08,1.08,0,0,1-.23.76.76.76,0,0,1-.57.25.7.7,0,0,1-.56-.26,1.1,1.1,0,0,1-.22-.75v-4.6c0-.74.25-1.11.77-1.11a.63.63,0,0,1,.57.26,1.62,1.62,0,0,1,.19.76,2.89,2.89,0,0,1,.58-.76,1.15,1.15,0,0,1,.8-.26,1.94,1.94,0,0,1,1,.26.78.78,0,0,1,.47.69.69.69,0,0,1-.2.5.61.61,0,0,1-.44.19,1.76,1.76,0,0,1-.42-.11,2,2,0,0,0-.59-.11.79.79,0,0,0-.56.19,1.28,1.28,0,0,0-.35.56,4.28,4.28,0,0,0-.16.9C239.34,389.37,239.32,389.79,239.32,390.29Z" transform="translate(0.13)"/><path class="cls-21" d="M247.76,390.52a2.14,2.14,0,0,1-.32,1.17,2,2,0,0,1-.95.74,4.2,4.2,0,0,1-1.52.25,3.62,3.62,0,0,1-1.46-.28,2.1,2.1,0,0,1-.9-.68,1.41,1.41,0,0,1-.29-.81.63.63,0,0,1,.19-.47.62.62,0,0,1,.47-.2.56.56,0,0,1,.38.13,1.87,1.87,0,0,1,.26.36,1.51,1.51,0,0,0,1.51.88,1.31,1.31,0,0,0,.78-.22.64.64,0,0,0,.3-.51.68.68,0,0,0-.31-.63,3.63,3.63,0,0,0-1.05-.39,9,9,0,0,1-1.33-.44,2.17,2.17,0,0,1-.82-.62,1.4,1.4,0,0,1-.31-.94,1.67,1.67,0,0,1,.29-.93,2,2,0,0,1,.83-.71,3.05,3.05,0,0,1,1.34-.26,4.23,4.23,0,0,1,1.11.13,2.7,2.7,0,0,1,.82.36,1.8,1.8,0,0,1,.5.49,1.06,1.06,0,0,1,.17.54.59.59,0,0,1-.19.46.69.69,0,0,1-.51.18.66.66,0,0,1-.42-.14,2.6,2.6,0,0,1-.39-.44,1.45,1.45,0,0,0-.43-.39,1.35,1.35,0,0,0-.66-.14,1.23,1.23,0,0,0-.71.19.58.58,0,0,0-.29.48.51.51,0,0,0,.21.42,1.68,1.68,0,0,0,.57.28l1,.27a4.8,4.8,0,0,1,1.21.45,1.92,1.92,0,0,1,.7.61A1.36,1.36,0,0,1,247.76,390.52Z" transform="translate(0.13)"/><path class="cls-21" d="M249.55,392.68a.89.89,0,0,1-.88-.92.89.89,0,0,1,.25-.64.8.8,0,0,1,.62-.26.82.82,0,0,1,.62.26,1,1,0,0,1,0,1.31A.86.86,0,0,1,249.55,392.68Z" transform="translate(0.13)"/><path class="cls-21" d="M258.15,389.32a4,4,0,0,1-.22,1.36,3.11,3.11,0,0,1-.64,1.07,2.93,2.93,0,0,1-1,.69,3.35,3.35,0,0,1-1.3.24,3.21,3.21,0,0,1-1.3-.25,2.85,2.85,0,0,1-1-.69,3.07,3.07,0,0,1-.64-1.06,4.26,4.26,0,0,1-.22-1.36,4.34,4.34,0,0,1,.22-1.38,3.11,3.11,0,0,1,.63-1.06,2.66,2.66,0,0,1,1-.68,3.64,3.64,0,0,1,2.6,0,2.84,2.84,0,0,1,1,.69,3,3,0,0,1,.63,1.07A3.92,3.92,0,0,1,258.15,389.32Zm-1.59,0a2.57,2.57,0,0,0-.43-1.57,1.34,1.34,0,0,0-1.14-.57,1.44,1.44,0,0,0-.82.25,1.52,1.52,0,0,0-.54.75,3,3,0,0,0-.2,1.14,3.22,3.22,0,0,0,.19,1.13,1.68,1.68,0,0,0,.54.74,1.39,1.39,0,0,0,.83.26,1.34,1.34,0,0,0,1.14-.57A2.56,2.56,0,0,0,256.56,389.32Z" transform="translate(0.13)"/><path class="cls-21" d="M261,390.29v1.38a1.13,1.13,0,0,1-.23.76.76.76,0,0,1-.57.25.7.7,0,0,1-.56-.26,1.1,1.1,0,0,1-.22-.75v-4.6c0-.74.26-1.11.77-1.11a.63.63,0,0,1,.57.26,1.51,1.51,0,0,1,.19.76,2.89,2.89,0,0,1,.58-.76,1.15,1.15,0,0,1,.8-.26,1.91,1.91,0,0,1,1,.26.78.78,0,0,1,.47.69.69.69,0,0,1-.2.5.62.62,0,0,1-.44.19,1.62,1.62,0,0,1-.41-.11,2.07,2.07,0,0,0-.6-.11.85.85,0,0,0-.57.19,1.37,1.37,0,0,0-.34.56,4.28,4.28,0,0,0-.16.9C261,389.37,261,389.79,261,390.29Z" transform="translate(0.13)"/><path class="cls-21" d="M270.13,387.17V392a5.23,5.23,0,0,1-.17,1.41,2.26,2.26,0,0,1-.54,1,2.22,2.22,0,0,1-1,.57,5.24,5.24,0,0,1-1.49.19,4.1,4.1,0,0,1-1.46-.24,2.63,2.63,0,0,1-1-.62,1.14,1.14,0,0,1-.34-.78.66.66,0,0,1,.19-.49.65.65,0,0,1,.48-.19.79.79,0,0,1,.61.32l.26.33a1.32,1.32,0,0,0,.3.28,1.22,1.22,0,0,0,.4.18,2.12,2.12,0,0,0,.54.06,2.06,2.06,0,0,0,.95-.18,1,1,0,0,0,.48-.5,1.93,1.93,0,0,0,.15-.69c0-.24,0-.63,0-1.18a2.58,2.58,0,0,1-.84.81,2.19,2.19,0,0,1-1.14.28,2.33,2.33,0,0,1-1.39-.42,2.64,2.64,0,0,1-.92-1.19,4.57,4.57,0,0,1-.32-1.76,4.35,4.35,0,0,1,.2-1.35,3,3,0,0,1,.55-1,2.48,2.48,0,0,1,.83-.62,2.54,2.54,0,0,1,1-.21,2.39,2.39,0,0,1,1.16.27,3,3,0,0,1,.92.85v-.22a1,1,0,0,1,.2-.67.66.66,0,0,1,.52-.24.6.6,0,0,1,.61.31A2.17,2.17,0,0,1,270.13,387.17Zm-4.59,2.09a2.35,2.35,0,0,0,.42,1.52,1.36,1.36,0,0,0,1.09.52,1.4,1.4,0,0,0,.75-.23,1.62,1.62,0,0,0,.57-.66,2.39,2.39,0,0,0,.22-1.08,2.55,2.55,0,0,0-.43-1.57,1.33,1.33,0,0,0-1.12-.57,1.3,1.3,0,0,0-1.09.54A2.51,2.51,0,0,0,265.54,389.26Z" transform="translate(0.13)"/><path class="cls-21" d="M189.86,369.59a9.57,9.57,0,0,1,2.71-6.86,9,9,0,0,1,13.13,0,10,10,0,0,1,0,13.72,9,9,0,0,1-13.13,0A9.57,9.57,0,0,1,189.86,369.59Zm2.38,0a7.61,7.61,0,0,0,2,5.33,6.59,6.59,0,0,0,9.79,0,8.1,8.1,0,0,0,0-10.66,6.59,6.59,0,0,0-9.79,0A7.61,7.61,0,0,0,192.24,369.59Zm9.25,1.48h2.35a4.41,4.41,0,0,1-1.55,3,4.3,4.3,0,0,1-2.9,1,4.58,4.58,0,0,1-3.67-1.62,6.72,6.72,0,0,1,0-7.93,4.53,4.53,0,0,1,3.63-1.5,4.67,4.67,0,0,1,2.95.94,4.3,4.3,0,0,1,1.55,2.84h-2.35a1.78,1.78,0,0,0-2-1.59c-1.82,0-2.73,1.08-2.73,3.23a4.18,4.18,0,0,0,.7,2.48,2.31,2.31,0,0,0,2,1A1.75,1.75,0,0,0,201.49,371.07Z" transform="translate(0.13)"/><polygon class="cls-21" points="193.74 375.67 195.09 376.82 205.05 364.03 203.7 362.89 193.74 375.67"/></svg>