<svg xmlns="http://www.w3.org/2000/svg" xmlns:xlink="http://www.w3.org/1999/xlink" viewBox="0 0 307 375"><defs><style>.a{fill:#603917;}.b{fill:#663917;}.c{fill:#754d29;}.d{fill:url(#a);}.e{fill:#f2dcc1;}.f,.l{fill:none;}.f{stroke:#414141;stroke-width:3px;}.f,.l,.u,.w,.x,.y{stroke-miterlimit:10;}.g{fill:#bc202e;}.h{fill:#edcca4;}.i{fill:#eac4a0;}.j{fill:#221f1f;}.aa,.ac,.k{fill:#fff;}.l{stroke:#3a2416;stroke-width:0.5px;}.m{fill:#e5e6e6;}.n{fill:#cfd1d2;}.o{fill:#f496a9;}.p{fill:#c1976b;}.q{fill:#895d3b;}.r{fill:url(#b);}.s{fill:url(#c);}.t{fill:#f05a28;}.u{fill:#e8eddf;stroke:#999;}.v{fill:url(#d);}.w,.y{fill:#ffecd1;}.w,.x{stroke:#f4bd90;}.x{fill:#f4bd7a;}.y{stroke:url(#e);}.z{fill:#f9d5b4;}.aa,.ac{stroke:#000;}.aa{stroke-miterlimit:10;}.ab{fill:url(#f);}.ac{stroke-miterlimit:10;}.ad{fill:url(#g);}.ae{fill:#e8bb89;}.af{fill:#fcdab6;}.ag{fill:#d74b61;}.ah{fill:#ffd4d6;}.ai{fill:#aa3c51;}.aj{fill:#d06d73;}.ak{fill:#de8a88;}.al{fill:#df9895;}</style><radialGradient id="a" cx="116.26" cy="271.24" fy="242.9301486869834" r="33.64" gradientUnits="userSpaceOnUse"><stop offset="0.4" stop-color="#eab7a0"/><stop offset="0.82" stop-color="#f2dcc1"/></radialGradient><radialGradient id="b" cx="81.56" cy="188.8" r="5.97" gradientUnits="userSpaceOnUse"><stop offset="0.08" stop-color="#facb19"/><stop offset="0.5" stop-color="#facb19"/><stop offset="0.77" stop-color="#0a6280" stop-opacity="0.96"/><stop offset="1" stop-color="#2483c5"/></radialGradient><radialGradient id="c" cx="139.67" cy="183.86" r="5.19" gradientTransform="translate(298.8 27) rotate(84.1) scale(1 0.95)" gradientUnits="userSpaceOnUse"><stop offset="0.21" stop-color="#facb19"/><stop offset="0.58" stop-color="#facb19"/><stop offset="0.82" stop-color="#0a6280" stop-opacity="0.96"/><stop offset="1" stop-color="#2483c5"/></radialGradient><linearGradient id="d" x1="207.78" y1="289.86" x2="198.19" y2="289.86" gradientTransform="matrix(1, 0, 0, -1, -4.96, 350.85)" gradientUnits="userSpaceOnUse"><stop offset="0" stop-color="#ffecd1"/><stop offset="0.67" stop-color="#f9d5b4"/></linearGradient><linearGradient id="e" x1="177.91" y1="281.29" x2="212.27" y2="301.13" gradientTransform="matrix(1, 0, 0, -1, -4.96, 350.85)" gradientUnits="userSpaceOnUse"><stop offset="0.25" stop-color="#f4bd90"/><stop offset="1" stop-color="#ffebd0"/></linearGradient><radialGradient id="f" cx="268.94" cy="236.01" r="3.3" gradientTransform="matrix(1, 0.04, 0.07, -1.56, -33.56, 401.56)" gradientUnits="userSpaceOnUse"><stop offset="0" stop-color="#e9bd00"/><stop offset="0.74" stop-color="#076163"/><stop offset="0.96" stop-color="#005e66"/></radialGradient><radialGradient id="g" cx="242.5" cy="267.65" r="3.29" gradientTransform="matrix(0.02, 1, 1.57, -0.03, -161.97, -190.46)" xlink:href="#f"/></defs><path class="a" d="M103.6,160.2c3.7-5.9-21.7,15.9-23.7,56.3-1.3,26.3,1.8,53.3,1.4,58-1.8,27.4,2.8,66.2,3,63.5C86.1,302.3,67.2,217.2,103.6,160.2Z"/><path class="b" d="M102.7,155.9c-.2-.6-10.7,1.5-14.9,5.4-2.6,3-6.7,7.9-9.2,13.3l2.5.4a96.1,96.1,0,0,0-7.3,18.6c-2,7.6-2,15.8-1.8,24.6l.3,8c-.5,19.3.7,37.8,1.2,40.7,4.2,24.2,1.9,62.7,2.4,60.2,1.7-10.3.6-48.1.1-69.5,3,10.3,1.5,25.9,1.2,28.2-.5,4.3-.2,15.9.2,20.2.7,9.5,12,39.2,9.3,30.3-2.3-7.2-.8-33.7-1.2-42-.3-6.5-2.7-13.5-4.2-19.8s.5-13,.1-20.7-.7-14.5-.9-21.7-.7-14.3-.5-21.3,2.1-13,4.3-18.4,4.3-9.9,7.2-13.2C107.1,161.7,102.7,155.9,102.7,155.9Z"/><path class="c" d="M86.8,184.7A142.3,142.3,0,0,0,80.6,216a108.8,108.8,0,0,0-.6,19c.4,6.6-.2,14.9.4,21.5,1.4,13.7,3.2,28.8,5.1,42.3s.2,15.9,8.2,37.1c.7,1.8-6.4-32.9-8.5-71.7-.3-6.4-1.3-12.8-2-19.2a157.2,157.2,0,0,1-1.1-19.3c.3-5.9.8-11.7,1.5-17.3a92,92,0,0,1,2.8-15.6c3.4-11.7,10.3-20.8,14.1-26.7C100.9,165.6,91.2,171.3,86.8,184.7Z"/><path class="b" d="M150.2,186.4c-.5-.5-22,2.2-30.8,6.1-5.7,2.9-14.5,7.7-20,12.8h5.2a81.6,81.6,0,0,0-16.4,17.4c-4.8,7.1-5.5,14.5-5.8,22.3,0,2.5,2.8,4.7,2.7,7.1-2.5,17.5,1.2,33.5,2,36,6.6,21.5-1.5,32-1.2,35.8.7,8.5,17.8-3.8,17.7-11.3-.1-5.8,1.3-12.4-1.1-18a43.9,43.9,0,0,1-4-18.2q-.3-9.7,0-19.5c.1-6.3-.2-12.9.7-19.1s5.4-12,10.4-17,9.5-9.3,15.8-12.6C158.6,191.3,150.2,186.4,150.2,186.4Z"/><path class="c" d="M99.3,170.4a115.5,115.5,0,0,0-14.7,37.4c-1.5,7.4-3,14.8-2.5,22.4s-1.3,17.7-.3,25.3c1.9,16.1,4.6,33.9,7.5,49.7s-.5,18.8,14.5,43.2c1.2,2.1-10.9-38.4-12.8-84-.3-7.6-1.9-15.1-2.8-22.6s-2-15.1-1-22.7a159.4,159.4,0,0,1,4-20.6c1.7-6.4,3.5-12.8,6.7-18.5,7.8-14,22.4-25.2,30.6-32.4C129.3,146.9,109.1,154.3,99.3,170.4Z"/><path class="c" d="M158.8,282.7c-1.8-15.9-3.4-31.9-5.5-47.7-1.6-12.7-4-26.1-9.2-35.8-1.4-2.6-3-4.6-4.4-7.1s-2.5-5.7-3.8-8.7a42.3,42.3,0,0,0-8.9-13.3c-8-8.1-26.3-7.1-26.1-6.1h0a51.7,51.7,0,0,0-11,1.9,24.5,24.5,0,0,0-9.3,4.6c-5.1,4.3-9.5,13.9-7.8,25.6.1.8,4.5,96.2,5.1,95.6-.7,3.1-5.6-90.7-6.1-87.3-.7,6-.1,13.6-.5,19.8s-1,15-1,22.7a202.7,202.7,0,0,0,1.6,23.3c.9,8,1.7,15.9,2.2,24,1.1,18.1,3.4,55.8,3.4,53.7.1-15.3,2.9-29,2.2-44.5-.4-7.6-3.7-16.9-4.4-24.5s-1.9-15-2.4-22.6a198.1,198.1,0,0,1,.1-21.8c.3-6.7.7-13.5,1.3-20.1,1-11.5,2.6-23.5,7.4-31s18.5-16,18.6-17.1-11.5,5.1-17.2,10.9c-3.7,3.9-6.3,9.9-8.1,16.9-1.4-10.5,7-16.5,11.6-20,2.6-1.9,1.1-5.4,3.9-6.2a54.1,54.1,0,0,1,9.8-1.6,1.7,1.7,0,0,0,1.5-1.3v-.3l.5-.2c2.9-1.3,5.4-3.5,8.5-2.8-10.2-.9-12.5-4.4-8.5,3.3.2.5,4.3,4.3,5.6,4.4s1.3.3,1.4.3a14.4,14.4,0,0,1,5.2,2.4c3.5,2.5,6.6,6.8,9.6,11,5.5,7.7,10.8,15.9,15,26a.3.3,0,0,0,.1.2,42.4,42.4,0,0,0,3.1,8.7,4.7,4.7,0,0,0,.5,1L144,223c.8,3.2,1.4,6.6,2,10,1.1,6.9,2.1,13.8,3.1,20.8,2.1,14,3.9,28.2,4.7,42.5s.6,30.2-1.6,44.2c-.4,2,2.9-5.7,3.2-8.6l.3,6.2c.1,1.8,1.8-12,1.7-17.6.2,3.7.5,7.5.8,11.2s1.6,14.3,1.9,12.5c1.2-7,.3-14.8-.3-22.1s-1.1-16-1.7-24c1.4,12.1,2.7,24.2,4.1,36.3C162.4,336.2,160.6,299.4,158.8,282.7ZM111.7,165.3a14.5,14.5,0,0,1,4.6-.3c3,.4,5.8,3.6,8.2,6.6C120.6,167.9,116.3,165.4,111.7,165.3ZM148.2,212a33.9,33.9,0,0,0-3.3-6.6l-.7-1.1-.9-2.4q-1.7-3.9-3.6-7.5a90.5,90.5,0,0,0-4.1-10.2,79.8,79.8,0,0,0-6.8-11.4,26.4,26.4,0,0,1,4.3,5.9c1.2,2.2,2.2,4.6,3.5,6.6s2.7,3.4,4.1,5.2c4.7,6.4,7,15.4,8.5,24.3A23.1,23.1,0,0,0,148.2,212Z"/><path class="c" d="M158.8,280.3c-1.8-15.9-3.4-31.9-5.4-47.7-1.7-12.7-4.1-26.1-9.3-35.8-1.3-2.6-2.9-4.6-4.3-7.1A63.3,63.3,0,0,1,136,181a41.3,41.3,0,0,0-9-13.3c-7.9-8.1-26.3-7.1-26.1-6.1h.1a51.7,51.7,0,0,0-11,1.9,24.9,24.9,0,0,0-9.4,4.6c-5,4.3-9.5,13.9-7.7,25.6.1.8,4.4,96.2,5,95.6-.6,3.1-5.6-90.7-6-87.3-.7,6-.2,13.6-.6,19.8s-.9,15-.9,22.7A202.7,202.7,0,0,0,72,267.9c.9,7.9,1.7,15.9,2.1,24,1.2,18.1,3.5,55.8,3.5,53.7,0-15.4,2.8-29.1,2.1-44.5-.3-7.6-3.6-16.9-4.4-24.5s-1.8-15-2.3-22.6a198.1,198.1,0,0,1,0-21.8c.4-6.7.8-13.5,1.4-20.1.9-11.5,2.6-23.5,7.3-31s18.5-16,18.7-17.1-11.5,5.1-17.2,10.9c-3.8,3.9-6.4,9.9-8.2,16.9-1.3-10.5,7-16.5,11.7-20,2.6-1.9,1-5.4,3.9-6.2a46.6,46.6,0,0,1,9.8-1.6,1.6,1.6,0,0,0,1.4-1.3.4.4,0,0,1,.1-.3l.4-.2c2.9-1.3,5.3-4.3,8.3-3.6-10.1-.9-9,.5-7,2.9.4.4,3,5.5,4.4,5.6s1.2.3,1.4.3a14.4,14.4,0,0,1,5.2,2.4c3.5,2.5,6.5,6.8,9.6,11,5.4,7.7,10.7,15.9,15,26v.2a52.3,52.3,0,0,0,3.1,8.7,3.1,3.1,0,0,1,.5,1,29.1,29.1,0,0,1,1.2,3.9c.8,3.2,1.5,6.6,2.1,10,1.1,6.9,2.1,13.8,3.1,20.7,2.1,14.1,3.9,28.3,4.7,42.6s.5,30.1-1.7,44.1c-.3,2.1,3-5.6,3.3-8.5l.3,6.2c0,1.8,1.8-12,1.6-17.6.3,3.7.6,7.5.8,11.2s1.7,14.3,2,12.4c1.1-6.9.2-14.7-.3-22.1s-1.2-15.9-1.7-23.9c1.3,12.1,2.7,24.2,4,36.3C162.4,333.7,160.7,297,158.8,280.3Zm-47-117.4a14.3,14.3,0,0,1,4.6-.3c3,.4,5.8,3.6,8.2,6.6C120.7,165.5,116.3,163,111.8,162.9Zm36.5,46.7A33.9,33.9,0,0,0,145,203l-.7-1.1a26,26,0,0,0-1-2.5c-1-2.5-2.3-5-3.5-7.4s-2.5-6.9-4.1-10.2a79.8,79.8,0,0,0-6.8-11.4,29.9,29.9,0,0,1,4.3,5.9,68.8,68.8,0,0,0,3.5,6.6c1.2,1.9,2.7,3.4,4,5.2,4.7,6.4,7,15.4,8.5,24.2Z"/><path class="b" d="M150.3,234.3c-.8-3.5-1.7-7-2.6-10.4s-1.4-7.3-2.4-10.8-1.9-6.5-3-9.6v-.3c-1.5-5.5-2.8-11.5-4.5-16.4-2.7-7.5-3.3-7.5-5-11.1a46.5,46.5,0,0,0-8.2-11.9c-9.6-10.6-15.5-.6-13.5-.5s17.1,28.4,21.4,38.5a229.7,229.7,0,0,1,12.4,39c3.5,14.8,4.3,33.4,5.4,49.4a479.4,479.4,0,0,1,1.6,50.6c-.4,11.2,6-33.6,4.6-52.8S154,250.9,150.3,234.3Zm-19.2-55.2c1.6,3.2,2.4,8,4.7,8.8-.3-.6-.5-1.2-.8-1.7l-1-2.1c-1.9-4.4-3.4-11-6-12.9C129.4,171.9,130,176.7,131.1,179.1Z"/><path class="a" d="M156.4,282.4c-2.1-18.5-3.9-37.1-6.2-55.6-1.9-14.8-4.5-30.4-10.3-41.8-1.5-2.9-3.2-5.3-4.7-8.2s-2.8-6.7-4.2-10.2a49.1,49.1,0,0,0-9.8-15.6c-8.6-9.4-28.5-8.3-28.3-7.2l-.5-.5c-4,.3-7.5,1.6-11.4,2.8a26.6,26.6,0,0,0-10.1,5.3c-5.4,4.9-10.2,16.1-8.2,29.8.1.9,5.3,112.1,6,111.4-.7,3.6-6.6-105.7-7.1-101.8-.7,7-.1,15.9-.5,23.1s-.9,17.5-.9,26.4.9,18.1,1.9,27.2,1.9,18.6,2.5,28c1.3,21.1,4,65.1,4,62.6,0-17.9,3-33.8,2.1-51.9-.4-8.8-4.1-19.7-4.9-28.5s-2.1-17.6-2.7-26.4a239.1,239.1,0,0,1,0-25.4c.3-7.8.7-15.7,1.3-23.4.9-13.4,2.7-27.4,7.8-36.1s19.9-18.5,20.1-19.8-12.4,5.8-18.6,12.6c-4,4.5-6.8,11.5-8.7,19.7-1.6-12.3,7.5-19.2,12.5-23.2,2.8-2.3,1.1-6.4,4.2-7.3a54.6,54.6,0,0,1,10.6-1.8,1.9,1.9,0,0,0,1.6-1.5v-.4h.5c3.2-1.6,5.9-4.1,9.2-3.3-11-1.1-13.5-5.2-9.2,3.8.3.6,4.7,5,6.2,5.2s1.3.3,1.5.3a14.3,14.3,0,0,1,5.6,2.9c3.8,2.9,7.2,7.9,10.5,12.8,6,9,11.8,18.6,16.4,30.4a.4.4,0,0,1,.1.3,70.3,70.3,0,0,0,3.4,10.1l.6,1.2c.4,1.5.9,3,1.3,4.5.9,3.8,1.6,7.7,2.2,11.7,1.3,8,2.5,16.1,3.6,24.2,2.3,16.4,4.3,32.9,5.3,49.6s.8,35.1-1.5,51.4c-.4,2.4,3.2-6.5,3.5-9.9l.3,7.2c.1,2.1,1.9-13.9,1.7-20.5.3,4.4.7,8.7.9,13.1s1.9,16.7,2.2,14.5c1.3-8.1.2-17.2-.4-25.8s-1.4-18.6-2-27.9c1.5,14.1,3.1,28.2,4.6,42.3C160.6,344.8,158.5,302,156.4,282.4Zm-51.7-137a16.2,16.2,0,0,1,4.9-.3c3.3.5,6.4,4.1,9,7.7C114.3,148.4,109.6,145.6,104.7,145.4Zm39.8,54.7a46.4,46.4,0,0,0-3.6-7.8l-.8-1.3c-.3-.9-.6-1.9-1-2.8q-1.8-4.5-3.9-8.7c-1.4-4.1-2.8-8.1-4.5-11.9a85,85,0,0,0-7.5-13.3,31.7,31.7,0,0,1,4.8,6.8c1.3,2.6,2.3,5.4,3.8,7.8s3,3.9,4.4,6c5.2,7.5,7.7,18,9.4,28.3C145.3,202.2,144.9,201.1,144.5,200.1Z"/><path class="c" d="M78.4,191.6c.4-.5,22.1-.9,31.4,1.6,6,2.1,15.4,5.5,21.6,9.7.1.1-5.1.9-5.1.9a83.7,83.7,0,0,1,18.8,14.8c5.7,6.3,7.5,13.5,8.9,21.3.5,2.4.9,4.8,1.3,7.2,5,16.9,6.6,33.4,6.2,36-3.4,22.2,9.6,55.7,8.2,53.5-5.8-8.6-7.8-25.1-11.3-44.2a18.7,18.7,0,0,0-.4,8.2c.7,3.8,3.9,14,4.1,17.8.5,8.5-16.1,37.1-12.4,28.7s-5.7-29.9-6.7-37.3c-.8-5.8-3.2-12-1.6-17.9a46.8,46.8,0,0,0,1.4-18.6c-.8-6.5-1.8-12.9-2.9-19.4s-1.7-12.7-3.5-18.8-7.2-11-12.8-15.2-10.7-7.8-17.5-10.1C70.8,197.7,78.4,191.6,78.4,191.6Z"/><path class="a" d="M147.5,283.3c.5-5.3-9-28.7-6.7-55.3,1.3-14.9-4.6-30.5-10.3-41.8-1.5-3-3.2-5.4-4.7-8.2s-2.8-6.8-4.2-10.2a48.6,48.6,0,0,0-9.8-15.6c-8.6-9.5-28.5-8.4-28.3-7.3l-.5-.4c-4.1.2-7.5,1.6-11.4,2.7a24.9,24.9,0,0,0-10.1,5.4c-5.4,4.9-10.2,16-8.3,29.8.2.9,5.4,112,6.1,111.4-.7,3.6-6.6-105.7-7.1-101.8-.7,6.9-.1,15.9-.5,23-.4,8.8-.9,17.6-.9,26.5s.9,18.1,1.9,27.1,1.9,18.6,2.5,28c1.3,21.2,4,65.1,4,62.7,0-17.9,2.9-33.9,2.1-51.9-.4-8.9-4.1-19.7-4.9-28.5s-2.1-17.6-2.7-26.5-.4-17-.1-25.4.8-15.6,1.3-23.3c1-13.5,2.8-27.4,7.9-36.1S82.7,149,82.9,147.8s-12.4,5.8-18.6,12.6c-4,4.5-6.8,11.4-8.7,19.6-1.6-12.2,7.5-19.2,12.5-23.2,2.8-2.3,1.1-6.3,4.2-7.2a48,48,0,0,1,10.6-1.8,1.8,1.8,0,0,0,1.5-1.5.8.8,0,0,0,.1-.4l.5-.2c3.1-1.6,5.9-4,9.2-3.2-11-1.2-13.5-5.3-9.2,3.8.3.5,4.7,5,6.2,5.1s1.3.4,1.5.3a15.8,15.8,0,0,1,5.6,2.9c3.8,3,7.2,7.9,10.5,12.9,6,9,11.8,18.6,16.4,30.4v.2a54.4,54.4,0,0,0,3.4,10.1l.6,1.2,1.3,4.6c.9,3.8,1.6,7.6,2.2,11.6,1.3,8.1,2.4,16.2,3.6,24.2,2.3,16.4,4.3,33,5.3,49.6s.8,35.2-1.5,51.5c-.4,2.4,3.2-6.6,3.5-9.9l.3,7.2c.1,2.1,1.9-13.9,1.7-20.5l.9,13c.3,4.8,1.9,16.7,2.2,14.6,1.2-8.1.2-17.3-.4-25.8s-1.4-18.6-2-27.9c1.5,14.1,3.1,28.2,4.6,42.3C151.2,345.9,145.8,302.9,147.5,283.3ZM95.3,146.5a13.5,13.5,0,0,1,4.9-.2c3.3.4,6.4,4.1,9,7.6C104.9,149.6,100.2,146.7,95.3,146.5Zm39.8,54.7a42,42,0,0,0-3.6-7.7l-.8-1.3c-.3-1-.6-1.9-1-2.9-1.2-3-2.5-5.8-3.9-8.6s-2.8-8.1-4.5-12a89.8,89.8,0,0,0-7.5-13.3,32.5,32.5,0,0,1,4.8,6.9c1.3,2.5,2.3,5.4,3.8,7.7s3,4,4.4,6c5.2,7.5,7.7,18,9.4,28.4C135.9,203.3,135.5,202.3,135.1,201.2Z"/><path class="d" d="M179.8,375.8a102.7,102.7,0,0,1,5.3-12.4c2-4,5.8,2.4,10.2,12.4h48.3c-7.7-31.2-18.9-60.3-37.4-70.5-23.7-13.2-37.4,10.6-57.4-11.7-11.4-12.6-5.3-30.2-4.7-45.5-16.9,1.9-34.1,4.3-51.1,6.4,2.3,19,5,39.1-12.3,51.5-24.1,7.5-30.4-3.8-50.7,17-8.9,9.1-16.7,31.2-22.8,52.8Z"/><path class="a" d="M163.1,270.4c-1.1-13.1-2.1-26.3-4.5-39.2s-6.4-24.7-10.5-36.6c-1.7-4.9-3.7-9.9-6.8-13.3s-6.4-4.9-9.7-6.6-10.1-10.7-11.7-12.3c-3.1-3.3-15.8-3.6-15.3-3.2,3,2.4,8.9-.1,14.1,7.6a32.7,32.7,0,0,0,9.2,9c3.3,1.9,6.6,3.2,9.7,5.7s5.7,7.2,7.5,12.2c4.1,11.2,8,22.9,10.5,34.9s3.8,25.7,4.9,38.7c1.2,14.8,6.1,45.6,6,44Z"/><path class="a" d="M156.6,272.6c-1.1-13.1-2.1-26.3-4.5-39.2s-6.4-24.7-10.5-36.5c-1.7-5-3.7-9.9-6.8-13.4s-6.3-4.9-9.7-6.6a31.9,31.9,0,0,1-5.7-3.6c-1.7-1.4-3.7-4.7-5.3-6.3-3.1-3.3-14.6-6.5-14.5-5.6.4,5.4,9.9,4.8,12.6,7.6s6,7.1,9.2,9,6.7,3.2,9.7,5.7,5.7,7.2,7.5,12.2c4.1,11.2,8,22.9,10.5,34.9s3.8,25.8,4.9,38.7c1.2,14.8,6.1,45.6,6,44Z"/><path class="c" d="M162.1,278.6c-1.8-15.8-3.4-31.8-5.4-47.6-1.7-12.8-4.1-26.2-9.3-35.9-1.4-2.5-2.9-4.5-4.3-7a76.1,76.1,0,0,1-3.8-8.7,43,43,0,0,0-9-13.4c-7.9-8-26.3-7-26.1-6h.1a59.1,59.1,0,0,0-11,2,23.5,23.5,0,0,0-9.4,4.6c-5,4.2-9.5,13.8-7.7,25.6.1.8,4.4,96.2,5,95.6-.6,3.1-5.6-90.7-6-87.3-.8,5.9-.2,13.6-.6,19.8s-.9,15-.9,22.7a199.4,199.4,0,0,0,1.6,23.2c.9,8,1.6,16,2.1,24.1,1.2,18.1,3.5,55.8,3.5,53.7,0-15.4,2.8-29.1,2.1-44.5-.3-7.6-3.6-16.9-4.4-24.5s-1.8-15.1-2.3-22.6a198.1,198.1,0,0,1,0-21.8c.4-6.8.8-13.5,1.3-20.1,1-11.5,2.7-23.5,7.4-31s18.5-16,18.7-17.1-11.5,5-17.2,10.9c-3.8,3.9-6.4,9.9-8.2,16.9-1.3-10.5,7-16.5,11.7-20,2.6-1.9,1-5.4,3.9-6.2a46.6,46.6,0,0,1,9.8-1.6,1.8,1.8,0,0,0,1.4-1.3v-.4h.5c2.9-1.4,5.5-3.5,8.5-2.8-10.1-.9-12.4-4.4-8.5,3.3.3.5,4.3,4.3,5.7,4.4s1.2.3,1.4.2a15.5,15.5,0,0,1,5.2,2.5c3.5,2.5,6.5,6.7,9.6,11,5.4,7.7,10.7,15.9,15,26v.2a55.7,55.7,0,0,0,3.1,8.7,3.1,3.1,0,0,1,.5,1c.4,1.3.9,2.6,1.2,3.9.8,3.2,1.5,6.5,2.1,10,1.1,6.9,2.1,13.8,3.1,20.7,2.1,14.1,3.9,28.3,4.6,42.5s.6,30.2-1.6,44.2c-.3,2.1,3-5.6,3.3-8.5.1,2,.2,4.1.2,6.2s1.9-12,1.7-17.6c.3,3.7.6,7.4.8,11.2s1.7,14.3,2,12.4c1.1-6.9.2-14.7-.3-22.1s-1.2-15.9-1.7-23.9c1.3,12.1,2.7,24.2,4,36.3C165.7,332.1,164,295.4,162.1,278.6Zm-47-117.3a14.3,14.3,0,0,1,4.6-.3c3,.4,5.8,3.5,8.2,6.5C124,163.8,119.6,161.4,115.1,161.3ZM151.6,208a33.9,33.9,0,0,0-3.3-6.6l-.7-1.1a18.6,18.6,0,0,0-1-2.5c-1-2.5-2.3-5-3.5-7.4s-2.5-6.9-4.1-10.2a79.8,79.8,0,0,0-6.8-11.4,29.9,29.9,0,0,1,4.3,5.9c1.2,2.1,2.1,4.6,3.5,6.6s2.7,3.4,4,5.1c4.7,6.4,7,15.5,8.5,24.3Z"/><path class="c" d="M162.3,280c-1.8-15.9-3.4-31.9-5.4-47.7-1.7-12.7-4.1-26.1-9.3-35.8-1.3-2.6-2.9-4.6-4.3-7a70.6,70.6,0,0,1-3.8-8.8,40.8,40.8,0,0,0-9-13.3c-7.9-8.1-26.3-7.1-26-6.1h0a51.9,51.9,0,0,0-11,2,24.2,24.2,0,0,0-9.4,4.6c-5,4.2-9.5,13.8-7.7,25.6.1.8,4.4,96.1,5.1,95.5-.7,3.1-5.7-90.6-6.1-87.3-.7,6-.1,13.7-.6,19.8s-.9,15.1-.9,22.7a202.7,202.7,0,0,0,1.6,23.3c.9,8,1.7,16,2.2,24,1.1,18.1,3.4,55.9,3.4,53.8,0-15.4,2.8-29.1,2.1-44.6-.3-7.6-3.6-16.9-4.4-24.4s-1.8-15.1-2.3-22.7a198.2,198.2,0,0,1,0-21.8c.4-6.7.8-13.4,1.4-20,.9-11.6,2.6-23.6,7.3-31.1s18.5-16,18.7-17.1-11.5,5.1-17.2,11c-3.8,3.8-6.4,9.8-8.1,16.9-1.4-10.5,6.9-16.5,11.6-20,2.6-2,1-5.5,3.9-6.2a54.3,54.3,0,0,1,9.8-1.7,1.5,1.5,0,0,0,1.4-1.2.8.8,0,0,0,.1-.4h.5c2.8-1.4,5.4-3.5,8.4-2.8-10.1-1-12.5.2-8.5,3.2.4.3,4.3,4.3,5.7,4.5s1.3.2,1.4.2a14.4,14.4,0,0,1,5.2,2.4c3.5,2.6,6.5,6.8,9.6,11.1a133.5,133.5,0,0,1,15,26v.2a51.1,51.1,0,0,0,3.1,8.6l.5,1c.5,1.3.9,2.6,1.3,4,.8,3.2,1.4,6.5,2,9.9,1.1,6.9,2.1,13.9,3.1,20.8,2.1,14,3.9,28.2,4.7,42.5s.5,30.2-1.7,44.2c-.3,2,3-5.7,3.3-8.6l.3,6.2c0,1.8,1.8-11.9,1.6-17.5.3,3.7.6,7.4.8,11.1s1.7,14.4,2,12.5c1.2-7,.2-14.8-.3-22.1s-1.2-16-1.7-24c1.3,12.1,2.7,24.2,4.1,36.3C166,333.5,164.2,296.8,162.3,280Zm-47-117.4a17.8,17.8,0,0,1,4.6-.2c3,.4,5.8,3.5,8.2,6.5C124.2,165.2,119.8,162.8,115.3,162.6Zm36.5,46.8a37.9,37.9,0,0,0-3.3-6.7,4.1,4.1,0,0,1-.7-1.1,24.4,24.4,0,0,0-1-2.4,62.7,62.7,0,0,0-3.5-7.4,83.5,83.5,0,0,0-4.1-10.2,70.1,70.1,0,0,0-6.8-11.4,32.3,32.3,0,0,1,4.3,5.8c1.2,2.2,2.1,4.7,3.5,6.7s2.7,3.3,4,5.1c4.7,6.4,7.1,15.4,8.5,24.3Z"/><path class="a" d="M160.6,273.9c-1.8-15.8-3.4-31.8-5.4-47.6-1.7-12.7-4.1-26.2-9.3-35.9-1.4-2.5-3-4.5-4.4-7a53.1,53.1,0,0,1-3.8-8.7c-2.1-6.8-5.6-10-8.9-13.3-7.9-8.1-26.3-7.1-26.1-6.1h0a58.1,58.1,0,0,0-10.9,2,24.2,24.2,0,0,0-9.4,4.6c-5,4.2-9.5,13.8-7.7,25.6.1.8,4.4,96.2,5,95.6-.7,3.1-5.6-90.7-6-87.3-.8,5.9-.2,13.6-.6,19.8s-1,15-1,22.7a224.1,224.1,0,0,0,1.6,23.2c1,8,1.7,16,2.2,24.1,1.1,18.1,3.4,55.8,3.4,53.7.1-15.4,2.9-29.1,2.2-44.5-.4-7.6-3.7-16.9-4.4-24.5s-1.8-15-2.3-22.6a198.1,198.1,0,0,1,0-21.8c.3-6.8.8-13.5,1.3-20.1,1-11.5,2.7-23.5,7.4-31s18.5-16,18.6-17.1-11.4,5-17.1,10.9c-3.8,3.9-6.4,9.9-8.2,16.9-1.4-10.5,7-16.5,11.6-20,2.7-1.9,1.1-5.4,3.9-6.2a47.7,47.7,0,0,1,9.8-1.6,1.6,1.6,0,0,0,1.5-1.3v-.3l.5-.2s-2.1-.1,0,.5c.4.1,4.3,4.3,5.7,4.4s1.2.3,1.4.3a13.9,13.9,0,0,1,5.1,2.4c3.5,2.5,6.6,6.7,9.6,11,5.5,7.7,10.8,15.9,15,26v.2a52.3,52.3,0,0,0,3.1,8.7,9.3,9.3,0,0,1,.5,1l1.2,3.9a98.2,98.2,0,0,1,2,10c1.1,6.9,2.2,13.8,3.2,20.7,2,14.1,3.8,28.3,4.6,42.5s.6,30.2-1.6,44.2c-.3,2.1,3-5.6,3.3-8.5,0,2.1.1,4.1.2,6.2s1.9-12,1.7-17.6c.3,3.7.6,7.4.8,11.2s1.6,14.3,1.9,12.4c1.2-6.9.3-14.7-.2-22.1l-1.8-23.9c1.4,12.1,2.8,24.2,4.1,36.3C164.2,327.4,162.5,290.7,160.6,273.9Zm-12.2-68.4a33.9,33.9,0,0,0-3.3-6.6l-.7-1.1-.9-2.5c-1.1-2.5-2.3-5-3.6-7.4a90.5,90.5,0,0,0-4.1-10.2,79.8,79.8,0,0,0-6.8-11.4,45.7,45.7,0,0,1,4.3,5.9c1.4,1.9,2.2,4.6,3.5,6.6s2.7,3.4,4,5.1c4.8,6.4,7.1,15.5,8.6,24.3C149.1,207.3,148.8,206.4,148.4,205.5Z"/><path class="c" d="M160.5,276.5c-1.8-15.9-3.4-31.9-5.4-47.7-1.7-12.7-4.1-26.1-9.3-35.8-1.4-2.6-2.9-4.6-4.4-7a70.4,70.4,0,0,1-3.7-8.8,39.8,39.8,0,0,0-9-13.3c-7.7-7.5-25-4.2-26.1-6.1h.1a51.7,51.7,0,0,0-11,1.9,24.5,24.5,0,0,0-9.4,4.7c-5,4.2-9.5,13.8-7.7,25.5.1.9-.6,4.9-1,8.3-.8,6-.2,13.6-.6,19.8s-.9,15-.9,22.7a182.4,182.4,0,0,0,1.6,23.3c.9,8,1.6,15.9,2.1,24,1.1,18.1,3.4,55.8,3.5,53.7,0-15.3,2.8-29,2.1-44.5-.3-7.6-3.7-16.9-4.4-24.5s-1.8-15-2.3-22.6a198.2,198.2,0,0,1,0-21.8c.4-6.7.8-13.4,1.3-20.1,1-11.5,2.7-23.5,7.4-31s16.8-16.6,18.6-17.1.3-2.1.5-3,5.8,6,7.2,6.1,1.2.3,1.4.3a15.2,15.2,0,0,1,5.2,2.4c3.4,2.5,6.5,6.8,9.5,11a134.6,134.6,0,0,1,15.1,26v.2a49.2,49.2,0,0,0,3.1,8.7l.5,1,1.2,3.9c.8,3.3,1.5,6.6,2,10,1.2,6.9,2.2,13.8,3.2,20.8,2,14,3.8,28.2,4.6,42.5s.6,30.2-1.6,44.2c-.3,2,3-5.7,3.3-8.6.1,2.1.1,4.1.2,6.2s1.9-11.9,1.7-17.6c.3,3.7.6,7.5.8,11.2s1.6,14.3,2,12.5c1.1-7,.2-14.8-.3-22.1l-1.8-24c1.4,12.1,2.8,24.2,4.1,36.3C164.1,330,162.4,293.3,160.5,276.5Zm-47-117.4a23.2,23.2,0,0,1,4.6-.3c3,.4,9.7,8.1,12.1,11.1C126.3,166.2,118,159.2,113.5,159.1ZM150,205.8a50.8,50.8,0,0,0-3.3-6.6l-.8-1.1a11.7,11.7,0,0,0-.9-2.4c-1.1-2.6-2.3-5.1-3.5-7.4s-2.5-7-4.1-10.3-7-9-9.6-12.5c1.6,1.7,5.8,4.8,7.1,7s2.1,4.6,3.4,6.6,2.8,3.4,4.1,5.2c4.7,6.4,7,15.4,8.5,24.3Z"/><path class="c" d="M164.8,284.6c-1.8-15.9-3.4-31.8-5.6-47.6-1.7-12.7-4.2-26.2-9.7-35.8-1.4-2.6-3.1-4.6-4.6-7s-2.7-5.8-4.1-8.8a39.7,39.7,0,0,0-9.5-13.2c-8.4-8.1-28.1-7-27.9-6l-.5-.4c-4,.3-7.4,1.4-11.2,2.5A25.8,25.8,0,0,0,81.6,173c-5.4,4.2-10.3,13.8-8.4,25.6.1.8,4.2,96.2,4.9,95.6-.8,3.1-5.6-90.7-6-87.3-.9,6-.3,13.6-.7,19.8s-1.2,15-1.2,22.7a202.7,202.7,0,0,0,1.6,23.3c.9,8,1.7,16,2.2,24,1.1,18.1,3.4,55.9,3.4,53.7.1-15.3,3.2-29.1,2.5-44.5-.3-7.6-3.8-16.9-4.6-24.5s-1.8-15-2.3-22.6a176.1,176.1,0,0,1,.1-21.8c.4-6.7.9-13.5,1.5-20.1,1.1-11.5,3-23.5,8.1-31.1s19.9-16.1,20.1-17.2-12.3,5.2-18.5,11.1c-4,3.9-6.9,9.9-8.8,16.9-1.4-10.5,7.6-16.6,12.6-20.1,2.8-1.9,1.1-5.4,4.2-6.2a60.5,60.5,0,0,1,10.5-1.7,1.6,1.6,0,0,0,1.5-1.3.4.4,0,0,0,.1-.3l.5-.2c3.1-1.3,5.9-3.5,9.1-2.8-10.8-.9-13.3-4.4-9.1,3.3.2.5,4.6,4.3,6,4.4s1.4.3,1.6.3a13.2,13.2,0,0,1,5.5,2.4c3.7,2.5,7,6.7,10.2,10.9,5.8,7.7,11.4,15.9,15.9,26,.1,0,.1.1.1.2a43.9,43.9,0,0,0,3.3,8.6,4.7,4.7,0,0,0,.5,1c.5,1.3.9,2.6,1.3,3.9.8,3.3,1.5,6.6,2.1,10,1.2,6.9,2.2,13.8,3.3,20.8,2.1,14,3.9,28.2,4.7,42.5s.5,30.2-2,44.2c-.3,2,3.3-5.7,3.6-8.6.1,2.1.1,4.1.2,6.2s2.1-12,1.9-17.6c.3,3.7.6,7.4.8,11.2s1.7,14.3,2,12.4c1.3-6.9.4-14.7-.1-22.1L164,300.1l4.2,36.2C168.4,338.1,166.7,301.4,164.8,284.6ZM115,167.5a16.4,16.4,0,0,1,4.9-.3c3.3.4,6.3,3.5,8.8,6.5C124.5,170,119.9,167.6,115,167.5ZM153.9,214a34.5,34.5,0,0,0-3.5-6.6l-.8-1.1a24.4,24.4,0,0,0-1-2.4c-1.1-2.6-2.4-5-3.7-7.4a84.7,84.7,0,0,0-4.4-10.2,73.4,73.4,0,0,0-7.2-11.4,27.4,27.4,0,0,1,4.6,5.9c1.3,2.1,2.3,4.6,3.7,6.6s2.9,3.3,4.3,5.1c5,6.4,7.5,15.4,9,24.2C154.6,215.8,154.3,214.9,153.9,214Z"/><path class="c" d="M162.6,282c-2.1-18.5-3.9-37.2-6.2-55.6-1.9-14.8-4.6-30.5-10.3-41.8-1.5-3-3.2-5.4-4.7-8.2s-2.8-6.8-4.2-10.2a48.6,48.6,0,0,0-9.8-15.6c-8.6-9.5-28.5-8.4-28.3-7.3l-.6-.4c-4,.2-7.4,1.6-11.3,2.7A24.9,24.9,0,0,0,77.1,151c-5.4,4.9-10.2,16-8.3,29.8.2.9,5.4,112,6.1,111.4-.7,3.5-6.6-105.7-7.1-101.8-.8,6.9-.1,15.9-.5,23-.5,8.8-.9,17.6-.9,26.5s.9,18,1.9,27.1,1.9,18.6,2.5,28c1.3,21.2,4,65.1,4,62.7,0-17.9,2.9-33.9,2.1-51.9-.4-8.9-4.1-19.7-4.9-28.5s-2.1-17.6-2.7-26.5-.4-17-.1-25.4.8-15.6,1.3-23.3c1-13.5,2.8-27.4,7.9-36.1s19.9-18.6,20.1-19.8S86.1,152,79.9,158.8c-4.1,4.5-6.8,11.4-8.7,19.6-1.6-12.2,7.5-19.2,12.5-23.2,2.8-2.3,1.1-6.3,4.1-7.2a48.9,48.9,0,0,1,10.7-1.8,1.9,1.9,0,0,0,1.5-1.5.8.8,0,0,0,.1-.4l.5-.2c3.1-1.6,5.9-4,9.2-3.2-11-1.2-13.5-5.3-9.2,3.8.3.5,4.7,5,6.2,5.1s1.3.4,1.5.3a15.8,15.8,0,0,1,5.6,2.9c3.8,3,7.2,7.9,10.5,12.9,5.9,9,11.7,18.6,16.4,30.4v.2a54.4,54.4,0,0,0,3.4,10.1,6.1,6.1,0,0,1,.5,1.2c.5,1.5,1,3,1.4,4.6.9,3.8,1.6,7.6,2.2,11.6,1.3,8.1,2.4,16.2,3.6,24.2,2.3,16.4,4.3,33,5.3,49.6s.8,35.2-1.5,51.5c-.4,2.4,3.2-6.6,3.5-9.9l.3,7.2c.1,2.1,1.9-14,1.7-20.5l.9,13c.3,4.8,1.9,16.7,2.2,14.6,1.2-8.1.2-17.3-.4-25.8L161.9,300c1.6,14.1,3.1,28.2,4.7,42.3C166.8,344.3,164.7,301.6,162.6,282ZM110.9,144.9a13.5,13.5,0,0,1,4.9-.2c3.3.4,6.4,4.1,9,7.6C120.5,148,115.8,145.1,110.9,144.9Zm39.8,54.7a42,42,0,0,0-3.6-7.7l-.8-1.3c-.3-1-.6-1.9-1-2.9-1.2-3-2.5-5.8-3.9-8.6s-2.8-8.1-4.5-12a89.8,89.8,0,0,0-7.5-13.3,32.5,32.5,0,0,1,4.8,6.9c1.3,2.5,2.3,5.4,3.8,7.7a66.1,66.1,0,0,0,4.4,6c5.1,7.5,7.7,18,9.4,28.4C151.4,201.7,151.1,200.6,150.7,199.6Z"/><path class="b" d="M109.5,161.8c-.2-.6-10.7,1.5-14.9,5.4-2.6,3-6.7,7.9-9.2,13.3l2.5.4a90.1,90.1,0,0,0-7.2,18.6c-2.1,7.6-2.1,15.8-1.9,24.5l.3,8.1c-.4,19.3.7,37.8,1.2,40.7,4.2,24.2,3.6,15.3,3.7,18.9s-.2,15.9.2,20.2c.7,9.5,8.5-3.4,8.1-11.7-.3-6.5.2-13.7-1.3-20.1a112.7,112.7,0,0,1-2.8-20.4c-.4-7.3-.7-14.5-.9-21.8s-.7-14.2-.5-21.2,2.1-13,4.3-18.4,4.3-9.9,7.2-13.2C113.9,167.6,109.5,161.8,109.5,161.8Z"/><path class="a" d="M74.3,182.4c-2.6,3.5-4.9,11.8-5.5,18a164.2,164.2,0,0,0-.1,22.2c.3,8,.8,15.9,1.3,23.9,1,16.2,2,32.5,3.4,48.7,1.5,18,7.8,54.8,7.5,52.6-3.5-30.9-6.1-61.9-8-93-.5-7.7-.9-15.3-1.4-23s.2-16.8.7-24.1c1.4-17.9,5.5-19.8,8.9-29.1,2.2-6.1,6.6-7.2,10.4-9.5s12.8-7.7,12.1-8.2C101.3,159.1,91.3,159.8,74.3,182.4Z"/><path class="a" d="M102.5,168.3c5.3-8.9-30.3,23.7-32.9,84.4-1.7,39.3,2.9,79.8,2.5,86.9-2.5,41.1,4.3,99.4,4.5,95.3C78.9,381.4,51.8,253.5,102.5,168.3Z"/><path class="b" d="M104,161.7c-.3-.9-15.1,2.1-20.9,8-3.8,4.4-9.5,11.8-13,19.9,0,0,3.7.5,3.6.6A142.9,142.9,0,0,0,63.6,218c-2.8,11.4-2.7,23.7-2.3,36.8l.3,12.2c-.4,28.9,1.3,56.7,2.1,61,6.1,36.2,3.1,94.1,3.7,90.3,2.4-15.4.9-43.2-.1-75.4A66.3,66.3,0,0,1,69,356.4c.3,6.4-.2,23.8.3,30.3,1.2,14.2,17.3,58.8,13.4,45.5-3.2-10.9-1.3-50.6-1.9-63.1-.5-9.8,0-20.5-2-30.1a177.7,177.7,0,0,1-4.2-30.6c-.6-10.9-1-21.8-1.4-32.6s-1-21.5-.8-31.9,2.9-19.5,6-27.6,5.9-14.8,10-19.8C110.2,170.5,104,161.7,104,161.7Z"/><path class="b" d="M101.4,161.8c-.4-.8-15.2,2.2-21,8.1-3.7,4.4-9.5,11.8-12.9,19.9l3.6.6A131,131,0,0,0,61,218.2c-2.8,11.4-2.8,23.7-2.4,36.8l.3,12.2c-.4,28.9,1.3,56.6,2.1,61,6.1,36.2,3.1,94.1,3.7,90.3,2.4-15.4.9-43.2,0-75.4a74.6,74.6,0,0,1,1.6,13.5c.3,6.4-.1,23.8.4,30.3,1.1,14.2,17.2,58.8,13.3,45.5-3.2-10.9-1.3-50.6-1.9-63.1-.5-9.8.1-20.5-2-30.1a188,188,0,0,1-4.2-30.6c-.5-10.9-1-21.8-1.3-32.6s-1.1-21.5-.9-31.9,2.9-19.5,6-27.6,5.9-14.8,10.1-19.8C107.5,170.7,101.4,161.8,101.4,161.8Z"/><path class="c" d="M185.8,346.4c-2.7-23.9-5-47.8-8-71.6-2.4-19-5.9-39.2-13.3-53.8-1.9-3.8-4.2-6.9-6.2-10.5s-3.6-8.7-5.4-13.2a64.2,64.2,0,0,0-12.6-20c-11.3-12.2-37.1-10.8-36.8-9.3h0a74.4,74.4,0,0,0-15.4,2.8c-4.5,1.4-9.1,3.2-13.2,6.9-7,6.3-13.2,20.7-10.7,38.4.2,1.2,6.9,144.2,7.8,143.3-.9,4.7-8.5-136-9.1-131-1,9-.1,20.5-.6,29.7-.7,11.3-1.3,22.6-1.3,34.1a315,315,0,0,0,2.5,34.9c1.3,12,2.4,24,3.2,36,1.7,27.2,5.2,83.8,5.2,80.6,0-23,3.8-43.5,2.7-66.7-.6-11.4-5.3-25.4-6.4-36.7s-2.6-22.6-3.4-34a324.5,324.5,0,0,1-.1-32.7c.4-10.1,1-20.2,1.7-30.1,1.3-17.3,3.6-35.2,10.2-46.5s25.9-23.8,26.1-25.5-16.1,7.5-24.1,16.3c-5.3,5.8-8.9,14.7-11.3,25.3-2-15.8,9.7-24.8,16.2-29.9,3.7-3,1.4-8.2,5.4-9.3a66.6,66.6,0,0,1,13.8-2.4,2.3,2.3,0,0,0,2-1.9,1.1,1.1,0,0,0,.1-.5l.7-.2c4-2.1,7.6-5.2,11.9-4.2-14.3-1.5-17.5-6.7-11.9,4.9.3.7,6.1,6.4,8,6.6.3.6,1.7.5,2,.4a19.8,19.8,0,0,1,7.2,3.7c5,3.8,9.3,10.2,13.6,16.6,7.7,11.6,15.3,23.9,21.3,39.1a.4.4,0,0,1,.1.3,76.2,76.2,0,0,0,4.4,13l.7,1.5,1.8,5.9c1.1,4.9,2.1,9.8,2.9,15,1.6,10.3,3.1,20.7,4.6,31.1,2.9,21.1,5.6,42.4,6.8,63.8s1,45.3-2,66.3c-.4,3.1,4.1-8.5,4.5-12.8.2,3.1.3,6.2.4,9.3s2.6-17.9,2.3-26.4l1.2,16.8c.3,6.2,2.4,21.5,2.8,18.7,1.6-10.4.3-22.1-.5-33.1l-2.7-36,6,54.5C191.2,426.6,188.5,371.6,185.8,346.4ZM117.2,148.1a27.6,27.6,0,0,1,6.4-.4c4.2.3,8.1,3.3,11.4,6.3A32.4,32.4,0,0,0,117.2,148.1ZM167,193.8a29.7,29.7,0,0,0-4.4-6.5l-1-1.1c-.4-.8-.8-1.7-1.2-2.4a72,72,0,0,0-4.8-7.4,81.8,81.8,0,0,0-5.4-10.1,66.7,66.7,0,0,0-9.3-11.2,27,27,0,0,1,5.9,5.8c1.6,2.1,2.9,4.5,4.7,6.5s3.8,3.3,5.5,5c6.5,6.3,9.5,15.3,11.3,24.1C167.9,195.6,167.5,194.7,167,193.8Z"/><path class="c" d="M186.6,355.1c-2.7-24.5-5.1-49.1-8.1-73.5-2.5-19.6-6-40.3-13.4-55.3-2-3.9-4.2-7-6.2-10.8s-3.7-8.9-5.5-13.5a65.4,65.4,0,0,0-12.7-20.6c-11.2-12.5-37.1-11.1-36.8-9.6h.1a69.4,69.4,0,0,0-15.5,2.9c-4.5,1.4-9,3.2-13.1,7-7,6.5-13.2,21.2-10.6,39.3.1,1.3,7.1,148.2,8,147.3-.9,4.7-8.8-139.7-9.3-134.6-1,9.2-.1,21-.6,30.5-.7,11.6-1.3,23.2-1.2,35a358.8,358.8,0,0,0,2.5,35.8c1.4,12.3,2.5,24.6,3.3,37,1.7,28,5.3,86.1,5.3,82.8,0-23.6,3.8-44.7,2.6-68.5-.5-11.7-5.3-26.1-6.4-37.7s-2.7-23.2-3.5-34.9a314,314,0,0,1-.1-33.6c.4-10.4.9-20.7,1.6-30.9,1.3-17.7,3.5-36.2,10.1-47.7s25.9-24.4,26-26.1-16,7.7-24,16.6c-5.3,6-8.9,15.2-11.3,26-2-16.2,9.7-25.4,16.2-30.7,3.6-3,1.4-8.4,5.4-9.5a64.5,64.5,0,0,1,13.7-2.4,2.6,2.6,0,0,0,2.1-2V173l.7-.2c4.1-2.1,7.7-5.4,11.9-4.3-14.2-1.5-17.6.2-11.9,5,.5.4,6.1,6.6,8,6.9.3.6,1.8.4,2,.3a22.3,22.3,0,0,1,7.3,3.8c4.9,4,9.3,10.5,13.6,17.1,7.8,11.9,15.3,24.6,21.4,40.2v.3a84.2,84.2,0,0,0,4.4,13.4,10.1,10.1,0,0,1,.7,1.5l1.8,6.1c1.1,5,2.1,10.1,2.9,15.4,1.7,10.6,3.2,21.3,4.7,32,3,21.6,5.7,43.5,6.9,65.5s1.1,46.5-1.8,68c-.5,3.2,4.1-8.7,4.5-13.1.1,3.2.2,6.3.4,9.5s2.5-18.4,2.2-27l1.2,17.2c.4,6.3,2.5,22.1,2.9,19.2,1.6-10.7.2-22.8-.6-34.1l-2.7-36.9c2,18.7,4.1,37.3,6.1,56C192.2,437.5,189.4,380.9,186.6,355.1ZM117.5,150.6a35.5,35.5,0,0,1,6.5-.4c4.2.3,8,3.5,11.3,6.5C129.9,153,123.9,150.6,117.5,150.6Zm50,47.1A28.1,28.1,0,0,0,163,191l-1-1.2a13.4,13.4,0,0,0-1.2-2.4,74.8,74.8,0,0,0-4.8-7.6,80,80,0,0,0-5.5-10.4,78.6,78.6,0,0,0-9.2-11.5,30,30,0,0,1,5.9,5.9c1.6,2.2,2.9,4.7,4.7,6.8s3.8,3.3,5.6,5.1c6.4,6.5,9.4,15.7,11.2,24.8A13.9,13.9,0,0,0,167.5,197.7Z"/><path class="b" d="M168.8,279.8c-1.2-5.3-2.4-10.5-3.7-15.6s-2.1-10.9-3.4-16.2-2.8-9.9-4.3-14.4c0-.2-.1-.4-.1-.6-2.2-8.2-4.1-17.2-6.6-24.6-3.8-11.2-4.6-11.3-7-16.6a73.7,73.7,0,0,0-11.7-18c-13.5-15.9-21.8-.9-19-.8,4.3.2,24.3,42.8,30.5,58,6.9,16.8,12.8,36.6,17.7,58.5s6.2,50.1,7.9,74.1c1.9,25.7,3.1,51,2.5,76-.4,16.7,8.3-50.3,6.2-79.2C175.8,333.6,174.2,304.7,168.8,279.8ZM139.2,165.4c2.1,3.2,3.1,8,6.3,8.7l-1.1-1.7-1.4-2c-2.5-4.4-4.4-10.9-8-12.8C136.9,158.3,137.6,163.1,139.2,165.4Z"/><path class="c" d="M181.6,359.1c-2.7-24.4-5.1-49-8.2-73.4-2.4-19.6-5.9-40.3-13.3-55.3-2-3.9-4.2-7.1-6.2-10.8s-3.7-9-5.5-13.5a65.4,65.4,0,0,0-12.7-20.6c-11.2-12.5-37.1-11.2-36.8-9.7v.2a64.2,64.2,0,0,0-15.5,2.9,31.1,31.1,0,0,0-13.1,7c-7,6.4-13.2,21.2-10.6,39.3.1,1.3,7.1,148.1,8,147.2-.9,4.8-8.8-139.6-9.3-134.5-1,9.2-.1,21-.6,30.5-.7,11.6-1.3,23.2-1.2,35a358.8,358.8,0,0,0,2.5,35.8c1.4,12.3,2.5,24.6,3.3,37,1.7,27.9,5.3,86.1,5.3,82.8,0-23.7,3.8-44.7,2.6-68.6-.5-11.6-5.3-26-6.4-37.6s-2.7-23.3-3.5-35-.6-22.5-.2-33.5,1-20.7,1.7-30.9c1.3-17.8,3.5-36.2,10.1-47.7s25.8-24.5,26-26.2-16,7.7-24,16.7c-5.3,5.9-8.9,15.1-11.3,26-2-16.2,9.7-25.4,16.2-30.7,3.6-3,1.4-8.4,5.4-9.6a71.5,71.5,0,0,1,13.7-2.4,2.4,2.4,0,0,0,2.1-1.9v-.5l.7-.3c4.1-2,7.7-5.3,11.9-4.2-14.2-1.5-17.5-6.9-11.9,5,.4.7,6.1,6.6,8,6.8.3.6,1.8.5,2,.4a20.5,20.5,0,0,1,7.3,3.8c4.9,3.9,9.3,10.5,13.6,17.1,7.8,11.9,15.3,24.5,21.4,40.2v.3a79.8,79.8,0,0,0,4.4,13.3c.2.6.5,1.1.7,1.6l1.8,6.1c1.1,4.9,2.1,10.1,2.9,15.3,1.7,10.7,3.2,21.4,4.7,32,3,21.7,5.7,43.5,6.9,65.5s5.6,46.1,5.3,37.4l1.2,17.2c.4,6.4,2.5,22.1,2.9,19.3,1.6-10.7.2-22.8-.6-34.1l-2.7-36.9c2,18.7,4.1,37.3,6.1,55.9C187.2,441.6,184.4,385,181.6,359.1ZM112.4,153.5a28.8,28.8,0,0,1,6.5-.4c4.2.3,8.1,3.4,11.3,6.5C124.8,155.9,118.8,153.5,112.4,153.5Zm50,47a32.8,32.8,0,0,0-4.5-6.7l-.9-1.1a19.6,19.6,0,0,0-1.3-2.5,72.5,72.5,0,0,0-4.7-7.5,93.5,93.5,0,0,0-5.5-10.4,69.8,69.8,0,0,0-9.3-11.5,27.5,27.5,0,0,1,5.9,5.9c1.6,2.2,2.9,4.7,4.7,6.7s3.8,3.4,5.6,5.2c6.4,6.4,9.4,15.6,11.3,24.7C163.3,202.4,162.9,201.4,162.4,200.5Z"/><path class="a" d="M183.6,339.3c-2.6-23.8-5-47.8-8-71.5-2.4-19.1-5.9-39.2-13.3-53.8-1.9-3.8-4.1-6.9-6.2-10.6a67.6,67.6,0,0,1-5.3-13.1c-3.2-10.2-8-15-12.7-20.1-11.2-12.1-37.1-10.7-36.8-9.3h.1a75.6,75.6,0,0,0-15.5,2.9c-4.5,1.4-9,3.2-13.1,6.9-7.1,6.3-13.3,20.6-10.7,38.3.1,1.2,6.8,144.3,7.7,143.4-.9,4.6-8.5-136.1-9.1-131-1,8.9-.1,20.4-.6,29.7-.7,11.2-1.3,22.5-1.2,34a311.5,311.5,0,0,0,2.4,34.9c1.3,12,2.4,24,3.2,36.1,1.7,27.2,5.2,83.8,5.2,80.6,0-23,3.8-43.6,2.7-66.8-.5-11.4-5.3-25.3-6.4-36.7s-2.6-22.6-3.4-34a324.4,324.4,0,0,1-.1-32.7c.5-10.1,1-20.1,1.7-30.1,1.3-17.3,3.6-35.2,10.2-46.4s25.9-23.9,26.1-25.5-16.1,7.5-24.1,16.2c-5.2,5.8-8.9,14.8-11.3,25.3-2-15.7,9.7-24.7,16.2-29.9,3.7-2.9,1.5-8.2,5.4-9.3a66.3,66.3,0,0,1,13.8-2.3,2.8,2.8,0,0,0,2.1-2v-.5l.7-.2s-3-.2,0,.7c.5.2,6.1,6.5,8,6.7.3.6,1.7.4,2,.4a20.7,20.7,0,0,1,7.3,3.6c4.9,3.9,9.2,10.2,13.5,16.6,7.8,11.6,15.3,23.9,21.3,39.1a.6.6,0,0,1,.1.4,88.6,88.6,0,0,0,4.4,12.9l.7,1.6,1.8,5.9c1.1,4.8,2.1,9.8,2.9,15,1.6,10.3,3.1,20.7,4.6,31.1,2.9,21.1,5.6,42.4,6.8,63.8s1,45.3-2,66.3c-.4,3.1,4.2-8.5,4.6-12.8l.3,9.3c.2,2.6,2.6-18,2.3-26.4l1.2,16.7c.4,6.2,2.4,21.6,2.8,18.8,1.6-10.4.3-22.2-.5-33.2s-1.8-23.9-2.6-35.9l6,54.4C189.1,419.6,186.4,364.5,183.6,339.3ZM162.7,191.4a26.9,26.9,0,0,0-4.5-6.5l-.9-1.1a19.6,19.6,0,0,0-1.3-2.5,82.1,82.1,0,0,0-4.7-7.3,89.2,89.2,0,0,0-5.5-10.1,71.3,71.3,0,0,0-9.2-11.2c2.2,1.6,3.1,3,5.9,5.7s2.8,4.6,4.6,6.6,3.8,3.3,5.6,5c6.4,6.3,9.4,15.2,11.2,24.1Z"/><path class="c" d="M181.6,355.4c-2.6-24.4-5-49.1-8.1-73.4-2.4-19.6-5.9-40.3-13.4-55.3-1.9-3.9-4.2-7.1-6.2-10.8s-3.6-9-5.4-13.5a67.1,67.1,0,0,0-12.7-20.7c-11.3-12.5-37.1-11.1-36.8-9.6h0a74.7,74.7,0,0,0-15.4,2.9,32.5,32.5,0,0,0-13.1,7.1c-7.1,6.4-13.3,21.2-10.7,39.3.2,1.2,7.2,148.1,8.1,147.2-1,4.8-9.4-146.6-10-141.4-1,9.2-1.6,26.3,0,37.4s-1.2,23.1-1.1,34.9a307.8,307.8,0,0,0,2.5,35.9c1.3,12.3,2.5,24.6,3.3,37,1.7,27.9,5.3,86.1,5.3,82.8-.1-23.7,3.7-44.8,2.6-68.6-.6-11.7-5.3-26-6.4-37.7s-2.8-23.2-3.5-34.9a312.4,312.4,0,0,1-.2-33.5c.4-10.4.9-20.7,1.7-30.9,1.2-17.8,3.5-36.2,10-47.7S98,177.5,98.2,175.8s-16.1,7.7-24.1,16.7c-5.2,5.9-8.8,15.1-11.3,25.9-2-16.1,9.7-25.3,16.2-30.6,3.7-3,1.4-8.4,5.4-9.6a73.9,73.9,0,0,1,13.8-2.4,2.3,2.3,0,0,0,2-1.9,1.3,1.3,0,0,0,.1-.6l.7-.2c4-2,7.3-6.5,11.6-5.4-14.3-1.6-12.7.6-9.8,4.3.5.6,4.3,8.5,6.2,8.7.3.6,1.7.5,2,.4a19.7,19.7,0,0,1,7.3,3.8c4.9,3.9,9.3,10.5,13.6,17.1,7.7,11.9,15.3,24.5,21.4,40.2a.4.4,0,0,0,.1.3,79.8,79.8,0,0,0,4.4,13.3c.2.6.5,1.1.7,1.6l1.8,6c1.1,5,2.1,10.1,2.9,15.4,1.6,10.7,3.1,21.3,4.6,32,3,21.7,5.7,43.5,7,65.5s2.3,59.4,2.6,54.9c.2,3.2.3,6.4.5,9.6s2.4-18.4,2.1-27.1c.5,5.7.9,11.5,1.3,17.2s2.4,22.1,2.8,19.2c1.6-10.6.3-22.7-.6-34s-1.7-24.6-2.6-36.9c2,18.6,4,37.3,6.1,55.9C187.3,437.8,184.4,381.3,181.6,355.4ZM112.6,151a27.6,27.6,0,0,1,6.4-.4c4.3.3,8.1,3.5,11.4,6.5C125,153.4,118.9,151,112.6,151Zm50,47.1a40.1,40.1,0,0,0-4.5-6.8,5.2,5.2,0,0,1-1-1.1l-1.2-2.5q-2.2-3.9-4.8-7.5a68.9,68.9,0,0,0-5.5-10.4,73.7,73.7,0,0,0-9.2-11.5,30,30,0,0,1,5.9,5.9c1.6,2.2,2.8,4.7,4.7,6.7s3.7,3.4,5.5,5.2c6.5,6.4,9.5,15.6,11.3,24.7Z"/><path class="c" d="M185.2,370.3c-2.9-27.2-5.5-54.5-8.7-81.6-2.6-21.8-6.2-44.7-13.7-61.4-2-4.4-4.2-7.9-6.2-12.1s-3.7-10-5.5-15.1a75.3,75.3,0,0,0-12.7-22.9c-10.9-13-34.9-7.7-36.4-11.1-.1,0,0,.1,0,.2a62,62,0,0,0-15.2,3c-4.5,1.6-8.9,3.6-12.9,7.7C67,184.1,61,200.4,63.7,220.6,63.9,222,72.2,385,73,384c-.9,5.3-9.9-155.1-10.4-149.4-.9,10.2.1,23.4-.3,33.9-.5,12.8-1,25.7-.9,38.7s1.4,26.5,2.8,39.9,2.7,27.3,3.6,41c2,31,6.1,95.6,6,91.9-.2-26.2,3.3-49.6,2-76-.7-13-5.5-28.9-6.7-41.9s-2.9-25.8-3.8-38.7-.8-25-.4-37.3.7-22.9,1.3-34.2c1.1-19.7,3.2-40.1,9.5-52.9,7.3-14.4,25.3-26.9,25.5-28.7s-16.5,4.1-24.3,14c-5.2,6.6-7.9,20.9-10.2,32.9-2.1-18,9.3-28,15.7-33.9,3.6-3.3,3.7-6.4,7.9-7.9s8.4-4.4,10.9-5.1.4-3.7.6-5.2,8.2,10.4,10.1,10.7c.3.6,1.7.5,2,.4a21.1,21.1,0,0,1,7.2,4.3c4.9,4.4,9.3,11.7,13.6,19,7.7,13.3,15.3,27.4,21.5,44.8,0,.2,0,.3.1.4a95.6,95.6,0,0,0,4.4,14.8l.8,1.8,1.8,6.7q1.6,8.3,3,17.1c1.7,11.8,2.4,27.1,3.9,38.9,3.2,24.1,9.6,44.9,8.4,69.4s1.5,51.6-1.2,75.5c-.4,3.5,3-10.8,3.3-15.7s.4-39.6.6-36.1,3.2,27.4,2.8,17.8c.5,6.4,1,12.8,1.4,19.1s2.6,24.6,3,21.4c1.5-11.9,0-25.2-.9-37.8l-3-41,6.6,62.1C191.5,461.8,188.2,399,185.2,370.3Zm-4.9-1.9c-2.9-27.2-6.8-53.7-10-80.8-2.6-21.8-6.3-44.7-13.7-61.4-2-4.4-4.3-7.9-6.3-12.1s-3.6-10-5.4-15.1a73.3,73.3,0,0,0-12.8-22.9c-10.8-13-34.8-7.7-36.4-11.1v.2a58.6,58.6,0,0,0-15.3,3.1c-4.4,1.5-8.9,3.5-12.9,7.6-6.8,7.1-12.8,23.4-10.1,43.6.2,1.4,8.4,164.4,9.3,163.4-.9,5.3-10-155.1-10.5-149.4-.9,10.3.1,23.4-.3,33.9-.5,12.8-1,25.7-.8,38.8S56.6,332.6,58,346s2.7,27.3,3.6,41c1.9,31.1,6,95.6,6,91.9-.3-26.2,3.3-49.6,1.9-76-.6-13-5.5-28.9-6.7-41.9s-2.9-25.8-3.7-38.7-.8-25-.5-37.3.8-22.9,1.4-34.2c1-19.7,3.1-40.1,9.5-52.9C76.7,183.5,94.8,171,95,169.2s-16.6,4.1-24.4,14c-5.1,6.6-7.8,20.9-10.1,32.9-2.2-18,9.3-28,15.6-33.9,3.6-3.3,3.7-6.4,8-7.9s8.4-4.4,10.9-5.1.3-3.7.6-5.2,8.2,10.4,10,10.7,1.8.5,2,.4a20.6,20.6,0,0,1,7.3,4.3c4.9,4.4,9.2,11.7,13.5,19.1,7.8,13.2,15.4,27.3,21.5,44.7,0,.2.1.3.1.4a103.7,103.7,0,0,0,4.5,14.8l.7,1.8,1.8,6.7c1.2,5.6,2.2,11.2,3,17.1,1.8,11.8,3.3,23.7,4.9,35.6,3.2,24,6,48.3,7.5,72.7s-2.5,35.7-2.3,39.2,6.4-21.3,5.4-34.9c2.2,20.7,7.2,40.3,9.4,61C185.2,460.7,183.3,397.1,180.3,368.4ZM115.5,147.1a27.6,27.6,0,0,1,6.4-.4c4.1.4,13.3,9,16.5,12.4C133.1,154.9,121.8,147.2,115.5,147.1Zm49.7,52.7a34.4,34.4,0,0,0-4.4-7.5l-1-1.3-1.2-2.8c-1.5-2.9-3.1-5.6-4.8-8.3a112.2,112.2,0,0,0-5.5-11.6c-2.7-4.7-9.6-10.3-13-14.1,2.2,1.8,7.9,5.2,9.6,7.8s2.9,5.3,4.7,7.5,3.7,3.8,5.5,5.8c6.5,7.2,9.5,17.5,11.4,27.6A28.8,28.8,0,0,0,165.2,199.8Z"/><path class="c" d="M192.2,361.4c-2.8-24.5-5.2-49.1-8.4-73.5-2.5-19.6-.1-45-8.1-60-2.1-3.9-13.2-42.7-18.3-48-12.1-12.4-54.3-2.9-54-1.4l-.8-.6c-5.7.4-10.5,2.1-16,3.7s-9.9,3.3-14.4,7.1c-7.7,6.5-14.6,21.3-11.8,39.5.1,1.2,6.8,148.1,7.8,147.2-1.1,4.8-7.1-139.2-9.3-134.5-4.5,9.5-3.2,21.2-.9,30.5,2.8,11.2-1.5,23.1-1.5,35A307.6,307.6,0,0,0,59,342.2c1.4,12.3,2.6,24.6,3.3,37,1.8,27.9,5.3,86.1,5.3,82.8.1-23.7,4.4-44.8,3.3-68.6-.5-11.7-5.6-26-6.8-37.7s-2.8-23.2-3.5-34.9a289.7,289.7,0,0,1,0-33.6c.5-10.3,1.2-20.7,2-30.9,1.5-17.7,4.1-36.2,11.3-47.7,8.2-13.1,28.4-24.7,28.6-26.4S84.9,190,76.2,199.1c-5.8,5.9-9.8,15.1-12.5,26-2.1-16.2,10.7-25.5,17.8-30.8,4-3,1.6-8.4,6-9.6a83.9,83.9,0,0,1,15-2.5,2.4,2.4,0,0,0,2.2-2,.9.9,0,0,0,.1-.5l.7-.2c4.5-2.1,8.4-5.4,13-4.3-15.5-1.5-19-6.9-13,5,.4.8,6.6,6.6,8.7,6.8.3.6,1.9.5,2.2.4a22,22,0,0,1,7.9,3.8c5.3,3.9,10.1,10.4,14.7,16.9,8.4,11.9,16.5,24.5,23,40.1a.4.4,0,0,1,.1.3,75.6,75.6,0,0,0,4.8,13.4l.7,1.5c.7,2,1.3,4,1.9,6.1,1.2,4.9,2.2,10.1,3.1,15.3,1.7,10.7,3.3,21.3,4.9,32,3.1,21.6,5.9,43.5,7.1,65.5s.9,46.5-2.5,68.1c-.5,3.2,4.6-8.7,5-13.2.2,3.2.3,6.4.4,9.6s2.9-18.5,2.6-27.1c.4,5.7.9,11.4,1.2,17.2s2.5,22.1,3,19.2c1.8-10.7.4-22.8-.4-34.1l-2.7-36.9,6.3,55.9C197.8,443.8,195.1,387.2,192.2,361.4Zm-74-206.3a33,33,0,0,1,7-.5c4.6.3,8.8,3.4,12.3,6.4C131.7,157.4,125.1,155,118.2,155.1Zm54.1,46.7a31.6,31.6,0,0,0-4.8-6.7l-1.1-1.1c-.4-.8-.8-1.7-1.3-2.5a77.1,77.1,0,0,0-5.2-7.5,83.5,83.5,0,0,0-5.9-10.4,72.3,72.3,0,0,0-10-11.4,27.6,27.6,0,0,1,6.4,5.9c1.8,2.1,3.1,4.6,5.1,6.7s4,3.3,6,5.1c7,6.4,10.2,15.6,12.1,24.7A23.9,23.9,0,0,0,172.3,201.8Z"/><path class="c" d="M81.1,204.7a223.2,223.2,0,0,0-8.6,46.9c-.7,9.4-1.4,18.8-.7,28.5s-.1,22.4.8,32.2c2.1,20.6,4.7,43.3,7.4,63.6,2.9,21.8.4,23.8,11.8,55.6,1,2.7-9.1-49.3-12.4-107.5-.5-9.7-2-19.3-2.9-28.9s-2-19.3-1.7-28.9,1-17.5,1.9-26,1.9-16.3,3.8-23.4c4.8-17.4,14.4-31.1,19.8-39.8C100.8,176.1,87.2,184.7,81.1,204.7Z"/><path class="a" d="M59.9,203.7c-3.7,5.3-6.8,18.1-7.5,27.5-.9,11.2-.6,22.8-.1,34.3s1.4,24.5,2.2,36.7c1.5,25.1,3.1,50.1,5.2,75.1,2.3,27.8,11.5,84.5,11.1,81.1Q63,387,58.6,315.1c-.8-11.8-1.5-23.6-2.2-35.4s.1-25.9.8-37.2c1.7-27.4,7.4-30.3,12.2-44.6,3-9.4,9.3-11.2,14.6-14.5s17.9-11.8,16.9-12.6C97.6,167.9,83.5,169,59.9,203.7Z"/><path class="a" d="M180.1,339.6c-1.6-19.7-3.1-39.5-6.7-58.8s-9.5-37.1-15.5-54.9c-2.6-7.5-5.5-14.8-10-20s-9.5-7.3-14.4-10a42.7,42.7,0,0,1-8.4-5.4c-2.5-2-5.5-7-7.9-9.5-4.6-4.9-21.5-9.8-21.4-8.4.6,8.1,14.7,7.3,18.7,11.5s8.8,10.6,13.6,13.5,9.7,4.7,14.3,8.5,8.3,10.8,11.1,18.4c6,16.8,11.8,34.3,15.5,52.4s2.7,25.6,7.3,58.1c3.1,22.1,7.3,135.6,7.9,111.9Z"/><path class="a" d="M193.4,339.5c2.9-21.6-3.8-44.9-11.3-62.6s-10.4-35.3-16.2-53c-2.5-7.5-5.3-14.9-9.6-20.1s-9.1-7.3-13.8-10c-2.7-1.5-14.3-16-16.6-18.5-4.4-4.9-22.3-5.5-21.5-4.8,4.2,3.6,12.5-.1,20,11.4a45.5,45.5,0,0,0,13,13.5c4.5,2.9,9.3,4.9,13.6,8.6s8,10.9,10.7,18.5c5.8,16.8,11.4,34.3,15,52.4s5.5,38.6,7.1,58.1c1.8,22.2,13.9,110.4,13.7,108Z"/><ellipse class="e" cx="108" cy="200.9" rx="56.1" ry="78.7" transform="translate(-14.4 8.5) rotate(-4.2)"/><path class="f" d="M101.5,191.6c.7,9.7-9.6,14.9-21.9,15.8s-22-2.8-22.7-12.5,9-14.8,21.3-15.7S100.8,182,101.5,191.6Z"/><path class="f" d="M157.7,187.5c.8,9.6-9.6,14.9-21.9,15.8s-22-2.9-22.7-12.5,9-14.8,21.3-15.7S157,177.9,157.7,187.5Z"/><path class="f" d="M100,188.9c4.7,1.2,9.1,1,12.9-1"/><path class="f" d="M101.7,194c3.7-2.9,7.5-3.1,11.6-.9"/><line class="f" x1="56" y1="196.9" x2="44.2" y2="197.8"/><line class="f" x1="170.6" y1="188.9" x2="158.9" y2="189.8"/><line class="f" x1="170.3" y1="184.3" x2="158.6" y2="185.2"/><line class="f" x1="55.7" y1="192.7" x2="43.9" y2="193.6"/><path class="g" d="M134.6,238.3c0,.2-8.7,12.3-21.1,13.2s-23.8-9.7-23.8-9.9,10-1,22.4-1.9S134.6,238.2,134.6,238.3Z"/><path class="a" d="M93.9,172.2c.2-.9-5.6-2-11.2-2.5-7.6-.8-13.9,1.4-18,2.8-7.9,2.7-18.7,13.6-18.5,13.9s11.8-9.3,18.8-11A35.4,35.4,0,0,1,77,174c3.2.1,7.1,1.2,9.4.4C90.7,172.8,93.7,173.1,93.9,172.2Z"/><path class="h" d="M62.6,191c-.4-1,2.4-3.9,7-6.1a36.2,36.2,0,0,1,5.9-.7C65.6,186.6,62.6,191,62.6,191Z"/><path class="h" d="M151.4,182c.3-1-2.8-3.3-7.5-4.9a45.5,45.5,0,0,0-5.6.2C147.9,178.3,151.4,182,151.4,182Z"/><path class="i" d="M119.2,221.8c-1.2-.3,3.4-1.7,4.6,2.1s-2.2,5.6-2.3,4.6S125.5,223.2,119.2,221.8Z"/><path class="i" d="M113.7,232.6c-.6,1-.1-2.1,1.7-3.1s5.3-.3,4.4.2A6.2,6.2,0,0,0,113.7,232.6Z"/><path class="i" d="M108.2,233c.7.9-.2-2-2.2-2.8s-5.3.4-4.3.9A6.2,6.2,0,0,1,108.2,233Z"/><path class="h" d="M102.8,217.9c-.7,1.9,2.5-2,2.4-5.9s-3.4-7.9-3.4-6A13.2,13.2,0,0,1,102.8,217.9Z"/><path class="e" d="M141.9,234.7c.8,3.5-3.1-12.1-10.9-13.9C131,220.8,138.6,219.5,141.9,234.7Z"/><path class="e" d="M82,239.4c-.3,3.6,1.2-12.4,8.7-15.4C90.7,224,83,223.9,82,239.4Z"/><path class="e" d="M90.5,254.1c1.6,3-2.9-7.5-2.4-12.8C88.1,241.3,86.3,246.7,90.5,254.1Z"/><path class="e" d="M136.2,249.1c-1.5,3.2,2-7.9.6-13C136.8,236.1,139.7,241.1,136.2,249.1Z"/><path class="h" d="M115.1,217c1,1.8-2.7-1.7-3.2-5.5s2.2-8.3,2.5-6.5A13.6,13.6,0,0,0,115.1,217Z"/><path class="j" d="M64.6,196.2c1.1-.3-1.2,1.4-3,.8s-4.1-2.8-3.3-2.6S60.9,197,64.6,196.2Z"/><path class="j" d="M65.4,194.9c.6-.5-.7,1.6-2.5,1.3s-4.9-2.4-4-2.3S62.9,196.6,65.4,194.9Z"/><path class="j" d="M66.5,193.7c.9-.7-1.1,1.9-2.9,1.5s-4.4-2.8-3.5-2.7S63.8,195.7,66.5,193.7Z"/><path class="j" d="M66.7,193.2c1-.3-1.3,1.4-3.1.8s-4.1-2.8-3.2-2.6S63,194,66.7,193.2Z"/><path class="j" d="M67.8,192.5c.6-.4-.9,1.5-2.7,1s-4.5-3.1-3.6-2.8S65.1,193.9,67.8,192.5Z"/><path class="j" d="M69.1,191.3c1-.6-1.3,1.7-3.1,1.1s-4-3.4-3.1-3.1S66.1,193,69.1,191.3Z"/><path class="j" d="M69.2,191.1c1.1,0-1.6.8-3.1-.1s-3.2-3.4-2.4-3A7.9,7.9,0,0,0,69.2,191.1Z"/><path class="j" d="M70.4,190.1c.7-.2-1.1,1.2-2.8.4s-3.9-3.2-3.1-2.8S67.6,190.9,70.4,190.1Z"/><path class="j" d="M71.4,189.4c1-.4-1.5,1.2-3.2.4s-3.5-3.4-2.7-3S68.2,190.4,71.4,189.4Z"/><path class="j" d="M71.8,189.1c1,.1-1.5.9-2.9.1s-2.9-3.3-2.2-2.9S68.3,189,71.8,189.1Z"/><path class="j" d="M73.1,188.6c.7-.2-1.2,1-2.6.2s-3.3-3.5-2.6-3.1S70.4,189.1,73.1,188.6Z"/><path class="j" d="M75,187c.5-.1-1.2,1-2.2.1s-1.9-3.4-1.4-3S72.6,187.5,75,187Z"/><path class="j" d="M74.8,188c.9-.3-1.6,1.1-3,.2s-2.6-3.6-1.9-3.2S71.7,188.7,74.8,188Z"/><path class="j" d="M151.5,188.2c-1.1-.1,1.4,1.3,3.1.5s3.7-3.3,2.9-2.9S155.3,188.6,151.5,188.2Z"/><path class="j" d="M150.6,187c-.7-.4.8,1.6,2.6,1s4.5-2.9,3.7-2.7S153.2,188.5,150.6,187Z"/><path class="j" d="M149.3,185.9c-1-.5,1.3,1.8,3.1,1.2s4-3.3,3.1-3S152.3,187.7,149.3,185.9Z"/><path class="j" d="M149.1,185.5c-1.1-.1,1.4,1.2,3.1.5s3.8-3.3,2.9-3S152.9,185.9,149.1,185.5Z"/><path class="j" d="M147.9,184.9c-.7-.3,1,1.4,2.8.7s4.1-3.5,3.3-3.2S150.7,186,147.9,184.9Z"/><path class="j" d="M146.4,183.9c-1-.5,1.5,1.6,3.2.7s3.7-3.8,2.8-3.4S149.6,185.2,146.4,183.9Z"/><path class="j" d="M146.3,183.7c-1,.1,1.7.6,3.1-.5s2.8-3.7,2.1-3.2A8.3,8.3,0,0,1,146.3,183.7Z"/><path class="j" d="M145,182.8c-.7-.1,1.2,1.1,2.8.2s3.6-3.7,2.8-3.2S147.9,183.3,145,182.8Z"/><path class="j" d="M143.9,182.2c-1-.2,1.7,1.1,3.3.1s3-3.7,2.3-3.3S147.2,182.8,143.9,182.2Z"/><path class="j" d="M143.5,182c-1,.2,1.6.7,2.9-.3s2.5-3.5,1.8-3A6.6,6.6,0,0,1,143.5,182Z"/><path class="j" d="M142.1,181.6c-.7-.1,1.3.9,2.7-.1s2.9-3.9,2.2-3.4S145,181.9,142.1,181.6Z"/><path class="j" d="M140,180.6c-.6-.1,1.3.8,2.2-.2s1.5-3.6,1-3.1S142.4,180.8,140,180.6Z"/><path class="j" d="M140.4,181.2c-.9-.1,1.7,1,3-.1s2.2-3.8,1.5-3.4S143.5,181.6,140.4,181.2Z"/><path class="a" d="M114.9,171.6c-.4-.9,5.2-3.5,10.8-5.5,7.6-2.8,14.6-2.3,19.1-1.9,8.8.8,22.2,8.9,22,9.2s-13.9-6.3-21.6-6.1a35.6,35.6,0,0,0-12.6,1.7c-3.2,1-6.9,3.1-9.5,2.8C118.3,171.4,115.3,172.5,114.9,171.6Z"/><path class="i" d="M101.6,223c1.1-.4-3.6-1.4-4.4,2.6s2.7,5.3,2.7,4.3S95.4,225,101.6,223Z"/><path class="k" d="M63.9,197.4s3.4-.1,14.1-3.1a68.4,68.4,0,0,1,8.2-1.5,45.4,45.4,0,0,1,7.5.6c1,.3-6.4-8.4-13.8-7.9S63.8,196.3,63.9,197.4Z"/><ellipse class="k" cx="77.1" cy="191.1" rx="1" ry="1.1" transform="translate(-13.8 6.2) rotate(-4.2)"/><path class="k" d="M152.2,189.2s-3.3.5-14.4-1a49.8,49.8,0,0,0-8.3-.2,39.2,39.2,0,0,0-7.3,1.6c-1,.4,5-9.3,12.4-9.8S152.1,188.1,152.2,189.2Z"/><ellipse class="k" cx="131.6" cy="185.1" rx="1" ry="1.1" transform="translate(-13.2 10.1) rotate(-4.2)"/><path class="l" d="M64.2,197.4s3.3-.1,14.1-3.1a67.9,67.9,0,0,1,8.1-1.5,44.7,44.7,0,0,1,7.5.6c1,.3-6.3-8.5-13.7-7.9S64.1,196.3,64.2,197.4Z"/><path class="l" d="M151.9,189.3s-3.3.4-14.4-1.1a49.8,49.8,0,0,0-8.3-.2,33.6,33.6,0,0,0-7.3,1.7c-1,.3,5-9.4,12.4-9.9S151.8,188.1,151.9,189.3Z"/><rect class="k" x="112.9" y="239.9" width="5.3" height="6.13" rx="1.5" transform="translate(-17.5 9.1) rotate(-4.2)"/><path class="k" d="M121.5,244.5l-1,.2a2,2,0,0,1-2.2-1.6l-.3-2a1.9,1.9,0,0,1,1.3-2.4l1-.2a1.8,1.8,0,0,1,2.1,1.6l.4,1.9A2.2,2.2,0,0,1,121.5,244.5Z"/><path class="k" d="M125.4,243.5l-.7.2a2,2,0,0,1-2.2-1.6l-.3-1.8c-.3-1.1,4-2.1,4.2-1l.3,1.8A1.9,1.9,0,0,1,125.4,243.5Z"/><path class="m" d="M129.4,242h-.6c-1,.3-1.9-.4-2.1-1.6l-.3-1.1c-.2-1.1,4-2.1,4.2-1l.2,1.2A2,2,0,0,1,129.4,242Z"/><path class="n" d="M132.9,240.2l-.6.2a1.7,1.7,0,0,1-1.9-1.5l3.8-.9A1.9,1.9,0,0,1,132.9,240.2Z"/><rect class="k" x="107.8" y="240.5" width="5.3" height="6.13" rx="1.5" transform="translate(238.5 478.3) rotate(175.8)"/><path class="k" d="M104.8,245.9h1a1.9,1.9,0,0,0,1.9-1.9v-2a2,2,0,0,0-1.7-2.2h-1a1.9,1.9,0,0,0-1.9,1.9v2A2.1,2.1,0,0,0,104.8,245.9Z"/><path class="k" d="M100.8,245.6h.7a1.8,1.8,0,0,0,1.9-1.9v-1.8c.1-1.2-4.2-1.5-4.3-.4v1.8A2.1,2.1,0,0,0,100.8,245.6Z"/><path class="m" d="M96.6,244.6h.6a1.8,1.8,0,0,0,1.9-1.9v-1.1c0-1.2-4.2-1.5-4.3-.4v1.1A2,2,0,0,0,96.6,244.6Z"/><path class="n" d="M92.8,243.4h.7a1.8,1.8,0,0,0,1.7-1.8v-1.4s-3.8.1-3.9-.3v1.4A2,2,0,0,0,92.8,243.4Z"/><path class="o" d="M136.2,236.4c-8.3,1.2-11,1.9-14.3,1s-8.6-1.3-9.4,1.8c-1.5-3-5.7-1.8-11,.3-3,1.3-7.3-.3-13.1,1-2.8.6,12.7,12.8,25.1,11.9S139,236,136.2,236.4Zm-23.4,13.4c-8.3,1.2-20.3-6.8-22.6-8,5.5.4,9.7,3.6,22.5,1.2,12.2.2,14.9-2,21.3-4.4C135,238.2,127,247.8,112.8,249.8Z"/><circle class="p" cx="98.8" cy="209.5" r="0.4"/><circle class="p" cx="141.3" cy="211.6" r="0.4"/><circle class="p" cx="108" cy="205.8" r="0.7"/><circle class="p" cx="118.6" cy="209" r="0.6"/><circle class="p" cx="108.3" cy="214" r="0.3"/><circle class="p" cx="110.1" cy="210.2" r="0.3"/><circle class="p" cx="95" cy="214" r="0.7"/><circle class="p" cx="112.1" cy="201.6" r="0.1"/><circle class="p" cx="127.9" cy="199.4" r="0.9"/><circle class="p" cx="123" cy="208.9" r="0.3"/><circle class="p" cx="92.9" cy="209.2" r="0.3"/><circle class="p" cx="104.4" cy="202.1" r="0.3"/><circle class="p" cx="132.5" cy="209.7" r="0.6"/><circle class="p" cx="126.1" cy="217.3" r="0.6"/><circle class="p" cx="78.5" cy="214.4" r="0.7"/><circle class="p" cx="83.7" cy="218.4" r="0.4"/><path class="c" d="M58.7,166.4c-6.4,19.7-5.9,41.4-7.9,64.5-1.1,12.9-2.2,25.8-1.2,39.2s-.4,30.8,1,44.3c2.8,28.2,6.5,59.5,10.3,87.4,4.1,30,.5,32.8,16.9,76.4,1.4,3.7-13-67.8-17.4-147.8-.8-13.3-2.8-26.5-4.1-39.7s-2.8-26.6-2.3-39.8-7-25.5-5.6-37.1,7.2-24.7,10-34.5c7-23.9,5.7-23.8,13.6-35.8C72.7,142.3,67.7,138.9,58.7,166.4Z"/><path class="a" d="M101.5,119.1c22-4.4,42.9,9.8,55.8,26.4a94.4,94.4,0,0,1,15.8,30.3c3.9,12.4,6.4,25.2,9.1,37.8q8.1,38.1,13.4,76.7c3.6,25.9,6.4,52,8.2,78.1s2.7,52.3,2.6,78.5v9.8c0,.4,2.9,0,2.9-.8q.3-39.9-2.1-79.8t-7.7-79.5q-5.2-39.3-13.2-78.1c-2.7-12.9-5.3-25.9-8.8-38.6a101.8,101.8,0,0,0-15-32.2c-12.2-17-31.4-31.5-53.2-30.5a44.3,44.3,0,0,0-7.2.9c-.3.1-1.7.3-1.7.8s.8.3,1.1.2Z"/><path class="q" d="M110,126.8c8.8,1.4,16.6,6.2,23.1,12a108.7,108.7,0,0,1,19.4,23.9c12.2,19.3,20.9,41,27.7,62.8,7.1,23.3,11.5,47.3,14.2,71.5s3.4,49.4,3.9,74.1c.4,21.4,0,42.7-1.4,64-.2,3.1-.4,6.1-.7,9.1,0,.3.7.2.8-.1,1.6-22,2.4-44,2.1-66-.3-24.5-1-49-3.2-73.3s-6.3-49.4-13.2-73.3c-6.3-22.2-14.8-44.1-26.4-64a128.9,128.9,0,0,0-18.6-25.3c-6.2-6.3-13.4-11.9-21.9-14.6a35,35,0,0,0-5.6-1.3c-.3-.1-.7.4-.2.5Z"/><path class="q" d="M98.9,123.2c4.4-.4,8.9,2.1,12.6,4.2s8.4,5.4,12.5,8.3a44.2,44.2,0,0,1,6.7,5.6c2.7,2.8,5.3,5.7,7.9,8.6,4.9,5.8,9.8,11.6,13,18.6A144,144,0,0,1,162,201.1c4.9,23.7,5.9,48.1,7.4,72.2s4.5,48.4,7,72.6,3.8,46.8,2.7,70.4l-.6,9.8c-.1.6,1.4.4,1.4-.2a428.1,428.1,0,0,0-1.2-72.5c-2.4-24.2-5.6-48.4-7.3-72.6s-2.5-49.6-6.8-74.1c-2.1-11.5-4.9-22.9-9.4-33.8a60.7,60.7,0,0,0-5.7-11.4,102,102,0,0,0-6.9-9c-2.6-3.2-5.4-6.3-8.2-9.4a44,44,0,0,0-6.2-6c-3.6-2.7-7.3-5.2-11.1-7.7s-8.2-5.2-12.8-6.6a15.7,15.7,0,0,0-5.3-.6c-.8.1-1.1,1.1-.1,1Z"/><path class="i" d="M102,317.6c1.5-1.3.9-5.8-.4-13.5-.6-3.4-.3-.3-3.1-10.6-.4-1.5-.8-2.9-2-3.6s-4.8-4-6.9-3.6,4.3,14.8,6.7,28C96.7,316.3,100.4,319,102,317.6Z"/><path class="r" d="M87.7,188.4a1.3,1.3,0,0,0-.1-.6c-4.2-2.6-7.8-3-12.1-.6-.1,0-.1.1-.1.2s-.1.7-.1,1a6.5,6.5,0,0,0,3.5,5.6,45.1,45.1,0,0,1,7.1-1.3,6.6,6.6,0,0,0,1.6-2.8A7.7,7.7,0,0,0,87.7,188.4Z"/><path class="j" d="M85.3,188a3.8,3.8,0,1,1-7.6.5,3.6,3.6,0,0,1,.6-2.5,9.7,9.7,0,0,1,6.6.4A4.2,4.2,0,0,1,85.3,188Z"/><path class="s" d="M145.6,183.9c-5-3.1-8.5-4-10.3-3.9a6,6,0,0,0-1.6,3.9,5.9,5.9,0,0,0,1.5,3.9l8,.9A6.1,6.1,0,0,0,145.6,183.9Z"/><path class="j" d="M143.3,183.5a3.7,3.7,0,0,1-3.3,4.3,3.8,3.8,0,0,1-4-3.7,4.1,4.1,0,0,1,1.8-3.8,20,20,0,0,1,5.3,2.2A3.6,3.6,0,0,1,143.3,183.5Z"/><circle class="k" cx="78.6" cy="187.9" r="1.2"/><circle class="k" cx="137.6" cy="181.9" r="1.2"/><path class="t" d="M190.9,378.4c1.2-2.6,2.3-2.2,3.6,0h55.2c-7.2-27.3-17.8-57.6-38.4-70.9-23.6-15.3-33.6-8.5-57.1-8.7-24.3,55.9-45.6,55-78.3,6.9-20.1,5.2-32.4.9-48.8,19C15.9,337,6.4,358.5,1.7,378.4Z"/><path class="i" d="M90.3,277.6c4.5,2.7,8.2,8,11,10.9,8.7,9.5,9,13.6,9,14.9s-.5,3.9-2.5,3.6c-4.4-.5-6.6-5-8.1-9.3a18,18,0,0,0-12-12.2c-9.7-3.2-19.5,10.4-24.9,6.6-2.1-1.4-2.7-3.4-1.1-5s9.1-5,15.9-6.9S88.6,276.5,90.3,277.6Z"/><path class="i" d="M74,301.1c4-.5,7.1,4.6,9.3,3.9,6.3-2.1,10.9-17.9,16.9-21.9s8.4-.1,6.6,5.4-5.4,11.9-9.1,18.5c-15.9,27.9-23.3,40.3-24.8,32.3C71.2,329.6,66.6,302.2,74,301.1Z"/><path class="b" d="M201.2,240.4c-5.2-20.8-49.5-105.3-60.8-114.6-6.8-7.3-13.1-7.7-17.4-9.5-8.5-3.4-13.8-4.7-16.9-5-20.8-1.8,3,13.2,6.8,13.6,6.1.6,43.6,49.3,52.4,69.1,9.9,22,3.5,57.1,16.3,83s8.5,65.4,10.8,96.8c2.4,33.7,3.9,66.8,2.8,99.5-.7,21.9,12.6-66,9.8-103.7C202.4,334.5,203,247.1,201.2,240.4ZM149,136.8c3.1,4.1,4.5,10.4,9.1,11.3l-1.5-2.2-2.1-2.6C150.9,137.6,146.8,133.8,149,136.8Z"/><path class="a" d="M212.8,338.2c-2.1-25.7-9.4-56.3-14.3-81.6s-7.6-43.9-15.9-67.1c-3.5-9.8-12.8-19.5-19.1-26.2s-18.1-22.3-22.6-23.8c-27.4-9.1-24.7-20.9-43.9-19.4-3.6.3,35.1,20,41.8,23.8s16.2,14.9,22.4,19.8,14,13.4,17.7,23.3c8.3,22,8.5,45.9,13.6,69.6s12.9,50.1,15,75.6c2.4,29,12.2,89.4,11.9,86.3Z"/><path class="a" d="M89.2,116.1c7.7-11.9-44.2,32.2-48.4,113.7-2.8,52.9,3.5,107.3,2.8,116.8-3.9,55.3,5.6,133.5,5.9,128C53.3,402.7,14.9,231.1,89.2,116.1Z"/><path class="b" d="M95.7,110.8c-3.2-2.6-30,2.3-38.5,10.3-5.5,5.9-1.3,13-6.4,23.9-.1.1,5.2.7,5.2.8a180,180,0,0,0-14.9,37.4c-4.2,15.5-4.2,31.9-3.8,49.6.2,5.4.3,10.9.5,16.3-.9,38.9,1.4,76.2,2.4,82,8.6,48.7,3.8,126.4,4.7,121.3,3.7-20.7,1.6-58,.6-101.3a87.5,87.5,0,0,1,2.3,18.1c.3,8.7-.4,32.1.2,40.7C49.5,429,72.6,488.8,67,471c-4.5-14.6-1.4-68-2.2-84.7-.7-13.2.2-27.7-2.7-40.5a228.7,228.7,0,0,1-5.8-41.1c-.7-14.7-1.3-29.3-1.7-43.9S53.2,232,53.5,218s2.3-28.6,6.8-39.4,10.9-17.7,17-24.4C109.1,119,95.7,110.8,95.7,110.8Z"/><path class="b" d="M94.4,111.2c-2.1-1.2-24.3.3-32.6,8.4s-12.3,16.5-17.4,27.6c0,.1,5.3.7,5.2.8a179,179,0,0,0-14.8,38.1c-4.2,15.7-4.2,32.4-3.7,50.4.1,5.5.3,11.1.4,16.6-.8,39.6,1.6,77.5,2.6,83.4C42.8,386.1,38,465.2,38.9,460c3.7-21.1,1.6-59.1.5-103.1a90.6,90.6,0,0,1,2.3,18.4c.3,8.9-.4,32.7.3,41.5,1.5,19.4,24.7,80.3,19.1,62.1-4.6-14.8-1.6-69.2-2.4-86.2-.6-13.4.2-28.1-2.7-41.2a227.6,227.6,0,0,1-5.8-41.8c-.8-14.9-1.4-29.8-1.9-44.7s-1.4-29.3-1-43.5,4.3-26.7,8.9-37.8,8.6-20.3,14.7-27.1C102.7,120.8,94.4,111.2,94.4,111.2Z"/><path class="c" d="M79.8,143.3c-6.3,1.8-12.6,4.2-18.3,8.9-9.8,8.1,4.8,38-15.2,48.9-4.1,2.3,5.8,184.2,9.6,182.6-1.3,5.9-11.9-140.8-12.7-129-.9,14.3-1.9,28.7-1.9,43.4a369.7,369.7,0,0,0,3.1,44.5c1.7,15.2,3.2,30.5,4.1,45.8C50.6,423.1,55,495.1,55,491.1c.2-29.4,5.7-55.6,4.3-85.1-.6-14.5-7-32.2-8.4-46.7s-3.6-28.8-4.5-43.3a360.7,360.7,0,0,1,.1-41.6c.7-12.9,4.4-73,4.1-77.1-2.7-20.1,10-35,19.1-41.6,5.1-3.8,5.7-7.1,11.2-8.5s17.7-21.9,17.7-22.1C96.7,122.4,86.9,141.3,79.8,143.3Zm103.4,47.8c-1.7-3.1-6.3-21.4-8.6-24.4s-3-10.7-7.5-12.9c-6.6-3.1-40-19.7-34.6-30.8,8.3.6,40.9,31.8,44.1,38.6,14.8,31.3,17,44.9,19.5,56.2C195.5,216.6,183.8,192.2,183.2,191.1Z"/><path class="a" d="M35,161.3c-5.3,7-10.1,23.8-11.2,36.2-1.3,14.6-1.1,29.7-.4,44.8s1.8,32.1,2.7,48.1c2,32.7,4.1,65.5,6.8,98.2,3,36.3,15.9,110.5,15.4,106C41.1,432.4,35.8,369.9,32,307.2c-1-15.5-1.9-30.9-2.8-46.4s.4-33.9,1.5-48.6c2.8-36,14.9-38.9,21.8-57.6,4.6-12.3,10-15.7,17.8-20.1S96.5,118.9,95,117.8C90.2,114.1,69.7,115.7,35,161.3Z"/><path class="q" d="M92.5,118.5c-7.8-3.1-15.6,2.2-21.2,7.1A116.9,116.9,0,0,0,52.1,149c-6.6,10.3-8.7,22.2-10.4,34.1a376.1,376.1,0,0,0-3.3,38.2c-1.1,25.8-.4,51.8.4,77.6s2,52.8,3.7,79.1c.8,13.2,2,26.3,2.7,39.5a122.7,122.7,0,0,1-.4,20.1c-.7,6.2-1.6,12.4-1.8,18.6a67.7,67.7,0,0,0,.3,9c.1.5,1.5.1,1.5-.4-1.5-12.4,1.9-24.7,2.1-37.1s-1.3-24.9-2.1-37.3c-1.8-25.6-3.1-51.1-4.1-76.7s-1.7-51-1.3-76.4c.1-12.6.7-25.1,1.8-37.6s2.3-24.3,5.6-35.9,9.3-19.3,16.1-27.6a83.1,83.1,0,0,1,10.4-11c3.3-2.9,7.3-5.8,11.8-6.7a13.1,13.1,0,0,1,6.2.6c.4.2,1.7-.4,1.2-.6Z"/><path class="c" d="M216.9,364c-3.6-32.1-6.8-64.3-11-96.1-3.3-25.7-8.2-52.7-18.8-72.2-2.8-5.2-6.1-9.3-8.9-14.2s-5.2-11.6-7.8-17.6a81.9,81.9,0,0,0-18.2-26.8c-16.2-16.3-47.4-12.8-47.4-14.8-.4-9.2-67,41.8-63.4,67.6.3,1.6,8.9,193.9,10.2,192.7-1.4,6.2-11.3-182.8-12.2-176.1-1.5,12.1-.3,27.5-1.2,40-1,15.1-2,30.3-2,45.7a407.4,407.4,0,0,0,3.2,46.9c1.9,16.1,3.4,32.2,4.4,48.5,2.3,36.5,6.9,112.5,6.9,108.3.2-31,5.9-58.6,4.5-89.8-.7-15.3-7.5-34-8.9-49.3s-3.8-30.3-4.7-45.6a358.7,358.7,0,0,1,.1-44c.7-13.5,1.6-27.1,2.7-40.4,2-23.3,5.1-55.1,1.5-40.9-2.8-21.2,23.3-46.3,29-47.9s17.6-13.4,24.4-13.1c15.3.8,24,14,27.4,16.5,7.1,5.1,13.4,13.6,19.6,22.2,11.1,15.5,21.9,32,30.6,52.4l.2.4a96.3,96.3,0,0,0,6.2,17.4c.4.7.7,1.4,1.1,2,.8,2.7,1.7,5.3,2.5,8,1.6,6.5,2.9,13.1,4.1,20.1,2.2,13.9,4.3,27.8,6.4,41.8,4.1,28.3,7.8,56.9,9.3,85.7s1.1,60.8-3.4,89.1c-.6,4.1,6.1-11.5,6.8-17.3.1,4.2.3,8.4.4,12.5s3.9-24.1,3.5-35.4c.6,7.5,1.1,15,1.6,22.5s3.3,28.9,4,25.1c2.4-14,.5-29.8-.5-44.6s-2.4-32.1-3.5-48.2c2.7,24.4,5.5,48.7,8.2,73.1C224.2,471.8,220.8,397.8,216.9,364ZM111.7,126.9a42.5,42.5,0,0,1,9.4-.6c6.1.3,11.7,4.4,16.4,8.3C129.7,129.9,120.9,126.8,111.7,126.9Zm72.1,61a42,42,0,0,0-6.5-8.7l-1.3-1.5-1.8-3.2a95.9,95.9,0,0,0-6.9-9.8c-2.3-4.7-4.2-8.9-9.2-10.6-8.3-2.7-15.2-10.9-16.7-17.6,3.1,2.5,17.4,13.4,20,16.1s5.4,4.4,8,6.7c9.3,8.4,13.6,20.4,16.2,32.3Z"/><path class="c" d="M219.2,361.9c-3.6-32-6.8-64.2-11-96.1-3.3-25.6-15.8-63.3-18.8-72.2-2-5.9-6.1-9.2-8.9-14.1s-.5-12.7-8.3-24.4c-12-17.9-10.9-13.3-17.7-20.1-16.2-16.3-53.3-12.4-55.2-13.2s-1.7.8-1.4.7c-7.6.5-11.7,2.3-19.1,4.4s-13.2,4.4-19.2,9.3c-10.3,8.6-19.5,27.9-15.9,51.7.3,1.6,8.9,193.8,10.2,192.6-1.4,6.2-11.3-182.8-12.2-176-1.5,12-.3,27.5-1.2,39.9-1,15.1-2,30.3-2,45.8s1.4,31.2,3.2,46.9,3.4,32.2,4.4,48.4C48.4,422,53,498.1,53,493.8c.2-31,5.9-58.6,4.5-89.8-.7-15.3-7.5-34-9-49.2s-3.7-30.4-4.6-45.7a358.7,358.7,0,0,1,.1-44c.7-13.5,1.5-27,2.7-40.4,2-23.3,5.5-47.4,15.1-62.5,11-17.2,35.9-35.7,36.7-37.4-1.6-1.3-22,13.1-33.7,24.9-7.7,7.8-13,19.9-16.6,34.1-2.8-21.1,10.8-32.4,17.7-41.9,5.7-8,8.2-9.4,14-11s7.2-4.2,14.1-5.8c.9-.2,6.2-2.2,3.9-2.6.9.2,5.9,1.7,6.1,1.6,5.9-2.8,11.2-7.1,17.4-5.7-20.7-1.8-25.7.4-17.4,6.6.7.6,21.6,11.9,25,14.3,7.1,5.1,13.4,13.6,19.6,22.2,11.1,15.5,21.9,32,30.6,52.4.1.1.1.3.2.4a93.6,93.6,0,0,0,6.2,17.4l1.1,2.1c.8,2.6,1.7,5.2,2.5,7.9,1.6,6.5,2.9,13.2,4,20.1,2.3,13.9,4.4,27.9,6.5,41.8,4.1,28.3,7.8,56.9,9.3,85.7,1.7,30.3,2.7,77.7,3.3,71.9.2,4.1,4.4-11.7,4-23,.6,7.5,1.1,15,1.6,22.5s2.7,2.4,3.3-1.4c2.4-14,1.2-3.2.2-18s-2.4-32.2-3.5-48.3c2.7,24.4,5.5,48.8,8.2,73.1C226.5,469.7,223,395.7,219.2,361.9ZM122.8,118.1c3.1-.4,7.4,11.2,10.5,11.4C139.5,129.8,132.1,118.1,122.8,118.1Zm49.7,25.8"/><path class="c" d="M97.3,121.3c4.8-3,11,4.5,11.2,5.7s31.9,22,38,30.5c11.2,15.5,12.3,37.3,21,57.7a.6.6,0,0,0,.1.4c1.7,6.3,18.2,75.4,20.3,89.3,4.1,28.3,7.8,56.9,9.4,85.7s7.2,24.5,2.7,52.7c-.6,4.2.9,27.5,1.1,31.6s3.8-24.1,3.4-35.4c.6,7.5,1.2,15,1.6,22.5s.7-3.9,1.4-7.7c2.4-14,3.2,3.1,2.1-11.7s-2.3-32.2-3.5-48.3q4.1,36.6,8.3,73.1c.4,3.6-3.1-70.4-6.9-104.2-3.7-32-6.9-64.2-11-96.1-3.4-25.6-8.3-52.7-18.9-72.2-2.8-5.1-6-9.2-8.9-14.1s-5.2-11.7-7.7-17.7a84.8,84.8,0,0,0-18.3-26.8c-11.4-11.5-33.7-15.3-45.4-15m-4.5.1c-1.2-.1-18.3,4.6-25.7,6.7s-13.2,4.4-19.2,9.3c-10.2,8.6-19.4,27.9-15.8,51.7.2,1.6,8.8,193.8,10.1,192.6-1.4,6.2-11.3-182.8-12.1-176-1.6,12-.4,27.5-1.2,39.9-1,15.1-2.1,30.3-2.1,45.8s1.5,31.2,3.3,46.9,3.4,32.2,4.4,48.4c2.2,36.5,6.8,112.6,6.8,108.3.2-31,5.9-58.6,4.5-89.8-.7-15.3-7.4-34-8.9-49.2s-3.7-30.4-4.7-45.7a403.5,403.5,0,0,1,.1-44c.7-13.5,1.6-27,2.7-40.4,2.1-23.3,5.5-47.4,15.2-62.5,10.9-17.2,14.7-24.3,3-12.5-7.7,7.8-13,19.9-16.7,34.1-2.8-21.1,14.3-33.3,23.8-40.3,5.4-4,2.2-11,8-12.6s28.8-10.8,29.6-9.9c.7-1.1-4.7-.8-5.1-.8m18.3-2.1a48.5,48.5,0,0,1,9.3-.6c6.1.4,11.7,4.4,16.4,8.4C129,122.3,120.3,119.2,111.1,119.3Zm72,61.1a46,46,0,0,0-6.4-8.8l-1.4-1.5c-.6-1-1.1-2.1-1.8-3.2a107.2,107.2,0,0,0-6.8-9.8,117,117,0,0,0-7.9-13.6,99.1,99.1,0,0,0-13.3-14.9,38.6,38.6,0,0,1,8.5,7.6c2.3,2.9,4.1,6.2,6.7,8.8s5.5,4.4,8.1,6.7c9.3,8.4,13.5,20.4,16.1,32.3A24.2,24.2,0,0,0,183.1,180.4Z"/><path class="a" d="M97,114.6c1.2.8,1.1,4.6,2.1,4.7s6.2,4.6,6.5,4.5a30.2,30.2,0,0,1,10.5,4.9c7.2,5.1,13.4,13.6,19.6,22.2,11.1,15.5,22,32,30.7,52.4a.6.6,0,0,0,.1.4,93.7,93.7,0,0,0,6.3,17.4l1,2.1c.9,2.6,1.7,5.2,2.5,7.9,1.6,6.5,2.9,13.2,4.1,20.1,2.3,13.9,4.3,27.9,6.4,41.8,4.1,28.3,7.8,56.9,9.4,85.7,1.6,30.3,2.7,77.7,3.3,71.9.1,4.1.3,8.3.5,12.4s3.8-24.1,3.4-35.4c.6,7.5,1.2,15,1.6,22.5s3.4,28.9,4,25.1c2.4-14,.6-29.7-.5-44.5s-2.3-32.2-3.5-48.3q4,36.6,8.3,73.1c.4,3.6-3.1-70.4-6.9-104.2-3.7-32-6.9-64.2-11-96.1-3.4-25.6-8.3-52.7-18.9-72.2-2.8-5.1-6-9.2-8.9-14.1a83.7,83.7,0,0,1-7.7-17.7c-4.5-13.6-14.8-14.5-21.6-21.3-10.6-10.6-30-13.5-41.3-15.3m-.2-.5c-.3-1.4-27.9-9.6-48.6,15.3-7.9,9.5-19.1,24.9-17.3,47.8.1,1.7,8.8,193.9,10.1,192.7-1.4,6.2-11.3-182.8-12.2-176-1.5,12-.3,27.5-1.1,39.9-1.1,15.1-2.1,30.3-2.1,45.8a389.1,389.1,0,0,0,3.3,46.9c1.8,16.1,3.3,32.2,4.3,48.4,2.3,36.5,6.9,112.6,6.9,108.3.2-31,5.9-58.6,4.5-89.8-.7-15.3-7.4-34-8.9-49.2S32,313.8,31,298.5s-.6-29.5.1-44,1.6-27.1,2.7-40.4c2-23.3,5.5-47.4,15.2-62.5,10.9-17.2,14.7-24.3,3-12.5-7.7,7.8-13.1,19.9-16.7,34.1-2.8-21.2,14.3-33.3,23.8-40.3,5.4-4,3.6-8.5,8-12.6s15.7-3.7,20-3.3,9.6.3,9.7-2.9M179,177.2a45.4,45.4,0,0,0-6.4-8.7l-1.4-1.5-1.8-3.2c-2.1-3.4-4.4-6.6-6.8-9.8a109.2,109.2,0,0,0-7.9-13.6c-3.9-5.4-16.9-6.2-21.8-10.7,3.1,2.2,13.1-.3,17,3.4s4.1,6.2,6.7,8.8,5.5,4.4,8,6.7c9.4,8.4,13.6,20.4,16.2,32.3Z"/><path class="c" d="M93.6,119.2c-3.2.3-5.1.7-5.1,1.1m6.3-1.5c1-.2,21.4,13.5,24.8,15.9,7.2,5,19.3,11.7,25.4,20.1,11.1,15.2,12.8,35,21.5,55v.4a90.5,90.5,0,0,0,6.3,17.1c.3.7.7,1.4,1,2,.9,2.6,1.7,5.2,2.5,7.8,1.6,6.4,2.9,12.9,4.1,19.8,2.2,13.6,4.3,27.3,6.3,41,4.1,27.8,7.7,55.9,9.3,84.2s2.6,76.3,3.2,70.6c.1,4.1.3,8.2.5,12.3s3.8-23.7,3.5-34.9c.5,7.4,1.1,14.8,1.5,22.2s1,7,1.7,3.3c2.4-13.8,2.9-7.9,1.8-22.4s-2.3-31.7-3.4-47.5c2.7,24,5.4,47.9,8.2,71.9.4,3.5-3-69.2-6.8-102.4-3.6-31.5-6.8-63.1-10.9-94.4-3.3-25.2-8.1-51.8-18.7-71-2.8-5-6.1-9-8.9-13.8s-5.2-11.5-7.7-17.3a82.7,82.7,0,0,0-18.3-26.4c-12.4-12.3-37.5-14.4-48.2-13.6m-5.1,1.6c.1.1-15.7.2-22.4,4.1-3.5,2.1-5.9,5-11.9,9.9-10.3,8.4-27.7,26.2-27.5,51.6,0,1.6,13,188.9,14.2,187.8-1.4,6.1-11-179.6-11.9-173-1.6,11.9-.4,27-1.2,39.2-1.1,14.9-2.1,29.8-2.1,45s1.4,30.7,3.1,46.1,3.4,31.6,4.4,47.6c2.2,35.9,6.7,110.6,6.7,106.4.2-30.4,6-57.6,4.6-88.2-.7-15.1-7.4-33.5-8.9-48.4S32,318.5,31,303.5a366,366,0,0,1,.2-43.2c.7-13.3,1.6-26.6,2.8-39.7,2-22.9,5.5-46.6,15.2-61.5,10.9-16.9,37.8-31.8,38.1-33.9s-23.4,10-35.1,21.7c-7.7,7.7-13.1,19.5-16.7,33.5-2.8-20.8,14.3-32.8,23.8-39.7,5.4-3.9,2.2-10.8,8-12.3a105.5,105.5,0,0,1,20-3.2,8.7,8.7,0,0,0,3.4-1.9c.2,0,1.6-3.6,3.1-3.4m16.5-2.5a42.5,42.5,0,0,1,9.4-.6c6.1.3,11.7,4.3,16.4,8.2C128.3,120.3,119.6,117.3,110.3,117.4Zm72,59.9a41.8,41.8,0,0,0-6.4-8.6l-1.4-1.5a24.8,24.8,0,0,0-1.8-3.1,92.4,92.4,0,0,0-6.8-9.6,106.9,106.9,0,0,0-7.9-13.4c-3.8-5.3-7.2-10.1-4.7-7.1s4.1,6,6.7,8.6,5.7,3.8,8,6.5c11.9,14.8,6.5,30.6,16.1,31.7A23.1,23.1,0,0,0,182.3,177.3Z"/><path class="e" d="M58.1,242.1c1.6-.7,5.2,2.1,6.8,6.9.5,1.7,0,2.7.7,7.8a92,92,0,0,1,.3,12.4c-.2,4.5,1.7,7.3,1.7,13.8s15.4-4.3,22.6,2.2c4.8,4.4,5.8,13.1,6.1,14.7.7,4.3-3,11.6-4.4,11.8s-3.3-2.2-3.6-4.3a19.8,19.8,0,0,1,.3-7.9c.4-.3-1.8-.8-2.2-4.1-.1-.3-3.7.9-7,0-.4,4.8-2.4,4.2-2.3,5.3,4.6,34.3-1.7,40.9-2.9,41.9-1.3,6.1-4.5,22.2-5,33.2H41.3c2.6-10.3,6.8-26.7,9.8-41.4,1-5,3.7-31,3.8-41,0-1.1.5-4.4,1-9s-.5-10.3.4-15.9,1.2-4.8,1.4-13.2S56.5,242.9,58.1,242.1Z"/><path class="u" d="M176.6,39.3C178.8,5.6,205.2,5.1,224.7,17c27.6-20.8,45.2-4.3,46.1,8.4,26.7-2.8,49.4,25.9,16.8,45,2.9,27-13.9,23.5-25.2,21.3-7,16.3-29.4,25.4-49.9,4.8-11.6,11.7-26.2,5.4-31.6-11.4C152.5,79.3,155.2,48.3,176.6,39.3Z"/><ellipse class="u" cx="181.2" cy="115.5" rx="9" ry="7.8"/><ellipse class="u" cx="166.7" cy="133.4" rx="5.7" ry="4.9"/><path class="v" d="M200.1,51.2c-1.7,5.6,3.5,21.2,1.9,19.9s-10.6-.8-9.3-4.8C194.7,59.8,201,48.4,200.1,51.2Z"/><path class="w" d="M175.1,66.5c-3.4-1.1-5.8,3.7-5.2,5.4,1.4,4.3,8.1,3.3,7.7-1.6C177.5,69.3,176.7,67.1,175.1,66.5Z"/><path class="x" d="M174.2,73a56.6,56.6,0,0,0,8.4-1c3.1-.5,5.1-3,8.6-2.2.9.1,4.8.5,6.1,3.4a1.5,1.5,0,0,1,.2,1.3c-.6.7-3.4-.2-6.7-1.9s-5.9.7-8.2-.1C182.1,72.3,178.7,73.3,174.2,73Z"/><path class="y" d="M187.3,40.4c-1.4-.2,2.5,8.8-1.9,13.7-1.2,1.8-5,4.2-8.7,6.7s-4.4,5.7-3,8.9c2.3,5.4,8.5,5.6,16.4,1.4,1-.5,1.5-.6,5.1,2.6,1.9,1.6,6.5,1.4,7.5-.9,2.5-5.5-3.6-7.9-5.7-8.1s2-4,2.8-9,3.1-9.5,2.6-13-4.8-.3-6.1-1.2S190.4,39.5,187.3,40.4Z"/><path class="z" d="M182.7,73.1c-2.7.1-7.4-2.5-8-8.3-.1-1.1-1.5,4.1,1,6.5S184.2,73.1,182.7,73.1Z"/><ellipse class="aa" cx="251.4" cy="41.2" rx="5.4" ry="8.8" transform="translate(-2.9 56.9) rotate(-12.8)"/><ellipse class="ab" cx="251.9" cy="44.1" rx="3.1" ry="5.1" transform="translate(-3.5 57.1) rotate(-12.8)"/><ellipse cx="251.9" cy="44.1" rx="1.9" ry="3.1" transform="translate(-3.5 57.1) rotate(-12.8)"/><ellipse class="ac" cx="263.8" cy="41.2" rx="8.8" ry="5.4" transform="translate(165 289.2) rotate(-77.2)"/><ellipse class="ad" cx="263.2" cy="44.1" rx="5.1" ry="3.1" transform="translate(161.7 290.9) rotate(-77.2)"/><ellipse cx="263.2" cy="44.1" rx="3.1" ry="1.9" transform="translate(161.7 290.9) rotate(-77.2)"/><path class="k" d="M251.4,43.3c-.1,0,.3-1.6.3-2.8l1.1.3C252.6,41.4,251.6,43.4,251.4,43.3Z"/><path class="k" d="M263.8,43.3c-.1,0,.3-1.6.3-2.8l1,.3C265,41.4,264,43.4,263.8,43.3Z"/><path d="M249.4,29c2-.6,5.4,2.5,5.3,2.2s-2.4-5-5.7-3.9-3.8,5.9-3.7,6.2S247.3,29.7,249.4,29Z"/><path d="M265.6,29c-2-.6-5.4,2.5-5.3,2.2s2.4-5,5.7-3.9,3.8,5.9,3.7,6.2S267.7,29.7,265.6,29Z"/><path class="ae" d="M233.2,38.3c1.1,1.2.6,2.4-3.1,5.9s-1.5,3.6-5.1,6.5a9.5,9.5,0,0,1-5.8,1.8c-6-.1-7.2-5-6.6-10.8.3-2.5-.4-7.5.1-9.1a2.3,2.3,0,0,1,2.9-1.6c.4-2.5,2.5-2.2,3.4-1.8,1-1.8,3.8-1.5,4.2.3,1.1-.7,3.3-.6,3.5,2.2,0,0,0,8.8.1,9.1S230.2,36,233.2,38.3Z"/><path class="af" d="M216.9,51.1c-3.2-1.1-4.3-4.3-3.7-10.6V33.2c.4-1.2,1.7-1.7,2.4-1.1l.2,7,.5.7.2-8.9c0-.7,1.9-1.8,2.5-.7v8.9l.7.7V29.7a1.6,1.6,0,0,1,2.9-.1v9.5a4.3,4.3,0,0,0,.6.7V30.3a1.7,1.7,0,0,1,2.5,1.1v9.9c-6.1.4-6.6,5.4-6.2,6.1s-.9-1.2,2.2-3.8c1.5-1.3,3-1.2,4.4-1.5s.6-.6,2.7-2.6,2.1-1.5,3.3-.8.2,1.4-.7,2.5-2.8,2.5-3.6,3.6c-1.9,2.9-1.1,2.3-2.9,4.2A8.2,8.2,0,0,1,216.9,51.1Z"/><path d="M228.7,71.5a10.8,10.8,0,0,0-1,20.7c6.3,2.1,11.4-3.3,12-4a8.6,8.6,0,0,0,2.7-4.8C243,77.7,235.9,69.9,228.7,71.5Z"/><rect class="k" x="224.9" y="72.1" width="4.4" height="3.88" rx="0.7"/><rect class="k" x="229.8" y="72.1" width="4.4" height="3.88" rx="0.7"/><path class="ag" d="M228.6,69.2c-8.8-4.7-9.5,7-8.6,11.3-.8,5.1.8,12.4,5.8,14.2,7.3,2.6,16.9-2.5,17-11.8C242.8,75.2,236.8,65.1,228.6,69.2Zm3.5,20.2c-4.2.8-8.2-.2-10.4-6-1.1-2.9,1.1-11.9,6.9-9a11.2,11.2,0,0,1,5.5.3c4.7,2.3,6.3,5.6,7.5,8.1S237.1,88.4,232.1,89.4Z"/><path class="ah" d="M227.1,69.9c-.3.8-1.5-.4-2.9.1-3.2,1.2-3.9,6.7-3.9,6.6s.3-6.3,3.7-7.2C225.5,69,227.3,69.3,227.1,69.9Z"/><path class="ah" d="M229.9,70c-.1-.4,2-1,4-.6,4.2.8,6.2,6.5,6.2,6.6s-.9-2.1-4.4-4.9a4.9,4.9,0,0,0-3.2-.8C231,70.4,230.1,70.8,229.9,70Z"/><path class="ai" d="M233.1,73.5c-.9-.4-2.5.5-4.4.4s-2.8-.7-3.7-.7c-3.2.2-5.6,9.7-1.5,14.7s18.3-.1,18.4-4.6C238.9,76.3,235.7,74.4,233.1,73.5ZM224,87.6c-4-4.6-1.5-12.9,1.2-13.5.9-.2,1.5.3,3.6.5s3.4-.5,4.3-.1c2.4,1.1,5.7,2.4,8.6,8.9C241,87.6,228.3,92.6,224,87.6Z"/><path class="ah" d="M240.1,88.9a8.8,8.8,0,0,1-4.2,4.3c-2.8,1.3-5.4,1.6-5.5,1.4s1.3-.6,3.6-1.3A10.1,10.1,0,0,0,240.1,88.9Z"/><path class="aj" d="M229.8,81.2c2.4-.5,8.6-3.2,11.8,2.4.1.3-.8,1.7-1.9,2.6C236.6,88.5,225.2,98,218,96.8l-.6-.3c-1.9-1.5-1.6-5-1.5-5.9.5-4.9,4.6-10.6,9.2-10.7C227.5,79.9,228.9,81.4,229.8,81.2Z"/><path class="ak" d="M222.6,87.3c-.9-1.7,5.3-4.2,4.9-5.1s-6.8-2.3-10.4,4.5c-1.7,3.3-1.8,8.3.5,9.8,4,2.8,10.6-4.8,15-7,6.5-3.2,6.3-6,5.5-7C234.2,77.5,223.1,88.4,222.6,87.3Z"/><path class="al" d="M218.2,86.1a11.6,11.6,0,0,0-.6,7.2c.4,1,.6,1.4,1,1.3s-.4-1.2-.6-2.7A29.4,29.4,0,0,1,218.2,86.1Z"/><image width="404" height="517" transform="translate(258.7 61.1) scale(0.05)" xlink:href="../../../../../../Downloads/PinClipart.com_ears-clip-art_5226166.png"/></svg>