<svg id="Layer_1" data-name="Layer 1" xmlns="http://www.w3.org/2000/svg" xmlns:xlink="http://www.w3.org/1999/xlink" viewBox="0 0 250 250"><defs><style>.cls-1{fill:#603813;}.cls-2{fill:#663815;}.cls-3{fill:#754c28;}.cls-4{fill:url(#radial-gradient);}.cls-5{fill:#f3dec2;}.cls-12,.cls-6{fill:none;stroke-miterlimit:10;}.cls-6{stroke:#404041;stroke-width:3px;}.cls-7{fill:#be1e2d;}.cls-8{fill:#edcca4;}.cls-9{fill:#ecc5a1;}.cls-10{fill:#231f20;}.cls-11{fill:#fff;}.cls-12{stroke:#3b2314;stroke-width:0.5px;}.cls-13{fill:#e6e7e8;}.cls-14{fill:#d0d2d3;}.cls-15{fill:#f497aa;}.cls-16{fill:#c3996b;}.cls-17{fill:#8a5d3b;}.cls-18{fill:url(#radial-gradient-2);}.cls-19{fill:url(#radial-gradient-3);}.cls-20{fill:#2e3191;}</style><radialGradient id="radial-gradient" cx="120.7" cy="152.97" fy="126.52282633626632" r="31.43" gradientUnits="userSpaceOnUse"><stop offset="0.4" stop-color="#ebb9a1"/><stop offset="0.82" stop-color="#f3dec2"/></radialGradient><radialGradient id="radial-gradient-2" cx="88.28" cy="75.94" r="5.58" gradientUnits="userSpaceOnUse"><stop offset="0.08" stop-color="#facb18"/><stop offset="0.5" stop-color="#facb18"/><stop offset="0.77" stop-color="#046180" stop-opacity="0.96"/><stop offset="1" stop-color="#2483c5"/></radialGradient><radialGradient id="radial-gradient-3" cx="142.58" cy="71.33" r="4.85" gradientTransform="matrix(0.1, 0.99, -0.94, 0.1, 195.25, -77.44)" gradientUnits="userSpaceOnUse"><stop offset="0.21" stop-color="#facb18"/><stop offset="0.58" stop-color="#facb18"/><stop offset="0.82" stop-color="#046180" stop-opacity="0.96"/><stop offset="1" stop-color="#2483c5"/></radialGradient></defs><path class="cls-1" d="M108.83,49.18c3.51-5.52-20.19,14.89-22.11,52.68-1.24,24.53,1.66,49.75,1.36,54.15-1.75,25.64,2.6,61.9,2.73,59.35C92.51,182,74.89,102.46,108.83,49.18Z"/><path class="cls-2" d="M108.06,45.18c-.24-.54-10,1.41-13.93,5.09a52.3,52.3,0,0,0-8.65,12.41s2.4.33,2.38.36A83.08,83.08,0,0,0,81.07,80.4c-1.9,7.15-1.91,14.78-1.69,23q.09,3.78.2,7.55c-.37,18,.7,35.31,1.17,38,3.94,22.57,1.78,58.63,2.2,56.25,1.66-9.59.65-44.91.13-65,2.83,9.64,1.43,24.26,1.14,26.41-.53,4-.19,14.86.13,18.88.69,8.85,11.27,36.56,8.71,28.29C91,207,92.37,182.26,92,174.52c-.3-6.11-2.56-12.57-3.91-18.51-1.51-6.67.39-12.18,0-19.32-.36-6.78-.61-13.56-.83-20.33-.2-6.53-.65-13.35-.48-19.82.16-6.84,2-12.18,4.08-17.21,2-4.7,4-9.26,6.74-12.38C112.14,50.65,108.06,45.18,108.06,45.18Z"/><path class="cls-3" d="M93.19,72.09a131.21,131.21,0,0,0-5.84,29.27,111.22,111.22,0,0,0-.56,17.76c.42,6.12-.17,13.95.45,20,1.29,12.8,2.94,27,4.69,39.59,1.88,13.59.2,14.84,7.69,34.62.63,1.67-5.94-30.73-7.92-67-.33-6-1.26-12-1.85-18s-1.28-12-1-18c.23-5.45.73-10.91,1.35-16.18a88.88,88.88,0,0,1,2.6-14.56C96,68.79,102.42,60.22,106,54.76,106.35,54.24,97.3,59.61,93.19,72.09Z"/><path class="cls-2" d="M152.44,73.67c-.45-.46-20.59,2.12-28.81,5.76-5.34,2.7-13.51,7.16-18.69,11.93,0,0,4.86.09,4.83.12a77.66,77.66,0,0,0-15.3,16.24c-4.47,6.61-5.13,13.5-5.38,20.87-.07,2.27,2.56,4.32,2.49,6.59a91.5,91.5,0,0,0,1.89,33.65c6.16,20-1.44,29.85-1.13,33.45.67,7.94,16.61-3.58,16.49-10.53-.1-5.49,1.29-11.59-1-16.84a42.56,42.56,0,0,1-3.81-17c-.16-6.09-.11-12.18,0-18.27.13-5.89-.21-12,.66-17.86.92-6.18,5.1-11.15,9.78-15.87,4.37-4.4,8.83-8.68,14.76-11.73C160.3,78.26,152.44,73.67,152.44,73.67Z"/><path class="cls-3" d="M104.88,58.73A108.73,108.73,0,0,0,91.11,93.65c-1.41,6.91-2.77,13.85-2.29,21s-1.21,16.49-.34,23.64c1.82,15,4.29,31.63,7,46.44,3,15.92-.52,17.51,13.5,40.38,1.18,1.92-10.17-35.9-11.92-78.56-.29-7.08-1.81-14.05-2.62-21.09s-1.85-14.12-1-21.22a155,155,0,0,1,3.78-19.19c1.52-6,3.28-12,6.23-17.36,7.26-13,20.91-23.55,28.57-30.22C132.84,36.83,114,43.74,104.88,58.73Z"/><path class="cls-3" d="M160.41,163.65c-1.67-14.84-3.16-29.77-5.08-44.55-1.53-11.87-3.78-24.41-8.65-33.47-1.28-2.38-2.76-4.28-4.08-6.56a76.63,76.63,0,0,1-3.54-8.17,39.15,39.15,0,0,0-8.35-12.46c-7.41-7.53-24.57-6.59-24.38-5.69l0,.08a50.44,50.44,0,0,0-10.27,1.83A22.64,22.64,0,0,0,87.33,59c-4.68,4-8.87,12.91-7.22,23.92.12.75,4.14,89.85,4.73,89.3-.64,2.88-5.26-84.73-5.65-81.61-.7,5.6-.14,12.76-.52,18.51-.46,7-.91,14.06-.91,21.22a188.62,188.62,0,0,0,1.51,21.75c.85,7.46,1.56,14.92,2,22.44,1,16.94,3.19,52.19,3.2,50.21.07-14.35,2.66-27.16,2-41.61-.32-7.09-3.41-15.78-4.1-22.84s-1.71-14.08-2.16-21.18a177.42,177.42,0,0,1,0-20.37c.31-6.28.7-12.55,1.23-18.74.9-10.78,2.48-22,6.89-29,5-8,17.27-15,17.41-16S95.08,59.75,89.74,65.24c-3.51,3.61-5.95,9.2-7.61,15.78C80.85,71.21,88.67,65.59,93,62.34c2.45-1.83,1-5.09,3.63-5.81A47.85,47.85,0,0,1,105.79,55a1.58,1.58,0,0,0,1.36-1.2,2,2,0,0,0,0-.33,1.36,1.36,0,0,0,.47-.13c2.69-1.27,5.09-3.26,7.92-2.63-9.47-.86-11.62-4.13-7.94,3.08.23.44,4,4,5.29,4.13.22.35,1.17.25,1.32.22a13.53,13.53,0,0,1,4.83,2.28c3.26,2.36,6.13,6.31,9,10.29a124.92,124.92,0,0,1,14,24.3l.06.2a45.94,45.94,0,0,0,2.87,8.08l.48.94c.39,1.21.77,2.44,1.14,3.67.74,3,1.36,6.12,1.88,9.33,1,6.43,2,12.91,2.95,19.39,1.91,13.11,3.59,26.38,4.33,39.72.78,14,.53,28.21-1.51,41.29-.3,1.93,2.78-5.29,3.06-8,.07,1.92.14,3.85.23,5.77.07,1.68,1.73-11.17,1.56-16.42.26,3.47.53,6.95.74,10.42.24,3.86,1.54,13.42,1.83,11.66,1.09-6.49.24-13.8-.25-20.65q-.83-11.19-1.63-22.38l3.81,33.9C163.8,213.64,162.17,179.34,160.41,163.65ZM116.49,54a14.56,14.56,0,0,1,4.26-.25c2.83.36,5.44,3.29,7.68,6.1C124.78,56.38,120.71,54.11,116.49,54Zm34.08,43.66a33.77,33.77,0,0,0-3.1-6.19l-.66-1c-.27-.76-.56-1.52-.87-2.27-1-2.4-2.13-4.68-3.31-6.92a91,91,0,0,0-3.84-9.55A69,69,0,0,0,132.42,61a26.58,26.58,0,0,1,4.05,5.48c1.12,2,2,4.33,3.23,6.2s2.57,3.13,3.8,4.79c4.41,6,6.57,14.4,8,22.7C151.18,99.34,150.89,98.48,150.57,97.65Z"/><path class="cls-3" d="M160.47,161.4c-1.67-14.84-3.16-29.77-5.08-44.55-1.53-11.88-3.78-24.41-8.65-33.48-1.28-2.38-2.76-4.27-4.08-6.55a76.63,76.63,0,0,1-3.54-8.17,39.31,39.31,0,0,0-8.35-12.46c-7.41-7.53-24.58-6.6-24.38-5.69l0,.08A50.3,50.3,0,0,0,96.15,52.4a22.81,22.81,0,0,0-8.76,4.33c-4.68,3.94-8.87,12.91-7.22,23.91.11.75,4.14,89.86,4.73,89.31-.64,2.87-5.26-84.73-5.65-81.61-.7,5.59-.14,12.76-.52,18.51-.46,7-.91,14.06-.91,21.22a190.69,190.69,0,0,0,1.5,21.74c.86,7.47,1.57,14.93,2,22.45,1,16.94,3.19,52.19,3.2,50.21.07-14.36,2.66-27.16,2-41.62-.32-7.08-3.41-15.77-4.1-22.84s-1.71-14.07-2.16-21.17a177.42,177.42,0,0,1,0-20.37c.31-6.28.7-12.56,1.22-18.74.91-10.79,2.49-22,6.9-29,5-8,17.27-15,17.4-16S95.14,57.5,89.8,63c-3.51,3.62-6,9.21-7.61,15.79C80.91,69,88.73,63.33,93.06,60.09c2.45-1.83,1-5.09,3.63-5.81a47.9,47.9,0,0,1,9.15-1.52,1.55,1.55,0,0,0,1.37-1.19,2.12,2.12,0,0,0,0-.33,1.47,1.47,0,0,0,.46-.13c2.7-1.28,4.9-4,7.74-3.37-9.48-.86-8.46.42-6.52,2.7.29.34,2.79,5.12,4,5.25.22.35,1.18.25,1.33.22a13.53,13.53,0,0,1,4.83,2.28c3.25,2.35,6.13,6.31,9,10.29a124.62,124.62,0,0,1,14,24.3,1.33,1.33,0,0,1,0,.19,46.47,46.47,0,0,0,2.88,8.08l.48,1c.39,1.21.77,2.43,1.14,3.67.74,3,1.36,6.11,1.88,9.33,1,6.43,2,12.91,2.95,19.38,1.91,13.12,3.59,26.38,4.33,39.73.78,14,.53,28.21-1.51,41.29-.3,1.92,2.78-5.3,3.05-8,.08,1.93.15,3.85.23,5.78.08,1.67,1.74-11.17,1.57-16.43.25,3.48.53,7,.74,10.43.23,3.86,1.54,13.42,1.83,11.66,1.09-6.49.24-13.8-.26-20.66l-1.62-22.38,3.81,33.91C163.86,211.38,162.23,177.08,160.47,161.4ZM116.54,51.74a14.31,14.31,0,0,1,4.27-.25c2.82.36,5.44,3.29,7.67,6.1C124.84,54.13,120.77,51.86,116.54,51.74ZM150.63,95.4a33.46,33.46,0,0,0-3.1-6.19l-.66-1c-.27-.76-.56-1.52-.87-2.27-1-2.4-2.13-4.69-3.31-6.92a94.36,94.36,0,0,0-3.84-9.56,69.71,69.71,0,0,0-6.37-10.63,27,27,0,0,1,4.05,5.48c1.11,2,2,4.32,3.23,6.2s2.57,3.13,3.79,4.79c4.42,6,6.58,14.4,8,22.69C151.24,97.08,151,96.23,150.63,95.4Z"/><path class="cls-2" d="M152.47,118.47c-.74-3.3-1.54-6.53-2.36-9.7-.64-3.46-1.38-6.83-2.25-10.08s-1.79-6.15-2.79-9l-.09-.34c-1.43-5.1-2.64-10.7-4.28-15.31-2.5-7-3-7-4.64-10.36a42.86,42.86,0,0,0-7.7-11.15c-8.92-9.85-14.43-.53-12.57-.46,2.81.11,16,26.6,20,36a216.69,216.69,0,0,1,11.57,36.43c3.21,13.81,4,31.17,5.07,46.13A468.31,468.31,0,0,1,153.88,218c-.31,10.43,5.67-31.37,4.34-49.31C157,152,156,133.93,152.47,118.47Zm-17.86-51.6c1.49,3,2.24,7.47,4.36,8.19l-.75-1.55c-.32-.66-.66-1.29-1-1.94-1.77-4.12-3.17-10.26-5.54-12.12C132.94,60.13,133.5,64.65,134.61,66.87Z"/><path class="cls-1" d="M158.19,163.44c-1.9-17.3-3.6-34.71-5.77-51.94-1.73-13.86-4.25-28.48-9.58-39.07-1.4-2.78-3-5-4.47-7.67a92,92,0,0,1-3.88-9.54,46.77,46.77,0,0,0-9.14-14.56c-8.08-8.83-26.69-7.84-26.48-6.78,0,0-.51-.48-.5-.45-3.75.27-6.93,1.5-10.59,2.61a23.65,23.65,0,0,0-9.48,5c-5.06,4.57-9.54,15-7.69,27.83.13.87,5,104.74,5.66,104.1-.68,3.35-6.21-98.77-6.61-95.13-.72,6.51-.08,14.86-.46,21.57-.45,8.16-.9,16.37-.86,24.72a239.36,239.36,0,0,0,1.77,25.35c1,8.7,1.78,17.4,2.33,26.16,1.23,19.75,3.77,60.85,3.76,58.54,0-16.73,2.73-31.64,1.93-48.49-.39-8.26-3.8-18.4-4.58-26.64s-1.94-16.42-2.48-24.69A224,224,0,0,1,71,110.6c.3-7.31.7-14.62,1.22-21.83.92-12.56,2.57-25.59,7.31-33.73,5.37-9.23,18.65-17.32,18.79-18.53S86.71,42,81,48.33c-3.79,4.19-6.4,10.69-8.16,18.35-1.44-11.44,7-18,11.68-21.7,2.64-2.13,1-5.94,3.9-6.75a48.38,48.38,0,0,1,9.93-1.72,1.69,1.69,0,0,0,1.46-1.38,1.89,1.89,0,0,0,0-.38,1.64,1.64,0,0,0,.5-.15c2.92-1.47,5.51-3.77,8.59-3-10.28-1.06-12.64-4.89-8.6,3.54.25.51,4.39,4.69,5.76,4.84.24.42,1.27.3,1.44.27a14.4,14.4,0,0,1,5.25,2.68c3.54,2.77,6.69,7.4,9.77,12.05a151.11,151.11,0,0,1,15.37,28.4l.06.23A57.6,57.6,0,0,0,141.11,93l.53,1.11c.43,1.41.85,2.84,1.26,4.28.82,3.51,1.5,7.14,2.09,10.88,1.17,7.51,2.25,15.06,3.31,22.61,2.15,15.3,4.06,30.77,4.94,46.32.92,16.35.74,32.88-1.4,48.11-.31,2.25,3-6.15,3.27-9.27.09,2.24.18,4.48.29,6.73.08,2,1.81-13,1.59-19.13.3,4.05.62,8.1.87,12.15.28,4.5,1.75,15.64,2.06,13.6,1.14-7.56.18-16.08-.4-24.07q-1-13.05-1.9-26.09Q159.78,200,162,219.78C162.17,221.71,160.2,181.73,158.19,163.44Zm-48.29-128a14.16,14.16,0,0,1,4.63-.27c3.06.44,5.92,3.86,8.35,7.15C118.9,38.22,114.48,35.55,109.9,35.39Zm37.23,51.08a41.61,41.61,0,0,0-3.4-7.24c-.25-.41-.48-.81-.72-1.22-.3-.89-.61-1.78-1-2.65-1.1-2.81-2.34-5.48-3.63-8.09a115.22,115.22,0,0,0-4.23-11.16,83.24,83.24,0,0,0-7-12.43,31.38,31.38,0,0,1,4.42,6.41c1.23,2.37,2.19,5,3.55,7.24s2.8,3.67,4.14,5.61c4.83,7,7.22,16.83,8.78,26.5C147.8,88.43,147.49,87.44,147.13,86.47Z"/><path class="cls-3" d="M85.3,78.6c.37-.52,20.68-.92,29.35,1.49,5.66,1.89,14.41,5.11,20.23,9.07,0,0-4.8.8-4.77.82a78.15,78.15,0,0,1,17.51,13.83c5.39,5.89,7,12.61,8.37,19.87q.62,3.34,1.2,6.7c4.65,15.8,6.18,31.23,5.81,33.7-3.16,20.73,9,52,7.61,50-5.43-8.09-7.22-23.53-10.49-41.31a16.64,16.64,0,0,0-.38,7.63c.59,3.56,3.58,13,3.8,16.65.5,7.95-15,34.62-11.6,26.79,2.79-6.41-5.35-27.91-6.25-34.81-.71-5.44-3-11.27-1.51-16.79a42.43,42.43,0,0,0,1.29-17.36c-.73-6-1.67-12.07-2.69-18.08-1-5.8-1.55-11.89-3.27-17.56-1.81-6-6.67-10.29-12-14.27-5-3.72-10-7.31-16.31-9.45C78.2,84.29,85.3,78.6,85.3,78.6Z"/><path class="cls-1" d="M149.9,164.24c.43-5-8.44-26.79-6.27-51.67,1.22-13.91-4.25-28.47-9.58-39.07-1.4-2.78-3-5-4.47-7.66a92.93,92.93,0,0,1-3.88-9.54,46.83,46.83,0,0,0-9.14-14.57C108.47,32.9,89.87,33.9,90.08,35c0,0-.51-.49-.5-.45-3.75.27-6.93,1.49-10.59,2.6a23.67,23.67,0,0,0-9.48,5c-5.06,4.57-9.54,15-7.69,27.83.13.87,5,104.73,5.66,104.1-.68,3.34-6.21-98.78-6.61-95.14-.73,6.52-.08,14.86-.46,21.57-.45,8.17-.9,16.37-.86,24.72a241.84,241.84,0,0,0,1.76,25.35c1,8.7,1.79,17.41,2.34,26.17,1.23,19.75,3.77,60.84,3.76,58.53,0-16.73,2.73-31.64,1.93-48.48-.39-8.27-3.8-18.41-4.59-26.64s-1.93-16.42-2.47-24.69a224,224,0,0,1-.09-23.74c.3-7.32.69-14.63,1.22-21.84.92-12.56,2.57-25.58,7.3-33.73,5.38-9.23,18.66-17.32,18.79-18.52S77.92,43,72.16,49.4c-3.79,4.19-6.4,10.69-8.16,18.35-1.44-11.43,7-17.94,11.68-21.7,2.64-2.12,1-5.93,3.9-6.75a48.38,48.38,0,0,1,9.92-1.71A1.69,1.69,0,0,0,91,36.2a1.76,1.76,0,0,0,0-.38,1.4,1.4,0,0,0,.5-.15c2.92-1.47,5.51-3.77,8.59-3-10.28-1-12.64-4.88-8.6,3.54.25.52,4.39,4.69,5.76,4.85.24.41,1.27.3,1.44.27A14.4,14.4,0,0,1,104,44c3.54,2.76,6.69,7.39,9.77,12a151.21,151.21,0,0,1,15.37,28.41l.06.23a57.6,57.6,0,0,0,3.17,9.43c.18.37.35.74.52,1.1.44,1.42.86,2.84,1.26,4.29.83,3.51,1.51,7.13,2.1,10.88,1.17,7.5,2.25,15.06,3.31,22.61,2.15,15.3,4.06,30.76,4.94,46.32.92,16.35.74,32.88-1.4,48.1-.31,2.25,3-6.15,3.27-9.27.09,2.24.18,4.49.28,6.73.09,2,1.82-13,1.6-19.13.3,4.05.62,8.11.87,12.16.28,4.5,1.75,15.64,2.06,13.59,1.14-7.55.18-16.08-.41-24.07l-1.89-26.09q2.16,19.77,4.34,39.54C153.38,222.79,148.31,182.57,149.9,164.24ZM101.11,36.46a14.38,14.38,0,0,1,4.62-.27c3.07.44,5.92,3.87,8.36,7.16C110.11,39.29,105.68,36.62,101.11,36.46Zm37.23,51.08a41.51,41.51,0,0,0-3.4-7.23c-.25-.41-.48-.82-.72-1.22-.3-.9-.62-1.78-1-2.66-1.1-2.8-2.34-5.47-3.63-8.09a115,115,0,0,0-4.23-11.15,82.86,82.86,0,0,0-7-12.44,31.19,31.19,0,0,1,4.42,6.42c1.23,2.36,2.19,5,3.55,7.24s2.8,3.66,4.14,5.61c4.83,7,7.22,16.82,8.78,26.49C139,89.51,138.69,88.51,138.34,87.54Z"/><path class="cls-4" d="M180,250.67a114.62,114.62,0,0,1,5-11.55c1.87-3.79,5.49,2.25,9.52,11.55H239.7c-7.2-29.16-17.66-56.33-34.92-65.9-22.15-12.27-35,9.9-53.71-10.9-10.63-11.79-4.92-28.21-4.39-42.51-15.77,1.81-31.84,4-47.71,6,2.15,17.7,4.7,36.53-11.45,48.08-22.53,7-28.42-3.53-47.4,15.87-8.31,8.49-15.58,29.15-21.35,49.35Z"/><path class="cls-1" d="M164.47,152.21c-1-12.26-1.94-24.62-4.19-36.66s-6-23.1-9.84-34.15c-1.61-4.66-3.42-9.25-6.31-12.46-2.7-3-6-4.55-9.08-6.18-1.81-1-9.47-10-11-11.51-2.92-3-14.79-3.36-14.27-2.94,2.79,2.26,8.3-.1,13.19,7.08a29.12,29.12,0,0,0,8.6,8.37c3,1.77,6.18,3,9,5.33,3.2,2.63,5.3,6.73,7,11.43a242.38,242.38,0,0,1,9.83,32.64C160,125,161,137.19,162,149.32c1.13,13.84,5.71,42.59,5.59,41.12Z"/><path class="cls-1" d="M158.41,154.28c-1-12.27-1.95-24.62-4.2-36.66s-6-23.11-9.83-34.16c-1.62-4.65-3.42-9.24-6.31-12.46-2.71-3-6-4.54-9.08-6.18a30.41,30.41,0,0,1-5.33-3.36c-1.59-1.3-3.5-4.37-5-5.92-2.92-3-13.59-6.08-13.53-5.22.37,5.06,9.27,4.5,11.81,7.14s5.56,6.57,8.6,8.36,6.17,3,9,5.33c3.2,2.64,5.3,6.73,7,11.44a241.51,241.51,0,0,1,9.83,32.64c2.48,11.82,3.53,24,4.52,36.15,1.14,13.84,5.72,42.6,5.6,41.12Z"/><path class="cls-3" d="M163.55,159.89c-1.67-14.84-3.17-29.77-5.08-44.55-1.54-11.88-3.79-24.42-8.65-33.48-1.28-2.38-2.76-4.28-4.08-6.56a74.48,74.48,0,0,1-3.54-8.16,39.05,39.05,0,0,0-8.36-12.46c-7.41-7.54-24.57-6.6-24.37-5.69a.24.24,0,0,1,0,.08,50.32,50.32,0,0,0-10.26,1.82,22.78,22.78,0,0,0-8.76,4.32c-4.68,3.95-8.87,12.91-7.22,23.92.11.75,4.14,89.85,4.73,89.31-.64,2.87-5.26-84.74-5.65-81.61-.7,5.59-.15,12.75-.52,18.51-.46,7-.91,14-.91,21.22a190.85,190.85,0,0,0,1.5,21.74c.86,7.46,1.57,14.93,2,22.45,1,16.94,3.19,52.19,3.2,50.21.06-14.36,2.66-27.17,2-41.62-.32-7.09-3.41-15.77-4.1-22.84s-1.71-14.08-2.17-21.17a179.89,179.89,0,0,1,0-20.38c.32-6.27.71-12.55,1.23-18.74.91-10.78,2.49-22,6.89-29,5-7.94,17.28-15,17.41-16s-10.7,4.73-16,10.22c-3.52,3.61-5.95,9.2-7.61,15.79C84,67.45,91.8,61.82,96.13,58.58c2.45-1.84,1-5.1,3.64-5.81a47.77,47.77,0,0,1,9.15-1.52,1.56,1.56,0,0,0,1.36-1.2,1.33,1.33,0,0,0,0-.32,1.79,1.79,0,0,0,.46-.13c2.7-1.28,5.1-3.27,7.93-2.63-9.47-.86-11.62-4.14-7.94,3.07.23.45,4,4,5.28,4.13.22.36,1.18.25,1.33.23a13.33,13.33,0,0,1,4.83,2.27c3.25,2.36,6.13,6.32,9,10.29a125.73,125.73,0,0,1,14,24.3,1.46,1.46,0,0,0,.05.2,46.47,46.47,0,0,0,2.88,8.08l.48.95q.58,1.82,1.14,3.66c.74,3,1.36,6.12,1.88,9.33,1,6.44,2,12.92,2.94,19.39,1.92,13.12,3.6,26.38,4.34,39.73.77,14,.53,28.21-1.51,41.28-.31,1.93,2.78-5.29,3-8q.11,2.88.23,5.78c.07,1.67,1.73-11.18,1.56-16.43.26,3.48.54,7,.75,10.43.23,3.86,1.54,13.41,1.83,11.65,1.09-6.48.24-13.8-.26-20.65q-.81-11.19-1.63-22.38,1.92,17,3.82,33.91C166.94,209.87,165.31,175.57,163.55,159.89ZM119.62,50.23a14.29,14.29,0,0,1,4.27-.26c2.82.37,5.44,3.3,7.67,6.1C127.92,52.62,123.84,50.35,119.62,50.23Zm34.09,43.66a34.51,34.51,0,0,0-3.1-6.2c-.23-.35-.44-.69-.66-1-.27-.77-.56-1.53-.87-2.27-1-2.41-2.13-4.69-3.31-6.93a96.57,96.57,0,0,0-3.84-9.55,69.82,69.82,0,0,0-6.37-10.64,26.62,26.62,0,0,1,4,5.49c1.12,2,2,4.32,3.24,6.19s2.57,3.13,3.79,4.79c4.42,6,6.57,14.41,8,22.7C154.32,95.57,154,94.72,153.71,93.89Z"/><path class="cls-3" d="M163.75,161.16c-1.67-14.84-3.17-29.77-5.08-44.55-1.54-11.88-3.79-24.41-8.65-33.48-1.28-2.38-2.76-4.27-4.08-6.55a74.65,74.65,0,0,1-3.54-8.17A39.16,39.16,0,0,0,134,56c-7.41-7.54-24.57-6.6-24.37-5.69a.24.24,0,0,1,0,.08,50.32,50.32,0,0,0-10.26,1.82,22.81,22.81,0,0,0-8.76,4.33C86,60.43,81.8,69.4,83.45,80.4c.11.75,4.14,89.86,4.73,89.31-.64,2.87-5.26-84.73-5.65-81.61-.7,5.59-.15,12.76-.52,18.51-.46,7-.91,14-.91,21.22a190.69,190.69,0,0,0,1.5,21.74c.86,7.47,1.57,14.93,2,22.45,1,16.94,3.19,52.19,3.2,50.21.06-14.36,2.66-27.16,2-41.62-.32-7.08-3.41-15.77-4.1-22.84S84,143.69,83.56,136.6a179.71,179.71,0,0,1,0-20.37c.32-6.28.71-12.56,1.23-18.74.91-10.79,2.49-22,6.89-29,5-8,17.28-15,17.41-16s-10.7,4.74-16,10.22c-3.52,3.62-6,9.21-7.61,15.79C84.19,68.72,92,63.09,96.33,59.85c2.45-1.83,1-5.09,3.64-5.81a47.77,47.77,0,0,1,9.15-1.52,1.53,1.53,0,0,0,1.36-1.19,1.4,1.4,0,0,0,0-.33,1.47,1.47,0,0,0,.46-.13c2.7-1.28,5.1-3.26,7.93-2.63-9.47-.86-11.72.18-7.94,3.08.33.25,4,4,5.28,4.13.22.35,1.18.25,1.33.22A13.36,13.36,0,0,1,122.41,58c3.25,2.35,6.13,6.31,9,10.29a125.13,125.13,0,0,1,14,24.3,1.33,1.33,0,0,0,0,.19,46.47,46.47,0,0,0,2.88,8.08l.48,1c.39,1.21.77,2.43,1.14,3.67.74,3,1.36,6.11,1.88,9.32,1,6.44,2,12.92,2.94,19.39,1.91,13.12,3.6,26.38,4.34,39.73.77,14,.53,28.21-1.52,41.29-.3,1.92,2.79-5.3,3.06-8,.07,1.93.15,3.85.23,5.78.07,1.67,1.73-11.17,1.56-16.43.26,3.48.54,7,.75,10.43.23,3.86,1.54,13.41,1.83,11.66,1.09-6.49.24-13.8-.26-20.66q-.81-11.19-1.63-22.38,1.92,17,3.82,33.91C167.14,211.14,165.51,176.84,163.75,161.16ZM119.82,51.5a14.29,14.29,0,0,1,4.27-.25c2.82.36,5.44,3.29,7.67,6.1C128.12,53.89,124,51.62,119.82,51.5Zm34.09,43.66a34.09,34.09,0,0,0-3.1-6.19c-.23-.35-.44-.7-.66-1-.27-.76-.56-1.52-.87-2.27-1-2.4-2.13-4.69-3.31-6.92a94.41,94.41,0,0,0-3.85-9.56,69.46,69.46,0,0,0-6.36-10.64,26.89,26.89,0,0,1,4,5.49c1.12,2,2,4.32,3.24,6.2s2.57,3.13,3.79,4.79c4.42,6,6.57,14.4,8,22.69C154.52,96.84,154.23,96,153.91,95.16Z"/><path class="cls-1" d="M162.12,155.5C160.45,140.66,159,125.73,157,111c-1.53-11.88-3.78-24.41-8.65-33.47-1.28-2.39-2.76-4.28-4.08-6.56a43.38,43.38,0,0,1-3.54-8.17c-2-6.31-5.25-9.3-8.35-12.46C125,42.76,107.85,43.69,108,44.6l0,.08A51.11,51.11,0,0,0,97.8,46.5a22.7,22.7,0,0,0-8.75,4.33c-4.69,4-8.88,12.91-7.23,23.91.12.75,4.14,89.86,4.73,89.31-.64,2.88-5.26-84.73-5.65-81.61-.7,5.6-.14,12.76-.52,18.51-.46,7-.91,14.06-.91,21.22A188.62,188.62,0,0,0,81,143.92c.85,7.46,1.56,14.92,2,22.44,1,16.94,3.19,52.19,3.2,50.21.07-14.36,2.66-27.16,2-41.62-.32-7.08-3.41-15.77-4.1-22.83S82.39,138,81.94,130.94a177.42,177.42,0,0,1,0-20.37c.31-6.28.7-12.55,1.23-18.74.9-10.78,2.48-22,6.89-29,5-8,17.27-15,17.41-16s-10.71,4.73-16,10.22c-3.51,3.61-6,9.2-7.61,15.78-1.28-9.81,6.54-15.43,10.87-18.68,2.45-1.83,1-5.09,3.63-5.81a47.85,47.85,0,0,1,9.16-1.51,1.58,1.58,0,0,0,1.36-1.2,2,2,0,0,0,0-.33,1.36,1.36,0,0,0,.47-.13s-2-.1,0,.45c.36.1,4,4,5.29,4.13.22.35,1.17.25,1.32.22a13.53,13.53,0,0,1,4.83,2.28c3.26,2.36,6.13,6.31,8.95,10.29a124.92,124.92,0,0,1,14,24.3l.06.2a45.94,45.94,0,0,0,2.87,8.08l.48.94c.4,1.21.78,2.44,1.14,3.67.74,3,1.36,6.12,1.88,9.33,1,6.43,2,12.91,3,19.39,1.91,13.11,3.59,26.38,4.33,39.72.78,14,.53,28.21-1.51,41.29-.3,1.93,2.78-5.3,3.06-8,.07,1.93.14,3.85.23,5.78.07,1.68,1.73-11.17,1.56-16.42.26,3.47.53,7,.74,10.42.24,3.86,1.54,13.42,1.83,11.66,1.09-6.49.24-13.8-.25-20.65q-.82-11.19-1.63-22.38l3.81,33.9C165.51,205.49,163.88,171.19,162.12,155.5ZM150.76,91.55a34.09,34.09,0,0,0-3.1-6.19q-.34-.52-.66-1c-.28-.76-.56-1.52-.87-2.27-1-2.4-2.14-4.69-3.31-6.92A94.41,94.41,0,0,0,139,65.56a69.67,69.67,0,0,0-6.36-10.63,43.69,43.69,0,0,1,4,5.48c1.27,1.82,2,4.32,3.24,6.2s2.56,3.13,3.79,4.79c4.42,6,6.57,14.4,8,22.69C151.37,93.23,151.08,92.38,150.76,91.55Z"/><path class="cls-3" d="M162,157.87c-1.67-14.84-3.16-29.77-5.07-44.55-1.54-11.88-3.79-24.42-8.66-33.48-1.28-2.38-2.75-4.28-4.08-6.56a74.46,74.46,0,0,1-3.53-8.16,37.5,37.5,0,0,0-8.36-12.46C125.18,45.68,109,48.78,108,47l0,.08a50.2,50.2,0,0,0-10.26,1.82A22.71,22.71,0,0,0,89,53.19c-4.69,4-8.88,12.91-7.22,23.92.11.75-.54,4.57-.93,7.7-.69,5.59-.14,12.75-.52,18.51-.45,7-.91,14.05-.91,21.22a188.6,188.6,0,0,0,1.51,21.74c.86,7.46,1.56,14.93,2,22.44,1,16.95,3.19,52.2,3.2,50.22.07-14.36,2.66-27.17,2-41.62-.33-7.09-3.42-15.77-4.11-22.84s-1.71-14.08-2.16-21.17a179.89,179.89,0,0,1,0-20.38c.31-6.27.71-12.55,1.23-18.74.91-10.78,2.48-22,6.89-29,5-7.94,15.71-15.56,17.41-16,1.42-.35.28-2,.44-2.81,0-.13,5.43,5.61,6.69,5.73.22.36,1.17.25,1.33.23a13.29,13.29,0,0,1,4.82,2.27c3.26,2.36,6.13,6.32,9,10.29a125.71,125.71,0,0,1,14,24.3l.06.2a45.66,45.66,0,0,0,2.88,8.08c.15.32.31.63.47,1q.6,1.82,1.14,3.66c.75,3,1.36,6.12,1.88,9.33,1,6.44,2,12.92,2.95,19.39,1.91,13.12,3.59,26.38,4.33,39.72.78,14,.53,28.22-1.51,41.29-.3,1.93,2.78-5.29,3.06-8,.07,1.92.14,3.85.23,5.78.07,1.67,1.73-11.18,1.56-16.43.26,3.47.53,6.95.74,10.43.24,3.86,1.54,13.41,1.84,11.65,1.09-6.49.24-13.8-.26-20.65q-.83-11.19-1.63-22.38,1.9,17,3.82,33.91C165.43,207.85,163.81,173.55,162,157.87ZM118.12,48.21a14.27,14.27,0,0,1,4.27-.26c2.82.37,9.07,7.52,11.3,10.32C130.05,54.82,122.34,48.33,118.12,48.21Zm34.09,43.66a34.54,34.54,0,0,0-3.11-6.2l-.66-1c-.27-.77-.55-1.53-.87-2.27-1-2.41-2.13-4.69-3.31-6.93a91.91,91.91,0,0,0-3.84-9.55c-1.87-3.85-6.54-8.47-8.89-11.69,1.49,1.57,5.4,4.42,6.57,6.54s2,4.32,3.24,6.19,2.56,3.13,3.79,4.79c4.41,6,6.57,14.41,8,22.7C152.81,93.55,152.53,92.7,152.21,91.87Z"/><path class="cls-3" d="M166.07,165.48c-1.71-14.83-3.23-29.76-5.2-44.53-1.59-11.88-3.94-24.41-9.1-33.45-1.36-2.37-2.94-4.26-4.34-6.54a70.32,70.32,0,0,1-3.75-8.15,38.71,38.71,0,0,0-8.89-12.42c-7.9-7.5-26.3-6.47-26.1-5.56,0,0-.5-.41-.49-.38-3.71.27-6.86,1.35-10.49,2.34a25.22,25.22,0,0,0-9.41,4.37c-5,4-9.58,13-7.87,24,.12.75,4,89.87,4.6,89.32-.71,2.87-5.19-84.74-5.63-81.61-.77,5.6-.22,12.76-.65,18.52-.53,7-1,14.06-1.09,21.23a175.93,175.93,0,0,0,1.5,21.74c.88,7.47,1.6,14.93,2,22.45,1,16.94,3.14,52.19,3.16,50.21.15-14.36,3-27.19,2.37-41.64-.31-7.09-3.57-15.77-4.27-22.83s-1.76-14.08-2.21-21.17A166.78,166.78,0,0,1,80.4,121c.36-6.28.82-12.56,1.41-18.76,1-10.79,2.78-22,7.54-29,5.4-8,18.6-15.05,18.75-16.08S96.59,61.89,90.84,67.4c-3.78,3.64-6.42,9.24-8.23,15.84-1.32-9.81,7.08-15.48,11.74-18.75,2.64-1.85,1.08-5.1,3.92-5.83a54.82,54.82,0,0,1,9.83-1.56,1.69,1.69,0,0,0,1.46-1.21,1.35,1.35,0,0,0,0-.33,1.53,1.53,0,0,0,.5-.13c2.9-1.29,5.48-3.29,8.51-2.67-10.15-.81-12.44-4.08-8.53,3.12.24.44,4.29,4,5.64,4.1.24.36,1.26.25,1.42.22a14.7,14.7,0,0,1,5.16,2.25c3.48,2.34,6.54,6.29,9.55,10.25,5.42,7.16,10.7,14.79,14.91,24.23l.06.2a43.73,43.73,0,0,0,3.05,8.07c.16.32.33.63.5.94.42,1.21.82,2.43,1.21,3.66q1.15,4.52,2,9.33c1.08,6.43,2.08,12.91,3.06,19.38,2,13.11,3.71,26.37,4.43,39.71.76,14,.42,28.22-1.84,41.31-.33,1.94,3-5.31,3.32-8,.07,1.93.14,3.85.22,5.78.06,1.68,1.91-11.19,1.76-16.44.26,3.47.53,7,.74,10.43.23,3.86,1.58,13.41,1.9,11.65,1.21-6.5.33-13.81-.16-20.66q-.83-11.19-1.63-22.38,1.95,17,3.91,33.9C169.44,215.47,167.88,181.17,166.07,165.48ZM119.57,56a16.41,16.41,0,0,1,4.58-.28c3,.35,5.81,3.26,8.19,6.06C128.44,58.36,124.09,56.11,119.57,56Zm36.31,43.49a32.76,32.76,0,0,0-3.3-6.18l-.7-1c-.29-.76-.59-1.52-.92-2.27-1.06-2.4-2.26-4.68-3.51-6.91a87.75,87.75,0,0,0-4.07-9.53A67.34,67.34,0,0,0,136.61,63a26.31,26.31,0,0,1,4.31,5.46c1.19,2,2.11,4.32,3.44,6.19s2.73,3.11,4,4.77c4.7,6,7,14.37,8.41,22.66C156.52,101.19,156.22,100.34,155.88,99.51Z"/><path class="cls-3" d="M164,163c-1.9-17.31-3.6-34.71-5.77-52C156.46,97.22,154,82.6,148.62,72c-1.4-2.79-3-5-4.47-7.67a92.93,92.93,0,0,1-3.88-9.54,46.83,46.83,0,0,0-9.14-14.57c-8.09-8.82-26.69-7.83-26.48-6.77,0,0-.51-.49-.5-.45-3.75.27-6.93,1.49-10.59,2.6a23.67,23.67,0,0,0-9.48,5c-5.06,4.57-9.54,15-7.69,27.83.13.87,5,104.73,5.66,104.1-.68,3.34-6.21-98.78-6.61-95.14C74.71,83.91,75.36,92.25,75,99c-.45,8.17-.9,16.37-.86,24.72A241.84,241.84,0,0,0,75.88,149c1,8.7,1.79,17.41,2.34,26.17C79.45,195,82,236,82,233.73c0-16.73,2.73-31.64,1.93-48.48-.39-8.26-3.8-18.41-4.58-26.64s-1.94-16.42-2.48-24.69a224,224,0,0,1-.09-23.74c.3-7.32.69-14.63,1.22-21.84.92-12.56,2.57-25.58,7.31-33.73,5.37-9.23,18.65-17.32,18.78-18.52S92.49,41.54,86.73,47.9c-3.79,4.19-6.4,10.7-8.16,18.35-1.44-11.43,7-17.94,11.68-21.7,2.64-2.12,1-5.93,3.9-6.75a48.38,48.38,0,0,1,9.92-1.71,1.69,1.69,0,0,0,1.47-1.39,1.76,1.76,0,0,0,0-.38,1.4,1.4,0,0,0,.5-.15c2.92-1.47,5.51-3.77,8.59-3-10.28-1-12.64-4.88-8.6,3.54.25.52,4.39,4.69,5.76,4.85.24.41,1.27.3,1.44.27a14.4,14.4,0,0,1,5.25,2.68c3.54,2.76,6.69,7.39,9.77,12a151.21,151.21,0,0,1,15.37,28.41l.06.23a57.6,57.6,0,0,0,3.17,9.43c.18.37.35.74.52,1.1q.66,2.13,1.26,4.29c.83,3.51,1.51,7.13,2.1,10.88,1.17,7.5,2.25,15.06,3.31,22.61,2.15,15.3,4.06,30.76,4.94,46.32.92,16.35.74,32.88-1.4,48.11-.31,2.24,3-6.16,3.27-9.28q.13,3.38.28,6.73c.09,2,1.82-13,1.6-19.13.3,4.05.62,8.11.87,12.16.28,4.5,1.75,15.64,2.06,13.59,1.14-7.55.18-16.08-.4-24.07q-1-13-1.9-26.09,2.16,19.77,4.34,39.54C168,221.29,166,181.3,164,163ZM115.68,35a14.38,14.38,0,0,1,4.62-.27c3.07.44,5.92,3.87,8.36,7.16C124.68,37.79,120.26,35.12,115.68,35ZM152.91,86a41.51,41.51,0,0,0-3.4-7.23c-.25-.41-.48-.82-.72-1.22-.3-.9-.62-1.78-1-2.66-1.1-2.8-2.34-5.47-3.63-8.09A115,115,0,0,0,140,55.69a82.86,82.86,0,0,0-7-12.44,31.19,31.19,0,0,1,4.42,6.42c1.23,2.36,2.19,5,3.55,7.24s2.8,3.66,4.14,5.61c4.83,7,7.22,16.82,8.78,26.49C153.58,88,153.26,87,152.91,86Z"/><path class="cls-2" d="M114.42,50.69c-.23-.54-10,1.41-13.92,5.08a52.18,52.18,0,0,0-8.66,12.42s2.4.32,2.39.35A82.42,82.42,0,0,0,87.44,85.9c-1.9,7.16-1.91,14.78-1.7,23l.21,7.55c-.38,18,.69,35.31,1.16,38,4,22.57,3.36,14.28,3.48,17.69.13,4-.19,14.85.12,18.87.7,8.86,8-3.22,7.64-11-.3-6.1.11-12.82-1.24-18.76a104.45,104.45,0,0,1-2.65-19.07c-.36-6.77-.62-13.55-.83-20.32-.21-6.54-.65-13.35-.49-19.83a45.85,45.85,0,0,1,4.09-17.2c2-4.7,4-9.26,6.73-12.38C118.51,56.15,114.42,50.69,114.42,50.69Z"/><path class="cls-1" d="M81.49,70c-2.44,3.25-4.59,11-5.09,16.77a156.34,156.34,0,0,0-.17,20.78c.34,7.43.82,14.87,1.26,22.3.9,15.18,1.9,30.35,3.15,45.51,1.39,16.86,7.3,51.24,7.07,49.17-3.3-28.86-5.75-57.84-7.54-86.89-.44-7.16-.85-14.33-1.27-21.5a183.54,183.54,0,0,1,.66-22.55c1.25-16.66,5.07-18.44,8.25-27.14,2.09-5.7,6.25-6.79,9.79-8.87,3.81-2.23,12-7.18,11.3-7.7C106.71,48.15,97.34,48.88,81.49,70Z"/><path class="cls-1" d="M107.88,56.76c4.91-8.25-28.32,22.2-30.75,78.87-1.58,36.78,2.67,74.63,2.28,81.22-2.28,38.45,4.08,92.88,4.25,89C85.83,255.92,60.47,136.45,107.88,56.76Z"/><path class="cls-2" d="M109.28,50.57c-.34-.8-14.13,2-19.57,7.54-3.5,4.12-8.85,11-12.1,18.56,0,0,3.39.51,3.37.55a127.84,127.84,0,0,0-9.44,26c-2.63,10.72-2.59,22.16-2.23,34.45q.16,5.66.34,11.33c-.41,27.06,1.21,53,1.9,57,5.71,33.89,2.91,88,3.48,84.38,2.28-14.37.82-40.33,0-70.43a65.75,65.75,0,0,1,1.57,12.6c.22,6-.17,22.29.31,28.32,1,13.29,16.11,54.92,12.46,42.5-3-10.15-1.2-47.28-1.79-58.9-.46-9.16.06-19.24-1.88-28.16a166.57,166.57,0,0,1-3.86-28.61c-.55-10.17-1-20.33-1.3-30.49-.34-9.81-1-20-.83-29.74.19-10.26,2.73-18.25,5.64-25.78,2.71-7,5.5-13.86,9.39-18.52C115.06,58.8,109.28,50.57,109.28,50.57Z"/><path class="cls-2" d="M106.77,50.76c-.34-.81-14.12,2.05-19.56,7.53-3.5,4.12-8.85,11-12.1,18.57,0,0,3.38.5,3.36.54a127.72,127.72,0,0,0-9.44,26c-2.62,10.71-2.59,22.15-2.23,34.44.11,3.78.23,7.56.34,11.33-.41,27.07,1.22,53,1.9,57,5.71,33.89,2.91,88,3.48,84.39,2.28-14.38.82-40.34,0-70.43a65.5,65.5,0,0,1,1.58,12.6c.21,6-.17,22.28.3,28.31,1,13.3,16.12,54.92,12.46,42.51-3-10.16-1.2-47.29-1.78-58.91-.47-9.15,0-19.23-1.88-28.15a166.69,166.69,0,0,1-3.87-28.62c-.55-10.16-1-20.33-1.3-30.49-.33-9.8-1-20-.82-29.74.19-10.25,2.73-18.25,5.63-25.78,2.71-7,5.5-13.86,9.4-18.52C112.55,59,106.77,50.76,106.77,50.76Z"/><path class="cls-3" d="M185.65,223.19c-2.45-22.27-4.66-44.68-7.45-66.86-2.24-17.83-5.5-36.64-12.41-50.27-1.81-3.58-3.9-6.43-5.78-9.86-2-3.62-3.38-8.12-5-12.28a59.82,59.82,0,0,0-11.84-18.74c-10.48-11.36-34.63-10.07-34.35-8.7,0,0,0,.07,0,.12a66.53,66.53,0,0,0-14.43,2.66,30.81,30.81,0,0,0-12.3,6.43c-6.57,5.88-12.4,19.3-10,35.82.16,1.12,6.44,134.8,7.26,134-.88,4.31-8-127.12-8.51-122.44-.94,8.38-.11,19.13-.6,27.76-.6,10.51-1.19,21.07-1.14,31.82a302.1,302.1,0,0,0,2.27,32.62c1.25,11.21,2.3,22.4,3,33.68,1.58,25.42,4.85,78.31,4.84,75.34,0-21.54,3.56-40.73,2.54-62.41-.5-10.63-4.91-23.68-5.93-34.28s-2.5-21.13-3.19-31.78a285.81,285.81,0,0,1-.1-30.55c.4-9.42.91-18.83,1.61-28.11,1.2-16.16,3.34-32.93,9.5-43.42,7-11.88,24.21-22.31,24.39-23.85s-15,7-22.51,15.22c-4.93,5.39-8.31,13.76-10.6,23.62C73.05,84,84,75.61,90.08,70.77c3.44-2.73,1.35-7.64,5.07-8.69A62.7,62.7,0,0,1,108,59.87a2.23,2.23,0,0,0,1.91-1.79,2.93,2.93,0,0,0,0-.49,1.72,1.72,0,0,0,.65-.19c3.8-1.9,7.16-4.86,11.15-3.89-13.34-1.36-16.4-6.28-11.16,4.56.32.66,5.69,6,7.46,6.23.32.53,1.66.38,1.87.35a18.43,18.43,0,0,1,6.81,3.44c4.6,3.56,8.68,9.52,12.67,15.5,7.23,10.81,14.25,22.33,19.92,36.54,0,.1.06.2.08.3a74.16,74.16,0,0,0,4.11,12.14c.22.48.45,1,.68,1.42q.84,2.73,1.63,5.51c1.06,4.52,2,9.18,2.71,14,1.51,9.66,2.9,19.39,4.28,29.1,2.78,19.69,5.24,39.6,6.37,59.62,1.19,21,.93,42.32-1.85,61.91-.41,2.9,3.88-7.92,4.25-11.93q.16,4.32.36,8.66c.11,2.52,2.36-16.74,2.09-24.62.39,5.21.79,10.43,1.12,15.64.35,5.79,2.25,20.13,2.66,17.5,1.49-9.73.24-20.7-.51-31q-1.22-16.8-2.44-33.58,2.79,25.44,5.6,50.88C190.76,298.18,188.24,246.72,185.65,223.19ZM121.57,37.88a28.25,28.25,0,0,1,6-.38c4,.28,7.54,3.14,10.59,5.88A30,30,0,0,0,121.57,37.88Zm46.59,42.74A29.59,29.59,0,0,0,164,74.51l-.9-1c-.36-.76-.74-1.51-1.15-2.25a72.19,72.19,0,0,0-4.45-6.84,75.06,75.06,0,0,0-5.11-9.46,64.11,64.11,0,0,0-8.63-10.47,27,27,0,0,1,5.52,5.37c1.51,2,2.67,4.28,4.36,6.12s3.51,3.06,5.19,4.68c6,5.87,8.8,14.25,10.51,22.51C169,82.29,168.59,81.44,168.16,80.62Z"/><path class="cls-3" d="M186.39,231.31c-2.49-22.86-4.74-45.87-7.57-68.65-2.28-18.3-5.57-37.63-12.51-51.63-1.82-3.68-3.92-6.62-5.81-10.14-2-3.72-3.39-8.34-5.06-12.61A61.89,61.89,0,0,0,143.56,69c-10.51-11.68-34.65-10.4-34.37-9,0,.05,0,.08,0,.12A65.45,65.45,0,0,0,94.8,62.84a30.34,30.34,0,0,0-12.29,6.57c-6.56,6-12.36,19.79-9.93,36.76.16,1.16,6.7,138.41,7.52,137.57-.87,4.42-8.22-130.53-8.74-125.72-.93,8.6-.08,19.64-.56,28.5-.57,10.79-1.14,21.63-1.07,32.66a318.61,318.61,0,0,0,2.33,33.5c1.28,11.5,2.35,23,3.07,34.58,1.64,26.1,5,80.41,5,77.35,0-22.1,3.48-41.8,2.42-64.06-.52-10.92-5-24.33-6-35.21s-2.54-21.7-3.25-32.63a301.47,301.47,0,0,1-.16-31.37c.38-9.66.87-19.32,1.55-28.85,1.17-16.59,3.28-33.8,9.41-44.56,7-12.19,24.18-22.85,24.35-24.44S93.42,70.67,86,79.07C81.05,84.6,77.67,93.19,75.4,103.3c-1.89-15.11,9-23.7,15.11-28.65,3.44-2.8,1.34-7.84,5.06-8.92a61.88,61.88,0,0,1,12.87-2.24,2.23,2.23,0,0,0,1.91-1.83,3.13,3.13,0,0,0,0-.5,2,2,0,0,0,.66-.2c3.78-1.94,7.14-5,11.13-4-13.34-1.42-16.5.17-11.15,4.66.47.39,5.7,6.2,7.48,6.41.31.55,1.66.4,1.87.36A18.5,18.5,0,0,1,127.2,72c4.6,3.66,8.69,9.78,12.7,15.93,7.25,11.12,14.3,23,20,37.56l.09.3a75.34,75.34,0,0,0,4.13,12.47c.22.5.45,1,.68,1.47q.84,2.79,1.64,5.66c1.07,4.64,2,9.43,2.73,14.38,1.54,9.92,3,19.91,4.34,29.88,2.82,20.22,5.32,40.66,6.49,61.22,1.23,21.6,1,43.45-1.73,63.56-.4,3,3.87-8.12,4.23-12.24.12,3,.25,5.93.38,8.89.12,2.58,2.33-17.18,2-25.28.4,5.36.81,10.72,1.15,16.07.37,5.94,2.29,20.67,2.69,18,1.47-10,.2-21.25-.56-31.81q-1.26-17.24-2.51-34.48l5.7,52.25C191.66,308.32,189,255.48,186.39,231.31Zm-64.49-191a28.2,28.2,0,0,1,6-.38c4,.3,7.56,3.24,10.61,6.07C133.48,42.51,127.83,40.29,121.9,40.28Zm46.68,44A30.83,30.83,0,0,0,164.39,78c-.31-.35-.6-.71-.9-1.06-.36-.78-.74-1.55-1.15-2.31a77.31,77.31,0,0,0-4.46-7,78.47,78.47,0,0,0-5.14-9.72,66.5,66.5,0,0,0-8.65-10.77,27.34,27.34,0,0,1,5.53,5.53c1.52,2,2.68,4.39,4.38,6.28s3.52,3.15,5.19,4.83c6,6,8.84,14.64,10.56,23.13C169.39,86,169,85.1,168.58,84.25Z"/><path class="cls-2" d="M169.78,161c-1.07-5-2.21-9.82-3.4-14.58-.92-5.19-2-10.25-3.23-15.13s-2.56-9.24-4-13.5c0-.17-.09-.34-.14-.51-2-7.66-3.78-16.08-6.12-23-3.57-10.52-4.3-10.56-6.6-15.57-3.05-6.63-7.42-13.17-10.92-16.78-12.62-14.82-20.31-.89-17.7-.77,4,.18,22.64,40,28.44,54.19,6.45,15.76,12,34.18,16.53,54.72,4.62,20.73,5.83,46.78,7.46,69.23,1.74,24,2.85,47.68,2.32,71-.36,15.64,7.77-47,5.77-73.94C176.35,211.29,174.82,184.2,169.78,161ZM142.13,54.11c2,3,2.93,7.43,5.88,8.08-.34-.51-.67-1-1-1.53-.44-.66-.89-1.28-1.33-1.92-2.36-4.07-4.14-10.19-7.42-12C140,47.4,140.64,51.92,142.13,54.11Z"/><path class="cls-3" d="M181.72,235.12c-2.5-22.87-4.74-45.87-7.58-68.65-2.28-18.31-5.57-37.63-12.5-51.64-1.83-3.68-3.93-6.61-5.81-10.13-2-3.72-3.39-8.34-5.06-12.62a62,62,0,0,0-11.89-19.26c-10.5-11.68-34.65-10.4-34.36-9,0,0,0,.07,0,.12a64.78,64.78,0,0,0-14.42,2.71,30.34,30.34,0,0,0-12.29,6.57C71.28,79.25,65.47,93,67.91,110c.16,1.15,6.7,138.41,7.52,137.57C74.56,252,67.2,117,66.68,121.82c-.92,8.61-.08,19.64-.55,28.5C65.56,161.12,65,172,65.06,183a318.79,318.79,0,0,0,2.33,33.5c1.28,11.5,2.35,23,3.07,34.58,1.63,26.1,5,80.4,5,77.35,0-22.1,3.48-41.8,2.42-64.06-.53-10.92-5-24.33-6-35.21s-2.54-21.7-3.26-32.63a304.25,304.25,0,0,1-.15-31.37c.37-9.67.87-19.33,1.54-28.85,1.18-16.6,3.29-33.8,9.42-44.56,7-12.19,24.17-22.86,24.35-24.44s-15,7.18-22.49,15.58C76.37,88.41,73,97,70.73,107.11c-1.9-15.11,9-23.7,15.11-28.65,3.43-2.81,1.34-7.84,5.06-8.92a61.23,61.23,0,0,1,12.87-2.24,2.25,2.25,0,0,0,1.91-1.83,3.25,3.25,0,0,0,0-.51,2,2,0,0,0,.65-.19c3.79-1.94,7.15-5,11.14-4-13.34-1.41-16.41-6.48-11.15,4.66.32.69,5.7,6.21,7.48,6.42.31.55,1.65.39,1.87.36a18.31,18.31,0,0,1,6.81,3.55c4.61,3.66,8.7,9.78,12.71,15.93,7.24,11.12,14.29,23,20,37.56,0,.1.06.2.08.3A77.58,77.58,0,0,0,159.43,142l.68,1.46q.85,2.81,1.65,5.66c1.07,4.65,2,9.44,2.73,14.38,1.53,9.92,2.95,19.91,4.34,29.89,2.82,20.22,5.32,40.66,6.49,61.22,1.23,21.6,5.21,43,4.92,34.93.39,5.36.81,10.71,1.14,16.07.37,5.94,2.3,20.67,2.7,18,1.47-10,.2-21.25-.57-31.8q-1.24-17.25-2.51-34.48,2.85,26.12,5.71,52.25C187,312.12,184.36,259.29,181.72,235.12ZM117.14,42.94a27.61,27.61,0,0,1,6-.38c3.95.3,7.55,3.24,10.6,6.06C128.73,45.17,123.07,43,117.14,42.94Zm46.68,44a30.56,30.56,0,0,0-4.19-6.28l-.9-1.06c-.36-.78-.73-1.55-1.15-2.31a76,76,0,0,0-4.46-7A78.6,78.6,0,0,0,148,60.5a66.91,66.91,0,0,0-8.64-10.76,27.86,27.86,0,0,1,5.53,5.53c1.51,2,2.67,4.39,4.37,6.28s3.52,3.15,5.19,4.83c6,6,8.84,14.63,10.56,23.13C164.63,88.63,164.25,87.76,163.82,86.91Z"/><path class="cls-1" d="M183.61,216.6c-2.45-22.27-4.65-44.67-7.45-66.85-2.24-17.83-5.49-36.65-12.4-50.28-1.82-3.58-3.91-6.43-5.79-9.86a67.35,67.35,0,0,1-5-12.28c-2.91-9.47-7.45-14-11.84-18.74-10.48-11.35-34.63-10.06-34.35-8.7,0,0,0,.08,0,.12a66.53,66.53,0,0,0-14.43,2.66,30.94,30.94,0,0,0-12.3,6.43c-6.57,5.89-12.4,19.3-10,35.82.16,1.13,6.44,134.8,7.26,134-.88,4.3-8-127.13-8.51-122.45-.94,8.39-.11,19.13-.6,27.76C67.6,144.74,67,155.3,67.06,166a302.28,302.28,0,0,0,2.27,32.63c1.26,11.2,2.3,22.4,3,33.68,1.59,25.41,4.85,78.3,4.85,75.33,0-21.53,3.56-40.72,2.53-62.41-.5-10.63-4.91-23.68-5.93-34.28s-2.5-21.13-3.19-31.77a286,286,0,0,1-.09-30.56c.39-9.41.91-18.83,1.6-28.1,1.2-16.17,3.34-32.93,9.5-43.42,7-11.89,24.21-22.31,24.39-23.86s-15,7-22.51,15.22c-4.92,5.4-8.31,13.77-10.6,23.63C71,77.41,82,69,88,64.19c3.44-2.74,1.35-7.64,5.07-8.7A63.38,63.38,0,0,1,106,53.28a2.23,2.23,0,0,0,1.91-1.78,3.1,3.1,0,0,0,0-.49,2,2,0,0,0,.66-.2s-2.85-.16,0,.67c.51.15,5.69,6,7.46,6.23.32.54,1.66.39,1.87.35a18.43,18.43,0,0,1,6.81,3.44c4.6,3.56,8.68,9.52,12.67,15.5,7.23,10.82,14.26,22.33,19.92,36.55l.09.29A73.22,73.22,0,0,0,161.5,126c.23.48.45,1,.68,1.42.56,1.82,1.11,3.66,1.63,5.51,1.07,4.52,1.95,9.19,2.71,14,1.51,9.65,2.91,19.38,4.28,29.1,2.78,19.68,5.24,39.59,6.37,59.61,1.19,21,.94,42.32-1.85,61.92-.41,2.89,3.88-7.92,4.25-11.94q.17,4.33.36,8.67c.12,2.51,2.36-16.75,2.09-24.63.39,5.21.8,10.43,1.12,15.65.35,5.78,2.25,20.13,2.66,17.49,1.49-9.72.24-20.7-.51-31q-1.22-16.78-2.44-33.58,2.81,25.44,5.6,50.88C188.73,291.59,186.2,240.14,183.61,216.6ZM164.08,78.37a29.92,29.92,0,0,0-4.17-6.12c-.31-.34-.6-.68-.9-1-.36-.76-.73-1.52-1.15-2.26a76.91,76.91,0,0,0-4.44-6.84,76.54,76.54,0,0,0-5.12-9.46,65,65,0,0,0-8.63-10.47c2.05,1.53,3,2.77,5.52,5.38,1.73,1.78,2.67,4.27,4.37,6.11s3.51,3.06,5.18,4.69c6,5.86,8.8,14.24,10.51,22.51C164.89,80,164.51,79.19,164.08,78.37Z"/><path class="cls-3" d="M181.78,231.65c-2.49-22.86-4.74-45.87-7.58-68.65-2.28-18.31-5.57-37.63-12.5-51.64-1.83-3.67-3.93-6.61-5.81-10.13-2-3.72-3.39-8.34-5.06-12.62a62,62,0,0,0-11.89-19.26c-10.5-11.68-34.65-10.4-34.36-9l0,.12a64.78,64.78,0,0,0-14.42,2.71A30.34,30.34,0,0,0,77.9,69.75c-6.56,6-12.37,19.79-9.93,36.76.16,1.15,6.7,138.41,7.52,137.57-.87,4.42-8.78-137-9.3-132.19-.93,8.61-1.54,24.65,0,35,1.6,10.69-1.14,21.64-1.07,32.67A318.61,318.61,0,0,0,67.45,213c1.28,11.5,2.35,23,3.07,34.58,1.63,26.1,5,80.41,5,77.35,0-22.1,3.48-41.8,2.42-64.06-.53-10.92-5-24.33-6-35.21s-2.54-21.7-3.25-32.63a301.47,301.47,0,0,1-.16-31.37c.38-9.66.87-19.33,1.55-28.85,1.17-16.6,3.28-33.8,9.41-44.56,7-12.19,24.17-22.85,24.35-24.44S88.81,71,81.35,79.41c-4.92,5.53-8.29,14.12-10.56,24.23C68.9,88.53,79.84,79.94,85.9,75c3.43-2.8,1.34-7.84,5.06-8.92a61.23,61.23,0,0,1,12.87-2.24A2.25,2.25,0,0,0,105.74,62a3.13,3.13,0,0,0,0-.5,2,2,0,0,0,.65-.2c3.79-1.94,6.86-6.11,10.85-5.11-13.34-1.42-11.89.55-9.15,4.08.42.54,4,7.92,5.77,8.13.31.55,1.65.4,1.87.36a18.31,18.31,0,0,1,6.81,3.55c4.61,3.66,8.7,9.78,12.71,15.93,7.25,11.12,14.29,23,20,37.56,0,.1.06.2.08.3a76.28,76.28,0,0,0,4.14,12.47c.22.5.45,1,.67,1.47q.86,2.79,1.65,5.66c1.07,4.64,2,9.43,2.73,14.38C166.08,170,167.5,180,168.89,190c2.82,20.22,5.32,40.66,6.49,61.22,1.23,21.6,2.13,55.44,2.5,51.31.12,3,.24,5.94.38,8.9.11,2.58,2.33-17.18,2-25.28.39,5.36.81,10.71,1.14,16.07.37,5.94,2.3,20.67,2.7,18,1.47-10,.2-21.25-.57-31.81q-1.24-17.25-2.51-34.48,2.85,26.13,5.71,52.25C187.05,308.66,184.42,255.82,181.78,231.65Zm-64.49-191a27.56,27.56,0,0,1,6-.38c4,.3,7.55,3.24,10.61,6.07C128.87,42.85,123.22,40.63,117.29,40.62Zm46.68,44a30.83,30.83,0,0,0-4.19-6.28l-.9-1.06c-.36-.78-.74-1.55-1.16-2.31a75.86,75.86,0,0,0-4.45-7,80,80,0,0,0-5.14-9.73,66.86,66.86,0,0,0-8.65-10.76A27.86,27.86,0,0,1,145,53c1.52,2,2.68,4.39,4.38,6.28s3.51,3.15,5.19,4.83c6,6,8.83,14.63,10.56,23.13C164.77,86.31,164.39,85.44,164,84.59Z"/><path class="cls-3" d="M185.1,245.53c-2.67-25.4-5.09-50.94-8.1-76.24-2.41-20.34-5.84-41.81-12.81-57.41-1.83-4.1-3.93-7.37-5.82-11.3-2-4.14-3.43-9.28-5.11-14a69.12,69.12,0,0,0-11.91-21.48c-10.11-12.1-32.55-7.18-34-10.3,0,0,0,.08,0,.13a57.31,57.31,0,0,0-14.22,2.88A28.4,28.4,0,0,0,81.1,65c-6.42,6.63-12,21.85-9.47,40.69.18,1.29,7.87,153.64,8.67,152.71-.82,4.9-9.3-144.9-9.77-139.57-.84,9.54.1,21.79-.28,31.61-.47,12-.94,24-.77,36.24.17,12.48,1.27,24.75,2.6,37.19,1.37,12.77,2.53,25.54,3.35,38.4,1.85,29,5.66,89.25,5.63,85.87-.25-24.53,3-46.35,1.8-71.07-.61-12.11-5.12-27-6.24-39.12s-2.71-24.09-3.51-36.23c-.77-11.71-.74-23.36-.43-34.81.28-10.72.68-21.43,1.26-32,1-18.41,2.93-37.48,8.89-49.36,6.76-13.46,23.65-25.14,23.82-26.9S91.19,62.52,83.9,71.77c-4.8,6.09-7.36,19.51-9.51,30.72-2-16.79,8.72-26.22,14.66-31.66,3.36-3.08,3.45-6,7.44-7.37,5-1.72,7.81-4.17,10.16-4.85,2-.57.34-3.41.54-4.8,0-.21,7.68,9.72,9.43,10,.31.62,1.64.46,1.85.42a18,18,0,0,1,6.76,4c4.58,4.11,8.67,10.94,12.68,17.8,7.26,12.39,14.32,25.59,20.08,41.85,0,.11,0,.22.08.34a95.15,95.15,0,0,0,4.19,13.87l.69,1.63q.86,3.1,1.67,6.29c1.1,5.16,2,10.49,2.83,16,1.6,11,2.21,25.29,3.67,36.37,3,22.46,8.95,41.89,7.84,64.81-1.16,24,1.4,48.22-1.13,70.52-.37,3.28,2.81-10.08,3.13-14.65.21-5.21.36-37,.52-33.73.14,2.87,3,25.65,2.65,16.67.44,5.94.9,11.89,1.28,17.84.41,6.59,2.45,23,2.82,20,1.36-11.07,0-23.58-.85-35.3l-2.79-38.28q3.06,29,6.11,58C191,331,187.93,272.37,185.1,245.53Zm-4.56-1.78c-2.67-25.4-6.37-50.19-9.38-75.49-2.41-20.33-5.83-41.8-12.81-57.41-1.83-4.1-3.93-7.37-5.82-11.3-2-4.14-3.43-9.28-5.11-14A68.83,68.83,0,0,0,135.51,64c-10.11-12.1-32.55-7.18-34-10.3,0,0,0,.09,0,.14a57.84,57.84,0,0,0-14.22,2.87,28.53,28.53,0,0,0-12.06,7.18c-6.42,6.64-12,21.85-9.48,40.7.18,1.28,7.88,153.63,8.68,152.71-.83,4.89-9.3-144.91-9.77-139.58-.84,9.54.09,21.79-.29,31.62-.47,12-.93,24-.77,36.23.18,12.49,1.27,24.75,2.61,37.19,1.36,12.78,2.52,25.54,3.34,38.4,1.85,29,5.66,89.26,5.63,85.87C75,322.53,78.28,300.71,77,276c-.61-12.12-5.11-27-6.24-39.12s-2.7-24.1-3.5-36.23c-.78-11.72-.74-23.36-.44-34.81.28-10.72.69-21.44,1.26-32,1-18.4,2.94-37.47,8.9-49.35,6.75-13.46,23.65-25.15,23.81-26.9s-15.46,3.9-22.75,13.16c-4.8,6.09-7.35,19.51-9.5,30.71-2-16.78,8.71-26.22,14.65-31.65,3.36-3.08,3.45-6,7.44-7.38,5-1.71,7.81-4.17,10.16-4.84,2-.57.34-3.42.54-4.8,0-.21,7.68,9.71,9.43,10,.32.61,1.64.45,1.85.41a18,18,0,0,1,6.76,4C124,71.27,128.06,78.1,132.08,85c7.25,12.4,14.32,25.6,20.07,41.85,0,.12.06.23.08.34a93.19,93.19,0,0,0,4.2,13.87c.22.55.45,1.09.68,1.63.58,2.08,1.13,4.18,1.67,6.3,1.1,5.16,2,10.48,2.83,16,1.6,11,3.09,22.11,4.55,33.2,3,22.45,5.62,45.16,7,68,1.41,24-2.29,33.32-2.13,36.61.13,2.87,6-19.85,5.11-32.61,2,19.34,6.72,37.71,8.76,57.05C185.16,330,183.36,270.59,180.54,243.75ZM120,37a24.06,24.06,0,0,1,5.92-.36c3.91.36,12.45,8.41,15.49,11.57C136.43,44.31,125.86,37,120,37Zm46.47,49.21a35.54,35.54,0,0,0-4.19-7c-.31-.39-.6-.78-.9-1.18-.36-.87-.74-1.73-1.16-2.58a89.69,89.69,0,0,0-4.46-7.84,94.25,94.25,0,0,0-5.16-10.83c-2.52-4.36-8.91-9.55-12.11-13.18,2,1.76,7.4,4.94,9,7.34s2.69,4.9,4.38,7,3.5,3.53,5.17,5.4c6,6.75,8.85,16.32,10.63,25.76C167.29,88.1,166.91,87.14,166.48,86.19Z"/><path class="cls-3" d="M191.66,237.19c-2.57-22.87-4.87-45.87-7.81-68.64-2.36-18.3-.12-42.1-7.58-56.06-2-3.67-12.32-40-17.08-44.82-11.37-11.62-50.83-2.76-50.53-1.36,0,0-.72-.64-.71-.59-5.29.38-9.8,2-15,3.51-4.62,1.33-9.23,3.1-13.43,6.66C72.34,82,65.93,95.77,68.47,112.73c.17,1.15,6.39,138.43,7.29,137.59-1,4.43-6.64-130.12-8.7-125.73-4.16,8.88-3,19.88-.79,28.52,2.62,10.5-1.39,21.65-1.39,32.68A296.12,296.12,0,0,0,67.2,219.3c1.32,11.5,2.41,23,3.12,34.57,1.61,26.1,4.92,80.41,4.93,77.36.1-22.12,4.07-41.85,3-64.11-.49-10.92-5.24-24.31-6.3-35.19s-2.63-21.69-3.33-32.62a276.15,276.15,0,0,1,0-31.39c.47-9.67,1.07-19.34,1.87-28.87,1.39-16.61,3.8-33.84,10.55-44.64,7.66-12.24,26.49-23,26.7-24.62S91.41,77.08,83.22,85.53c-5.38,5.56-9.12,14.18-11.66,24.31-2-15.11,10-23.77,16.66-28.76,3.75-2.83,1.5-7.86,5.56-9a73.48,73.48,0,0,1,14-2.33A2.39,2.39,0,0,0,109.91,68a2.35,2.35,0,0,0,0-.5,2.35,2.35,0,0,0,.72-.21c4.14-2,7.81-5,12.16-4-14.53-1.33-17.84-6.38-12.18,4.73.35.69,6.17,6.17,8.1,6.37.34.55,1.81.39,2,.35a20.54,20.54,0,0,1,7.4,3.5c5,3.64,9.41,9.74,13.74,15.86,7.82,11.08,15.43,22.87,21.54,37.45l.09.3A70.33,70.33,0,0,0,168,144.21c.24.49.48,1,.73,1.46.6,1.86,1.19,3.75,1.75,5.65,1.14,4.64,2.08,9.42,2.88,14.37,1.61,9.91,3.08,19.9,4.53,29.87,2.94,20.21,5.53,40.64,6.67,61.2,1.2,21.61.83,43.47-2.3,63.61-.46,3,4.26-8.15,4.69-12.28.11,3,.22,5.93.35,8.9.11,2.58,2.65-17.21,2.39-25.31.4,5.36.82,10.71,1.15,16.07.36,5.94,2.36,20.66,2.81,18,1.67-10,.36-21.26-.4-31.82q-1.26-17.25-2.51-34.48,2.93,26.11,5.87,52.23C196.89,314.19,194.37,261.35,191.66,237.19ZM122.49,44.41A32.73,32.73,0,0,1,129,44c4.31.27,8.21,3.19,11.52,6A33.75,33.75,0,0,0,122.49,44.41ZM173.06,88.1a29.7,29.7,0,0,0-4.52-6.26l-1-1.06c-.38-.77-.79-1.54-1.24-2.3a74.31,74.31,0,0,0-4.81-7A75.78,75.78,0,0,0,156,61.78a66.76,66.76,0,0,0-9.35-10.72,28.64,28.64,0,0,1,6,5.5c1.64,2,2.9,4.38,4.73,6.26S161.15,66,163,67.61c6.54,6,9.53,14.59,11.35,23.07C173.93,89.81,173.52,88.94,173.06,88.1Z"/><path class="cls-3" d="M87.87,90.8a206.21,206.21,0,0,0-8,43.86c-.68,8.74-1.32,17.5-.68,26.63S79,182.22,80,191.37c1.91,19.2,4.33,40.45,6.87,59.42,2.74,20.39.39,22.26,11.07,52,.89,2.5-8.58-46.14-11.62-100.52-.5-9-1.86-18-2.72-27s-1.88-18-1.57-27.06c.28-8.18,1-16.36,1.79-24.26.79-7.58,1.75-15.2,3.56-21.82,4.46-16.29,13.44-29.09,18.45-37.25C106.26,64.12,93.56,72.1,87.87,90.8Z"/><path class="cls-1" d="M68,89.82c-3.41,5-6.37,16.94-7,25.77a264.9,264.9,0,0,0,0,32c.56,11.44,1.31,22.9,2,34.35,1.41,23.38,3,46.76,4.88,70.11,2.12,26,10.78,79,10.42,75.78C73.34,283.38,69.61,238.72,66.81,194q-1-16.57-2-33.13c-.64-10.85,0-24.18.7-34.73,1.6-25.64,7-28.35,11.36-41.7,2.88-8.76,8.72-10.4,13.68-13.56,5.34-3.4,16.77-11,15.84-11.75C103.29,56.45,90.11,57.48,68,89.82Z"/><path class="cls-1" d="M180.4,216.89c-1.51-18.41-2.92-36.94-6.26-55-3.31-17.88-8.89-34.67-14.57-51.26-2.39-7-5.06-13.88-9.33-18.71-4-4.52-8.82-6.83-13.41-9.29a45.52,45.52,0,0,1-7.88-5c-2.34-2-5.17-6.57-7.36-8.9-4.32-4.58-20.07-9.15-20-7.86.56,7.59,13.7,6.77,17.44,10.73,4,4.19,8.21,9.88,12.7,12.57s9.12,4.48,13.35,8c4.73,4,7.83,10.11,10.36,17.17,5.63,15.7,11,32.06,14.56,49,3.69,17.74,2.47,23.86,6.75,54.25,2.91,20.63,6.86,126.75,7.42,104.6Z"/><path class="cls-1" d="M192.75,216.74c2.72-20.17-3.54-42-10.53-58.47-7.1-16.73-9.7-33-15.17-49.55-2.31-7-4.88-13.89-9-18.74-3.83-4.53-8.43-6.85-12.82-9.33-2.57-1.44-13.41-15-15.51-17.34-4.13-4.59-20.83-5.13-20.1-4.5,3.94,3.41,11.67-.1,18.61,10.71a42.75,42.75,0,0,0,12.16,12.61c4.25,2.68,8.71,4.51,12.76,8.06,4.52,4,7.51,10.13,9.94,17.2,5.42,15.71,10.65,32.09,14.06,49,3.58,17.75,5.13,36.06,6.62,54.26,1.7,20.77,13,103.19,12.8,101Z"/><ellipse class="cls-5" cx="113.03" cy="87.27" rx="52.44" ry="73.53" transform="translate(-6.09 8.51) rotate(-4.2)"/><path class="cls-6" d="M106.93,78.59c.66,9-9,13.88-20.51,14.73S65.91,90.66,65.24,81.65,73.61,67.85,85.12,67,106.27,69.58,106.93,78.59Z"/><path class="cls-6" d="M159.47,74.73c.66,9-9,13.89-20.51,14.73s-20.52-2.66-21.18-11.67,8.37-13.8,19.88-14.64S158.8,65.72,159.47,74.73Z"/><path class="cls-6" d="M105.47,76c4.46,1.18,8.53,1,12.11-.89"/><path class="cls-6" d="M107.09,80.8a9.1,9.1,0,0,1,10.85-.8"/><line class="cls-6" x1="64.35" y1="83.53" x2="53.4" y2="84.33"/><line class="cls-6" x1="171.49" y1="76.07" x2="160.53" y2="76.88"/><line class="cls-6" x1="171.18" y1="71.77" x2="160.22" y2="72.57"/><line class="cls-6" x1="64.07" y1="79.63" x2="53.11" y2="80.44"/><path class="cls-7" d="M137.81,122.22c0,.14-8.1,11.5-19.69,12.35s-22.26-9.13-22.27-9.27,9.37-1,21-1.8S137.8,122.08,137.81,122.22Z"/><path class="cls-1" d="M99.79,60.48c.18-.94-5.18-1.89-10.43-2.4-7.16-.69-13,1.28-16.83,2.62-7.36,2.57-17.5,12.69-17.31,13s11-8.7,17.63-10.24a31.71,31.71,0,0,1,11.2-1.36c3,.13,6.62,1.16,8.75.38C96.82,61,99.62,61.29,99.79,60.48Z"/><path class="cls-8" d="M70.6,78c-.42-.88,2.19-3.59,6.51-5.7a30.8,30.8,0,0,1,5.48-.6C73.36,73.92,70.6,78,70.6,78Z"/><path class="cls-8" d="M153.5,69.6c.27-.91-2.57-3.12-6.94-4.58,0,0-2.45-.06-5.28.16C150.24,66.15,153.5,69.6,153.5,69.6Z"/><path class="cls-9" d="M123.43,106.74c-1.07-.24,3.21-1.57,4.31,2,.77,2.5-2.08,5.2-2.14,4.24C125.6,113,129.36,108,123.43,106.74Z"/><path class="cls-9" d="M118.28,116.91c-.57.93-.09-2,1.65-3,1.4-.82,4.91-.27,4.1.24A5.87,5.87,0,0,0,118.28,116.91Z"/><path class="cls-9" d="M113.15,117.29c.7.83-.2-2-2.07-2.7-1.5-.61-4.89.45-4,.83A5.87,5.87,0,0,1,113.15,117.29Z"/><path class="cls-8" d="M108.13,103.12c-.66,1.79,2.29-1.9,2.24-5.47-.05-2.88-3.14-7.39-3.15-5.68A12.61,12.61,0,0,1,108.13,103.12Z"/><path class="cls-5" d="M144.67,118.83c.71,3.3-2.87-11.3-10.18-13C134.49,105.81,141.59,104.61,144.67,118.83Z"/><path class="cls-5" d="M88.66,123.22c-.22,3.37,1.18-11.6,8.17-14.37C96.83,108.85,89.63,108.7,88.66,123.22Z"/><path class="cls-5" d="M96.59,137c1.54,2.75-2.64-7-2.22-11.93C94.37,125,92.68,130,96.59,137Z"/><path class="cls-5" d="M139.29,132.3c-1.32,2.95,1.89-7.38.64-12.15C139.93,120.15,142.63,124.82,139.29,132.3Z"/><path class="cls-8" d="M119.65,102.27c.92,1.68-2.55-1.54-3-5.08-.38-2.86,2-7.77,2.28-6.08A12.62,12.62,0,0,0,119.65,102.27Z"/><path class="cls-10" d="M72.46,82.83c1-.22-1.17,1.32-2.86.79-1.36-.42-3.84-2.66-3-2.44C66.68,81.06,69,83.6,72.46,82.83Z"/><path class="cls-10" d="M73.15,81.61c.56-.4-.61,1.55-2.35,1.24-1.39-.25-4.49-2.25-3.66-2.13C67.23,80.58,70.87,83.27,73.15,81.61Z"/><path class="cls-10" d="M74.23,80.48c.8-.62-1,1.78-2.75,1.41-1.4-.3-4.1-2.62-3.27-2.48C68.3,79.25,71.64,82.43,74.23,80.48Z"/><path class="cls-10" d="M74.38,80c1-.22-1.17,1.32-2.86.79-1.36-.42-3.84-2.66-3-2.44C68.6,78.26,70.89,80.8,74.38,80Z"/><path class="cls-10" d="M75.39,79.37c.6-.32-.78,1.45-2.47.92-1.36-.43-4.22-2.82-3.41-2.59C69.61,77.57,72.94,80.72,75.39,79.37Z"/><path class="cls-10" d="M76.66,78.26c.87-.5-1.2,1.64-2.88,1-1.36-.48-3.8-3.14-3-2.89C70.9,76.27,73.88,79.87,76.66,78.26Z"/><path class="cls-10" d="M76.76,78.06c1,.07-1.48.78-3-.08-1.19-.69-3-3.15-2.24-2.76A7.56,7.56,0,0,0,76.76,78.06Z"/><path class="cls-10" d="M77.85,77.15c.64-.18-1,1.11-2.59.42-1.27-.56-3.7-3-2.93-2.68C72.45,74.8,75.21,77.93,77.85,77.15Z"/><path class="cls-10" d="M78.79,76.47c.94-.3-1.45,1.2-3,.45-1.26-.6-3.22-3.18-2.47-2.85C73.44,74,75.79,77.41,78.79,76.47Z"/><path class="cls-10" d="M79.17,76.26c.91,0-1.39.82-2.74,0-1.09-.64-2.66-3-2-2.65A6.43,6.43,0,0,0,79.17,76.26Z"/><path class="cls-10" d="M80.4,75.73c.63-.13-1.11,1-2.5.18-1.12-.67-3.08-3.28-2.4-2.91C75.63,72.92,77.8,76.26,80.4,75.73Z"/><path class="cls-10" d="M82.1,74.3c.53-.1-1.09.91-2,.09-.76-.67-1.78-3.18-1.32-2.81C78.87,71.51,79.92,74.71,82.1,74.3Z"/><path class="cls-10" d="M81.93,75.16c.89-.22-1.48,1.08-2.78.24-1-.67-2.42-3.35-1.78-3C77.5,72.33,79.09,75.88,81.93,75.16Z"/><path class="cls-10" d="M153.59,75.4c-1-.11,1.32,1.18,2.94.47,1.3-.57,3.5-3.07,2.72-2.76C159.13,73,157.15,75.78,153.59,75.4Z"/><path class="cls-10" d="M152.76,74.27c-.6-.34.79,1.47,2.48,1,1.36-.4,4.2-2.73,3.39-2.52C158.53,72.58,155.22,75.66,152.76,74.27Z"/><path class="cls-10" d="M151.56,73.26c-.87-.52,1.22,1.66,2.9,1.1,1.35-.45,3.77-3.06,3-2.83C157.31,71.38,154.36,74.92,151.56,73.26Z"/><path class="cls-10" d="M151.36,72.83c-1-.11,1.31,1.18,2.93.47,1.31-.57,3.5-3.07,2.72-2.76C156.89,70.43,154.91,73.21,151.36,72.83Z"/><path class="cls-10" d="M150.28,72.29c-.63-.26.94,1.35,2.56.64,1.3-.58,3.87-3.27,3.09-3C155.81,69.86,152.87,73.35,150.28,72.29Z"/><path class="cls-10" d="M148.89,71.33c-.93-.4,1.38,1.49,3,.72,1.3-.63,3.41-3.54,2.63-3.2C154.38,68.71,151.84,72.61,148.89,71.33Z"/><path class="cls-10" d="M148.77,71.14c-1,.17,1.56.61,2.93-.41,1.1-.82,2.57-3.46,1.9-3A7.56,7.56,0,0,1,148.77,71.14Z"/><path class="cls-10" d="M147.58,70.36c-.66-.12,1.13,1,2.61.12,1.2-.7,3.33-3.37,2.61-3C152.67,67.42,150.28,70.83,147.58,70.36Z"/><path class="cls-10" d="M146.56,69.78c-1-.19,1.58,1,3.05.12,1.18-.74,2.83-3.52,2.11-3.11C151.58,66.69,149.66,70.38,146.56,69.78Z"/><path class="cls-10" d="M146.16,69.61c-.9.14,1.48.66,2.73-.28,1-.76,2.29-3.29,1.68-2.86A6.42,6.42,0,0,1,146.16,69.61Z"/><path class="cls-10" d="M144.88,69.22c-.65,0,1.21.88,2.5-.1,1-.79,2.68-3.6,2.05-3.15C149.29,65.91,147.52,69.46,144.88,69.22Z"/><path class="cls-10" d="M142.89,68.25c-.54,0,1.19.79,2-.13.67-.75,1.4-3.36,1-2.94C145.77,65.13,145.1,68.42,142.89,68.25Z"/><path class="cls-10" d="M143.29,68.83c-.91-.13,1.6.9,2.79-.07.95-.79,2-3.59,1.43-3.15C147.36,65.52,146.2,69.22,143.29,68.83Z"/><path class="cls-1" d="M119.47,59.91c-.44-.9,4.79-3.29,10-5.19,7.13-2.6,13.63-2.11,17.88-1.75,8.2.7,20.71,8.26,20.59,8.59s-13-5.87-20.19-5.7A33.18,33.18,0,0,0,136,57.41c-3,.92-6.46,2.93-8.84,2.69C122.63,59.64,119.85,60.7,119.47,59.91Z"/><path class="cls-9" d="M107,107.86c1-.33-3.34-1.25-4.1,2.45-.52,2.56,2.56,5,2.54,4C105.43,114.33,101.21,109.73,107,107.86Z"/><path class="cls-11" d="M71.77,84s3.15-.07,13.17-2.9a47.64,47.64,0,0,1,7.63-1.37,33.71,33.71,0,0,1,7,.54c.93.23-5.93-7.92-12.83-7.41S71.7,83,71.77,84Z"/><ellipse class="cls-11" cx="84.08" cy="78.07" rx="0.95" ry="1.04" transform="translate(-5.49 6.37) rotate(-4.2)"/><path class="cls-11" d="M154.29,76.35s-3.13.39-13.46-.94a47.24,47.24,0,0,0-7.74-.25,33.86,33.86,0,0,0-6.85,1.56c-.9.37,4.7-8.7,11.6-9.21S154.21,75.3,154.29,76.35Z"/><ellipse class="cls-11" cx="135.01" cy="72.46" rx="0.95" ry="1.04" transform="translate(-4.94 10.08) rotate(-4.2)"/><path class="cls-12" d="M72,84s3.14-.07,13.17-2.9a47.27,47.27,0,0,1,7.63-1.37,33.57,33.57,0,0,1,7,.54c.94.23-5.92-7.92-12.82-7.41S72,82.93,72,84Z"/><path class="cls-12" d="M154,76.36s-3.12.4-13.45-.93a47.36,47.36,0,0,0-7.75-.25A33.33,33.33,0,0,0,126,76.74c-.89.36,4.71-8.7,11.61-9.21S154,75.32,154,76.36Z"/><rect class="cls-11" x="117.54" y="123.65" width="5" height="5.72" rx="1.46" transform="translate(-8.94 9.13) rotate(-4.2)"/><path class="cls-11" d="M125.57,128l-.9.22a1.73,1.73,0,0,1-2-1.5l-.37-1.82a1.91,1.91,0,0,1,1.27-2.28l.9-.22a1.75,1.75,0,0,1,2,1.5l.37,1.82A1.91,1.91,0,0,1,125.57,128Z"/><path class="cls-11" d="M129.23,127.08l-.65.15a1.73,1.73,0,0,1-2-1.49l-.33-1.69c-.21-1,3.72-2,3.93-.94l.33,1.69A1.91,1.91,0,0,1,129.23,127.08Z"/><path class="cls-13" d="M133,125.65l-.59.14a1.73,1.73,0,0,1-2-1.49l-.21-1c-.21-1,3.67-2,3.88-.92l.2,1A1.9,1.9,0,0,1,133,125.65Z"/><path class="cls-14" d="M136.29,124l-.58.13a1.56,1.56,0,0,1-1.82-1.34l3.54-.85A1.72,1.72,0,0,1,136.29,124Z"/><rect class="cls-11" x="112.78" y="124.21" width="5" height="5.72" rx="1.46" transform="translate(239.56 245.36) rotate(175.8)"/><path class="cls-11" d="M110,129.3l.92.08a1.73,1.73,0,0,0,1.78-1.77l.09-1.86a1.89,1.89,0,0,0-1.58-2.07l-.93-.08a1.74,1.74,0,0,0-1.78,1.77l-.09,1.86A1.91,1.91,0,0,0,110,129.3Z"/><path class="cls-11" d="M106.26,129l.66.06a1.73,1.73,0,0,0,1.78-1.77l.09-1.72c0-1.07-4-1.42-4-.36l-.08,1.72A1.89,1.89,0,0,0,106.26,129Z"/><path class="cls-13" d="M102.29,128.12l.61,0a1.74,1.74,0,0,0,1.78-1.78l0-1c0-1.06-3.92-1.41-4-.35l-.05,1.05A1.9,1.9,0,0,0,102.29,128.12Z"/><path class="cls-14" d="M98.83,127l.59.06a1.57,1.57,0,0,0,1.6-1.6l.07-1.32s-3.48,0-3.63-.31l-.06,1.31A1.71,1.71,0,0,0,98.83,127Z"/><path class="cls-15" d="M139.31,120.41c-7.72,1.12-10.25,1.74-13.3,1-3.92-1-8.12-1.27-8.81,1.67-1.39-2.79-5.35-1.73-10.28.29-2.79,1.14-6.86-.3-12.3.87-2.6.56,11.94,12,23.47,11.17S141.94,120,139.31,120.41ZM117.5,133c-7.81,1.14-19-6.38-21.11-7.5,5.08.37,9,3.37,21,1.1,11.46.21,13.92-1.86,19.93-4.09C138.24,122.09,130.73,131,117.5,133Z"/><circle class="cls-16" cx="104.36" cy="95.24" r="0.4"/><circle class="cls-16" cx="144.11" cy="97.24" r="0.4"/><circle class="cls-16" cx="113.01" cy="91.82" r="0.64"/><circle class="cls-16" cx="122.92" cy="94.8" r="0.52"/><circle class="cls-16" cx="113.25" cy="99.51" r="0.32"/><circle class="cls-16" cx="114.98" cy="95.91" r="0.32"/><circle class="cls-16" cx="100.8" cy="99.45" r="0.65"/><circle class="cls-16" cx="116.86" cy="87.93" r="0.13"/><circle class="cls-16" cx="131.59" cy="85.87" r="0.85"/><circle class="cls-16" cx="127.05" cy="94.76" r="0.26"/><circle class="cls-16" cx="98.86" cy="94.98" r="0.26"/><circle class="cls-16" cx="109.6" cy="88.34" r="0.26"/><circle class="cls-16" cx="135.87" cy="95.5" r="0.52"/><circle class="cls-16" cx="129.93" cy="102.57" r="0.57"/><circle class="cls-16" cx="85.44" cy="99.9" r="0.67"/><circle class="cls-16" cx="90.26" cy="103.57" r="0.38"/><path class="cls-3" d="M66.94,55.05c-6,18.37-5.54,38.63-7.41,60.24-1,12-2,24.08-1.14,36.64s-.31,28.79,1,41.36C62,219.69,65.4,248.9,69,275c3.86,28,.44,30.61,15.78,71.43,1.29,3.43-12.19-63.42-16.3-138.19-.68-12.41-2.59-24.7-3.79-37.06S62,146.34,62.54,134c.46-11.26-6.53-23.8-5.28-34.67,1.2-10.43,6.71-23,9.39-32.17C73.22,44.69,72,44.86,79.32,33.6,80,32.52,75.32,29.3,66.94,55.05Z"/><path class="cls-1" d="M106.93,10.94c20.41-4.11,39.73,8.93,51.85,24.28a89.91,89.91,0,0,1,15,28.62c3.64,11.52,6,23.52,8.48,35.33q7.53,35.58,12.54,71.62,5.06,36.36,7.59,73t2.51,73.35q0,4.54,0,9.11c0,.5,2.89.09,2.9-.78q.35-37.29-1.94-74.55t-7.21-74.3q-4.87-36.68-12.33-72.94C183.76,91.65,181.3,79.5,178,67.62a94.73,94.73,0,0,0-14-30.09C152.6,21.61,134.67,8.1,114.23,9a44,44,0,0,0-6.77.84c-.35.07-1.66.32-1.7.81s.87.38,1.17.32Z"/><path class="cls-17" d="M114.73,18c8.23,1.28,15.51,5.74,21.65,11.21,7.07,6.31,12.88,14,17.93,22,11.46,18.1,19.69,38.42,26,58.82a356.31,356.31,0,0,1,13.33,66.84c2.49,22.93,3.26,46,3.69,69,.37,20.14,0,40.24-1.31,60.33-.19,2.82-.39,5.63-.6,8.45,0,.26.7.11.72-.11q2.33-30.57,2-61.23c-.26-22.9-.9-45.85-3-68.67-2.14-23.14-5.86-46.16-12.25-68.52C177,95.31,169,74.74,158.15,56.05a120.2,120.2,0,0,0-17.27-23.49c-5.75-5.91-12.57-11.2-20.51-13.75a33.15,33.15,0,0,0-5.19-1.22c-.21,0-.85.3-.45.36Z"/><path class="cls-17" d="M104.45,14.68c4.13-.38,8.33,1.93,11.78,3.92,4,2.33,7.83,5.06,11.64,7.76a44.42,44.42,0,0,1,6.32,5.21c2.53,2.59,4.95,5.31,7.31,8.06,4.66,5.43,9.17,10.86,12.21,17.37a136.67,136.67,0,0,1,9.68,30.47c4.57,22.16,5.51,44.88,6.93,67.4,1.43,22.71,4.19,45.26,6.57,67.89,2.3,21.86,3.55,43.75,2.45,65.73q-.22,4.58-.57,9.14c-.05.72,1.42.5,1.46-.12a398.78,398.78,0,0,0-1.15-67.8c-2.18-22.63-5.22-45.16-6.82-67.84-1.63-23.09-2.29-46.35-6.35-69.19a152.12,152.12,0,0,0-8.78-31.58,59,59,0,0,0-5.33-10.74c-2-2.9-4.19-5.64-6.43-8.33q-3.72-4.52-7.69-8.81a44.82,44.82,0,0,0-5.75-5.61c-3.37-2.52-6.87-4.92-10.38-7.22-3.72-2.44-7.68-4.89-12-6.14a13.47,13.47,0,0,0-5-.58c-.79.07-1.13,1.09-.14,1Z"/><path class="cls-9" d="M107.38,196.3c1.38-1.19.85-5.41-.38-12.66-.54-3.16-.24-.27-2.92-9.9-.37-1.33-.72-2.63-1.87-3.34-1.65-1-4.44-3.71-6.39-3.37-2.28.39,4,13.85,6.25,26.18C102.42,195.11,105.87,197.61,107.38,196.3Z"/><path class="cls-18" d="M94,75.55A5,5,0,0,0,94,75c-4-2.42-7.35-2.8-11.4-.59,0,.08,0,.17,0,.26a6.29,6.29,0,0,0-.06.88,5.84,5.84,0,0,0,3.26,5.2,58,58,0,0,1,6.63-1.17,5.67,5.67,0,0,0,1.64-4Z"/><path class="cls-10" d="M91.8,75.18a3.6,3.6,0,1,1-7.15.52,4.19,4.19,0,0,1,.54-2.39,9.14,9.14,0,0,1,6.22.37A4.31,4.31,0,0,1,91.8,75.18Z"/><path class="cls-19" d="M148.11,71.38c-4.64-2.93-8-3.75-9.61-3.7a5.78,5.78,0,0,0-1.46,3.7A5.58,5.58,0,0,0,138.42,75c2.89.37,7.42.8,7.42.8A5.52,5.52,0,0,0,148.11,71.38Z"/><path class="cls-10" d="M146,71a3.45,3.45,0,1,1-6.85.5A3.8,3.8,0,0,1,140.84,68a19.4,19.4,0,0,1,5,2A4.13,4.13,0,0,1,146,71Z"/><circle class="cls-11" cx="85.52" cy="75.09" r="1.15"/><circle class="cls-11" cx="140.65" cy="69.53" r="1.15"/><path class="cls-20" d="M190.43,253.1c1.11-2.42,2.19-2,3.34,0h51.64c-6.75-25.55-16.61-53.78-35.92-66.28-22-14.24-31.36-7.86-53.3-8.08C133.49,231,113.58,230.12,83,185.15c-18.75,4.92-30.22.89-45.57,17.78C27,214.42,18.06,234.54,13.69,253.1Z"/><path class="cls-9" d="M96.49,158.91c4.16,2.57,7.65,7.49,10.19,10.23,8.22,8.81,8.49,12.66,8.49,13.87s-.54,3.65-2.35,3.42c-4.16-.55-6.21-4.73-7.55-8.7-2.5-7.45-7.39-10.1-11.25-11.39-9.09-3-18.27,9.64-23.28,6.14-1.92-1.34-2.52-3.14-1-4.67,2.13-2.12,8.5-4.73,14.78-6.43C89.59,160,94.88,157.92,96.49,158.91Z"/><path class="cls-9" d="M81.25,180.9c3.68-.53,6.55,4.28,8.67,3.58,5.91-2,10.21-16.72,15.78-20.44,4.53-3,7.88-.12,6.14,5.08-1.67,5-5,11.09-8.51,17.27-14.87,26.11-21.78,37.67-23.11,30.14C78.63,207.5,74.34,181.9,81.25,180.9Z"/><path class="cls-2" d="M200.05,124.17c-4.8-19.42-46.27-98.38-56.77-107.14C136.89,10.25,131,9.84,127,8.22c-8-3.2-12.92-4.44-15.78-4.68C91.75,1.87,114,15.85,117.58,16.21c5.73.58,40.69,46.08,49,64.59,9.2,20.55,3.22,53.4,15.2,77.51,12.38,25,8,61.18,10.09,90.55,2.28,31.4,3.64,62.39,2.62,92.88-.69,20.48,11.78-61.63,9.16-96.85C201.19,212.12,201.72,130.4,200.05,124.17ZM151.34,27.38c2.89,3.84,4.19,9.69,8.46,10.52l-1.44-2c-.63-.85-1.28-1.66-1.91-2.5C153.07,28.1,149.2,24.53,151.34,27.38Z"/><path class="cls-1" d="M210.93,215.57c-2-24.08-8.82-52.64-13.34-76.27-4.48-23.38-7.14-41-14.91-62.69-3.28-9.13-12-18.2-17.88-24.5-5.51-5.89-16.89-20.83-21.08-22.23-25.6-8.5-23.09-19.56-41.06-18.12C99.31,12,135.54,30.47,141.75,34s15.14,13.93,21,18.53c6.53,5.15,13.07,12.55,16.54,21.78,7.71,20.52,7.88,42.89,12.65,65,5,23.2,12,46.79,14,70.6,2.24,27.17,11.42,83.6,11.19,80.71Z"/><path class="cls-1" d="M95.46,8c7.19-11.12-41.31,30.07-45.3,106.26-2.59,49.45,3.27,100.28,2.65,109.14C49.19,275.08,58,348.18,58.28,343,61.83,275.85,26,115.48,95.46,8Z"/><path class="cls-2" d="M101.53,3.07C98.47.64,73.41,5.25,65.47,12.67,60.35,18.24,64.3,24.81,59.52,35c0,0,4.91.65,4.88.7a165.45,165.45,0,0,0-13.92,35c-3.9,14.42-3.94,29.8-3.52,46.31q.2,7.62.41,15.23c-.81,36.38,1.34,71.17,2.3,76.6,8,45.49,3.52,118.19,4.37,113.38,3.43-19.34,1.52-54.22.52-94.66a81.92,81.92,0,0,1,2.18,16.92c.27,8.1-.42,30,.21,38.06,1.41,17.85,23,73.68,17.76,57-4.26-13.62-1.36-63.54-2.12-79.15-.59-12.3.24-25.85-2.5-37.83a206.7,206.7,0,0,1-5.38-38.42c-.72-13.66-1.23-27.32-1.65-41-.41-13.17-1.3-26.91-1-40,.36-13.79,2.07-26.73,6.35-36.87,4-9.47,10.15-16.5,15.84-22.79C114.05,10.7,101.53,3.07,101.53,3.07Z"/><path class="cls-2" d="M100.25,3.46c-2-1.19-22.65.27-30.44,7.82-9,8.15-11.49,15.39-16.25,25.78,0,.06,4.91.67,4.88.73A170.26,170.26,0,0,0,44.56,73.4c-3.88,14.67-3.89,30.32-3.45,47.12l.42,15.5c-.76,37,1.44,72.42,2.4,77.94,8.08,46.31,3.68,120.28,4.53,115.39,3.4-19.67,1.44-55.17.39-96.32a85.34,85.34,0,0,1,2.2,17.22c.28,8.23-.38,30.48.26,38.72,1.43,18.18,23.07,75,17.84,58.06-4.28-13.87-1.45-64.66-2.22-80.55-.62-12.52.2-26.31-2.56-38.5a214.92,214.92,0,0,1-5.43-39.11c-.74-13.9-1.26-27.8-1.7-41.69-.42-13.41-1.33-27.39-1-40.67.34-14,4.08-25,8.35-35.3,4-9.63,8.08-19,13.76-25.38C108.07,12.38,100.25,3.46,100.25,3.46Z"/><path class="cls-3" d="M86.63,33.44c-5.88,1.66-11.75,3.87-17.1,8.29-9.16,7.55,4.52,35.56-14.16,45.72-3.91,2.12,5.41,172.07,8.95,170.62-1.25,5.49-11.09-131.54-11.84-120.54-.91,13.4-1.82,26.85-1.84,40.54a354.66,354.66,0,0,0,2.87,41.54c1.65,14.26,3,28.52,3.89,42.88,2,32.36,6.06,99.71,6.09,95.93.17-27.43,5.27-51.91,4-79.52-.61-13.54-6.61-30.13-7.93-43.63s-3.3-26.9-4.17-40.45a339,339,0,0,1,.12-38.92c.63-12,4.06-68.2,3.78-72C56.85,65.12,68.74,51.18,77.19,45,82,41.45,82.5,38.4,87.66,37c5.9-1.56,16.54-20.4,16.54-20.59C102.46,13.94,93.23,31.58,86.63,33.44Zm96.62,44.62c-1.58-2.83-5.85-20-8-22.78-2.11-4.12-2.76-10-7-12-6.19-3-37.36-18.46-32.33-28.84,7.75.59,38.23,29.78,41.21,36.06C191,79.75,193,92.49,195.27,103,194.78,101.93,183.83,79.1,183.25,78.06Z"/><path class="cls-1" d="M44.79,50.22c-5,6.56-9.42,22.25-10.46,33.82-1.22,13.66-1,27.8-.38,41.9.68,15,1.65,30,2.53,44.94,1.81,30.6,3.82,61.18,6.35,91.74,2.8,34,14.82,103.27,14.34,99.1C50.48,303.56,45.55,245.13,42,186.59q-1.34-21.68-2.55-43.35c-.82-14.19.31-31.65,1.38-45.46C43.38,64.19,54.63,61.49,61.15,44c4.28-11.49,9.35-14.61,16.58-18.8,7.8-4.51,24.48-14.5,23.13-15.54C96.38,6.16,77.24,7.66,44.79,50.22Z"/><path class="cls-17" d="M98.6,10.29c-7-2.75-14.31,1.82-19.46,6.32-7,6.09-12.94,13.84-18,21.56A51.67,51.67,0,0,0,54.39,52.8a132,132,0,0,0-3.24,16.72,357.3,357.3,0,0,0-3.23,35.62c-1.09,24.44-.44,49,.3,73.4q1.13,37.16,3.49,74.25c.78,12.29,1.9,24.56,2.55,36.86A118.16,118.16,0,0,1,54,307.89c-.6,5.81-1.52,11.59-1.75,17.43a57.67,57.67,0,0,0,.31,8.91c0,.27,1.49,0,1.45-.39-1.33-11.43,1.66-22.7,1.95-34.09.3-11.82-1.15-23.69-2-35.46q-2.44-35.64-3.77-71.35c-.87-23.6-1.6-47.24-1.29-70.86.15-11.61.61-23.23,1.62-34.8,1-11.4,2.17-23.1,5.16-34.16,2.67-9.83,8.39-17.91,14.67-25.76A84.86,84.86,0,0,1,79.91,17c3.19-2.86,7-5.82,11.29-6.71a10.48,10.48,0,0,1,6,.51c.4.15,1.5-.44,1.36-.49Z"/><path class="cls-3" d="M214.77,239.61c-3.39-29.91-6.41-60-10.28-89.79-3.12-23.94-7.69-49.2-17.62-67.46-2.61-4.8-5.63-8.62-8.33-13.21-2.85-4.85-4.84-10.88-7.21-16.46a78.84,78.84,0,0,0-17.06-25.1C139.14,12.42,110,15.66,110,13.79c-.31-8.54-62.59,39-59.16,63.2.21,1.51,8.27,181.12,9.47,180C59,262.8,49.7,86.21,48.89,92.51c-1.44,11.28-.32,25.71-1.1,37.32-.95,14.13-1.89,28.33-1.91,42.77,0,14.73,1.34,29.18,3,43.83,1.74,15,3.17,30.08,4.1,45.24,2.09,34.15,6.4,105.2,6.43,101.21.17-28.94,5.49-54.76,4.18-83.9-.64-14.28-6.94-31.79-8.33-46s-3.47-28.38-4.39-42.68A355.8,355.8,0,0,1,51,149.21c.65-12.66,1.47-25.31,2.55-37.79,1.88-21.73,4.77-51.48,1.36-38.21C52.33,53.44,76.68,30,82.1,28.51c6.17-1.65,16.43-12.6,22.73-12.28,14.28.71,22.42,13.11,25.64,15.41,6.66,4.74,12.53,12.72,18.29,20.73,10.41,14.47,20.52,29.89,28.64,48.95,0,.13.08.26.11.4A93,93,0,0,0,183.38,118c.32.64.65,1.27,1,1.9.81,2.44,1.58,4.91,2.33,7.4,1.51,6.06,2.76,12.32,3.82,18.79,2.12,13,4.07,26,6,39.08,3.88,26.44,7.3,53.17,8.78,80.07,1.56,28.27,1,56.87-3.18,83.23-.62,3.89,5.7-10.67,6.27-16.08q.21,5.82.45,11.65c.15,3.38,3.57-22.53,3.23-33.12.52,7,1.07,14,1.5,21,.47,7.78,3.12,27,3.72,23.5,2.25-13.09.52-27.82-.48-41.64q-1.64-22.56-3.28-45.11,3.85,34.17,7.73,68.34C221.6,340.36,218.34,271.23,214.77,239.61ZM116.46,18.07a44.26,44.26,0,0,1,8.73-.55c5.74.34,10.93,4.15,15.34,7.82C133.26,20.87,125.07,18,116.46,18.07Zm67.33,57.07a39.36,39.36,0,0,0-6-8.18l-1.3-1.37c-.51-1-1-2-1.65-3a98.16,98.16,0,0,0-6.4-9.16c-2.21-4.35-3.93-8.33-8.64-9.9-7.72-2.55-14.2-10.2-15.56-16.45,2.87,2.31,16.21,12.58,18.66,15,2.29,2.31,5.07,4.08,7.49,6.26,8.7,7.83,12.67,19.07,15.08,30.17C185,77.38,184.4,76.25,183.79,75.14Z"/><path class="cls-3" d="M216.91,237.68c-3.38-29.91-6.4-60-10.28-89.79C203.52,124,191.83,88.78,189,80.42c-1.85-5.49-5.62-8.61-8.32-13.21-2.85-4.84-.43-11.82-7.71-22.72C161.76,27.68,162.75,32,156.41,25.66c-15.13-15.18-49.8-11.55-51.52-12.3-2-.86-1.6.69-1.36.62-7.06.52-11,2.16-17.87,4.12-6.16,1.74-12.31,4.07-17.91,8.73-9.59,8-18.17,26-14.81,48.23.22,1.51,8.27,181.12,9.47,180C61.09,260.87,51.84,84.28,51,90.58c-1.44,11.27-.33,25.71-1.11,37.31C49,142,48,156.22,48,170.67c0,14.73,1.33,29.17,3,43.83,1.73,15,3.16,30.08,4.09,45.24,2.1,34.14,6.41,105.2,6.43,101.21.17-28.94,5.5-54.77,4.19-83.9-.64-14.28-6.95-31.79-8.34-46S54,202.64,53.05,188.34a355.81,355.81,0,0,1,.1-41.06c.65-12.66,1.48-25.31,2.56-37.79,1.87-21.73,5.12-44.28,14.14-58.43,10.23-16,33.55-33.34,34.3-35-1.55-1.16-20.57,12.27-31.5,23.34C65.46,46.73,60.47,58,57.07,71.28,54.48,51.51,67.17,41,73.6,32.09c5.35-7.44,7.74-8.76,13.15-10.21,6.18-1.65,6.74-3.93,13.14-5.42.83-.2,5.79-2.1,3.64-2.48.85.2,5.5,1.6,5.75,1.48,5.52-2.57,10.43-6.58,16.21-5.31-19.35-1.72-24,.39-16.24,6.22.68.51,20.15,11,23.37,13.34,6.65,4.74,12.52,12.72,18.28,20.72,10.41,14.48,20.52,29.9,28.64,49l.12.39a92,92,0,0,0,5.87,16.29c.32.64.65,1.27,1,1.9.8,2.44,1.58,4.91,2.32,7.4,1.52,6.06,2.77,12.32,3.82,18.79,2.13,13,4.07,26,6,39.08,3.88,26.44,7.29,53.17,8.77,80.07,1.56,28.27,2.52,72.56,3.09,67.15.14,3.88,4-10.88,3.69-21.47.52,7,1.07,14,1.5,21,.47,7.78,2.5,2.24,3.11-1.3,2.24-13.09,1.13-3,.12-16.84q-1.64-22.56-3.28-45.11l7.74,68.34C223.74,338.43,220.49,269.29,216.91,237.68ZM126.85,9.92c2.9-.41,6.91,10.39,9.79,10.57C142.38,20.83,135.46,9.86,126.85,9.92Zm46.43,24"/><path class="cls-3" d="M103,12.9c4.5-2.85,10.25,4.13,10.47,5.29.19,1,29.8,20.52,35.56,28.53,10.41,14.47,11.43,34.82,19.55,53.87,0,.14.08.27.11.4,1.63,5.87,17.06,70.41,19,83.46,3.88,26.43,7.3,53.17,8.78,80.07,1.56,28.27,6.78,22.87,2.58,49.24-.62,3.88.8,25.67,1,29.55.15,3.38,3.57-22.52,3.23-33.11.52,7,1.07,14,1.5,21,.47,7.78.63-3.61,1.24-7.15,2.24-13.08,3,2.82,2-11q-1.65-22.56-3.28-45.11,3.86,34.17,7.73,68.34c.38,3.33-2.88-65.81-6.45-97.42-3.39-29.91-6.41-60-10.28-89.79C192.52,125.15,188,99.89,178,81.63c-2.61-4.8-5.63-8.62-8.33-13.21-2.85-4.85-4.84-10.88-7.21-16.46a78.79,78.79,0,0,0-17.06-25.09c-10.67-10.7-31.49-14.24-42.45-14M98.76,13c-1.06-.1-17.07,4.25-24,6.21C68.61,21,62.47,23.3,56.86,28c-9.59,8-18.17,26-14.81,48.22.23,1.51,8.27,181.12,9.47,180C50.21,262,41,85.4,40.15,91.7,38.71,103,39.82,117.41,39,129c-.95,14.13-1.88,28.33-1.9,42.77,0,14.73,1.34,29.18,3,43.83,1.74,15,3.17,30.09,4.1,45.24,2.09,34.15,6.4,105.21,6.43,101.21.16-28.94,5.49-54.76,4.18-83.89-.64-14.29-6.94-31.8-8.34-46s-3.46-28.38-4.38-42.68a356,356,0,0,1,.11-41.07c.65-12.65,1.47-25.31,2.55-37.78C46.7,88.88,49.94,66.33,59,52.19c10.23-16,13.73-22.7,2.81-11.62-7.2,7.29-12.19,18.56-15.59,31.83C43.59,52.63,59.57,41.27,68.43,34.73c5-3.71,2-10.28,7.44-11.73,6.17-1.65,27-10.17,27.65-9.33.67-1-4.4-.68-4.76-.66m17.09-2a44.13,44.13,0,0,1,8.72-.56c5.74.35,10.93,4.16,15.34,7.83C132.65,13.78,124.46,10.93,115.85,11Zm67.33,57.07a39.5,39.5,0,0,0-6-8.18l-1.3-1.38c-.51-1-1.05-2-1.65-3a96.3,96.3,0,0,0-6.4-9.16,98.17,98.17,0,0,0-7.36-12.67,87.07,87.07,0,0,0-12.44-14,38.08,38.08,0,0,1,8,7.18c2.18,2.67,3.85,5.73,6.29,8.19,2.29,2.31,5.07,4.08,7.49,6.26,8.7,7.83,12.67,19.06,15.09,30.16C184.33,70.3,183.79,69.16,183.18,68.06Z"/><path class="cls-1" d="M102.74,6.61c1.08.71,1,4.29,1.91,4.38a33.12,33.12,0,0,0,6.08,4.23,27.43,27.43,0,0,1,9.86,4.57c6.66,4.75,12.53,12.72,18.29,20.73,10.41,14.48,20.52,29.9,28.64,49,0,.13.08.26.11.39a92.43,92.43,0,0,0,5.87,16.28c.32.65.65,1.28,1,1.91.81,2.44,1.58,4.91,2.33,7.39,1.51,6.07,2.76,12.33,3.82,18.8,2.12,13,4.07,26,6,39.08,3.88,26.44,7.3,53.17,8.78,80.07,1.56,28.27,2.52,72.55,3.09,67.15q.21,5.82.46,11.64c.14,3.38,3.56-22.52,3.22-33.11.52,7,1.08,14,1.5,21,.47,7.78,3.12,27,3.72,23.49,2.25-13.08.52-27.82-.48-41.63q-1.63-22.56-3.28-45.11,3.87,34.17,7.73,68.34c.38,3.33-2.87-65.81-6.45-97.42-3.39-29.91-6.4-60-10.28-89.79C191.49,114,186.92,88.77,177,70.51c-2.61-4.8-5.63-8.62-8.33-13.21a85.69,85.69,0,0,1-7.21-16.46c-4.16-12.71-13.84-13.61-20.18-20-9.88-9.91-28-12.63-38.53-14.26m-.27-.51c-.27-1.29-26-9-45.35,14.3-7.4,8.88-17.87,23.33-16.21,44.75.12,1.52,8.28,181.12,9.47,180C49.07,251,39.82,74.37,39,80.67c-1.44,11.27-.32,25.71-1.1,37.31C37,132.12,36,146.31,36,160.75c0,14.73,1.34,29.18,3,43.83,1.74,15,3.17,30.09,4.1,45.24C45.22,284,49.54,355,49.56,351c.17-28.94,5.5-54.76,4.18-83.89-.64-14.29-6.94-31.79-8.33-46S41.94,192.73,41,178.43a358.23,358.23,0,0,1,.11-41.07c.65-12.65,1.47-25.3,2.55-37.78C45.56,77.84,48.8,55.3,57.83,41.15c10.23-16,13.72-22.7,2.8-11.62C53.44,36.82,48.45,48.09,45,61.36,42.45,41.6,58.43,30.24,67.29,23.69c5-3.7,3.34-7.9,7.44-11.72,4.51-4.21,14.74-3.46,18.72-3.08,3.83.37,9,.21,9-2.79m76.85,59.05a38.84,38.84,0,0,0-6-8.18L172,55.59c-.51-1-1-2-1.65-3a99.36,99.36,0,0,0-6.4-9.15,97.61,97.61,0,0,0-7.36-12.68c-3.62-5.09-15.75-5.81-20.39-10,3,2,12.25-.28,15.92,3.21,2.5,2.38,3.84,5.72,6.29,8.18,2.29,2.31,5.07,4.09,7.49,6.26,8.7,7.83,12.67,19.07,15.09,30.17C180.48,67.38,179.94,66.25,179.32,65.15Z"/><path class="cls-3" d="M99.49,10.92c-3,.23-4.77.65-4.68,1.06m5.88-1.48c.89-.16,20,12.66,23.17,14.91,6.65,4.66,18,10.9,23.71,18.77,10.39,14.21,12,32.66,20.07,51.37l.12.39a89,89,0,0,0,5.85,16c.31.64.64,1.25,1,1.87.8,2.4,1.58,4.82,2.32,7.27,1.5,6,2.74,12.1,3.79,18.46,2.11,12.74,4,25.57,5.94,38.39,3.84,26,7.22,52.24,8.67,78.67,1.52,27.77,2.42,71.29,3,66q.21,5.71.45,11.44c.13,3.32,3.59-22.14,3.27-32.54.51,6.88,1.05,13.76,1.47,20.65.46,7.64.92,6.6,1.53,3.12,2.26-12.86,2.71-7.38,1.73-20.95q-1.62-22.17-3.23-44.32l7.65,67.14c.37,3.27-2.79-64.66-6.33-95.72-3.34-29.38-6.32-58.95-10.16-88.21-3.09-23.53-7.63-48.35-17.54-66.28-2.6-4.71-5.61-8.45-8.3-13-2.84-4.76-4.83-10.69-7.2-16.17a77,77,0,0,0-17-24.63C133,11.67,109.56,9.69,99.56,10.44M94.81,12c0,.06-14.76.15-20.93,3.81-3.32,2-5.55,4.6-11.16,9.19C53.12,32.82,36.83,49.47,37,73.2c0,1.5,12.12,176.57,13.32,175.48C49,254.38,40,80.87,39.16,87.06,37.7,98.14,38.8,112.32,38,123.73c-1,13.89-1.93,27.84-2,42,0,14.47,1.3,28.67,3,43.06,1.72,14.78,3.13,29.56,4,44.45,2,33.55,6.27,103.37,6.3,99.44.2-28.44,5.56-53.81,4.29-82.44-.62-14-6.9-31.23-8.28-45.22s-3.43-27.88-4.32-41.93a343.55,343.55,0,0,1,.15-40.35c.67-12.44,1.51-24.87,2.6-37.13C45.71,84.28,49,62.12,58,48.21c10.25-15.77,35.39-29.7,35.66-31.74.26-1.89-21.91,9.42-32.84,20.31C53.64,44,48.63,55,45.21,68.09,42.65,48.66,58.64,37.48,67.51,31c5-3.65,2-10.1,7.45-11.53a100.78,100.78,0,0,1,18.72-3,8.27,8.27,0,0,0,3.17-1.74c.19,0,1.49-3.35,2.86-3.17m15.47-2.37a44.9,44.9,0,0,1,8.72-.56c5.74.33,10.93,4.07,15.33,7.67C132,11.91,123.79,9.12,115.18,9.19Zm67.25,56a38.44,38.44,0,0,0-6-8l-1.29-1.35c-.51-1-1-2-1.65-3a93.85,93.85,0,0,0-6.39-9,94.46,94.46,0,0,0-7.34-12.45c-3.61-5-6.74-9.44-4.46-6.7s3.84,5.62,6.28,8c2.29,2.26,5.38,3.54,7.48,6.14,11.14,13.77,6.12,28.55,15,29.62C183.58,67.38,183,66.26,182.43,65.18Z"/><path class="cls-5" d="M66.32,125.78c1.53-.69,4.9,1.94,6.39,6.44.51,1.53,0,2.5.61,7.3a70.75,70.75,0,0,1,.3,11.55c-.16,4.24,1.6,6.82,1.58,12.9,0,6.55,14.44-4.06,21.11,2,4.57,4.16,5.46,12.28,5.7,13.72.67,4-2.75,10.84-4.09,11.1s-3-2.12-3.36-4.09a19.23,19.23,0,0,1,.26-7.32c.45-.34-1.62-.78-2-3.89,0-.26-3.4.88-6.54.06-.32,4.47-2.26,3.93-2.12,5,4.33,32-1.55,38.18-2.72,39.08-1.21,5.75-4.16,20.76-4.7,31,0,.08-26.38.05-26,0C53.07,241,57.05,225.75,59.8,212c.93-4.64,3.51-28.91,3.57-38.25,0-1.07.48-4.2.94-8.47.56-5-.44-9.57.33-14.84.58-4,1.17-4.44,1.37-12.33C66.23,129.5,64.86,126.45,66.32,125.78Z"/></svg>