<svg xmlns="http://www.w3.org/2000/svg" xmlns:xlink="http://www.w3.org/1999/xlink" viewBox="0 0 248 385.9"><defs><style>.a{fill:#603917;}.b{fill:#663917;}.c{fill:#754d29;}.d{fill:url(#a);}.e{fill:#f2dcc1;}.f,.l{fill:none;stroke-miterlimit:10;}.f{stroke:#414141;stroke-width:3px;}.g{fill:#bc202e;}.h{fill:#edcca4;}.i{fill:#eac4a0;}.j{fill:#221f1f;}.k{fill:#fff;}.l{stroke:#3a2416;stroke-width:0.5px;}.m{fill:#e5e6e6;}.n{fill:#cfd1d2;}.o{fill:#f496a9;}.p{fill:#c1976b;}.q{fill:#895d3b;}.r{fill:url(#b);}.s{fill:url(#c);}.t{fill:#f05a28;}</style><radialGradient id="a" cx="116.54" cy="164.12" fy="135.81611765125746" r="33.64" gradientUnits="userSpaceOnUse"><stop offset="0.4" stop-color="#eab7a0"/><stop offset="0.82" stop-color="#f2dcc1"/></radialGradient><radialGradient id="b" cx="81.85" cy="81.68" r="5.97" gradientUnits="userSpaceOnUse"><stop offset="0.08" stop-color="#facb19"/><stop offset="0.5" stop-color="#facb19"/><stop offset="0.77" stop-color="#0a6280" stop-opacity="0.96"/><stop offset="1" stop-color="#2483c5"/></radialGradient><radialGradient id="c" cx="139.95" cy="76.75" r="5.19" gradientTransform="translate(198 -69.9) rotate(84.1) scale(1 0.95)" gradientUnits="userSpaceOnUse"><stop offset="0.21" stop-color="#facb19"/><stop offset="0.58" stop-color="#facb19"/><stop offset="0.82" stop-color="#0a6280" stop-opacity="0.96"/><stop offset="1" stop-color="#2483c5"/></radialGradient></defs><path class="a" d="M103.8,53c3.8-5.9-21.6,16-23.6,56.4-1.3,26.3,1.8,53.3,1.4,58-1.8,27.4,2.8,66.2,3,63.5C86.4,195.2,67.5,110.1,103.8,53Z" transform="translate(-2 -3)"/><path class="b" d="M103,48.8c-.2-.6-10.7,1.5-14.9,5.4-2.7,3-6.8,7.9-9.3,13.3a23.4,23.4,0,0,1,2.6.4,87.9,87.9,0,0,0-7.3,18.6c-2,7.6-2,15.8-1.8,24.5.1,2.7.2,5.4.2,8.1-.4,19.3.8,37.8,1.3,40.7,4.2,24.1,1.9,62.7,2.3,60.2,1.8-10.3.7-48.1.2-69.5,3,10.3,1.5,25.9,1.2,28.2-.6,4.3-.2,15.9.1,20.2.8,9.5,12.1,39.1,9.4,30.3-2.3-7.2-.8-33.7-1.2-42-.3-6.6-2.7-13.5-4.2-19.8s.5-13.1,0-20.7-.6-14.5-.8-21.8-.7-14.2-.6-21.2,2.2-13,4.4-18.4,4.2-9.9,7.2-13.2C107.4,54.6,103,48.8,103,48.8Z" transform="translate(-2 -3)"/><path class="c" d="M87.1,77.6a136.7,136.7,0,0,0-6.2,31.3,108.8,108.8,0,0,0-.6,19c.4,6.5-.2,14.9.4,21.5,1.4,13.6,3.2,28.8,5.1,42.3s.2,15.9,8.2,37.1c.7,1.8-6.4-32.9-8.5-71.7-.3-6.4-1.3-12.8-2-19.2a157.2,157.2,0,0,1-1.1-19.3q.4-8.8,1.5-17.4a90.8,90.8,0,0,1,2.8-15.5C90.1,74,97,64.9,100.8,59,101.2,58.5,91.5,64.2,87.1,77.6Z" transform="translate(-2 -3)"/><path class="b" d="M150.5,79.3c-.5-.5-22,2.2-30.8,6.1-5.7,2.9-14.5,7.7-20,12.8h5.1a83.7,83.7,0,0,0-16.3,17.4c-4.8,7.1-5.5,14.4-5.8,22.3-.1,2.5,2.8,4.7,2.7,7.1a96.5,96.5,0,0,0,2,36c6.6,21.4-1.5,31.9-1.2,35.8.7,8.5,17.8-3.8,17.6-11.3-.1-5.9,1.4-12.4-1-18a45.6,45.6,0,0,1-4.1-18.2c-.1-6.5-.1-13,.1-19.5s-.3-12.9.7-19.1,5.4-12,10.4-17,9.5-9.3,15.8-12.6C158.9,84.2,150.5,79.3,150.5,79.3Z" transform="translate(-2 -3)"/><path class="c" d="M99.6,63.3a114.9,114.9,0,0,0-14.7,37.3c-1.5,7.4-3,14.9-2.5,22.5s-1.3,17.7-.3,25.3c1.9,16.1,4.6,33.9,7.5,49.7s-.6,18.7,14.5,43.2c1.2,2.1-10.9-38.4-12.8-84.1-.3-7.5-1.9-15-2.8-22.5s-2-15.1-1-22.7a159.4,159.4,0,0,1,4-20.6C93.1,85,95,78.5,98.2,72.9c7.8-14,22.4-25.2,30.6-32.4C129.5,39.8,109.4,47.2,99.6,63.3Z" transform="translate(-2 -3)"/><path class="c" d="M159,175.6c-1.7-15.9-3.3-31.9-5.4-47.7-1.6-12.7-4-26.2-9.3-35.8-1.3-2.6-2.9-4.6-4.3-7.1a63.3,63.3,0,0,1-3.8-8.7A41.2,41.2,0,0,0,127.3,63c-8-8.1-26.3-7.1-26.1-6.1h0a51.7,51.7,0,0,0-11,1.9,25.7,25.7,0,0,0-9.4,4.6c-5,4.3-9.5,13.8-7.7,25.6.1.8,4.4,96.2,5.1,95.6-.7,3.1-5.7-90.7-6.1-87.3-.7,6-.1,13.6-.5,19.8s-1,15-1,22.7a202.7,202.7,0,0,0,1.6,23.3c.9,7.9,1.7,15.9,2.2,24,1.1,18.1,3.4,55.8,3.4,53.7.1-15.4,2.8-29.1,2.1-44.5-.3-7.6-3.6-16.9-4.4-24.5s-1.8-15-2.3-22.6a197.8,197.8,0,0,1,.1-21.8c.3-6.8.7-13.5,1.3-20.1.9-11.5,2.6-23.5,7.4-31s18.4-16,18.6-17.1S89.1,64.4,83.4,70.2c-3.7,3.9-6.4,9.9-8.1,16.9-1.4-10.5,7-16.5,11.6-20,2.6-1.9,1-5.4,3.9-6.2a46.6,46.6,0,0,1,9.8-1.6A1.5,1.5,0,0,0,102,58a.4.4,0,0,0,.1-.3l.5-.2c2.9-1.3,5.4-3.5,8.5-2.8-10.2-.9-12.5-4.4-8.5,3.3.2.5,4.3,4.3,5.6,4.4s1.3.3,1.4.3a14.4,14.4,0,0,1,5.2,2.4c3.5,2.5,6.6,6.8,9.6,11,5.4,7.7,10.7,15.9,15,26,0,.1,0,.2.1.2a52.2,52.2,0,0,0,3,8.7l.6,1,1.2,3.9c.8,3.2,1.4,6.6,2,10,1.1,6.9,2.1,13.8,3.1,20.7,2.1,14.1,3.9,28.3,4.7,42.6s.5,30.1-1.6,44.1c-.4,2.1,2.9-5.6,3.2-8.5l.3,6.2c.1,1.8,1.8-12,1.6-17.6.3,3.7.6,7.4.8,11.2s1.7,14.3,2,12.4c1.2-6.9.3-14.7-.3-22.1S159,199,158.4,191c1.3,12.1,2.7,24.2,4.1,36.3C162.7,229,160.9,192.3,159,175.6ZM112,58.2a14.3,14.3,0,0,1,4.6-.3c3,.4,5.8,3.5,8.2,6.6C120.9,60.8,116.6,58.3,112,58.2Zm36.5,46.7a33.9,33.9,0,0,0-3.3-6.6l-.7-1.1-.9-2.5c-1.1-2.5-2.3-5-3.6-7.4a90.5,90.5,0,0,0-4.1-10.2,79.8,79.8,0,0,0-6.8-11.4,26.4,26.4,0,0,1,4.3,5.9,68.8,68.8,0,0,0,3.5,6.6c1.2,1.9,2.7,3.4,4,5.2,4.8,6.4,7.1,15.4,8.6,24.2C149.2,106.7,148.9,105.8,148.5,104.9Z" transform="translate(-2 -3)"/><path class="c" d="M159.1,173.1c-1.8-15.8-3.4-31.8-5.4-47.6-1.7-12.7-4.1-26.2-9.3-35.9-1.4-2.5-2.9-4.5-4.4-7s-2.5-5.8-3.7-8.7a41.3,41.3,0,0,0-9-13.3c-7.9-8.1-26.3-7.1-26.1-6.1h.1a59.1,59.1,0,0,0-11,2,24.2,24.2,0,0,0-9.4,4.6c-5,4.2-9.5,13.8-7.7,25.6.1.8,4.4,96.2,5,95.6-.7,3.1-5.6-90.7-6-87.3-.8,5.9-.2,13.6-.6,19.8s-.9,15-.9,22.7a199.4,199.4,0,0,0,1.6,23.2c.9,8,1.6,16,2.1,24.1,1.1,18.1,3.4,55.8,3.5,53.7,0-15.4,2.8-29.1,2.1-44.5-.3-7.6-3.7-16.9-4.4-24.5s-1.8-15-2.3-22.6a198.1,198.1,0,0,1,0-21.8c.4-6.8.8-13.5,1.3-20.1,1-11.5,2.7-23.5,7.4-31s18.5-16,18.6-17.1-11.4,5-17.1,10.9c-3.8,3.9-6.4,9.9-8.2,16.9-1.3-10.5,7-16.5,11.7-20,2.6-1.9,1-5.4,3.8-6.2a48.8,48.8,0,0,1,9.8-1.6,1.6,1.6,0,0,0,1.5-1.3v-.3l.5-.2c2.9-1.4,5.3-4.3,8.3-3.6-10.1-.9-9,.5-7,2.9.3.4,3,5.5,4.4,5.6s1.2.3,1.4.2a17.7,17.7,0,0,1,5.2,2.5c3.4,2.5,6.5,6.7,9.5,11a134.6,134.6,0,0,1,15.1,26v.2a55.7,55.7,0,0,0,3.1,8.7,9.3,9.3,0,0,1,.5,1l1.2,3.9a98.2,98.2,0,0,1,2,10c1.2,6.9,2.2,13.8,3.2,20.7,2,14.1,3.8,28.3,4.6,42.5s.6,30.2-1.6,44.2c-.3,2.1,3-5.6,3.3-8.5.1,2.1.1,4.1.2,6.2s1.9-12,1.7-17.6c.3,3.7.6,7.4.8,11.2s1.7,14.3,2,12.4c1.1-6.9.2-14.7-.3-22.1l-1.8-23.9c1.4,12.1,2.8,24.2,4.1,36.3C162.7,226.6,161,189.9,159.1,173.1Zm-47-117.3a14.3,14.3,0,0,1,4.6-.3c3,.4,5.8,3.5,8.2,6.5C121,58.3,116.6,55.9,112.1,55.8Zm36.5,46.7a40.6,40.6,0,0,0-3.3-6.6,10.5,10.5,0,0,0-.8-1.1,10.6,10.6,0,0,0-.9-2.5c-1.1-2.5-2.3-5-3.5-7.4S137.6,78,136,74.7a79.8,79.8,0,0,0-6.8-11.4,34.5,34.5,0,0,1,4.3,5.9c1.2,2.1,2.1,4.6,3.4,6.6s2.8,3.4,4.1,5.1c4.7,6.4,7,15.5,8.5,24.3Z" transform="translate(-2 -3)"/><path class="b" d="M150.5,127.2c-.8-3.5-1.6-7-2.5-10.4s-1.5-7.3-2.4-10.8-1.9-6.6-3-9.6v-.3c-1.5-5.5-2.8-11.5-4.6-16.4-2.6-7.5-3.2-7.6-4.9-11.1a46.6,46.6,0,0,0-8.3-12c-9.5-10.5-15.4-.5-13.4-.4s17.1,28.4,21.4,38.5a226.8,226.8,0,0,1,12.4,39c3.4,14.8,4.3,33.4,5.4,49.4s2,34,1.6,50.6c-.4,11.2,6-33.6,4.6-52.8S154.3,143.7,150.5,127.2ZM131.4,72c1.6,3.2,2.4,8,4.7,8.7l-.8-1.6L134.2,77c-1.9-4.4-3.3-11-5.9-13C129.6,64.8,130.2,69.6,131.4,72Z" transform="translate(-2 -3)"/><path class="a" d="M156.7,175.3c-2.1-18.5-3.9-37.1-6.2-55.6-1.9-14.8-4.6-30.4-10.3-41.8-1.5-3-3.2-5.3-4.7-8.2s-2.8-6.7-4.2-10.2a50.9,50.9,0,0,0-9.8-15.6c-8.6-9.4-28.5-8.4-28.3-7.2l-.6-.5c-4,.3-7.4,1.6-11.3,2.8a24.7,24.7,0,0,0-10.1,5.3C65.8,49.2,61,60.4,62.9,74.1c.2.9,5.4,112.1,6.1,111.4-.7,3.6-6.6-105.7-7.1-101.8-.8,7-.1,15.9-.5,23.1-.5,8.7-.9,17.5-.9,26.4s.9,18.1,1.9,27.2,1.9,18.6,2.5,28c1.3,21.1,4,65.1,4,62.6,0-17.9,2.9-33.9,2.1-51.9-.4-8.8-4.1-19.7-4.9-28.5S64,153,63.4,144.2s-.4-17.1-.1-25.4.8-15.7,1.3-23.4c1-13.4,2.8-27.4,7.9-36.1S92.4,40.8,92.6,39.5,80.2,45.3,74,52.1c-4.1,4.5-6.8,11.5-8.7,19.7-1.6-12.3,7.5-19.2,12.5-23.3,2.8-2.2,1.1-6.3,4.1-7.2a48.9,48.9,0,0,1,10.7-1.8A1.8,1.8,0,0,0,94.1,38a.6.6,0,0,0,.1-.4l.5-.2c3.1-1.5,5.9-4,9.2-3.2-11-1.1-13.5-5.2-9.2,3.8.3.6,4.7,5,6.2,5.2s1.3.3,1.5.3a14.1,14.1,0,0,1,5.6,2.8c3.8,3,7.2,8,10.5,12.9,5.9,9,11.7,18.6,16.4,30.4a.4.4,0,0,1,.1.3,59.9,59.9,0,0,0,3.4,10.1l.5,1.1c.5,1.6,1,3.1,1.4,4.6.9,3.8,1.6,7.7,2.2,11.7,1.3,8,2.4,16.1,3.6,24.2,2.3,16.3,4.3,32.9,5.3,49.5s.8,35.2-1.5,51.5c-.4,2.4,3.2-6.6,3.5-9.9l.3,7.2c.1,2.1,1.9-13.9,1.7-20.5l.9,13c.3,4.9,1.9,16.8,2.2,14.6,1.2-8.1.2-17.2-.4-25.8s-1.4-18.6-2-27.9c1.5,14.1,3,28.2,4.6,42.3C160.9,237.7,158.8,194.9,156.7,175.3ZM105,38.3a16.2,16.2,0,0,1,4.9-.3c3.3.5,6.4,4.1,9,7.7C114.6,41.3,109.9,38.5,105,38.3Zm39.8,54.6a45.4,45.4,0,0,0-3.6-7.7l-.8-1.3a23.1,23.1,0,0,0-1-2.8q-1.8-4.5-3.9-8.7c-1.4-4.1-2.8-8.1-4.5-11.9a85,85,0,0,0-7.5-13.3,31.7,31.7,0,0,1,4.8,6.8c1.3,2.6,2.3,5.4,3.8,7.8s3,3.9,4.4,6c5.1,7.5,7.7,18,9.4,28.3C145.5,95.1,145.2,94,144.8,92.9Z" transform="translate(-2 -3)"/><path class="c" d="M78.7,84.5c.4-.5,22.1-.9,31.4,1.6,6,2,15.4,5.5,21.6,9.7.1.1-5.1.9-5.1.9a80.4,80.4,0,0,1,18.7,14.8c5.8,6.3,7.6,13.5,9,21.3.4,2.4.9,4.7,1.3,7.1,5,17,6.6,33.5,6.2,36.1-3.4,22.2,9.6,55.7,8.2,53.5-5.9-8.6-7.8-25.2-11.3-44.2a18.5,18.5,0,0,0-.4,8.2c.7,3.8,3.9,13.9,4.1,17.8.5,8.5-16.1,37-12.4,28.7s-5.8-29.9-6.7-37.3c-.8-5.8-3.2-12-1.6-18a44.5,44.5,0,0,0,1.3-18.5c-.7-6.5-1.7-12.9-2.8-19.4s-1.7-12.7-3.5-18.8-7.2-11-12.9-15.2-10.7-7.9-17.4-10.2C71.1,90.6,78.7,84.5,78.7,84.5Z" transform="translate(-2 -3)"/><path class="a" d="M147.8,176.2c.4-5.3-9-28.7-6.7-55.3,1.3-14.9-4.6-30.5-10.3-41.8-1.5-3-3.2-5.4-4.7-8.2s-2.8-6.8-4.2-10.2a48.6,48.6,0,0,0-9.8-15.6c-8.6-9.5-28.6-8.4-28.3-7.3s-.6-.5-.6-.5c-4,.3-7.4,1.6-11.3,2.8a24.9,24.9,0,0,0-10.1,5.4c-5.5,4.9-10.3,16-8.3,29.7.2,1,5.4,112.1,6.1,111.5-.7,3.5-6.7-105.8-7.1-101.9-.8,7-.1,15.9-.5,23.1-.5,8.8-.9,17.5-.9,26.5s.9,18,1.9,27.1,1.9,18.6,2.5,28c1.3,21.1,4,65.1,4,62.7,0-17.9,2.9-33.9,2.1-51.9-.4-8.9-4.1-19.7-4.9-28.5s-2.1-17.6-2.7-26.5-.4-17-.1-25.4.8-15.6,1.3-23.3c1-13.5,2.8-27.4,7.9-36.1S83,41.9,83.2,40.6,70.8,46.5,64.6,53.3c-4.1,4.5-6.8,11.4-8.7,19.6-1.6-12.2,7.5-19.2,12.5-23.2,2.8-2.3,1.1-6.4,4.1-7.2a55.8,55.8,0,0,1,10.7-1.9,1.6,1.6,0,0,0,1.5-1.4.8.8,0,0,0,.1-.4l.5-.2c3.1-1.6,5.9-4,9.2-3.2-11-1.2-13.5-5.3-9.2,3.7.3.6,4.7,5.1,6.2,5.2s1.3.4,1.5.3a15.8,15.8,0,0,1,5.6,2.9c3.8,3,7.2,7.9,10.5,12.9,5.9,9,11.7,18.6,16.4,30.4,0,.1.1.1.1.2a54.4,54.4,0,0,0,3.4,10.1,6.1,6.1,0,0,1,.5,1.2c.5,1.5,1,3,1.4,4.6.9,3.7,1.6,7.6,2.2,11.6,1.3,8.1,2.4,16.1,3.6,24.2,2.3,16.4,4.3,32.9,5.3,49.6s.8,35.2-1.5,51.5c-.4,2.4,3.2-6.6,3.5-9.9l.3,7.2c.1,2,1.9-14,1.7-20.5l.9,13c.3,4.8,1.9,16.7,2.2,14.5,1.2-8,.2-17.2-.4-25.7l-2.1-27.9c1.6,14.1,3.1,28.2,4.7,42.3C151.5,238.8,146.1,195.8,147.8,176.2ZM95.6,39.4a16.2,16.2,0,0,1,4.9-.3c3.3.5,6.4,4.2,9,7.7C105.2,42.5,100.5,39.6,95.6,39.4Zm39.8,54.7a42,42,0,0,0-3.6-7.7l-.8-1.3a24.7,24.7,0,0,0-1-2.9c-1.2-3-2.5-5.8-3.9-8.6s-2.8-8.2-4.5-12a85,85,0,0,0-7.5-13.3,28.9,28.9,0,0,1,4.7,6.9c1.4,2.5,2.4,5.4,3.8,7.7s3,3.9,4.5,6c5.1,7.5,7.7,18,9.4,28.4C136.1,96.2,135.8,95.1,135.4,94.1Z" transform="translate(-2 -3)"/><path class="d" d="M180.1,268.7a120.7,120.7,0,0,1,5.2-12.4c2-4,5.9,2.4,10.2,12.4h48.4c-7.7-31.2-18.9-60.3-37.4-70.6-23.7-13.1-37.4,10.6-57.5-11.6-11.3-12.6-5.2-30.2-4.6-45.5-16.9,1.9-34.1,4.3-51.1,6.4,2.3,19,5,39.1-12.3,51.5-24.1,7.5-30.4-3.8-50.7,17-8.9,9-16.7,31.2-22.8,52.8Z" transform="translate(-2 -3)"/><path class="a" d="M163.4,163.3c-1.1-13.1-2.1-26.3-4.5-39.2s-6.4-24.7-10.5-36.6c-1.8-5-3.7-9.9-6.8-13.3s-6.4-4.9-9.7-6.6-10.1-10.7-11.7-12.3c-3.2-3.3-15.9-3.6-15.3-3.2,3,2.4,8.9-.1,14.1,7.6a31,31,0,0,0,9.2,8.9c3.2,1.9,6.6,3.2,9.7,5.8s5.7,7.2,7.5,12.2c4.1,11.2,8,22.8,10.5,34.9s3.8,25.7,4.9,38.7c1.2,14.8,6.1,45.6,5.9,44Z" transform="translate(-2 -3)"/><path class="a" d="M156.9,165.5c-1.1-13.1-2.1-26.3-4.5-39.2s-6.4-24.7-10.5-36.6c-1.7-4.9-3.7-9.9-6.8-13.3s-6.4-4.9-9.7-6.6a31.9,31.9,0,0,1-5.7-3.6c-1.7-1.4-3.7-4.7-5.3-6.3-3.2-3.3-14.6-6.6-14.5-5.6.4,5.4,9.9,4.8,12.6,7.6s6,7,9.2,9,6.6,3.1,9.7,5.7,5.7,7.2,7.5,12.2c4.1,11.2,8,22.9,10.5,34.9s3.8,25.7,4.9,38.7c1.2,14.8,6.1,45.6,6,44Z" transform="translate(-2 -3)"/><path class="c" d="M162.4,171.5c-1.8-15.9-3.4-31.8-5.4-47.7-1.7-12.7-4.1-26.1-9.3-35.8-1.4-2.5-2.9-4.6-4.4-7s-2.5-5.8-3.7-8.7a43,43,0,0,0-9-13.4c-7.9-8-26.3-7-26.1-6.1s0,.1.1.1a51.9,51.9,0,0,0-11,2,22.9,22.9,0,0,0-9.4,4.6c-5,4.2-9.5,13.8-7.7,25.6.1.8,4.4,96.2,5,95.6-.7,3-5.6-90.7-6-87.4-.8,6-.2,13.7-.6,19.8s-.9,15.1-1,22.8a201.1,201.1,0,0,0,1.7,23.2q1.4,12,2.1,24c1.1,18.2,3.4,55.9,3.5,53.8,0-15.4,2.8-29.1,2.1-44.6-.3-7.5-3.7-16.8-4.4-24.4s-1.8-15.1-2.3-22.7a198.2,198.2,0,0,1,0-21.8c.4-6.7.8-13.4,1.3-20,1-11.6,2.7-23.5,7.4-31s18.5-16,18.6-17.1-11.4,5-17.1,10.9C83,70.1,80.4,76,78.6,83.1c-1.3-10.5,7-16.5,11.7-20,2.6-2,1-5.5,3.8-6.2a47.7,47.7,0,0,1,9.8-1.6,1.9,1.9,0,0,0,1.5-1.3v-.4h.5c2.9-1.4,5.5-3.5,8.5-2.8-10.1-.9-12.4-4.4-8.5,3.3.3.4,4.3,4.3,5.7,4.4s1.2.3,1.4.2a13.8,13.8,0,0,1,5.2,2.5c3.4,2.5,6.5,6.7,9.5,11a134.6,134.6,0,0,1,15.1,26v.2a51.1,51.1,0,0,0,3.1,8.6l.5,1.1c.4,1.2.8,2.6,1.2,3.9a98.2,98.2,0,0,1,2,10c1.2,6.8,2.2,13.8,3.2,20.7,2,14,3.8,28.2,4.6,42.5s.6,30.2-1.6,44.2c-.3,2.1,3-5.7,3.3-8.5.1,2,.1,4.1.2,6.2s1.9-12,1.7-17.6c.3,3.7.6,7.4.8,11.1s1.6,14.4,2,12.5c1.1-6.9.2-14.8-.3-22.1L161.7,187c1.4,12.1,2.8,24.1,4.1,36.2C166,225,164.3,188.3,162.4,171.5Zm-47-117.3a14.1,14.1,0,0,1,4.6-.3c3,.4,5.8,3.5,8.2,6.5C124.3,56.7,119.9,54.3,115.4,54.2Zm36.5,46.7a50.8,50.8,0,0,0-3.3-6.6l-.8-1.2a23.4,23.4,0,0,0-.9-2.4c-1.1-2.6-2.3-5-3.5-7.4s-2.5-6.9-4.1-10.2a67.7,67.7,0,0,0-6.9-11.4,30.2,30.2,0,0,1,4.4,5.9c1.2,2.1,2.1,4.6,3.4,6.6s2.8,3.3,4.1,5.1c4.7,6.4,7,15.4,8.5,24.3Z" transform="translate(-2 -3)"/><path class="c" d="M162.6,172.9c-1.8-15.9-3.4-31.9-5.4-47.7-1.7-12.7-4.1-26.1-9.3-35.8-1.3-2.6-2.9-4.6-4.3-7a70.6,70.6,0,0,1-3.8-8.8,42.5,42.5,0,0,0-9-13.3c-7.9-8.1-26.3-7.1-26.1-6.1h.1a58.9,58.9,0,0,0-11,1.9,25.2,25.2,0,0,0-9.4,4.7c-5,4.2-9.5,13.8-7.7,25.6.1.8,4.4,96.1,5,95.5-.6,3.1-5.6-90.6-6-87.3-.8,6-.2,13.6-.6,19.8s-.9,15-.9,22.7a202.7,202.7,0,0,0,1.6,23.3q1.4,12,2.1,24c1.2,18.1,3.5,55.9,3.5,53.7,0-15.3,2.8-29,2.1-44.5-.3-7.6-3.6-16.9-4.4-24.4s-1.8-15.1-2.3-22.7a198.2,198.2,0,0,1,0-21.8c.4-6.7.8-13.4,1.3-20.1,1-11.5,2.7-23.5,7.4-31s18.5-16,18.7-17.1S92.7,61.7,87,67.6c-3.8,3.8-6.4,9.8-8.2,16.9-1.3-10.5,7-16.6,11.7-20,2.6-2,1-5.5,3.9-6.3a64.6,64.6,0,0,1,9.8-1.6,1.6,1.6,0,0,0,1.4-1.3V55h.5c2.9-1.4,5.5-3.5,8.5-2.9-10.1-.9-12.5.2-8.5,3.3.4.3,4.3,4.3,5.7,4.5s1.2.2,1.4.2a15.2,15.2,0,0,1,5.2,2.4c3.5,2.6,6.5,6.8,9.6,11,5.4,7.7,10.7,15.9,15,26v.3a51.1,51.1,0,0,0,3.1,8.6,4.7,4.7,0,0,1,.5,1c.4,1.3.9,2.6,1.2,3.9.8,3.3,1.5,6.6,2.1,10C151,130.1,152,137,153,144c2.1,14,3.9,28.2,4.6,42.5s.6,30.2-1.6,44.2c-.3,2,3-5.7,3.3-8.6.1,2.1.2,4.2.2,6.2s1.9-11.9,1.7-17.6c.3,3.8.6,7.5.8,11.2s1.7,14.4,2,12.5c1.1-7,.2-14.8-.3-22.1s-1.2-16-1.7-24c1.3,12.1,2.7,24.2,4,36.3C166.2,226.4,164.5,189.7,162.6,172.9Zm-47-117.4a17.8,17.8,0,0,1,4.6-.2c3,.3,5.8,3.5,8.2,6.5C124.5,58.1,120.1,55.7,115.6,55.5Zm36.5,46.8a32.2,32.2,0,0,0-3.3-6.7l-.7-1.1a24.4,24.4,0,0,0-1-2.4c-1-2.6-2.3-5-3.5-7.4s-2.5-7-4.1-10.3a73.6,73.6,0,0,0-6.8-11.3,29.1,29.1,0,0,1,4.3,5.8c1.2,2.2,2.1,4.7,3.5,6.7s2.7,3.3,4,5.1c4.7,6.4,7,15.4,8.5,24.3C152.7,104.1,152.4,103.1,152.1,102.3Z" transform="translate(-2 -3)"/><path class="a" d="M160.9,166.8c-1.8-15.9-3.4-31.8-5.5-47.6-1.6-12.8-4-26.2-9.2-35.9-1.4-2.5-3-4.5-4.4-7a45.7,45.7,0,0,1-3.8-8.7c-2.2-6.8-5.6-10-8.9-13.4-7.9-8-26.3-7-26.1-6.1h0a53.1,53.1,0,0,0-11,2,23.2,23.2,0,0,0-9.3,4.6c-5,4.2-9.5,13.8-7.8,25.6.2.8,4.5,96.2,5.1,95.6-.7,3.1-5.6-90.7-6-87.4-.8,6-.2,13.7-.6,19.9s-1,15-1,22.7A200.9,200.9,0,0,0,74,154.4c1,8,1.7,16,2.2,24,1.1,18.2,3.4,55.9,3.4,53.8.1-15.4,2.9-29.1,2.2-44.6-.4-7.5-3.7-16.8-4.4-24.4s-1.9-15.1-2.3-22.7a176.2,176.2,0,0,1,0-21.8c.3-6.7.8-13.4,1.3-20,1-11.6,2.7-23.5,7.4-31s18.5-16,18.6-17.1S91,55.6,85.2,61.5c-3.7,3.9-6.3,9.9-8.1,16.9-1.4-10.5,7-16.5,11.6-20,2.6-2,1.1-5.4,3.9-6.2a46.6,46.6,0,0,1,9.8-1.6,1.8,1.8,0,0,0,1.5-1.3v-.4h.5s-2.2-.1,0,.5c.4.1,4.3,4.3,5.6,4.4s1.3.3,1.5.2a15.1,15.1,0,0,1,5.1,2.5c3.5,2.5,6.6,6.7,9.6,11,5.5,7.7,10.8,15.9,15,26v.2a43.6,43.6,0,0,0,3.1,8.6,5.4,5.4,0,0,0,.5,1.1l1.2,3.9a98.2,98.2,0,0,1,2,10c1.1,6.9,2.2,13.8,3.2,20.7,2,14.1,3.8,28.2,4.6,42.5s.6,30.2-1.6,44.2c-.3,2.1,3-5.7,3.3-8.5,0,2,.1,4.1.2,6.2s1.9-12,1.7-17.6c.3,3.7.5,7.4.8,11.1s1.6,14.4,1.9,12.5c1.2-6.9.3-14.8-.2-22.1l-1.8-23.9c1.4,12.1,2.7,24.2,4.1,36.2C164.5,220.3,162.8,183.6,160.9,166.8ZM148.7,98.4a33.9,33.9,0,0,0-3.3-6.6l-.7-1.2-.9-2.4c-1.1-2.6-2.3-5-3.6-7.4a90.5,90.5,0,0,0-4.1-10.2,74.7,74.7,0,0,0-6.8-11.4,45.7,45.7,0,0,1,4.3,5.9c1.4,1.9,2.1,4.6,3.5,6.6s2.7,3.3,4,5.1c4.8,6.4,7.1,15.4,8.6,24.3C149.4,100.2,149.1,99.3,148.7,98.4Z" transform="translate(-2 -3)"/><path class="c" d="M160.8,169.4c-1.8-15.9-3.4-31.9-5.4-47.7-1.7-12.7-4.1-26.1-9.3-35.8-1.4-2.6-3-4.6-4.4-7.1s-2.5-5.7-3.8-8.7A38.7,38.7,0,0,0,129,56.8c-7.7-7.5-25-4.2-26.1-6.1h0A50.8,50.8,0,0,0,92,52.7a24.2,24.2,0,0,0-9.4,4.6c-5,4.3-9.5,13.9-7.7,25.6.1.8-.6,4.9-1,8.3-.8,6-.2,13.6-.6,19.8s-1,15-1,22.7A228,228,0,0,0,73.9,157c1,7.9,1.7,15.9,2.2,24,1.1,18.1,3.4,55.8,3.4,53.7.1-15.3,2.9-29.1,2.2-44.5-.4-7.6-3.7-16.9-4.4-24.5s-1.8-15-2.3-22.6a198.2,198.2,0,0,1,0-21.8c.3-6.7.8-13.5,1.3-20.1,1-11.5,2.7-23.5,7.4-31s16.8-16.6,18.6-17.1.3-2.1.5-3,5.8,6,7.2,6.1,1.2.3,1.4.3a13.9,13.9,0,0,1,5.1,2.4c3.5,2.5,6.6,6.8,9.6,11,5.5,7.7,10.8,15.9,15,26v.2a49.2,49.2,0,0,0,3.1,8.7c.2.3.3.7.5,1l1.2,3.9c.8,3.2,1.5,6.6,2,10,1.1,6.9,2.2,13.8,3.2,20.7,2,14.1,3.8,28.3,4.6,42.6s.6,30.2-1.6,44.1c-.3,2.1,3-5.6,3.3-8.5.1,2.1.1,4.1.2,6.2s1.9-12,1.7-17.6c.3,3.7.6,7.5.8,11.2s1.6,14.3,2,12.4c1.1-6.9.2-14.7-.3-22.1l-1.8-23.9c1.4,12.1,2.8,24.2,4.1,36.3C164.4,222.8,162.7,186.1,160.8,169.4ZM113.8,52a13.7,13.7,0,0,1,4.5-.3c3.1.4,9.8,8.1,12.1,11.1C126.5,59.1,118.3,52.1,113.8,52Zm36.5,46.7a40.9,40.9,0,0,0-3.4-6.6l-.7-1.1-.9-2.4c-1.1-2.6-2.3-5.1-3.5-7.5s-2.6-6.9-4.2-10.2-6.9-9-9.5-12.5c1.6,1.7,5.8,4.7,7.1,7s2.1,4.6,3.4,6.6,2.8,3.4,4.1,5.2c4.7,6.4,7,15.4,8.5,24.3Z" transform="translate(-2 -3)"/><path class="c" d="M165.1,177.5c-1.8-15.9-3.5-31.8-5.6-47.7-1.7-12.7-4.2-26.1-9.7-35.7-1.5-2.6-3.1-4.6-4.7-7s-2.6-5.8-4-8.8A41.3,41.3,0,0,0,131.6,65c-8.4-8-28.1-6.9-27.9-5.9l-.5-.4c-4,.3-7.4,1.4-11.3,2.5a26.1,26.1,0,0,0-10,4.7c-5.4,4.2-10.3,13.8-8.5,25.6.2.8,4.3,96.2,5,95.6-.8,3.1-5.6-90.7-6.1-87.3-.8,5.9-.2,13.6-.7,19.8s-1.1,15-1.1,22.7a182.4,182.4,0,0,0,1.6,23.3c.9,8,1.7,15.9,2.2,24,1.1,18.1,3.3,55.8,3.4,53.7.1-15.3,3.2-29.1,2.5-44.5-.3-7.6-3.8-16.9-4.6-24.5s-1.9-15-2.3-22.6a175.9,175.9,0,0,1,.1-21.8q.6-10.2,1.5-20.1c1.1-11.6,3-23.5,8.1-31.1s19.9-16.1,20.1-17.2-12.4,5.1-18.5,11c-4.1,3.9-6.9,9.9-8.8,17C74.4,79,83.4,72.9,88.3,69.4c2.9-1.9,1.2-5.4,4.2-6.2a63.3,63.3,0,0,1,10.6-1.7,1.7,1.7,0,0,0,1.5-1.3.4.4,0,0,0,.1-.3l.5-.2c3.1-1.3,5.9-3.5,9.1-2.8-10.9-.9-13.3-4.4-9.1,3.3.2.5,4.6,4.3,6,4.4s1.4.3,1.5.2a16.1,16.1,0,0,1,5.6,2.4c3.7,2.6,7,6.8,10.2,11,5.8,7.7,11.4,15.8,15.9,25.9a.4.4,0,0,1,.1.3,43.9,43.9,0,0,0,3.3,8.6,4.7,4.7,0,0,0,.5,1c.4,1.3.9,2.6,1.3,3.9.8,3.2,1.5,6.6,2.1,10l3.3,20.7c2.1,14.1,3.9,28.3,4.7,42.5s.5,30.2-2,44.3c-.3,2,3.3-5.7,3.6-8.6.1,2.1.1,4.1.2,6.2s2.1-12,1.9-17.6c.3,3.7.6,7.4.8,11.2s1.7,14.3,2,12.4c1.3-6.9.4-14.8-.1-22.1L164.3,193l4.2,36.2C168.7,231,167,194.3,165.1,177.5ZM115.3,60.4a16.4,16.4,0,0,1,4.9-.3c3.3.3,6.3,3.5,8.8,6.5C124.8,62.9,120.2,60.5,115.3,60.4Zm38.9,46.5a41.2,41.2,0,0,0-3.5-6.6l-.8-1.1a24.4,24.4,0,0,0-1-2.4,72.9,72.9,0,0,0-3.7-7.4,84.7,84.7,0,0,0-4.4-10.2,65,65,0,0,0-7.2-11.4,27.4,27.4,0,0,1,4.6,5.9c1.3,2.1,2.2,4.6,3.7,6.6s2.9,3.3,4.3,5.1c5,6.4,7.4,15.4,9,24.2C154.9,108.7,154.6,107.8,154.2,106.9Z" transform="translate(-2 -3)"/><path class="c" d="M162.9,174.9c-2.1-18.5-3.9-37.2-6.2-55.6-1.9-14.8-4.6-30.5-10.3-41.8-1.5-3-3.2-5.4-4.8-8.2s-2.7-6.8-4.1-10.2a48.6,48.6,0,0,0-9.8-15.6c-8.6-9.5-28.6-8.4-28.3-7.3l-.6-.5c-4,.3-7.4,1.6-11.3,2.8a24.9,24.9,0,0,0-10.1,5.4c-5.5,4.9-10.3,16-8.3,29.7.2,1,5.4,112.1,6.1,111.5-.7,3.5-6.7-105.8-7.1-101.9-.8,7-.1,15.9-.5,23.1-.5,8.8-.9,17.5-.9,26.5a246.8,246.8,0,0,0,1.9,27.1c1,9.3,1.9,18.6,2.5,28,1.3,21.1,4,65.1,4,62.6,0-17.9,2.9-33.8,2.1-51.8-.4-8.9-4.1-19.7-4.9-28.5s-2.1-17.6-2.7-26.5-.4-17-.1-25.4.8-15.6,1.3-23.3c1-13.5,2.8-27.4,7.8-36.1S98.6,40.3,98.8,39,86.4,44.9,80.2,51.7c-4.1,4.5-6.9,11.4-8.7,19.6C69.9,59.1,78.9,52.1,84,48.1c2.8-2.3,1.1-6.4,4.1-7.2A55.8,55.8,0,0,1,98.8,39a1.7,1.7,0,0,0,1.5-1.4.9.9,0,0,0,.1-.5h.5c3.1-1.6,5.9-4,9.2-3.2-11-1.2-13.5-5.3-9.2,3.7.3.6,4.7,5.1,6.1,5.2s1.4.3,1.6.3a15.8,15.8,0,0,1,5.6,2.9c3.8,2.9,7.2,7.9,10.5,12.9,5.9,9,11.7,18.6,16.4,30.4,0,.1.1.1.1.2a54.4,54.4,0,0,0,3.4,10.1l.5,1.2c.5,1.5.9,3,1.4,4.6.9,3.7,1.6,7.6,2.2,11.6,1.3,8.1,2.4,16.1,3.6,24.2,2.3,16.4,4.3,32.9,5.3,49.6s.7,35.2-1.5,51.5c-.4,2.4,3.2-6.6,3.5-10l.3,7.3c.1,2,1.9-14,1.7-20.5l.9,13c.3,4.8,1.9,16.7,2.2,14.5,1.2-8,.2-17.2-.4-25.7l-2.1-27.9c1.6,14.1,3.1,28.2,4.7,42.3C167.1,237.2,165,194.4,162.9,174.9ZM111.2,37.8a16.2,16.2,0,0,1,4.9-.3c3.3.5,6.4,4.2,9,7.7C120.8,40.9,116.1,38,111.2,37.8ZM151,92.5a42,42,0,0,0-3.6-7.7l-.8-1.4-1-2.8q-1.8-4.5-3.9-8.7c-1.4-4-2.8-8.1-4.5-11.9a85,85,0,0,0-7.5-13.3,28.9,28.9,0,0,1,4.7,6.9c1.4,2.5,2.4,5.4,3.8,7.7s3,3.9,4.5,6c5.1,7.5,7.7,18,9.4,28.4C151.7,94.6,151.4,93.5,151,92.5Z" transform="translate(-2 -3)"/><path class="b" d="M109.8,54.7c-.2-.6-10.7,1.5-14.9,5.4a56.9,56.9,0,0,0-9.2,13.3l2.5.4a95.1,95.1,0,0,0-7.3,18.5c-2,7.7-2,15.9-1.8,24.6l.3,8.1c-.5,19.3.7,37.8,1.2,40.7,4.2,24.1,3.6,15.3,3.7,18.9s-.2,15.9.2,20.2c.7,9.5,8.5-3.4,8.1-11.7-.3-6.6.1-13.8-1.3-20.1a112.7,112.7,0,0,1-2.8-20.4c-.4-7.3-.7-14.5-.9-21.8s-.7-14.3-.6-21.2,2.2-13,4.4-18.4,4.3-9.9,7.2-13.2C114.2,60.5,109.8,54.7,109.8,54.7Z" transform="translate(-2 -3)"/><path class="a" d="M74.6,75.3c-2.6,3.5-4.9,11.8-5.5,18a164.2,164.2,0,0,0-.1,22.2c.3,7.9.8,15.9,1.3,23.9,1,16.2,2,32.4,3.4,48.7,1.5,18,7.8,54.8,7.5,52.6-3.5-30.9-6.1-61.9-8-93-.5-7.7-.9-15.3-1.4-23s.2-16.8.7-24.2c1.4-17.8,5.4-19.7,8.9-29,2.2-6.1,6.6-7.3,10.4-9.5s12.8-7.7,12.1-8.2C101.6,51.9,91.5,52.7,74.6,75.3Z" transform="translate(-2 -3)"/><path class="a" d="M102.8,61.2c5.3-8.9-30.3,23.7-32.9,84.4-1.7,39.3,2.9,79.8,2.5,86.9-2.5,41.1,4.3,99.4,4.5,95.3C79.2,274.3,52.1,146.4,102.8,61.2Z" transform="translate(-2 -3)"/><path class="b" d="M104.3,54.5c-.3-.8-15.1,2.2-20.9,8.1-3.8,4.4-9.5,11.8-13,19.9L74,83a146.5,146.5,0,0,0-10.1,27.9c-2.8,11.4-2.7,23.7-2.4,36.8.2,4.1.3,8.1.4,12.2-.4,28.9,1.3,56.6,2,61,6.2,36.2,3.2,94.1,3.8,90.3,2.4-15.4.8-43.2-.1-75.4a66.3,66.3,0,0,1,1.7,13.5c.2,6.4-.2,23.8.3,30.3,1.1,14.2,17.3,58.8,13.4,45.5-3.2-10.9-1.3-50.6-1.9-63.1-.5-9.8,0-20.6-2.1-30.1a179,179,0,0,1-4.1-30.6c-.6-10.9-1-21.8-1.4-32.7s-1.1-21.4-.9-31.8,3-19.5,6.1-27.6,5.9-14.8,10-19.8C110.5,63.3,104.3,54.5,104.3,54.5Z" transform="translate(-2 -3)"/><path class="b" d="M101.6,54.7c-.3-.8-15.1,2.2-20.9,8.1C77,67.2,71.2,74.6,67.8,82.7l3.6.5a139.9,139.9,0,0,0-10.2,27.9c-2.8,11.4-2.7,23.7-2.3,36.8l.3,12.2c-.4,28.9,1.3,56.6,2.1,61,6.1,36.2,3.1,94.1,3.7,90.3,2.4-15.4.9-43.2-.1-75.4a66.3,66.3,0,0,1,1.7,13.5c.3,6.4-.2,23.8.4,30.3,1.1,14.2,17.2,58.8,13.3,45.5-3.2-10.9-1.3-50.6-1.9-63.1-.5-9.8,0-20.6-2-30.1a179,179,0,0,1-4.2-30.6c-.6-10.9-1-21.8-1.4-32.7s-1-21.4-.8-31.8,2.9-19.5,6-27.6,5.9-14.8,10-19.8C107.8,63.5,101.6,54.7,101.6,54.7Z" transform="translate(-2 -3)"/><path class="c" d="M186,239.3c-2.6-23.9-4.9-47.8-7.9-71.6-2.4-19.1-5.9-39.2-13.3-53.8-1.9-3.8-4.2-6.9-6.2-10.5s-3.6-8.7-5.4-13.2a64.3,64.3,0,0,0-12.7-20c-11.2-12.2-37-10.8-36.7-9.3h0a74.4,74.4,0,0,0-15.4,2.8c-4.5,1.4-9.1,3.2-13.2,6.9C68.2,77,62,91.4,64.5,109c.2,1.3,6.9,144.3,7.8,143.4-1,4.6-8.5-136-9.1-131-1,9-.1,20.5-.7,29.7-.6,11.3-1.2,22.6-1.2,34.1a341,341,0,0,0,2.4,34.9c1.4,12,2.5,23.9,3.3,36,1.7,27.2,5.1,83.8,5.1,80.6,0-23,3.9-43.5,2.8-66.8-.6-11.3-5.3-25.3-6.4-36.6s-2.7-22.7-3.4-34a297.5,297.5,0,0,1-.1-32.7c.4-10.1,1-20.2,1.7-30.1C68,119.2,70.3,101.2,76.9,90S102.8,66.1,103,64.5,86.9,72,78.9,80.8c-5.3,5.7-8.9,14.7-11.4,25.3-1.9-15.8,9.8-24.8,16.3-29.9,3.7-3,1.4-8.2,5.4-9.3A64.3,64.3,0,0,1,103,64.5a2.4,2.4,0,0,0,2-1.9,1.3,1.3,0,0,0,.1-.6l.7-.2c4-2,7.6-5.2,11.9-4.1-14.3-1.5-17.5-6.7-11.9,4.9.3.7,6,6.4,7.9,6.6.4.6,1.8.4,2,.4a18.7,18.7,0,0,1,7.3,3.7c5,3.8,9.3,10.2,13.6,16.6,7.7,11.5,15.2,23.9,21.3,39.1,0,.1.1.2.1.3a76.2,76.2,0,0,0,4.4,13l.7,1.5,1.8,5.9c1.1,4.8,2.1,9.8,2.9,15,1.6,10.3,3.1,20.7,4.5,31.1,3,21.1,5.6,42.4,6.9,63.8s1,45.3-2,66.3c-.5,3.1,4.1-8.5,4.5-12.8.1,3.1.3,6.2.4,9.3s2.5-17.9,2.2-26.4q.8,8.4,1.2,16.8c.4,6.2,2.5,21.5,2.9,18.7,1.6-10.4.3-22.1-.5-33.2l-2.7-35.9,6,54.5C191.5,319.5,188.8,264.5,186,239.3ZM117.5,41a27.6,27.6,0,0,1,6.4-.5c4.2.3,8.1,3.4,11.3,6.3A30.9,30.9,0,0,0,117.5,41Zm49.8,45.7a29.7,29.7,0,0,0-4.4-6.5l-1-1.2-1.2-2.4c-1.5-2.5-3.1-4.9-4.8-7.3A68.9,68.9,0,0,0,141.2,48a28.9,28.9,0,0,1,5.9,5.7,78.5,78.5,0,0,0,4.7,6.6c1.7,1.8,3.7,3.3,5.5,5,6.5,6.3,9.5,15.2,11.3,24.1C168.2,88.5,167.8,87.6,167.3,86.7Z" transform="translate(-2 -3)"/><path class="c" d="M186.8,248c-2.6-24.5-5-49.1-8.1-73.5-2.4-19.6-5.9-40.3-13.3-55.3-2-3.9-4.2-7-6.3-10.8s-3.6-8.9-5.4-13.5A65.4,65.4,0,0,0,141,74.3c-11.2-12.5-37.1-11.2-36.8-9.7s.1.1.1.2a64.2,64.2,0,0,0-15.5,2.9c-4.5,1.4-9,3.2-13.1,7C68.7,81.2,62.4,95.9,65,114c.2,1.3,7.2,148.2,8.1,147.3-.9,4.7-8.8-139.7-9.4-134.6-1,9.2,0,21-.6,30.5-.6,11.6-1.2,23.2-1.1,35A358.8,358.8,0,0,0,64.5,228c1.4,12.3,2.5,24.6,3.3,37,1.7,28,5.3,86.1,5.3,82.8,0-23.6,3.7-44.7,2.6-68.6-.6-11.6-5.3-26-6.4-37.6s-2.7-23.3-3.5-34.9-.6-22.6-.2-33.6,1-20.7,1.7-30.9c1.2-17.8,3.5-36.2,10.1-47.7s25.8-24.4,26-26.1S87.3,76,79.4,85c-5.3,6-8.9,15.1-11.3,26C66,94.8,77.8,85.6,84.2,80.3c3.7-3,1.5-8.4,5.4-9.5a60.5,60.5,0,0,1,13.8-2.4,2.6,2.6,0,0,0,2.1-2v-.5l.7-.2c4.1-2.1,7.7-5.4,11.9-4.3-14.2-1.5-17.6.2-11.9,5,.5.4,6.1,6.6,8,6.9.3.5,1.8.4,2,.3a20.5,20.5,0,0,1,7.3,3.8c4.9,4,9.3,10.5,13.6,17.1,7.7,11.9,15.3,24.6,21.4,40.2a.4.4,0,0,0,.1.3,84.2,84.2,0,0,0,4.4,13.4l.7,1.5,1.8,6.1c1.1,4.9,2.1,10.1,2.9,15.4,1.6,10.6,3.2,21.3,4.7,31.9,3,21.7,5.6,43.6,6.9,65.6s1.1,46.5-1.9,68c-.4,3.2,4.2-8.7,4.6-13.1.1,3.1.2,6.3.4,9.5s2.5-18.4,2.2-27.1l1.2,17.2c.4,6.4,2.4,22.2,2.9,19.3,1.5-10.7.2-22.8-.6-34.1l-2.7-36.9q3,28.1,6.1,55.9C192.5,330.4,189.7,273.8,186.8,248Zm-69-204.5a35.5,35.5,0,0,1,6.5-.4c4.2.3,8,3.5,11.3,6.5C130.2,45.9,124.2,43.5,117.8,43.5Zm50,47.1a31.4,31.4,0,0,0-4.5-6.7l-1-1.2c-.3-.8-.8-1.6-1.2-2.5a86.3,86.3,0,0,0-4.8-7.5,70.5,70.5,0,0,0-14.7-21.9,30,30,0,0,1,5.9,5.9c1.6,2.2,2.9,4.7,4.7,6.7s3.7,3.4,5.5,5.2c6.5,6.5,9.5,15.7,11.3,24.8Z" transform="translate(-2 -3)"/><path class="b" d="M169.1,172.7c-1.2-5.3-2.4-10.5-3.7-15.6s-2.1-11-3.4-16.2-2.8-9.9-4.3-14.4c0-.2-.1-.4-.1-.6-2.2-8.2-4.1-17.2-6.6-24.6-3.8-11.2-4.6-11.3-7.1-16.6a70.9,70.9,0,0,0-11.6-18c-13.5-15.9-21.8-1-19-.8,4.3.2,24.3,42.8,30.5,58,6.9,16.8,12.8,36.5,17.7,58.5s6.2,50.1,7.9,74.1c1.9,25.7,3.1,51,2.5,76-.4,16.7,8.3-50.4,6.2-79.2C176.1,226.5,174.5,197.5,169.1,172.7ZM139.5,58.3c2.1,3.2,3.1,8,6.3,8.7l-1.1-1.7a24.3,24.3,0,0,1-1.4-2c-2.5-4.4-4.4-10.9-8-12.8C137.2,51.1,137.9,56,139.5,58.3Z" transform="translate(-2 -3)"/><path class="c" d="M181.8,252c-2.6-24.4-5-49.1-8.1-73.4-2.4-19.6-5.9-40.3-13.3-55.3-2-3.9-4.2-7.1-6.3-10.8s-3.6-9-5.4-13.5A67.1,67.1,0,0,0,136,78.3c-11.2-12.5-37.1-11.1-36.8-9.6h.1a75.6,75.6,0,0,0-15.5,2.9,32.5,32.5,0,0,0-13.1,7.1c-7,6.4-13.3,21.2-10.7,39.3.2,1.2,7.2,148.1,8.1,147.2-.9,4.8-8.8-139.7-9.4-134.5-1,9.2,0,21-.6,30.5-.6,11.5-1.2,23.1-1.1,34.9a358.8,358.8,0,0,0,2.5,35.9c1.4,12.3,2.5,24.6,3.3,37,1.7,27.9,5.3,86,5.3,82.8,0-23.7,3.7-44.8,2.6-68.6-.6-11.7-5.3-26-6.4-37.7s-2.7-23.2-3.5-34.9-.6-22.5-.2-33.5,1-20.7,1.7-30.9c1.2-17.8,3.5-36.2,10.1-47.7,7.4-13.1,25.8-24.5,26-26.2s-16.1,7.7-24,16.7C69.1,95,65.5,104.2,63.1,115,61,98.9,72.7,89.7,79.2,84.4c3.7-3,1.5-8.4,5.4-9.6a73.9,73.9,0,0,1,13.8-2.4,2.4,2.4,0,0,0,2.1-1.9v-.6l.7-.2c4.1-2,7.7-5.3,11.9-4.2-14.2-1.5-17.5-7-11.9,5,.3.7,6.1,6.6,8,6.8.3.6,1.8.4,2,.4a19,19,0,0,1,7.3,3.8c4.9,3.9,9.3,10.5,13.6,17.1,7.7,11.9,15.3,24.5,21.4,40.2a.4.4,0,0,0,.1.3,79.8,79.8,0,0,0,4.4,13.3c.2.6.5,1.1.7,1.6l1.8,6c1.1,5,2.1,10.1,2.9,15.4,1.6,10.7,3.2,21.3,4.6,32,3.1,21.7,5.7,43.5,7,65.5s5.6,46.1,5.3,37.4l1.2,17.2c.4,6.4,2.4,22.1,2.9,19.2,1.5-10.6.2-22.7-.6-34l-2.7-36.9c2,18.6,4,37.3,6.1,55.9C187.5,334.4,184.7,277.9,181.8,252ZM112.7,46.4a28.4,28.4,0,0,1,6.5-.4c4.2.3,8,3.4,11.3,6.5C125.1,48.8,119.1,46.4,112.7,46.4Zm50,47a30.2,30.2,0,0,0-4.5-6.7,5.2,5.2,0,0,0-1-1.1,11.5,11.5,0,0,0-1.2-2.5,73.4,73.4,0,0,0-4.8-7.5,68.9,68.9,0,0,0-5.5-10.4,74.5,74.5,0,0,0-9.2-11.6,30.5,30.5,0,0,1,5.9,6c1.6,2.2,2.9,4.7,4.7,6.7s3.8,3.4,5.5,5.1c6.5,6.5,9.5,15.7,11.3,24.8C163.6,95.3,163.1,94.3,162.7,93.4Z" transform="translate(-2 -3)"/><path class="a" d="M183.9,232.2c-2.7-23.8-5-47.8-8-71.5-2.4-19.1-5.9-39.2-13.3-53.8-1.9-3.9-4.2-6.9-6.2-10.6A78,78,0,0,1,151,83.2c-3.1-10.2-7.9-15-12.6-20.1-11.3-12.1-37.1-10.8-36.8-9.3h0a74.7,74.7,0,0,0-15.4,2.9A33,33,0,0,0,73,63.7C66,70,59.8,84.3,62.3,102c.2,1.2,6.9,144.3,7.8,143.4-.9,4.6-8.5-136.1-9.1-131.1-1,9-.1,20.5-.6,29.8-.7,11.2-1.3,22.5-1.3,34A341.2,341.2,0,0,0,61.6,213c1.3,12,2.4,24,3.2,36.1,1.7,27.2,5.2,83.8,5.2,80.6,0-23.1,3.8-43.6,2.7-66.8-.6-11.4-5.3-25.3-6.4-36.7s-2.6-22.6-3.4-34a324.4,324.4,0,0,1-.1-32.7c.4-10.1,1-20.1,1.7-30.1,1.3-17.3,3.6-35.2,10.2-46.4,7.5-12.8,25.9-23.9,26.1-25.6S84.7,65,76.7,73.7C71.4,79.5,67.8,88.5,65.4,99c-2-15.7,9.7-24.7,16.2-29.9,3.7-2.9,1.4-8.2,5.4-9.3a73.9,73.9,0,0,1,13.8-2.4,2.3,2.3,0,0,0,2-1.9.9.9,0,0,0,.1-.5l.7-.2s-3.1-.2,0,.7c.5.2,6.1,6.5,8,6.7.3.6,1.7.4,2,.3a21.5,21.5,0,0,1,7.2,3.7c5,3.8,9.3,10.2,13.6,16.6,7.7,11.6,15.3,23.9,21.3,39.1a.4.4,0,0,1,.1.3,76.2,76.2,0,0,0,4.4,13c.2.6.5,1.1.7,1.6l1.8,5.9c1.1,4.8,2.1,9.8,2.9,14.9,1.6,10.4,3.1,20.8,4.6,31.2,2.9,21.1,5.6,42.4,6.8,63.8s1,45.3-2,66.2c-.4,3.1,4.1-8.4,4.5-12.7.2,3.1.3,6.1.4,9.2s2.6-17.9,2.3-26.3l1.2,16.7c.3,6.2,2.4,21.6,2.8,18.8,1.6-10.5.3-22.2-.5-33.2s-1.8-24-2.6-35.9l6,54.4C189.3,312.5,186.6,257.4,183.9,232.2ZM163,84.3a33.4,33.4,0,0,0-4.5-6.6l-1-1.1a13.4,13.4,0,0,0-1.2-2.4,82.1,82.1,0,0,0-4.7-7.3,89.2,89.2,0,0,0-5.5-10.1,71.3,71.3,0,0,0-9.2-11.2c2.1,1.6,3.1,2.9,5.9,5.7s2.8,4.6,4.6,6.6,3.8,3.3,5.6,5c6.4,6.3,9.4,15.2,11.2,24.1Z" transform="translate(-2 -3)"/><path class="c" d="M181.9,248.3c-2.7-24.4-5.1-49.1-8.1-73.4-2.4-19.6-6-40.3-13.4-55.3-1.9-3.9-4.2-7.1-6.2-10.9s-3.6-8.9-5.4-13.5a67.8,67.8,0,0,0-12.7-20.6C124.8,62.1,99,63.5,99.3,65h0A74.7,74.7,0,0,0,83.9,68c-4.5,1.4-9.1,3.3-13.2,7.1-7,6.4-13.2,21.1-10.6,39.3.2,1.2,7.2,148.1,8.1,147.2-1,4.8-9.4-146.6-10-141.4-1,9.2-1.6,26.3,0,37.4s-1.2,23.1-1.1,34.9a307.8,307.8,0,0,0,2.5,35.9c1.3,12.3,2.5,24.6,3.2,37,1.8,27.9,5.4,86,5.4,82.8-.1-23.7,3.7-44.8,2.6-68.6-.6-11.7-5.3-26-6.4-37.7s-2.8-23.2-3.5-34.9a314.1,314.1,0,0,1-.2-33.6c.4-10.3.9-20.6,1.7-30.8,1.2-17.8,3.5-36.2,10-47.7,7.5-13.1,25.9-24.5,26.1-26.2S82.4,76.4,74.4,85.4c-5.2,5.9-8.8,15.1-11.3,25.9-2-16.1,9.7-25.3,16.2-30.6,3.7-3,1.4-8.4,5.4-9.6a66.6,66.6,0,0,1,13.8-2.4,2.3,2.3,0,0,0,2-1.9,1.3,1.3,0,0,0,.1-.6l.7-.2c4-2.1,7.3-6.5,11.6-5.5-14.3-1.5-12.7.6-9.8,4.4.4.6,4.3,8.5,6.2,8.7.3.6,1.7.4,2,.4a19.7,19.7,0,0,1,7.3,3.8c4.9,3.9,9.3,10.5,13.6,17.1,7.7,11.8,15.3,24.5,21.4,40.1v.4a79.8,79.8,0,0,0,4.5,13.3,11.1,11.1,0,0,0,.7,1.6c.6,2,1.2,4,1.7,6,1.2,5,2.2,10.1,3,15.4,1.6,10.6,3.1,21.3,4.6,32,3,21.6,5.7,43.5,7,65.5s2.2,59.4,2.6,54.9c.2,3.2.3,6.4.4,9.6s2.5-18.4,2.2-27.1c.4,5.7.9,11.5,1.3,17.2s2.4,22.1,2.8,19.2c1.6-10.7.3-22.7-.6-34l-2.7-36.9c2.1,18.6,4.1,37.3,6.1,55.9C187.5,330.7,184.7,274.2,181.9,248.3Zm-69-204.4a27.6,27.6,0,0,1,6.4-.4c4.2.3,8.1,3.4,11.4,6.5C125.3,46.3,119.2,43.9,112.9,43.9Zm49.9,47a36.9,36.9,0,0,0-4.4-6.7l-1-1.1-1.2-2.5q-2.2-3.9-4.8-7.5a93.5,93.5,0,0,0-5.5-10.4,65,65,0,0,0-9.3-11.5,27.9,27.9,0,0,1,6,5.9c1.6,2.2,2.8,4.7,4.6,6.7s3.8,3.4,5.6,5.2c6.5,6.4,9.5,15.6,11.3,24.7C163.7,92.8,163.3,91.8,162.8,90.9Z" transform="translate(-2 -3)"/><path class="c" d="M185.5,263.2c-2.9-27.2-5.5-54.5-8.7-81.6-2.6-21.8-6.3-44.8-13.7-61.5-2-4.3-4.2-7.8-6.2-12s-3.7-10-5.5-15.1a73.9,73.9,0,0,0-12.8-23c-10.8-12.9-34.8-7.6-36.3-11-.1,0,0,.1,0,.2a57.7,57.7,0,0,0-15.2,3,30.6,30.6,0,0,0-12.9,7.7C67.3,77,61.3,93.3,64,113.5c.2,1.3,8.5,164.4,9.3,163.4-.9,5.2-9.9-155.1-10.4-149.4-.9,10.2.1,23.3-.4,33.9-.5,12.8-.9,25.6-.8,38.7s1.4,26.5,2.8,39.8,2.7,27.4,3.6,41.1c2,31,6.1,95.6,6,91.9-.2-26.2,3.3-49.6,1.9-76-.6-13-5.4-29-6.6-41.9s-2.9-25.8-3.8-38.8-.8-25-.4-37.2.7-23,1.3-34.3c1.1-19.6,3.1-40.1,9.5-52.8,7.2-14.4,25.3-26.9,25.5-28.8S85,67.3,77.2,77.2C72,83.7,69.3,98.1,67,110.1c-2.2-18,9.3-28.1,15.7-33.9,3.6-3.3,3.7-6.4,7.9-7.9s8.4-4.4,10.9-5.2.4-3.6.6-5.1,8.2,10.4,10.1,10.7c.3.6,1.7.5,2,.4a19.7,19.7,0,0,1,7.2,4.3c4.9,4.4,9.3,11.7,13.6,19,7.7,13.3,15.3,27.4,21.4,44.8a.6.6,0,0,1,.1.4,112.2,112.2,0,0,0,4.5,14.8l.8,1.8c.6,2.2,1.2,4.4,1.7,6.7,1.2,5.5,2.2,11.2,3.1,17.1,1.7,11.8,2.3,27.1,3.9,38.9,3.2,24.1,9.6,44.9,8.4,69.4s1.5,51.6-1.2,75.5c-.4,3.5,3-10.8,3.3-15.7s.4-39.6.6-36.1,3.2,27.4,2.8,17.8c.5,6.4,1,12.7,1.4,19.1s2.6,24.6,3,21.4c1.5-11.9,0-25.3-.9-37.8l-3-41,6.6,62.1C191.8,354.7,188.5,291.9,185.5,263.2Zm-4.9-1.9c-2.9-27.2-6.8-53.7-10.1-80.8-2.5-21.8-6.2-44.8-13.7-61.5-1.9-4.3-4.2-7.8-6.2-12s-3.7-10-5.5-15.1a71.9,71.9,0,0,0-12.7-23C121.6,56,97.6,61.3,96,57.9a.3.3,0,0,0,.1.2,61.9,61.9,0,0,0-15.3,3,31.2,31.2,0,0,0-12.9,7.7c-6.8,7.1-12.8,23.4-10.1,43.6.2,1.3,8.4,164.4,9.3,163.4-.9,5.2-10-155.1-10.5-149.4-.9,10.2.1,23.3-.3,33.9-.5,12.8-1,25.6-.8,38.7s1.3,26.5,2.8,39.8,2.7,27.4,3.6,41.1c1.9,31,6,95.6,6,91.9-.3-26.2,3.2-49.6,1.9-76-.7-13-5.5-29-6.7-41.9s-2.9-25.8-3.7-38.8-.8-25-.5-37.2.7-22.9,1.4-34.3c1-19.6,3.1-40.1,9.5-52.8C77,76.4,95.1,63.9,95.3,62S78.7,66.2,70.9,76.1C65.8,82.6,63,97,60.7,109c-2.1-18,9.4-28.1,15.7-33.9,3.6-3.3,3.7-6.4,8-7.9s8.3-4.4,10.9-5.2.3-3.6.5-5.1,8.3,10.4,10.1,10.7,1.8.5,2,.4a18.9,18.9,0,0,1,7.2,4.3c4.9,4.4,9.3,11.7,13.6,19,7.8,13.3,15.3,27.4,21.5,44.8v.4a98.9,98.9,0,0,0,4.5,14.8l.7,1.8,1.8,6.7q1.8,8.3,3,17.1c1.7,11.8,3.3,23.7,4.9,35.5,3.2,24.1,6,48.4,7.4,72.8s-2.4,35.7-2.2,39.2,6.4-21.3,5.4-34.9c2.2,20.7,7.2,40.3,9.4,61C185.5,353.6,183.6,290,180.6,261.3ZM115.8,40a26.7,26.7,0,0,1,6.3-.4c4.2.4,13.4,9,16.6,12.4C133.4,47.8,122.1,40.1,115.8,40Zm49.7,52.7a34.4,34.4,0,0,0-4.4-7.5l-1-1.3c-.4-.9-.8-1.9-1.3-2.8a86,86,0,0,0-4.7-8.4c-1.7-3.9-3.4-7.8-5.5-11.6S139,50.9,135.6,47c2.2,1.9,7.9,5.3,9.6,7.9s2.9,5.2,4.7,7.5,3.7,3.8,5.5,5.8c6.5,7.2,9.5,17.4,11.4,27.5C166.4,94.7,166,93.7,165.5,92.7Z" transform="translate(-2 -3)"/><path class="c" d="M192.5,254.2c-2.8-24.4-5.2-49-8.4-73.4-2.5-19.6-.1-45.1-8.1-60-2.1-3.9-13.2-42.8-18.3-48-12.1-12.4-54.4-2.9-54-1.4l-.8-.7c-5.7.5-10.5,2.2-16,3.8S77,77.8,72.5,81.6c-7.7,6.5-14.6,21.3-11.9,39.5.2,1.2,6.9,148.1,7.9,147.2C67.4,273,61.3,129,59.1,133.7c-4.4,9.5-3.1,21.3-.8,30.6,2.8,11.2-1.5,23.1-1.5,34.9a307.8,307.8,0,0,0,2.5,35.9c1.4,12.3,2.6,24.6,3.3,37,1.8,27.9,5.3,86.1,5.3,82.8.1-23.7,4.4-44.8,3.3-68.6-.6-11.7-5.6-26-6.8-37.7s-2.8-23.2-3.5-34.9a289.7,289.7,0,0,1,0-33.6c.5-10.3,1.2-20.7,2-30.9,1.5-17.8,4.1-36.2,11.3-47.8,8.2-13.1,28.3-24.6,28.6-26.3S85.2,82.9,76.4,91.9c-5.7,6-9.7,15.2-12.4,26.1-2.1-16.2,10.7-25.5,17.8-30.8,4-3,1.6-8.4,5.9-9.6a86.5,86.5,0,0,1,15.1-2.5,2.5,2.5,0,0,0,2.2-2c0-.2.1-.3.1-.5l.7-.2c4.4-2.1,8.4-5.4,13-4.4-15.5-1.4-19.1-6.8-13,5.1.4.7,6.6,6.6,8.7,6.8.3.6,1.9.4,2.2.4a22,22,0,0,1,7.9,3.8c5.3,3.8,10,10.4,14.7,16.9,8.3,11.9,16.5,24.5,23,40.1a.4.4,0,0,1,.1.3,79.8,79.8,0,0,0,4.7,13.3l.8,1.6c.7,2,1.3,4,1.9,6.1,1.2,4.9,2.2,10,3.1,15.3,1.7,10.6,3.3,21.3,4.8,32,3.2,21.6,6,43.5,7.2,65.5s.9,46.5-2.5,68.1c-.5,3.1,4.6-8.8,5-13.2.1,3.2.3,6.4.4,9.5s2.8-18.4,2.6-27l1.2,17.2c.4,6.3,2.5,22.1,3,19.2,1.8-10.7.4-22.8-.4-34.1L191.5,278l6.3,55.9C198.1,336.7,195.4,280.1,192.5,254.2Zm-74-206.3a32.5,32.5,0,0,1,7-.4c4.6.3,8.7,3.4,12.3,6.4A36.3,36.3,0,0,0,118.5,47.9Zm54.1,46.8a33,33,0,0,0-4.9-6.7l-1-1.1c-.4-.9-.9-1.7-1.3-2.5a77.1,77.1,0,0,0-5.2-7.5,81.9,81.9,0,0,0-5.9-10.4,72.3,72.3,0,0,0-10-11.4,29.5,29.5,0,0,1,6.4,5.8c1.8,2.2,3.1,4.7,5.1,6.7s4,3.4,6,5.2c7,6.4,10.2,15.6,12.1,24.7A23.9,23.9,0,0,0,172.6,94.7Z" transform="translate(-2 -3)"/><path class="c" d="M81.4,97.6a223.2,223.2,0,0,0-8.6,46.9c-.7,9.4-1.4,18.8-.7,28.5s-.1,22.4.8,32.2c2.1,20.6,4.7,43.3,7.4,63.6,2.9,21.8.4,23.8,11.8,55.6,1,2.7-9.1-49.3-12.4-107.5-.5-9.7-2-19.3-2.9-28.9s-2-19.3-1.7-28.9,1-17.6,1.9-26,1.9-16.3,3.8-23.4c4.8-17.4,14.4-31.1,19.8-39.8C101.1,69,87.5,77.6,81.4,97.6Z" transform="translate(-2 -3)"/><path class="a" d="M60.2,96.5c-3.7,5.4-6.9,18.2-7.6,27.6a301.9,301.9,0,0,0,0,34.3c.6,12.2,1.4,24.5,2.2,36.7,1.5,25.1,3.1,50.1,5.2,75.1,2.2,27.8,11.5,84.5,11.1,81.1Q63.3,279.9,58.9,208c-.8-11.8-1.5-23.6-2.2-35.4s.1-25.9.8-37.2c1.7-27.5,7.4-30.3,12.1-44.6,3.1-9.4,9.4-11.2,14.7-14.6s17.9-11.7,16.9-12.5C97.9,60.8,83.8,61.9,60.2,96.5Z" transform="translate(-2 -3)"/><path class="a" d="M180.4,232.5c-1.6-19.7-3.1-39.5-6.7-58.8s-9.5-37.2-15.6-54.9c-2.5-7.5-5.4-14.9-9.9-20s-9.5-7.3-14.4-10a42.7,42.7,0,0,1-8.4-5.4c-2.5-2.1-5.6-7-7.9-9.5C112.9,69,96,64.1,96.1,65.5c.6,8.1,14.7,7.2,18.7,11.5s8.8,10.6,13.6,13.4,9.7,4.8,14.3,8.6,8.3,10.8,11,18.4c6.1,16.8,11.9,34.3,15.6,52.4s2.7,25.5,7.2,58.1c3.2,22,7.4,135.6,8,111.9Z" transform="translate(-2 -3)"/><path class="a" d="M193.6,232.4c3-21.6-3.7-44.9-11.2-62.6s-10.4-35.3-16.3-53c-2.4-7.5-5.2-14.9-9.6-20.1s-9-7.3-13.7-10c-2.7-1.5-14.3-16-16.6-18.5-4.4-4.9-22.3-5.5-21.5-4.8,4.2,3.6,12.5-.2,19.9,11.4a48.1,48.1,0,0,0,13,13.5c4.6,2.9,9.4,4.8,13.7,8.6s8,10.9,10.6,18.4c5.8,16.9,11.4,34.4,15.1,52.5s5.5,38.6,7.1,58.1c1.8,22.2,13.9,110.4,13.7,108Z" transform="translate(-2 -3)"/><ellipse class="e" cx="108.3" cy="93.8" rx="56.1" ry="78.7" transform="translate(-8.6 5.2) rotate(-4.2)"/><path class="f" d="M101.8,84.5c.7,9.7-9.6,14.9-21.9,15.8s-22-2.9-22.7-12.5,9-14.8,21.3-15.7S101.1,74.9,101.8,84.5Z" transform="translate(-2 -3)"/><path class="f" d="M158,80.4c.7,9.6-9.6,14.8-21.9,15.8s-22-2.9-22.7-12.5,9-14.8,21.3-15.7S157.3,70.7,158,80.4Z" transform="translate(-2 -3)"/><path class="f" d="M100.2,81.8c4.8,1.2,9.2,1,13-1" transform="translate(-2 -3)"/><path class="f" d="M102,86.9c3.7-2.9,7.5-3.2,11.6-.9" transform="translate(-2 -3)"/><path class="f" d="M46.3,86.3" transform="translate(-2 -3)"/><path class="f" d="M55.5,85.7" transform="translate(-2 -3)"/><line class="f" x1="54.2" y1="86.8" x2="42.5" y2="87.7"/><line class="f" x1="168.9" y1="78.8" x2="157.1" y2="79.7"/><line class="f" x1="168.5" y1="74.2" x2="156.8" y2="75.1"/><line class="f" x1="53.9" y1="82.6" x2="42.2" y2="83.5"/><path class="g" d="M134.9,131.2c0,.2-8.7,12.3-21.1,13.2s-23.8-9.7-23.9-9.9,10.1-1,22.5-1.9S134.8,131.1,134.9,131.2Z" transform="translate(-2 -3)"/><path class="a" d="M94.2,65.1c.2-1-5.6-2-11.2-2.5-7.7-.8-13.9,1.3-18,2.8C57.1,68.1,46.3,79,46.5,79.3s11.7-9.4,18.8-11a34.6,34.6,0,0,1,12-1.5c3.2.2,7.1,1.3,9.4.4C91,65.7,94,66,94.2,65.1Z" transform="translate(-2 -3)"/><path class="h" d="M62.9,83.9c-.4-1,2.4-3.9,7-6.1a36.2,36.2,0,0,1,5.9-.7C65.9,79.5,62.9,83.9,62.9,83.9Z" transform="translate(-2 -3)"/><path class="h" d="M151.6,74.9c.3-1-2.7-3.3-7.4-4.9a45.5,45.5,0,0,0-5.6.2C148.2,71.2,151.6,74.9,151.6,74.9Z" transform="translate(-2 -3)"/><path class="i" d="M119.5,114.6c-1.2-.2,3.4-1.6,4.6,2.2s-2.2,5.6-2.3,4.6S125.8,116,119.5,114.6Z" transform="translate(-2 -3)"/><path class="i" d="M114,125.5c-.7,1-.1-2.1,1.7-3.2s5.3-.2,4.4.3A6.2,6.2,0,0,0,114,125.5Z" transform="translate(-2 -3)"/><path class="i" d="M108.5,125.9c.7.9-.2-2.1-2.2-2.9s-5.3.5-4.3.9A6.4,6.4,0,0,1,108.5,125.9Z" transform="translate(-2 -3)"/><path class="h" d="M103.1,110.8c-.7,1.9,2.4-2.1,2.4-5.9s-3.4-7.9-3.4-6.1A13.7,13.7,0,0,1,103.1,110.8Z" transform="translate(-2 -3)"/><path class="e" d="M142.2,127.6c.8,3.5-3.1-12.1-10.9-14C131.3,113.6,138.9,112.4,142.2,127.6Z" transform="translate(-2 -3)"/><path class="e" d="M82.3,132.3c-.3,3.6,1.2-12.4,8.7-15.4C91,116.9,83.3,116.7,82.3,132.3Z" transform="translate(-2 -3)"/><path class="e" d="M90.7,147c1.7,2.9-2.8-7.5-2.3-12.8C88.4,134.2,86.6,139.6,90.7,147Z" transform="translate(-2 -3)"/><path class="e" d="M136.4,142c-1.4,3.2,2.1-7.9.7-13C137.1,129,140,134,136.4,142Z" transform="translate(-2 -3)"/><path class="h" d="M94.5,116.7" transform="translate(-2 -3)"/><path class="h" d="M115.4,109.9c1,1.8-2.7-1.7-3.2-5.5s2.2-8.3,2.4-6.5A13.8,13.8,0,0,0,115.4,109.9Z" transform="translate(-2 -3)"/><path class="j" d="M64.9,89.1c1-.3-1.2,1.4-3,.8s-4.2-2.8-3.3-2.6S61.2,89.9,64.9,89.1Z" transform="translate(-2 -3)"/><path class="j" d="M65.7,87.8c.6-.5-.7,1.6-2.6,1.3s-4.8-2.4-3.9-2.3S63.2,89.5,65.7,87.8Z" transform="translate(-2 -3)"/><path class="j" d="M66.8,86.5c.9-.6-1.1,1.9-2.9,1.6s-4.4-2.9-3.5-2.7S64,88.6,66.8,86.5Z" transform="translate(-2 -3)"/><path class="j" d="M67,86.1c1-.3-1.3,1.4-3.1.8s-4.1-2.8-3.2-2.6S63.2,86.9,67,86.1Z" transform="translate(-2 -3)"/><path class="j" d="M68.1,85.4c.6-.4-.9,1.5-2.7.9s-4.5-3-3.6-2.7S65.4,86.8,68.1,85.4Z" transform="translate(-2 -3)"/><path class="j" d="M69.4,84.2c.9-.6-1.3,1.7-3.1,1.1s-4-3.4-3.2-3.1S66.4,85.9,69.4,84.2Z" transform="translate(-2 -3)"/><path class="j" d="M69.5,84c1.1,0-1.6.8-3.1-.1s-3.2-3.4-2.4-3A7.9,7.9,0,0,0,69.5,84Z" transform="translate(-2 -3)"/><path class="j" d="M70.7,83c.7-.2-1.1,1.2-2.8.4s-3.9-3.2-3.1-2.8S67.9,83.8,70.7,83Z" transform="translate(-2 -3)"/><path class="j" d="M71.7,82.2c1-.3-1.6,1.3-3.2.5s-3.5-3.4-2.7-3S68.5,83.3,71.7,82.2Z" transform="translate(-2 -3)"/><path class="j" d="M72.1,82c1,.1-1.5.9-2.9,0s-2.9-3.2-2.2-2.8S68.6,81.9,72.1,82Z" transform="translate(-2 -3)"/><path class="j" d="M73.4,81.5c.7-.2-1.2,1-2.7.1s-3.3-3.5-2.5-3.1S70.6,82,73.4,81.5Z" transform="translate(-2 -3)"/><path class="j" d="M75.2,79.9c.6-.1-1.1,1-2.1.1s-1.9-3.4-1.4-3S72.9,80.4,75.2,79.9Z" transform="translate(-2 -3)"/><path class="j" d="M75.1,80.8c.9-.2-1.6,1.2-3,.3s-2.6-3.6-1.9-3.2S72,81.6,75.1,80.8Z" transform="translate(-2 -3)"/><path class="j" d="M151.7,81.1c-1-.1,1.5,1.3,3.2.5s3.7-3.3,2.9-2.9S155.6,81.5,151.7,81.1Z" transform="translate(-2 -3)"/><path class="j" d="M150.9,79.9c-.7-.4.8,1.6,2.6,1s4.5-2.9,3.6-2.7S153.5,81.4,150.9,79.9Z" transform="translate(-2 -3)"/><path class="j" d="M149.6,78.8c-1-.5,1.3,1.8,3.1,1.2s4-3.3,3.1-3S152.6,80.6,149.6,78.8Z" transform="translate(-2 -3)"/><path class="j" d="M149.4,78.4c-1.1-.2,1.4,1.2,3.1.5s3.7-3.3,2.9-3S153.2,78.8,149.4,78.4Z" transform="translate(-2 -3)"/><path class="j" d="M148.2,77.8c-.7-.3,1,1.4,2.7.7s4.2-3.5,3.3-3.2S151,78.9,148.2,77.8Z" transform="translate(-2 -3)"/><path class="j" d="M146.7,76.7c-1-.4,1.5,1.6,3.2.8s3.6-3.8,2.8-3.4S149.9,78.1,146.7,76.7Z" transform="translate(-2 -3)"/><path class="j" d="M146.6,76.5c-1,.2,1.7.7,3.1-.4s2.8-3.7,2.1-3.2S150.3,75.9,146.6,76.5Z" transform="translate(-2 -3)"/><path class="j" d="M145.3,75.7c-.7-.1,1.2,1.1,2.8.1s3.6-3.6,2.8-3.1S148.2,76.2,145.3,75.7Z" transform="translate(-2 -3)"/><path class="j" d="M144.2,75.1c-1-.2,1.7,1.1,3.3.1s3-3.7,2.2-3.3S147.5,75.7,144.2,75.1Z" transform="translate(-2 -3)"/><path class="j" d="M143.8,74.9c-1,.2,1.6.7,2.9-.3s2.5-3.5,1.8-3A6.6,6.6,0,0,1,143.8,74.9Z" transform="translate(-2 -3)"/><path class="j" d="M142.4,74.5c-.7-.1,1.3.9,2.7-.1s2.9-3.9,2.2-3.4S145.2,74.8,142.4,74.5Z" transform="translate(-2 -3)"/><path class="j" d="M140.3,73.5c-.6-.1,1.3.8,2.2-.2s1.5-3.6,1-3.1S142.7,73.6,140.3,73.5Z" transform="translate(-2 -3)"/><path class="j" d="M140.7,74.1c-1-.2,1.7.9,3-.1s2.2-3.8,1.5-3.4S143.8,74.5,140.7,74.1Z" transform="translate(-2 -3)"/><path class="a" d="M115.2,64.5c-.4-.9,5.2-3.5,10.8-5.5,7.6-2.8,14.6-2.3,19.1-1.9,8.8.8,22.2,8.8,22,9.2s-13.9-6.3-21.6-6.1a33.4,33.4,0,0,0-12.6,1.7c-3.2.9-6.9,3.1-9.5,2.8C118.6,64.2,115.6,65.4,115.2,64.5Z" transform="translate(-2 -3)"/><path class="i" d="M101.9,115.8c1.1-.3-3.6-1.3-4.4,2.7s2.7,5.3,2.7,4.3S95.7,117.8,101.9,115.8Z" transform="translate(-2 -3)"/><path class="k" d="M64.2,90.3s3.4-.1,14.1-3.1a67.9,67.9,0,0,1,8.1-1.5,43.9,43.9,0,0,1,7.5.6c1,.3-6.3-8.5-13.7-7.9S64.1,89.2,64.2,90.3Z" transform="translate(-2 -3)"/><ellipse class="k" cx="77.4" cy="84" rx="1" ry="1.1" transform="translate(-8 2.9) rotate(-4.2)"/><path class="k" d="M152.5,82.1s-3.4.4-14.4-1a71.6,71.6,0,0,0-8.3-.3,48.8,48.8,0,0,0-7.3,1.7c-1,.4,5-9.3,12.4-9.8S152.4,81,152.5,82.1Z" transform="translate(-2 -3)"/><ellipse class="k" cx="131.9" cy="78" rx="1" ry="1.1" transform="translate(-7.4 6.9) rotate(-4.2)"/><path class="l" d="M64.5,90.3s3.3-.1,14.1-3.1a51.7,51.7,0,0,1,8.1-1.5,44.7,44.7,0,0,1,7.5.6c1,.2-6.3-8.5-13.7-7.9S64.4,89.2,64.5,90.3Z" transform="translate(-2 -3)"/><path class="l" d="M152.2,82.1s-3.3.5-14.4-1a49.8,49.8,0,0,0-8.3-.2,39.2,39.2,0,0,0-7.3,1.6c-1,.4,5-9.3,12.4-9.8S152.1,81,152.2,82.1Z" transform="translate(-2 -3)"/><rect class="k" x="113.2" y="132.7" width="5.3" height="6.13" rx="1.5" transform="translate(-11.7 5.8) rotate(-4.2)"/><path class="k" d="M121.8,137.3l-1,.3a2,2,0,0,1-2.2-1.6l-.4-2a2,2,0,0,1,1.4-2.4l1-.2a1.7,1.7,0,0,1,2.1,1.6l.4,1.9A2,2,0,0,1,121.8,137.3Z" transform="translate(-2 -3)"/><path class="k" d="M125.7,136.4l-.7.2a1.9,1.9,0,0,1-2.2-1.6l-.3-1.8c-.3-1.1,3.9-2.2,4.2-1l.3,1.8A2,2,0,0,1,125.7,136.4Z" transform="translate(-2 -3)"/><path class="m" d="M129.7,134.9h-.6c-1,.3-1.9-.5-2.2-1.6l-.2-1.1c-.2-1.1,3.9-2.1,4.2-1l.2,1.1A2.1,2.1,0,0,1,129.7,134.9Z" transform="translate(-2 -3)"/><path class="n" d="M133.2,133.1l-.6.2a1.7,1.7,0,0,1-1.9-1.5l3.7-.9A1.8,1.8,0,0,1,133.2,133.1Z" transform="translate(-2 -3)"/><rect class="k" x="108.1" y="133.3" width="5.3" height="6.13" rx="1.5" transform="translate(229.2 261.3) rotate(175.8)"/><path class="k" d="M105.1,138.8h1A1.9,1.9,0,0,0,108,137v-2a2.1,2.1,0,0,0-1.7-2.2h-1a1.9,1.9,0,0,0-1.9,1.9v2A2,2,0,0,0,105.1,138.8Z" transform="translate(-2 -3)"/><path class="k" d="M101.1,138.4h.7a1.9,1.9,0,0,0,1.9-1.9v-1.8c.1-1.2-4.3-1.6-4.3-.4v1.8A1.9,1.9,0,0,0,101.1,138.4Z" transform="translate(-2 -3)"/><path class="m" d="M96.8,137.5h.7a1.9,1.9,0,0,0,1.9-1.9v-1.1c0-1.2-4.2-1.6-4.3-.4v1.1A2.2,2.2,0,0,0,96.8,137.5Z" transform="translate(-2 -3)"/><path class="n" d="M93.1,136.3h.7c.9.1,1.6-.6,1.7-1.7v-1.4s-3.8.1-3.9-.3v1.4A1.9,1.9,0,0,0,93.1,136.3Z" transform="translate(-2 -3)"/><path class="o" d="M136.5,129.3c-8.3,1.2-11,1.8-14.3,1s-8.7-1.3-9.4,1.8c-1.5-3-5.7-1.8-11,.3-3,1.2-7.3-.3-13.2.9-2.7.6,12.8,12.9,25.2,12S139.3,128.9,136.5,129.3Zm-23.4,13.4c-8.3,1.2-20.3-6.8-22.6-8,5.5.4,9.7,3.6,22.4,1.1,12.3.3,14.9-1.9,21.4-4.3C135.3,131.1,127.3,140.6,113.1,142.7Z" transform="translate(-2 -3)"/><circle class="p" cx="97" cy="99.3" r="0.4"/><circle class="p" cx="139.6" cy="101.5" r="0.4"/><circle class="p" cx="106.3" cy="95.7" r="0.7"/><circle class="p" cx="116.9" cy="98.9" r="0.6"/><circle class="p" cx="106.5" cy="103.9" r="0.3"/><circle class="p" cx="108.4" cy="100.1" r="0.3"/><circle class="p" cx="93.2" cy="103.8" r="0.7"/><circle class="p" cx="110.4" cy="91.5" r="0.1"/><circle class="p" cx="126.2" cy="89.3" r="0.9"/><circle class="p" cx="121.3" cy="98.8" r="0.3"/><circle class="p" cx="91.1" cy="99.1" r="0.3"/><circle class="p" cx="102.6" cy="92" r="0.3"/><circle class="p" cx="130.7" cy="99.6" r="0.6"/><circle class="p" cx="124.4" cy="107.2" r="0.6"/><circle class="p" cx="76.8" cy="104.3" r="0.7"/><circle class="p" cx="81.9" cy="108.3" r="0.4"/><path class="c" d="M59,59.3c-6.4,19.7-5.9,41.4-7.9,64.5-1.1,12.9-2.2,25.8-1.2,39.2s-.4,30.8,1,44.3c2.8,28.2,6.5,59.5,10.3,87.4,4.1,30,.5,32.8,16.9,76.4,1.4,3.7-13.1-67.8-17.4-147.9-.8-13.2-2.8-26.4-4.1-39.6s-2.8-26.6-2.3-39.8-7-25.5-5.6-37.1,7.1-24.7,10-34.5c7-24,5.7-23.8,13.6-35.8C73,35.2,68,31.8,59,59.3Z" transform="translate(-2 -3)"/><path class="a" d="M101.8,12c22-4.4,42.9,9.8,55.8,26.4a94.4,94.4,0,0,1,15.8,30.3c3.9,12.3,6.4,25.2,9.1,37.8,5.4,25.4,9.8,51,13.4,76.7s6.3,52,8.1,78.1,2.8,52.3,2.7,78.5v9.8c0,.4,2.9,0,2.9-.8q.3-39.9-2.1-79.8t-7.7-79.5q-5.2-39.3-13.2-78.1c-2.7-12.9-5.3-25.9-8.8-38.6a101.8,101.8,0,0,0-15-32.2c-12.2-17-31.4-31.5-53.2-30.5a43,43,0,0,0-7.2.9c-.4.1-1.7.3-1.7.8s.8.3,1.1.2Z" transform="translate(-2 -3)"/><path class="q" d="M110.3,19.7c8.8,1.4,16.5,6.1,23.1,12s14,15.2,19.4,23.9c12.2,19.3,20.9,41,27.6,62.7,7.2,23.3,11.6,47.4,14.2,71.6s3.5,49.3,4,74.1c.4,21.3,0,42.7-1.4,64-.2,3-.5,6-.7,9.1,0,.3.7.2.7-.1,1.7-22,2.5-44,2.2-66-.3-24.5-1-49-3.2-73.3s-6.3-49.4-13.2-73.3c-6.3-22.2-14.8-44.1-26.4-64.1-5.3-9-11.3-17.7-18.7-25.2s-13.4-11.9-21.8-14.6a35,35,0,0,0-5.6-1.3c-.3-.1-.7.4-.2.5Z" transform="translate(-2 -3)"/><path class="q" d="M99.2,16.1c4.4-.4,8.9,2,12.6,4.2a148.7,148.7,0,0,1,12.4,8.3,40.5,40.5,0,0,1,6.8,5.6c2.7,2.7,5.3,5.7,7.8,8.6,5,5.8,9.9,11.6,13.1,18.6A144,144,0,0,1,162.3,94c4.9,23.7,5.9,48,7.4,72.1s4.5,48.5,7,72.7,3.8,46.8,2.7,70.3c-.2,3.3-.4,6.6-.7,9.8,0,.7,1.5.5,1.5-.1a428.1,428.1,0,0,0-1.2-72.5c-2.4-24.3-5.6-48.4-7.3-72.6s-2.5-49.6-6.8-74.1c-2.1-11.5-4.9-23-9.4-33.8a64.8,64.8,0,0,0-5.7-11.5c-2.1-3.1-4.5-6-6.9-8.9s-5.4-6.3-8.2-9.4a50.1,50.1,0,0,0-6.2-6c-3.6-2.7-7.3-5.3-11.1-7.7s-8.2-5.2-12.8-6.6a13.5,13.5,0,0,0-5.3-.6c-.8.1-1.1,1.1-.1,1Z" transform="translate(-2 -3)"/><path class="i" d="M102.3,210.5c1.5-1.3.9-5.8-.4-13.6-.6-3.3-.3-.2-3.1-10.6-.4-1.4-.8-2.8-2-3.5s-4.8-4-6.9-3.6,4.3,14.8,6.7,28C97,209.2,100.7,211.9,102.3,210.5Z" transform="translate(-2 -3)"/><path class="r" d="M88,81.3a1.3,1.3,0,0,0-.1-.6c-4.2-2.6-7.8-3-12.2-.7v.3a3.1,3.1,0,0,0-.1,1,6.3,6.3,0,0,0,3.5,5.5,61.5,61.5,0,0,1,7.1-1.2,6.4,6.4,0,0,0,1.6-2.9A5.9,5.9,0,0,0,88,81.3Z" transform="translate(-2 -3)"/><path class="j" d="M85.6,80.9a3.8,3.8,0,1,1-7.6.5,4.2,4.2,0,0,1,.5-2.5,9.4,9.4,0,0,1,6.7.4A3.8,3.8,0,0,1,85.6,80.9Z" transform="translate(-2 -3)"/><path class="s" d="M145.9,76.8c-5-3.1-8.6-4-10.3-4a6.5,6.5,0,0,0-1.6,4,5.9,5.9,0,0,0,1.5,3.9l8,.9A6.1,6.1,0,0,0,145.9,76.8Z" transform="translate(-2 -3)"/><path class="j" d="M143.6,76.4a3.7,3.7,0,1,1-7.3.6,4.1,4.1,0,0,1,1.8-3.8,18.1,18.1,0,0,1,5.3,2.2A3.6,3.6,0,0,1,143.6,76.4Z" transform="translate(-2 -3)"/><circle class="k" cx="76.9" cy="77.8" r="1.2"/><circle class="k" cx="135.9" cy="71.8" r="1.2"/><path class="t" d="M191.2,271.3c1.2-2.6,2.3-2.2,3.5,0H250c-7.2-27.4-17.8-57.6-38.4-71-23.6-15.2-33.6-8.4-57.1-8.6-24.3,55.9-45.6,55-78.3,6.9-20.1,5.2-32.4.9-48.8,19C16.2,229.9,6.7,251.4,2,271.3Z" transform="translate(-2 -3)"/><path class="i" d="M90.6,170.5c4.5,2.7,8.2,8,10.9,10.9,8.8,9.5,9.1,13.6,9.1,14.9s-.5,3.9-2.5,3.6c-4.4-.6-6.6-5-8.1-9.3a17.8,17.8,0,0,0-12-12.2c-9.7-3.2-19.6,10.3-24.9,6.6-2.1-1.4-2.7-3.4-1.1-5s9.1-5.1,15.8-6.9S88.9,169.4,90.6,170.5Z" transform="translate(-2 -3)"/><path class="i" d="M74.3,194c4-.6,7,4.6,9.3,3.8,6.3-2.1,10.9-17.9,16.9-21.8s8.4-.2,6.6,5.4-5.4,11.9-9.1,18.5c-16,27.9-23.4,40.3-24.8,32.2S66.9,195.1,74.3,194Z" transform="translate(-2 -3)"/><path class="b" d="M201.5,133.3C196.3,112.5,151.9,28,140.7,18.6c-6.8-7.2-13.1-7.7-17.4-9.4-8.5-3.4-13.8-4.7-16.9-5-20.8-1.8,3,13.2,6.8,13.6,6.1.6,43.6,49.3,52.4,69.1,9.9,22,3.5,57.1,16.3,82.9s8.5,65.5,10.8,96.9c2.4,33.6,3.9,66.8,2.8,99.4-.8,22,12.6-65.9,9.8-103.6C202.7,227.4,203.2,140,201.5,133.3ZM149.3,29.7c3.1,4.1,4.5,10.4,9.1,11.3-.5-.7-1-1.5-1.6-2.2s-1.3-1.7-2-2.6C151.2,30.5,147,26.7,149.3,29.7Z" transform="translate(-2 -3)"/><path class="a" d="M213.1,231.1c-2.1-25.8-9.4-56.3-14.3-81.6s-7.6-43.9-15.9-67.1c-3.5-9.8-12.9-19.5-19.2-26.2s-18-22.3-22.5-23.8c-27.4-9.1-24.7-20.9-44-19.4-3.5.3,35.2,20,41.9,23.8s16.2,14.9,22.4,19.8,14,13.4,17.7,23.3c8.3,22,8.5,45.9,13.6,69.6s12.9,50.1,15,75.5c2.4,29.1,12.2,89.5,11.9,86.4Z" transform="translate(-2 -3)"/><path class="a" d="M89.5,9C97.2-2.9,45.3,41.1,41.1,122.7c-2.8,52.9,3.5,107.3,2.8,116.8-3.9,55.3,5.5,133.5,5.8,128C53.5,295.6,15.2,124,89.5,9Z" transform="translate(-2 -3)"/><path class="b" d="M96,3.7C92.8,1.1,65.9,6,57.4,14c-5.4,5.9-1.2,13-6.3,23.9-.1.1,5.2.7,5.2.8A174.7,174.7,0,0,0,41.4,76.1c-4.2,15.5-4.2,31.9-3.8,49.6.2,5.4.3,10.8.5,16.3-.9,38.9,1.4,76.1,2.4,81.9,8.6,48.7,3.8,126.5,4.7,121.4,3.7-20.7,1.6-58,.6-101.3a87.5,87.5,0,0,1,2.3,18.1c.3,8.7-.5,32.1.2,40.7,1.5,19.1,24.6,78.9,19,61-4.5-14.5-1.4-68-2.2-84.7-.7-13.1.2-27.6-2.7-40.4a221.1,221.1,0,0,1-5.8-41.2c-.7-14.6-1.3-29.2-1.7-43.8s-1.4-28.8-1.1-42.8,2.3-28.6,6.8-39.4,10.9-17.7,17-24.4C109.4,11.9,96,3.7,96,3.7Z" transform="translate(-2 -3)"/><path class="b" d="M94.7,4.1c-2.1-1.3-24.3.3-32.6,8.4S49.8,29,44.7,40.1c0,0,5.2.7,5.2.8A179,179,0,0,0,35.1,79c-4.2,15.7-4.2,32.4-3.7,50.4.1,5.5.3,11,.4,16.6-.8,39.6,1.6,77.5,2.6,83.4C43,279,38.3,358.1,39.2,352.9c3.7-21.1,1.6-59.1.4-103.1A83.8,83.8,0,0,1,42,268.2c.3,8.8-.4,32.6.3,41.5,1.5,19.4,24.7,80.2,19.1,62.1-4.6-14.9-1.6-69.2-2.4-86.2-.7-13.4.2-28.2-2.7-41.2a227.5,227.5,0,0,1-5.8-41.9c-.8-14.8-1.4-29.7-1.9-44.6s-1.4-29.3-1.1-43.5,4.4-26.7,9-37.8,8.6-20.3,14.7-27.1C103,13.7,94.7,4.1,94.7,4.1Z" transform="translate(-2 -3)"/><path class="c" d="M80.1,36.2c-6.3,1.8-12.6,4.1-18.3,8.9C52,53.2,66.6,83.1,46.6,94c-4.2,2.3,5.8,184.1,9.6,182.6-1.3,5.9-11.9-140.8-12.7-129-.9,14.3-1.9,28.7-1.9,43.4s1.3,29.6,3,44.4,3.3,30.6,4.2,45.9C50.9,316,55.3,388,55.3,384c.2-29.4,5.7-55.6,4.3-85.1-.6-14.5-7-32.3-8.5-46.7s-3.5-28.8-4.4-43.3a360.7,360.7,0,0,1,.1-41.6c.7-12.9,4.4-73,4.1-77.1-2.7-20.1,10-35,19.1-41.7,5.1-3.7,5.7-7,11.2-8.5S98.9,18.2,98.9,18C97,15.3,87.1,34.2,80.1,36.2ZM183.5,84c-1.7-3.1-6.3-21.4-8.6-24.4s-3-10.7-7.5-12.9c-6.6-3.2-40-19.7-34.6-30.8,8.3.6,40.9,31.8,44.1,38.5,14.8,31.4,17,45,19.4,56.3C195.8,109.5,184.1,85.1,183.5,84Z" transform="translate(-2 -3)"/><path class="a" d="M35.3,54.2C30,61.2,25.2,78,24.1,90.4c-1.3,14.6-1.1,29.7-.4,44.8s1.8,32.1,2.7,48.1c2,32.7,4.1,65.5,6.8,98.2,3,36.3,15.9,110.5,15.4,106-7.2-62.2-12.5-124.8-16.3-187.4-1-15.5-1.9-30.9-2.8-46.4s.4-33.9,1.5-48.6c2.8-36,14.8-38.9,21.8-57.6,4.6-12.3,10-15.7,17.8-20.2S96.8,11.8,95.3,10.7C90.5,7,70,8.6,35.3,54.2Z" transform="translate(-2 -3)"/><path class="q" d="M92.7,11.3c-7.7-3-15.5,2.3-21.1,7.2-7.4,6.7-13.8,15-19.2,23.3C45.8,52.2,43.7,64.1,42,76s-2.8,25.4-3.4,38.2c-1,25.8-.3,51.8.4,77.6s2.1,52.8,3.8,79.1c.8,13.2,2,26.3,2.7,39.5a122.7,122.7,0,0,1-.4,20.1c-.7,6.2-1.6,12.4-1.8,18.6a67.7,67.7,0,0,0,.3,9c.1.4,1.5.1,1.5-.4-1.5-12.4,1.8-24.7,2.1-37.1s-1.3-24.9-2.1-37.3q-2.7-38.4-4.1-76.7c-.9-25.5-1.7-51-1.4-76.4.2-12.6.7-25.1,1.9-37.6s2.3-24.3,5.6-35.9S56.4,37.4,63.2,29A88.5,88.5,0,0,1,73.5,18.1c3.4-3,7.4-5.9,11.9-6.7a11.9,11.9,0,0,1,6.2.6c.4.2,1.7-.4,1.1-.7Z" transform="translate(-2 -3)"/><path class="c" d="M217.2,256.8c-3.6-32-6.8-64.2-11-96-3.3-25.7-8.2-52.7-18.8-72.3-2.8-5.1-6.1-9.2-9-14.1s-5.1-11.6-7.7-17.6a84,84,0,0,0-18.2-26.9C136.3,13.7,105.1,17.2,105,15.2,104.7,6,38.1,57,41.7,82.8c.3,1.6,8.9,193.8,10.2,192.7C50.5,281.7,40.6,92.7,39.7,99.4c-1.5,12.1-.4,27.5-1.2,40-1,15.1-2,30.3-2,45.7s1.4,31.2,3.2,46.9,3.4,32.2,4.4,48.4C46.3,317,51,393,51,388.8c.2-31,5.9-58.6,4.5-89.8-.7-15.3-7.5-34-9-49.3s-3.7-30.4-4.6-45.7a357.1,357.1,0,0,1,.1-43.9c.7-13.6,1.5-27.1,2.7-40.4,2-23.3,5.1-55.1,1.5-40.9-2.8-21.2,23.2-46.3,29-47.9S92.8,17.4,99.6,17.8c15.2.7,24,14,27.4,16.5,7.1,5.1,13.4,13.6,19.6,22.2,11.1,15.4,21.9,32,30.6,52.3a.9.9,0,0,1,.1.5,104.6,104.6,0,0,0,6.3,17.4c.4.7.7,1.4,1.1,2l2.5,7.9c1.6,6.5,2.9,13.2,4,20.2,2.3,13.8,4.4,27.8,6.4,41.8,4.2,28.3,7.9,56.9,9.4,85.7s1.1,60.8-3.4,89c-.6,4.2,6.1-11.4,6.7-17.2.2,4.2.4,8.3.5,12.5s3.8-24.1,3.5-35.4c.5,7.5,1.1,15,1.6,22.5s3.3,28.9,4,25.1c2.4-14,.5-29.8-.5-44.6L215.8,288q4.2,36.5,8.3,73.1C224.5,364.7,221,290.7,217.2,256.8ZM112,19.8a42,42,0,0,1,9.3-.6c6.2.3,11.7,4.4,16.5,8.3C130,22.7,121.2,19.7,112,19.8Zm72.1,61a39.5,39.5,0,0,0-6.5-8.7l-1.4-1.5a32.4,32.4,0,0,0-1.7-3.2,95.9,95.9,0,0,0-6.9-9.8c-2.3-4.7-4.2-8.9-9.2-10.6-8.3-2.8-15.2-10.9-16.7-17.6,3.1,2.4,17.4,13.4,20,16.1s5.4,4.3,8,6.7c9.3,8.3,13.6,20.4,16.2,32.3Z" transform="translate(-2 -3)"/><path class="c" d="M219.5,254.8c-3.6-32-6.8-64.2-11-96.1-3.3-25.6-15.8-63.3-18.8-72.2-2-5.9-6.1-9.2-9-14.2s-.4-12.6-8.2-24.3c-12-18-11-13.3-17.7-20.1-16.2-16.3-53.3-12.4-55.2-13.2s-1.7.8-1.4.7c-7.6.5-11.7,2.3-19.1,4.4s-13.2,4.3-19.2,9.3C49.6,37.7,40.4,57,44,80.7c.3,1.7,8.9,193.9,10.2,192.7C52.8,279.6,42.9,90.6,42,97.4c-1.5,12-.4,27.5-1.2,39.9-1,15.1-2,30.3-2,45.8S40.2,214.3,42,230s3.4,32.2,4.4,48.4c2.2,36.5,6.9,112.6,6.9,108.3.2-31,5.9-58.6,4.5-89.8-.7-15.3-7.5-34-9-49.3s-3.7-30.3-4.7-45.6a379.6,379.6,0,0,1,.2-44c.7-13.5,1.5-27.1,2.7-40.4,2-23.3,5.5-47.4,15.1-62.5C73.1,37.9,98,19.4,98.8,17.6c-1.6-1.2-22,13.2-33.7,25-7.7,7.8-13,19.9-16.7,34.1C45.7,55.5,59.3,44.3,66.1,34.8c5.8-8,8.3-9.4,14.1-11s7.2-4.2,14.1-5.8c.9-.2,6.2-2.2,3.9-2.6.9.2,5.9,1.7,6.1,1.6,5.9-2.8,11.2-7.1,17.4-5.7-20.7-1.9-25.7.4-17.4,6.6.7.6,21.6,11.8,25,14.3,7.1,5.1,13.4,13.6,19.6,22.2,11.1,15.5,21.9,32,30.6,52.4a.6.6,0,0,1,.1.4,101.4,101.4,0,0,0,6.3,17.4l1.1,2.1,2.4,7.9c1.7,6.5,3,13.2,4.1,20.1,2.3,13.9,4.4,27.9,6.4,41.8,4.2,28.3,7.8,56.9,9.4,85.7,1.7,30.3,2.7,77.6,3.3,71.9.2,4.1,4.3-11.7,4-23,.5,7.5,1.1,15,1.6,22.5s2.7,2.4,3.3-1.4c2.4-14,1.2-3.2.2-18l-3.6-48.3q4.2,36.6,8.3,73.1C226.8,362.6,223.3,288.6,219.5,254.8ZM123.1,11c3.1-.4,7.4,11.2,10.5,11.3C139.7,22.7,132.3,11,123.1,11Zm49.7,25.7" transform="translate(-2 -3)"/><path class="c" d="M97.6,14.2c4.8-3,10.9,4.4,11.2,5.7s31.9,21.9,38,30.5c11.2,15.5,12.3,37.3,20.9,57.7.1.1.1.2.2.4,1.7,6.3,18.2,75.3,20.3,89.3,4.1,28.3,7.8,56.9,9.4,85.7s7.2,24.5,2.7,52.7c-.6,4.1.9,27.5,1.1,31.6s3.8-24.1,3.4-35.4c.6,7.5,1.2,15,1.6,22.5s.7-3.9,1.3-7.7c2.4-14,3.3,3,2.2-11.7s-2.4-32.2-3.5-48.3c2.7,24.4,5.5,48.7,8.2,73.1.4,3.6-3-70.4-6.9-104.2-3.6-32-6.8-64.2-11-96.1-3.3-25.6-8.2-52.7-18.8-72.2-2.8-5.2-6-9.2-8.9-14.2S163.8,62,161.3,56A83.6,83.6,0,0,0,143,29.2c-11.4-11.5-33.7-15.3-45.4-15m-4.5.1c-1.2-.1-18.3,4.6-25.7,6.7s-13.2,4.3-19.2,9.3C38,38.9,28.8,58.2,32.4,81.9c.2,1.7,8.8,193.9,10.1,192.7-1.4,6.2-11.3-182.8-12.2-176-1.5,12-.3,27.5-1.1,39.9-1.1,15.1-2.1,30.3-2.1,45.8s1.5,31.2,3.3,46.9,3.4,32.2,4.3,48.4c2.3,36.5,6.9,112.6,6.9,108.3.2-31,5.9-58.6,4.5-89.8-.7-15.3-7.4-34-8.9-49.2s-3.7-30.4-4.7-45.7-.6-29.5.1-44,1.6-27.1,2.7-40.4c2-23.3,5.5-47.4,15.2-62.5,10.9-17.2,14.7-24.3,3-12.5-7.7,7.8-13.1,19.9-16.7,34.1C34,56.7,51.1,44.6,60.6,37.6c5.4-4,2.2-11,8-12.6S97.4,14.2,98.2,15c.7-1-4.7-.7-5.1-.7m18.3-2.1a41.2,41.2,0,0,1,9.3-.6c6.1.3,11.7,4.4,16.4,8.4C129.3,15.2,120.6,12.1,111.4,12.2Zm72,61.1a43.1,43.1,0,0,0-6.4-8.8L175.6,63c-.6-1.1-1.1-2.1-1.8-3.2A107.2,107.2,0,0,0,167,50a109.2,109.2,0,0,0-7.9-13.6,105,105,0,0,0-13.3-15,41.5,41.5,0,0,1,8.5,7.7c2.3,2.9,4.1,6.2,6.7,8.8s5.5,4.4,8,6.7c9.4,8.4,13.6,20.4,16.2,32.3A30.2,30.2,0,0,0,183.4,73.3Z" transform="translate(-2 -3)"/><path class="a" d="M97.3,7.5c1.2.7,1.1,4.6,2.1,4.7s6.1,4.6,6.5,4.5a28.5,28.5,0,0,1,10.5,4.9c7.1,5.1,13.4,13.6,19.6,22.2,11.1,15.5,22,32,30.6,52.4.1.1.1.3.2.4a87,87,0,0,0,6.3,17.4,20,20,0,0,0,1,2.1c.9,2.6,1.7,5.2,2.5,7.9,1.6,6.5,2.9,13.2,4.1,20.1,2.2,13.9,4.3,27.8,6.4,41.8,4.1,28.3,7.8,56.9,9.4,85.7s2.7,77.6,3.3,71.9c.1,4.1.3,8.3.5,12.4s3.8-24.1,3.4-35.4c.6,7.5,1.2,15,1.6,22.5s3.4,28.9,4,25.1c2.4-14,.6-29.8-.5-44.5s-2.4-32.2-3.5-48.3c2.7,24.4,5.5,48.7,8.2,73.1.4,3.6-3-70.4-6.9-104.2-3.6-32-6.8-64.2-11-96.1-3.3-25.6-8.2-52.7-18.8-72.2-2.8-5.2-6-9.2-8.9-14.2a88.4,88.4,0,0,1-7.8-17.6c-4.4-13.6-14.8-14.5-21.5-21.3C128,12.1,108.6,9.2,97.3,7.5M97,6.9c-.2-1.3-27.8-9.5-48.5,15.3-7.9,9.6-19.1,25-17.3,47.9C31.3,71.8,40,264,41.3,262.8,39.9,269,30,80,29.1,86.7c-1.5,12.1-.3,27.6-1.2,40-1,15.1-2,30.3-2,45.7s1.4,31.3,3.2,47,3.4,32.2,4.4,48.4c2.3,36.5,6.9,112.6,6.9,108.3.2-31,5.9-58.6,4.5-89.8-.7-15.3-7.4-34-8.9-49.3s-3.7-30.3-4.7-45.6a358.7,358.7,0,0,1,.1-44c.7-13.5,1.6-27.1,2.7-40.4,2-23.3,5.5-47.4,15.2-62.5,10.9-17.2,14.6-24.3,3-12.5-7.7,7.8-13.1,19.9-16.7,34.1C32.8,44.9,49.9,32.8,59.4,25.8c5.4-4,3.6-8.5,7.9-12.6S83.1,9.5,87.4,9.9s9.6.3,9.6-3m82.3,63.2a39.5,39.5,0,0,0-6.5-8.7l-1.3-1.5-1.8-3.2a95.9,95.9,0,0,0-6.9-9.8A101.8,101.8,0,0,0,155,33.3c-3.9-5.4-16.9-6.2-21.9-10.7,3.2,2.2,13.2-.3,17.1,3.4s4.1,6.1,6.7,8.8,5.4,4.3,8,6.7c9.3,8.4,13.6,20.4,16.2,32.3Z" transform="translate(-2 -3)"/><path class="c" d="M93.8,12.1c-3.2.2-5.1.7-5,1.1m6.3-1.5c1-.2,21.4,13.5,24.8,15.9,7.1,5,19.2,11.7,25.4,20.1,11.1,15.2,12.8,34.9,21.5,55,0,.1.1.2.1.4a93.2,93.2,0,0,0,6.3,17.1c.3.7.7,1.3,1,2,.9,2.6,1.7,5.2,2.5,7.8,1.6,6.4,2.9,12.9,4,19.7,2.3,13.7,4.4,27.4,6.4,41.1,4.1,27.8,7.7,55.9,9.3,84.2s2.6,76.3,3.2,70.6c.1,4.1.3,8.2.5,12.3s3.8-23.7,3.5-34.9c.5,7.4,1.1,14.8,1.5,22.1s1,7.1,1.7,3.4c2.4-13.8,2.9-7.9,1.8-22.4s-2.3-31.7-3.4-47.5l8.1,71.9c.4,3.5-2.9-69.2-6.7-102.5-3.6-31.4-6.8-63-10.9-94.4-3.3-25.1-8.2-51.7-18.8-70.9-2.7-5-6-9-8.9-13.9s-5.1-11.4-7.7-17.3a81.6,81.6,0,0,0-18.2-26.3c-12.4-12.3-37.5-14.4-48.2-13.6m-5.1,1.6c.1.1-15.8.2-22.4,4.1-3.5,2.1-5.9,4.9-11.9,9.8C44.2,35.5,26.8,53.4,27,78.7c0,1.7,12.9,189,14.2,187.8C39.8,272.6,30.1,87,29.3,93.6c-1.6,11.8-.4,27-1.3,39.2-1,14.9-2,29.8-2.1,45s1.4,30.7,3.2,46.1,3.4,31.6,4.4,47.6c2.1,35.9,6.7,110.6,6.7,106.4.2-30.5,6-57.6,4.6-88.2-.7-15.1-7.4-33.5-8.9-48.4s-3.6-29.9-4.6-44.9a366,366,0,0,1,.2-43.2c.7-13.3,1.6-26.6,2.7-39.7C36.3,90.6,39.8,66.9,49.5,52,60.4,35.1,87.3,20.2,87.6,18S64.2,28.1,52.5,39.8c-7.7,7.7-13.1,19.5-16.7,33.5C33,52.5,50.1,40.5,59.6,33.6c5.4-3.9,2.2-10.8,8-12.3a105.7,105.7,0,0,1,20-3.3A8.2,8.2,0,0,0,91,16.2c.2,0,1.6-3.6,3.1-3.4m16.5-2.6a59.4,59.4,0,0,1,9.4-.6c6.1.4,11.7,4.4,16.4,8.3C128.6,13.2,119.8,10.2,110.6,10.2Zm72,60a41.8,41.8,0,0,0-6.4-8.6l-1.4-1.5c-.6-1-1.1-2.1-1.8-3.1a93.7,93.7,0,0,0-6.8-9.7A113.4,113.4,0,0,0,158.3,34c-3.8-5.3-7.2-10.1-4.7-7.1s4.1,6,6.7,8.5,5.7,3.8,8,6.6c11.9,14.8,6.5,30.6,16.1,31.7A38.4,38.4,0,0,0,182.6,70.2Z" transform="translate(-2 -3)"/><path class="e" d="M58.4,135c1.6-.7,5.2,2.1,6.8,6.9.5,1.6,0,2.7.6,7.8a80,80,0,0,1,.4,12.4c-.2,4.5,1.7,7.3,1.7,13.8s15.4-4.4,22.5,2.2c4.9,4.4,5.9,13.1,6.1,14.6.8,4.3-2.9,11.7-4.3,11.9s-3.3-2.2-3.6-4.4a19.3,19.3,0,0,1,.3-7.8c.4-.3-1.8-.8-2.3-4.2,0-.2-3.6,1-6.9.1-.4,4.8-2.5,4.2-2.3,5.3,4.6,34.3-1.7,40.9-2.9,41.8-1.3,6.2-4.5,22.3-5,33.3-.1.1-28.3,0-27.9,0,2.6-10.3,6.8-26.7,9.8-41.4,1-5,3.7-31,3.8-41,0-1.1.5-4.5,1-9s-.5-10.3.3-15.9,1.3-4.8,1.5-13.2S56.8,135.7,58.4,135Z" transform="translate(-2 -3)"/></svg>