<svg id="Layer_1" data-name="Layer 1" xmlns="http://www.w3.org/2000/svg" viewBox="0 0 88.8 89.4"><defs><style>.cls-1{fill:#e8eddf;}.cls-2{fill:none;}</style></defs><path class="cls-1" d="M6.7,82.8H66.9c2.7,0,5.5.1,8.2,0h.2a.5.5,0,0,0,0-1H6.7a.5.5,0,0,0,0,1Z" transform="translate(-0.2 -0.2)"/><path class="cls-1" d="M6.7,84.3H66.9c2.7,0,5.5.1,8.2,0h.2a.5.5,0,0,0,0-1H6.7a.5.5,0,0,0,0,1Z" transform="translate(-0.2 -0.2)"/><path class="cls-1" d="M6.7,85.8H67.2c2.7,0,5.5.1,8.3,0h.1a.5.5,0,1,0,0-1H6.7a.5.5,0,0,0,0,1Z" transform="translate(-0.2 -0.2)"/><path class="cls-1" d="M6.7,81.3H67.2c2.8,0,5.6.1,8.3,0h.1a.5.5,0,1,0,0-1H6.7a.5.5,0,0,0,0,1Z" transform="translate(-0.2 -0.2)"/><path class="cls-1" d="M45.8,51.5" transform="translate(-0.2 -0.2)"/><ellipse class="cls-2" cx="81.7" cy="82.8" rx="7" ry="4.6"/><path class="cls-1" d="M8.5,86.5c-1.2-1.8-1.5-3.9,0-7H78.6a2,2,0,0,0,0-3.1H4.6c-4,4.6-3.5,9,0,13.3h74a2.3,2.3,0,0,0,0-3.2Z" transform="translate(-0.2 -0.2)"/><path class="cls-1" d="M37,51.3c3.8,5.3,8.4.7,10.5-3.1a3.9,3.9,0,0,1,3-1.7,15.4,15.4,0,0,0-.9,2.8c-1.1,3.5-3.1,5.6-4.7,6.2s-3.5,4.9-3.1,7.1S36.9,51.9,37,51.3Z" transform="translate(-0.2 -0.2)"/><path class="cls-1" d="M31,41.8c-6.6,7-7-1-10.1-4.2a2.8,2.8,0,0,0-3.1-.4c.5.2,4.5,8.8,5.3,9.6,3,3,4.3,1.1,5.9,1.4s3,3.8,3.8,5.9S30.7,43.1,31,41.8Z" transform="translate(-0.2 -0.2)"/><path class="cls-1" d="M4.6,76.4c-1.9,0,23.2-1.6,28.6-5.4s4.1-7-2.4-20.3c-4.1-8.4-2-12-.4-14a11.3,11.3,0,0,1,10.8-3.9c2.4.5,5.6,2.2,6.2,5.1s-.2,3.5-1,3.7-1.4-.7-4.6-1.7-5.8.6-6.6,2.8,2.1,8.9,3,11.1c2,5.1,6.5,14,10.3,16.4,9.9,6.1,21,4.9,30.1,6.2Z" transform="translate(-0.2 -0.2)"/><path class="cls-1" d="M5,25.8s2.3-6.1,6.6-6c2.3.1,5.1,1,6,3.1,0,0,1.2,3.2.2,5,0,0,4-2.2,5.5-1.4a5.3,5.3,0,0,1,3.6,5c.3,3.7-.1,6.2-3.7,6,0,0,.4,9.6-9.9,7.4,0,0-12.4,5.6-9.9-7.2C3.4,37.7-4.7,30.2,5,25.8Z" transform="translate(-0.2 -0.2)"/><path class="cls-1" d="M24.5,5.3c-3.6-1-14.5,3.6-8.9,14.5-2.5-.2-5.5,7.8,7.2,11,0,0-1.9,6.8,6.9,9,1.9.5,6.6-.9,9.4-5.4,0,0,6.7,12.6,15.8,3.7.6.9,15,10.5,13.9-6.7-1.5.2,9.3-6.5,1.4-15.7,0,0,.9-10.8-9-9.8,0,0-5.9-8.5-18.6-2C42.6,3.9,33.3-5.2,24.5,5.3Z" transform="translate(-0.2 -0.2)"/><path class="cls-1" d="M51.5,52.7A10.8,10.8,0,0,0,65.4,55a10.2,10.2,0,0,0,4.3-4.6s9.4-2.3,1.6-9.7c-.2-9.8-11.4-4.4-11.4-4.4-9.2-4.6-12.5,5.3-12.5,5.3C36.9,49.3,51.5,52.7,51.5,52.7Z" transform="translate(-0.2 -0.2)"/></svg>